<?xml version="1.0" encoding="UTF-8" standalone="no"?>
<svg
   xmlns:dc="http://purl.org/dc/elements/1.1/"
   xmlns:cc="http://creativecommons.org/ns#"
   xmlns:rdf="http://www.w3.org/1999/02/22-rdf-syntax-ns#"
   xmlns:svg="http://www.w3.org/2000/svg"
   xmlns="http://www.w3.org/2000/svg"
   xmlns:sodipodi="http://sodipodi.sourceforge.net/DTD/sodipodi-0.dtd"
   xmlns:inkscape="http://www.inkscape.org/namespaces/inkscape"
   inkscape:version="1.0 (4035a4fb49, 2020-05-01)"
   height="64.210526"
   width="50"
   sodipodi:docname="characteristics-icon-02.svg"
   xml:space="preserve"
   viewBox="0 0 50 64.210526"
   y="0px"
   x="0px"
   id="Layer_1"
   version="1.1"><metadata
   id="metadata45"><rdf:RDF><cc:Work
       rdf:about=""><dc:format>image/svg+xml</dc:format><dc:type
         rdf:resource="http://purl.org/dc/dcmitype/StillImage" /><dc:title></dc:title></cc:Work></rdf:RDF></metadata><defs
   id="defs43" /><sodipodi:namedview
   inkscape:current-layer="Layer_1"
   inkscape:window-maximized="1"
   inkscape:window-y="-9"
   inkscape:window-x="-9"
   inkscape:cy="24.89"
   inkscape:cx="19"
   inkscape:zoom="20.16"
   fit-margin-bottom="0"
   fit-margin-right="0"
   fit-margin-left="0"
   fit-margin-top="0"
   showgrid="false"
   id="namedview41"
   inkscape:window-height="1271"
   inkscape:window-width="2400"
   inkscape:pageshadow="2"
   inkscape:pageopacity="0"
   guidetolerance="10"
   gridtolerance="10"
   objecttolerance="10"
   borderopacity="1"
   bordercolor="#666666"
   pagecolor="#ffffff" />
<style
   id="style2"
   type="text/css">
	.st0{fill:none;stroke:#77B0DF;stroke-width:2;stroke-linecap:round;stroke-linejoin:round;stroke-miterlimit:10;}
</style>
<g
   transform="matrix(1.3157895,0,0,1.3157895,-7.894737,-0.14473685)"
   id="g38">
	<path
   id="path4"
   d="m 39.4,6.51 h -7.7 c 1.43,0.96 2.3,2.22 2.3,3.6 H 16 c 0,-1.38 0.87,-2.64 2.3,-3.6 H 10.6 C 8.61,6.51 7,8.12 7,10.11 v 34.2 c 0,1.99 1.61,3.6 3.6,3.6 h 28.8 c 1.99,0 3.6,-1.61 3.6,-3.6 v -34.2 c 0,-1.99 -1.61,-3.6 -3.6,-3.6 z"
   class="st0" />
	<path
   id="path6"
   d="M 28.56,5.15 C 28.57,5 28.6,4.86 28.6,4.71 c 0,-1.99 -1.61,-3.6 -3.6,-3.6 -1.99,0 -3.6,1.61 -3.6,3.6 0,0.15 0.03,0.29 0.04,0.44 C 18.24,5.97 16,7.88 16,10.11 H 34 C 34,7.88 31.76,5.97 28.56,5.15 Z"
   class="st0" />
	<g
   id="g36">
		<g
   id="g20">
			<g
   id="g12">
				<path
   id="path8"
   d="m 19.85,25.81 h -5.62 c -0.78,0 -1.41,-0.63 -1.41,-1.41 v -5.62 c 0,-0.78 0.63,-1.41 1.41,-1.41 h 1.61 v 0.02 h -1.61 c -0.77,0 -1.39,0.63 -1.39,1.39 v 5.62 c 0,0.77 0.63,1.39 1.39,1.39 h 5.62 c 0.77,0 1.39,-0.63 1.39,-1.39 v -1.61 h 0.02 v 1.61 c 0.01,0.78 -0.63,1.41 -1.41,1.41 z"
   class="st0" />
				<polygon
   id="polygon10"
   points="15.78,21.13 16.9,22.24 21.25,17.9 21.26,17.91 16.9,22.27 16.9,22.26 15.77,21.14 "
   class="st0" />
			</g>
			<g
   id="g18">
				<rect
   id="rect14"
   height="0.02"
   width="10.3"
   class="st0"
   y="19.24"
   x="26.870001" />
				<rect
   id="rect16"
   height="0.02"
   width="10.3"
   class="st0"
   y="23.92"
   x="26.870001" />
			</g>
		</g>
		<g
   id="g34">
			<g
   id="g26">
				<path
   id="path22"
   d="m 19.85,40.79 h -5.62 c -0.78,0 -1.41,-0.63 -1.41,-1.41 v -5.62 c 0,-0.78 0.63,-1.41 1.41,-1.41 h 1.61 v 0.02 h -1.61 c -0.77,0 -1.39,0.63 -1.39,1.39 v 5.62 c 0,0.77 0.63,1.39 1.39,1.39 h 5.62 c 0.77,0 1.39,-0.63 1.39,-1.39 v -1.61 h 0.02 v 1.61 c 0.01,0.77 -0.63,1.41 -1.41,1.41 z"
   class="st0" />
				<polygon
   id="polygon24"
   points="15.78,36.1 16.9,37.22 21.25,32.87 21.26,32.89 16.9,37.25 16.9,37.24 15.77,36.12 "
   class="st0" />
			</g>
			<g
   id="g32">
				<rect
   id="rect28"
   height="0.02"
   width="10.3"
   class="st0"
   y="34.220001"
   x="26.870001" />
				<rect
   id="rect30"
   height="0.02"
   width="10.3"
   class="st0"
   y="38.900002"
   x="26.870001" />
			</g>
		</g>
	</g>
</g>
</svg>
