<?xml version="1.0" encoding="UTF-8" standalone="no"?>
<svg
   xmlns:dc="http://purl.org/dc/elements/1.1/"
   xmlns:cc="http://creativecommons.org/ns#"
   xmlns:rdf="http://www.w3.org/1999/02/22-rdf-syntax-ns#"
   xmlns:svg="http://www.w3.org/2000/svg"
   xmlns="http://www.w3.org/2000/svg"
   xmlns:sodipodi="http://sodipodi.sourceforge.net/DTD/sodipodi-0.dtd"
   xmlns:inkscape="http://www.inkscape.org/namespaces/inkscape"
   inkscape:version="1.0 (4035a4fb49, 2020-05-01)"
   height="1038.6816"
   width="1256.6013"
   sodipodi:docname="header.svg"
   xml:space="preserve"
   viewBox="0 0 1256.6013 1038.6816"
   y="0px"
   x="0px"
   id="Layer_1"
   version="1.1"><metadata
   id="metadata1010"><rdf:RDF><cc:Work
       rdf:about=""><dc:format>image/svg+xml</dc:format><dc:type
         rdf:resource="http://purl.org/dc/dcmitype/StillImage" /><dc:title></dc:title></cc:Work></rdf:RDF></metadata><defs
   id="defs1008" /><sodipodi:namedview
   inkscape:current-layer="Layer_1"
   inkscape:window-maximized="1"
   inkscape:window-y="-9"
   inkscape:window-x="-9"
   inkscape:cy="626.24478"
   inkscape:cx="937.35545"
   inkscape:zoom="0.70121422"
   fit-margin-bottom="0"
   fit-margin-right="0"
   fit-margin-left="0"
   fit-margin-top="0"
   showgrid="false"
   id="namedview1006"
   inkscape:window-height="1271"
   inkscape:window-width="2400"
   inkscape:pageshadow="2"
   inkscape:pageopacity="0"
   guidetolerance="10"
   gridtolerance="10"
   objecttolerance="10"
   borderopacity="1"
   bordercolor="#666666"
   pagecolor="#ffffff" />
<style
   id="style511"
   type="text/css">
	.st0{fill:#2089DA;}
	.st1{fill:#E7C472;}
	.st2{fill:#E78672;}
	.st3{fill:#CBC7FF;}
	.st4{fill:#343470;}
	.st5{fill:#171733;}
	.st6{opacity:0.7;}
	.st7{fill:url(#SVGID_1_);}
	.st8{fill:url(#SVGID_2_);}
	.st9{fill:#D8D8DC;}
	.st10{fill:#0C252E;}
	.st11{fill:#FFFFFF;}
	.st12{opacity:0.25;fill:#FFFFFF;}
	.st13{fill:#A5D8FF;}
	.st14{fill:#77AFDA;}
	.st15{fill:#696996;}
	.st16{fill:#58588A;}
	.st17{fill:#292969;}
	.st18{fill:#E77295;}
	.st19{fill:#E25483;}
	.st20{fill:#5F92FD;}
	.st21{fill:#525285;}
	.st22{fill:#89AFFD;}
	.st23{fill:#B9AEF0;}
	.st24{fill:#D1CAF5;}
	.st25{fill:#7D6BE3;}
	.st26{opacity:0.7;fill:#CBC7FF;}
	.st27{fill:#E0C1A7;}
	.st28{fill:#50D6E6;}
	.st29{fill:#48D5E5;}
	.st30{fill:#FFD9AA;}
	.st31{fill:#05C5DB;}
	.st32{fill:#6EDDEA;}
	.st33{fill:#7BE0EC;}
	.st34{fill:#D85682;}
	.st35{fill:#E05180;}
	.st36{fill:#93A9E8;}
	.st37{opacity:0.34;fill:#FFFFFF;}
	.st38{fill:#E761A5;}
	.st39{fill:#246AFC;}
	.st40{fill:#FFCB8A;}
	.st41{fill:#757575;}
	.st42{fill:#8472E4;}
	.st43{fill:#F6D4C6;}
	.st44{fill:#313149;}
	.st45{fill:#F5CFBF;}
	.st46{fill:url(#SVGID_3_);}
	.st47{opacity:0.58;fill:#CBC7FF;}
	.st48{fill:#414179;}
	.st49{fill:#F29D9D;}
	.st50{fill:#BD422A;}
	.st51{fill:#5F48DC;}
	.st52{fill:#103FCD;}
	.st53{fill:#8D3F7B;}
	.st54{fill:url(#SVGID_4_);}
	.st55{fill:#C3B9DD;}
	.st56{opacity:0.74;fill:#CBC7FF;}
	.st57{fill:#E34998;}
	.st58{fill:#32CFE1;}
	.st59{fill:#FFE0BA;}
	.st60{fill:#ADA2ED;}
</style>
<g
   transform="translate(-331.24,-19.715898)"
   id="g571">
	<g
   id="g525">
		
			<rect
   id="rect513"
   height="60.34"
   width="105.36"
   class="st0"
   transform="rotate(180,433.9567,624.15055)"
   y="593.97998"
   x="381.28" />
		
			<rect
   id="rect515"
   height="77.519997"
   width="105.36"
   class="st1"
   transform="rotate(180,433.9567,693.08105)"
   y="654.32001"
   x="381.28" />
		
			<rect
   id="rect517"
   height="111.59"
   width="105.36"
   class="st2"
   transform="rotate(180,433.9567,787.6367)"
   y="731.84003"
   x="381.28" />
		
			<rect
   id="rect519"
   height="60.34"
   width="26.34"
   class="st3"
   transform="rotate(180,394.4456,624.15055)"
   y="593.97998"
   x="381.28" />
		
			<rect
   id="rect521"
   height="77.519997"
   width="26.34"
   class="st3"
   transform="rotate(180,394.4456,693.08105)"
   y="654.32001"
   x="381.28" />
		
			<rect
   id="rect523"
   height="111.59"
   width="26.34"
   class="st3"
   transform="rotate(180,394.4456,787.6367)"
   y="731.84003"
   x="381.28" />
	</g>
	<g
   id="g531">
		
			<circle
   r="14.63"
   id="ellipse527"
   cy="869.94"
   cx="483.72"
   class="st4"
   transform="matrix(0.8329,-0.5534,0.5534,0.8329,-400.5806,413.0027)" />
		
			<circle
   r="7.6799998"
   id="ellipse529"
   cy="869.94"
   cx="483.72"
   class="st5"
   transform="matrix(0.9766,-0.2152,0.2152,0.9766,-175.8414,124.4475)" />
	</g>
	<g
   id="g537">
		
			<circle
   r="14.63"
   id="ellipse533"
   cy="869.94"
   cx="369.79999"
   class="st4"
   transform="matrix(0.9175,-0.3978,0.3978,0.9175,-315.5485,218.9071)" />
		
			<circle
   r="7.6799998"
   id="ellipse535"
   cy="869.94"
   cx="369.79999"
   class="st5"
   transform="matrix(0.9893,-0.1462,0.1462,0.9893,-123.1964,63.4031)" />
	</g>
	<g
   id="g565"
   class="st6">
		<g
   id="g543">
			<path
   id="path539"
   d="m 383.1,863.86 h -26.6 c 2.31,-5.04 7.39,-8.55 13.3,-8.55 5.91,-0.01 10.99,3.51 13.3,8.55 z"
   class="st3" />
			<path
   id="path541"
   d="m 497.02,863.86 h -26.6 c 2.31,-5.04 7.39,-8.55 13.3,-8.55 5.91,0 10.99,3.51 13.3,8.55 z"
   class="st3" />
		</g>
		<g
   id="g563">
			<linearGradient
   y2="863.85931"
   x2="369.80069"
   y1="855.30432"
   x1="369.80069"
   gradientUnits="userSpaceOnUse"
   id="SVGID_1_">
				<stop
   id="stop545"
   style="stop-color:#56BFF0"
   offset="0" />
				<stop
   id="stop547"
   style="stop-color:#6E98FF"
   offset="0.5624" />
				<stop
   id="stop549"
   style="stop-color:#8566FF"
   offset="1" />
			</linearGradient>
			<path
   style="fill:url(#SVGID_1_)"
   id="path552"
   d="m 383.1,863.86 h -26.6 c 2.31,-5.04 7.39,-8.55 13.3,-8.55 5.91,-0.01 10.99,3.51 13.3,8.55 z"
   class="st7" />
			<linearGradient
   y2="863.85931"
   x2="483.71979"
   y1="855.30432"
   x1="483.71979"
   gradientUnits="userSpaceOnUse"
   id="SVGID_2_">
				<stop
   id="stop554"
   style="stop-color:#56BFF0"
   offset="0" />
				<stop
   id="stop556"
   style="stop-color:#6E98FF"
   offset="0.5624" />
				<stop
   id="stop558"
   style="stop-color:#8566FF"
   offset="1" />
			</linearGradient>
			<path
   style="fill:url(#SVGID_2_)"
   id="path561"
   d="m 497.02,863.86 h -26.6 c 2.31,-5.04 7.39,-8.55 13.3,-8.55 5.91,0 10.99,3.51 13.3,8.55 z"
   class="st8" />
		</g>
	</g>
	<path
   id="path567"
   d="m 338.2,857.36 h 181.42 c 3.85,0 6.96,-3.12 6.96,-6.96 0,-3.84 -3.12,-6.96 -6.96,-6.96 H 338.2 c -3.85,0 -6.96,3.12 -6.96,6.96 0,3.84 3.11,6.96 6.96,6.96 z"
   class="st5" />
	<path
   id="path569"
   d="m 338.36,731.84 h -0.29 c -3.77,0 -6.83,3.06 -6.83,6.83 V 847.82 H 345.2 V 738.68 c -0.01,-3.78 -3.07,-6.84 -6.84,-6.84 z"
   class="st5" />
</g>
<g
   transform="translate(-331.24,-19.715898)"
   id="g599">
	<path
   id="path573"
   d="M 1293.64,885.3 H 599.29 c -26.13,0 -47.32,-21.18 -47.32,-47.32 V 436.12 c 0,-26.13 21.18,-47.32 47.32,-47.32 h 694.35 c 26.13,0 47.32,21.18 47.32,47.32 v 401.86 c 0,26.13 -21.19,47.32 -47.32,47.32 z"
   class="st9" />
	<path
   id="path575"
   d="m 1287.46,893.87 h -692.4 c -27.64,0 -50.04,-22.4 -50.04,-50.04 V 442.01 c 0,-27.64 22.4,-50.04 50.04,-50.04 h 692.4 c 27.64,0 50.04,22.4 50.04,50.04 v 401.82 c 0,27.63 -22.41,50.04 -50.04,50.04 z"
   class="st10" />
	<path
   id="path577"
   d="M 1293.33,888.51 H 593.17 c -24.53,0 -44.41,-19.88 -44.41,-44.41 V 436.43 c 0,-24.53 19.88,-44.41 44.41,-44.41 h 700.16 c 24.53,0 44.41,19.88 44.41,44.41 V 844.1 c 0,24.53 -19.88,44.41 -44.41,44.41 z"
   class="st5" />
	<rect
   id="rect579"
   height="474.28"
   width="686.53003"
   class="st11"
   y="403.13"
   x="599.98999" />
	<path
   id="path581"
   d="M 1287.86,878.74 H 598.65 V 401.79 h 689.21 z m -686.53,-2.68 h 683.85 V 404.46 H 601.33 Z" />
	<path
   id="path583"
   d="M 984.12,392.02 H 593.17 c -24.53,0 -44.41,19.88 -44.41,44.41 V 844.1 c 0,24.53 19.88,44.41 44.41,44.41 h 43.8 z"
   class="st12" />
	<path
   id="path585"
   d="m 580.19,635.24 c 0,2.37 -1.92,4.29 -4.29,4.29 -2.37,0 -4.29,-1.92 -4.29,-4.29 0,-2.37 1.92,-4.29 4.29,-4.29 2.37,0 4.29,1.92 4.29,4.29 z" />
	<rect
   id="rect587"
   height="26.01"
   width="113.13"
   class="st13"
   y="421.03"
   x="616.53998" />
	
		<rect
   id="rect589"
   height="26.01"
   width="177.35001"
   class="st0"
   transform="rotate(180,761.20925,434.0355)"
   y="421.03"
   x="672.53998" />
	
		<rect
   id="rect591"
   height="12.57"
   width="177.35001"
   class="st0"
   transform="rotate(180,1182.6488,857.9214)"
   y="851.63"
   x="1093.98" />
	<rect
   id="rect593"
   height="16.41"
   width="16.41"
   class="st14"
   y="473.60999"
   x="616.53998" />
	<rect
   id="rect595"
   height="16.41"
   width="16.41"
   class="st14"
   y="501.13"
   x="616.53998" />
	<rect
   id="rect597"
   height="16.41"
   width="16.41"
   class="st0"
   y="528.64001"
   x="616.53998" />
</g>
<g
   transform="translate(-331.24,-19.715898)"
   id="g617">
	<path
   id="path601"
   d="M 697.75,541.7 562.56,683.52 c 9.48,3.86 19,7.59 28.48,11.26 L 697.75,572.72 Z"
   class="st4" />
	<path
   id="path603"
   d="m 697.69,541.7 h -20.14 c -5.54,0 -10.81,2.37 -14.49,6.51 L 548.19,677.52 c 7,3 14.04,5.89 21.1,8.72 z"
   class="st15" />
	<path
   id="path605"
   d="m 917.24,707.36 c -26.53,0 -51.87,-11.37 -69.51,-31.19 L 732.04,547.07 c -3.06,-3.42 -7.43,-5.37 -12.02,-5.37 h -20.86 v 31.03 h 2.31 l 130.14,146.22 c 21.75,24.44 52.91,38.42 85.62,38.42 h 360.72 c 0.54,-16.62 2.15,-33.21 3.32,-49.99 H 917.24 Z"
   class="st16" />
	<path
   id="path607"
   d="m 907.31,728.93 c -26.53,0 -48.62,-7.94 -66.26,-27.76 L 699.16,541.7 v 31.03 l 125.78,142.79 c 21.75,24.44 59.59,41.85 92.3,41.85 h 360.72 c 0.31,-9.47 0.96,-18.94 1.69,-28.43 H 907.31 Z"
   class="st17" />
	<path
   id="path609"
   d="m 603.15,585.03 41.21,262 c 5.86,37.25 35.78,66.4 67.04,66.4 h 141.7 c -0.29,-1 -4.53,-13.98 -10.97,-33.8 -10.77,-1.86 -21.2,-6.21 -29.1,-13.95 -8.27,-8.1 -12.78,-19.25 -14.44,-30.55 -0.17,-1.14 -0.22,-2.28 -0.17,-3.4 -2.04,-7.24 -3.35,-14.82 -4.34,-22.16 -2.42,-17.81 -4.76,-35.54 -6.5,-53.43 -1.74,-17.91 -3.67,-35.76 -7.61,-53.35 -0.92,-4.12 0.13,-8.37 2.71,-11.4 -7.76,-26.05 -13.11,-45.59 -13.67,-51.64 -2.1,-22.68 1.58,-44.83 -3.86,-67.03 h -154.7 c -5.11,0 -8.37,5.53 -7.3,12.31 z m 124.64,240.58 h 29.77 l 3.37,34.69 H 731.7 Z m -7.54,-66.99 h 30.8 l 3.61,37.11 h -30.23 z m -8.07,-71.8 h 31.9 l 3.87,39.78 h -31.29 z m -3.87,-34.36 -4.81,-42.76 h 33.09 l 4.16,42.76 z m -38.77,173.15 h 29.77 l 4.41,34.69 h -29.24 z m -9.55,-66.99 h 30.8 l 4.72,37.11 h -30.23 z m -10.24,-71.8 h 31.9 l 5.06,39.78 h -31.29 z m -11,-77.12 h 33.09 l 5.44,42.76 h -32.43 z"
   class="st18" />
	<path
   id="path611"
   d="m 603.15,585.03 41.21,262 c 5.86,37.25 35.78,66.4 67.04,66.4 h 141.7 c -1.3,-4.47 -7.45,-18.13 -15.88,-36.39 -0.75,-0.09 -1.5,-0.26 -2.24,-0.55 -5.4,-2.11 -11.31,-3.46 -16.21,-6.71 -6.51,-4.32 -10.21,-10.65 -13.06,-17.72 -5.4,-13.4 -5.63,-28.21 -7.2,-42.23 -0.38,-3.46 1.12,-6.64 3.53,-8.9 C 784.02,761.14 771.27,664.22 769,639.76 c -2.1,-22.68 1.58,-44.83 -3.86,-67.03 h -154.7 c -5.1,-0.01 -8.36,5.52 -7.29,12.3 z m 124.64,240.58 h 29.77 l 3.37,34.69 H 731.7 Z m -7.54,-66.99 h 30.8 l 3.61,37.11 h -30.23 z m -8.07,-71.8 h 31.9 l 3.87,39.78 H 716.66 Z M 703.5,609.7 h 33.09 l 4.16,42.76 h -32.43 z m -33.96,215.91 h 29.77 l 4.41,34.69 h -29.24 z m -9.55,-66.99 h 30.8 l 4.72,37.11 h -30.23 z m -10.24,-71.8 h 31.9 l 5.06,39.78 h -31.29 z m -11,-77.12 h 33.09 l 5.44,42.76 h -32.43 z"
   class="st19" />
	<path
   id="path613"
   d="m 524.56,723.39 42.41,-1.07 24.07,-27.53 c -9.48,-3.67 -19,-7.4 -28.48,-11.26 z"
   class="st4" />
	<polygon
   id="polygon615"
   points="1339.53,722.32 1381.94,723.39 1208.75,541.7 1208.75,572.72 "
   class="st17" />
</g>
<g
   transform="translate(-331.24,-19.715898)"
   id="g627">
	<path
   id="path619"
   d="M 899.06,649.53 H 699.48 c -0.99,0 -1.8,-0.81 -1.8,-1.8 V 464.94 h 203.18 v 182.79 c 0,0.99 -0.8,1.8 -1.8,1.8 z"
   class="st14" />
	<path
   id="path621"
   d="m 849.19,464.94 v 182.79 h -151.5 c 0,0.99 0.81,1.8 1.8,1.8 h 199.58 c 0.99,0 1.8,-0.81 1.8,-1.8 V 464.94 Z"
   class="st3" />
	<rect
   id="rect623"
   height="182.78999"
   width="1.71"
   class="st20"
   y="464.94"
   x="847.46997" />
	<path
   id="path625"
   d="M 898.89,462.96 H 699.66 c -1.09,0 -1.98,0.88 -1.98,1.98 h 203.18 c 0,-1.09 -0.88,-1.98 -1.97,-1.98 z"
   class="st20" />
</g>
<g
   transform="translate(-331.24,-19.715898)"
   id="g637">
	<path
   id="path629"
   d="m 1226.54,866.25 h -164.6 c -1.04,0 -1.88,-0.84 -1.88,-1.88 V 622.36 h 168.36 v 242.01 c 0,1.03 -0.84,1.88 -1.88,1.88 z"
   class="st0" />
	<path
   id="path631"
   d="m 1185.6,622.36 v 241.51 h -125.54 c 0,1.31 0.67,2.38 1.49,2.38 h 165.38 c 0.82,0 1.49,-1.06 1.49,-2.38 V 622.36 Z"
   class="st3" />
	<rect
   id="rect633"
   height="241.50999"
   width="1.42"
   class="st20"
   y="622.35999"
   x="1184.1801" />
	<path
   id="path635"
   d="m 1226.36,619.75 h -164.23 c -1.14,0 -2.07,0.93 -2.07,2.07 v 0.54 h 168.36 v -0.54 c 0,-1.15 -0.92,-2.07 -2.06,-2.07 z"
   class="st20" />
</g>
<g
   transform="translate(-331.24,-19.715898)"
   id="g647">
	<path
   id="path639"
   d="M 1098.41,860.84 H 899.94 c -1.3,0 -2.35,-1.05 -2.35,-2.35 V 545.34 h 203.18 v 313.15 c -0.01,1.3 -1.06,2.35 -2.36,2.35 z"
   class="st17" />
	<path
   id="path641"
   d="m 1049.09,545.34 v 312.43 h -151.5 c 0,1.7 0.81,3.07 1.8,3.07 h 199.58 c 0.99,0 1.8,-1.38 1.8,-3.07 V 545.34 Z"
   class="st3" />
	<rect
   id="rect643"
   height="312.42999"
   width="1.71"
   class="st21"
   y="545.34003"
   x="1047.37" />
	<path
   id="path645"
   d="M 1098.18,541.96 H 900.17 c -1.43,0 -2.58,1.16 -2.58,2.58 v 0.79 h 203.18 v -0.79 c -0.01,-1.42 -1.17,-2.58 -2.59,-2.58 z"
   class="st21" />
</g>
<g
   transform="translate(-331.24,-19.715898)"
   id="g657">
	<path
   id="path649"
   d="M 1088.91,356.12 H 843.4 c -1.15,0 -2.09,-0.93 -2.09,-2.09 V 154.17 h 249.68 v 199.86 c 0,1.16 -0.93,2.09 -2.08,2.09 z"
   class="st0" />
	<path
   id="path651"
   d="M 1027.49,154.17 V 354.15 H 841.31 c 0,1.09 0.99,1.97 2.21,1.97 h 245.26 c 1.22,0 2.21,-0.88 2.21,-1.97 V 154.17 Z"
   class="st3" />
	<rect
   id="rect653"
   height="199.98"
   width="2.1099999"
   class="st22"
   y="154.17"
   x="1025.38" />
	<path
   id="path655"
   d="M 1088.83,152.01 H 843.47 c -1.19,0 -2.16,0.97 -2.16,2.16 h 249.68 c 0,-1.19 -0.96,-2.16 -2.16,-2.16 z"
   class="st22" />
</g>
<g
   transform="translate(-331.24,-19.715898)"
   id="g667">
	<path
   id="path659"
   d="M 1190.78,436.95 H 991.2 c -0.99,0 -1.8,-0.81 -1.8,-1.8 V 252.37 h 203.18 v 182.79 c 0,0.99 -0.8,1.79 -1.8,1.79 z"
   class="st23" />
	<path
   id="path661"
   d="m 1140.91,252.37 v 182.79 h -151.5 c 0,0.99 0.81,1.8 1.8,1.8 h 199.58 c 0.99,0 1.8,-0.81 1.8,-1.8 V 252.37 Z"
   class="st3" />
	<rect
   id="rect663"
   height="182.78999"
   width="1.71"
   class="st24"
   y="252.37"
   x="1139.1899" />
	<path
   id="path665"
   d="M 1190.61,250.39 H 991.38 c -1.09,0 -1.98,0.88 -1.98,1.98 h 203.18 c 0,-1.09 -0.88,-1.98 -1.97,-1.98 z"
   class="st24" />
</g>
<g
   transform="translate(-331.24,-19.715898)"
   id="g675">
	<path
   id="path669"
   d="m 1121.4,375.13 h -108.85 c -0.71,0 -1.29,-0.58 -1.29,-1.29 0,-0.71 0.58,-1.29 1.29,-1.29 h 108.85 c 0.71,0 1.29,0.58 1.29,1.29 0,0.71 -0.58,1.29 -1.29,1.29 z"
   class="st25" />
	<path
   id="path671"
   d="m 1121.4,345.7 h -108.85 c -0.71,0 -1.29,-0.58 -1.29,-1.29 0,-0.71 0.58,-1.29 1.29,-1.29 h 108.85 c 0.71,0 1.29,0.58 1.29,1.29 -0.01,0.72 -0.58,1.29 -1.29,1.29 z"
   class="st25" />
	<path
   id="path673"
   d="m 1121.4,316.28 h -108.85 c -0.71,0 -1.29,-0.58 -1.29,-1.29 0,-0.71 0.58,-1.29 1.29,-1.29 h 108.85 c 0.71,0 1.29,0.58 1.29,1.29 -0.01,0.71 -0.58,1.29 -1.29,1.29 z"
   class="st25" />
</g>
<polygon
   transform="translate(-331.24,-19.715898)"
   id="polygon677"
   points="1075.68,434.63 1074.3,356.12 1126.25,434.63 "
   class="st26" />
<g
   transform="translate(-331.24,-19.715898)"
   id="g687">
	<path
   id="path679"
   d="M 934.77,463.23 H 735.19 c -0.99,0 -1.8,-0.81 -1.8,-1.8 V 278.64 h 203.18 v 182.79 c -0.01,0.99 -0.81,1.8 -1.8,1.8 z"
   class="st27" />
	<path
   id="path681"
   d="m 884.89,278.64 v 182.79 h -151.5 c 0,0.99 0.81,1.8 1.8,1.8 h 199.58 c 0.99,0 1.8,-0.81 1.8,-1.8 V 278.64 Z"
   class="st3" />
	<rect
   id="rect683"
   height="182.78999"
   width="1.71"
   class="st2"
   y="278.64001"
   x="883.17999" />
	<path
   id="path685"
   d="M 934.59,276.66 H 735.37 c -1.09,0 -1.98,0.88 -1.98,1.98 h 203.18 c -0.01,-1.09 -0.89,-1.98 -1.98,-1.98 z"
   class="st2" />
</g>
<g
   transform="translate(-331.24,-19.715898)"
   id="g697">
	<path
   id="path689"
   d="M 897.7,873.3 H 642.93 c -1.23,0 -2.23,-1 -2.23,-2.23 V 650.84 h 259.24 v 220.23 c 0,1.23 -1,2.23 -2.24,2.23 z"
   class="st28" />
	<path
   id="path691"
   d="M 834,650.84 V 871.13 H 640.7 c 0,1.2 1.03,2.17 2.3,2.17 h 254.65 c 1.27,0 2.3,-0.97 2.3,-2.17 V 650.84 Z"
   class="st3" />
	<rect
   id="rect693"
   height="220.28999"
   width="2.1900001"
   class="st29"
   y="650.84003"
   x="831.82001" />
	<path
   id="path695"
   d="M 897.55,648.46 H 643.08 c -1.31,0 -2.38,1.07 -2.38,2.38 h 259.24 c 0,-1.32 -1.07,-2.38 -2.39,-2.38 z"
   class="st29" />
</g>
<path
   id="path699"
   d="M 836.52,582.2641 H 299.67 c -5.1,0 -8.45,5.1 -7.5,11.36 l 36.67,241.95 c 5.21,34.4 34.63,61.32 65.89,61.32 h 355.8 c 31.26,0 59.9,-26.92 64.12,-61.32 l 29.71,-241.95 c 0.75,-6.26 -2.75,-11.36 -7.84,-11.36 z m -451.92,265.57 h -29.24 l -4.41,-32.04 h 29.77 z m -7.21,-59.64 h -30.23 l -4.71,-34.27 h 30.8 z m -7.72,-63.82 h -31.29 l -5.05,-36.74 h 31.9 z m -8.27,-68.47 h -32.43 l -5.43,-39.49 h 33.09 z m 80.42,191.93 h -29.24 l -3.36,-32.04 h 29.77 z m -5.27,-59.64 h -30.23 l -3.6,-34.27 h 30.8 z m -5.65,-63.82 h -31.29 l -3.85,-36.74 h 31.9 z m -6.05,-68.47 h -32.43 l -4.15,-39.49 h 33.09 z m 74.18,191.93 h -29.24 l -2.32,-32.04 h 29.77 z m -3.33,-59.64 h -30.23 l -2.48,-34.27 h 30.8 z m -3.56,-63.82 h -31.29 l -2.66,-36.74 h 31.9 z m -3.83,-68.47 h -32.43 l -2.86,-39.49 h 33.09 z m 67.93,191.93 H 527 l -1.28,-32.04 h 29.77 z m -1.39,-59.64 h -30.23 l -1.37,-34.27 h 30.8 z m -1.48,-63.82 h -31.29 l -1.47,-36.74 h 31.9 z m -1.6,-68.47 h -32.43 l -1.58,-39.49 h 33.09 z m 61.69,191.93 H 584.1 v -32.04 h 29.65 z m 0.55,-59.64 h -30.36 v -34.27 h 30.67 z m 0.59,-63.82 h -31.43 v -36.74 h 31.77 z m 0.63,-68.47 h -32.58 v -39.49 h 32.94 z m 55.44,191.93 h -29.24 l 0.81,-32.04 h 29.77 z m 2.49,-59.64 h -30.23 l 0.86,-34.27 h 30.8 z m 2.67,-63.82 h -31.29 l 0.92,-36.74 h 31.9 z m 2.86,-68.47 h -32.43 l 0.99,-39.49 h 33.09 z m 49.2,191.93 h -29.24 l 1.85,-32.04 h 29.77 z m 4.43,-59.64 h -30.23 l 1.98,-34.27 h 30.8 z m 4.74,-63.82 h -31.29 l 2.12,-36.74 h 31.9 z m 5.09,-68.47 h -32.43 l 2.28,-39.49 h 33.09 z m 42.95,191.93 h -29.24 l 2.89,-32.04 h 29.77 z m 6.37,-59.64 h -30.23 l 3.09,-34.27 h 30.8 z m 6.82,-63.82 H 767 l 3.31,-36.74 h 31.9 z m 7.32,-68.47 h -32.43 l 3.56,-39.49 h 33.09 z"
   class="st3" />
<g
   transform="translate(-331.24,-19.715898)"
   id="g709">
	<path
   id="path701"
   d="M 1074.48,542.68 H 874.9 c -0.99,0 -1.8,-0.81 -1.8,-1.8 V 358.1 h 203.18 v 182.79 c 0,0.99 -0.81,1.79 -1.8,1.79 z"
   class="st1" />
	<path
   id="path703"
   d="M 1024.6,358.1 V 540.89 H 873.1 c 0,0.99 0.81,1.8 1.8,1.8 h 199.58 c 0.99,0 1.8,-0.81 1.8,-1.8 V 358.1 Z"
   class="st3" />
	<rect
   id="rect705"
   height="182.78999"
   width="1.71"
   class="st30"
   y="358.10001"
   x="1022.89" />
	<path
   id="path707"
   d="M 1074.3,356.12 H 875.08 c -1.09,0 -1.98,0.88 -1.98,1.98 h 203.18 c 0,-1.09 -0.89,-1.98 -1.98,-1.98 z"
   class="st30" />
</g>
<g
   transform="translate(-331.24,-19.715898)"
   id="g719">
	<path
   id="path711"
   d="m 1261.44,621.55 h -199.58 c -0.99,0 -1.8,-0.81 -1.8,-1.8 V 436.96 h 203.18 v 182.79 c 0,0.99 -0.81,1.8 -1.8,1.8 z"
   class="st31" />
	<path
   id="path713"
   d="m 1211.56,436.96 v 182.79 h -151.5 c 0,0.99 0.81,1.8 1.8,1.8 h 199.58 c 0.99,0 1.8,-0.81 1.8,-1.8 V 436.96 Z"
   class="st3" />
	<rect
   id="rect715"
   height="182.78999"
   width="1.71"
   class="st32"
   y="436.95999"
   x="1209.85" />
	<path
   id="path717"
   d="m 1261.26,434.98 h -199.22 c -1.09,0 -1.98,0.88 -1.98,1.98 h 203.18 c 0,-1.09 -0.89,-1.98 -1.98,-1.98 z"
   class="st33" />
</g>
<g
   transform="translate(-331.24,-19.715898)"
   id="g741">
	<g
   id="g729">
		<path
   id="path721"
   d="m 1272.07,572.72 h -154.7 c -5.44,22.21 -1.76,44.35 -3.86,67.03 -0.56,6.05 -5.91,25.59 -13.67,51.64 2.58,3.03 3.64,7.28 2.71,11.4 -3.95,17.59 -5.88,35.43 -7.61,53.35 -1.74,17.9 -4.08,35.63 -6.5,53.43 -1,7.34 -2.31,14.92 -4.34,22.16 0.05,1.12 0,2.26 -0.17,3.4 -1.65,11.3 -6.17,22.45 -14.44,30.55 -7.9,7.74 -18.33,12.09 -29.1,13.95 -6.44,19.83 -10.68,32.81 -10.97,33.8 h 141.7 c 31.26,0 61.18,-29.15 67.04,-66.4 l 41.21,-262 c 1.06,-6.78 -2.21,-12.31 -7.3,-12.31 z m -121.26,287.59 h -29.24 l 3.37,-34.69 h 29.77 z m 7.27,-64.59 h -30.23 l 3.61,-37.11 h 30.8 z m 7.78,-69.11 h -31.29 l 3.87,-39.78 h 31.9 z m -24.09,-74.15 4.16,-42.76 h 33.09 l -4.81,42.76 z m 66.26,207.85 h -29.24 l 4.41,-34.69 h 29.77 z m 9.2,-64.59 H 1187 l 4.72,-37.11 h 30.8 z m 9.86,-69.11 h -31.29 l 5.06,-39.78 h 31.9 z m 10.57,-74.15 h -32.43 l 5.44,-42.76 h 33.09 z"
   class="st18" />
		<path
   id="path723"
   d="m 1272.07,572.72 h -154.7 c -5.44,22.21 -1.76,44.35 -3.86,67.03 -2.27,24.46 -15.01,121.38 -33.04,161.17 2.42,2.26 3.92,5.45 3.53,8.9 -1.56,14.02 -1.79,28.83 -7.2,42.23 -2.85,7.07 -6.55,13.4 -13.06,17.72 -4.9,3.25 -10.81,4.61 -16.21,6.71 -0.74,0.29 -1.49,0.46 -2.24,0.55 -8.44,18.25 -14.59,31.91 -15.89,36.39 h 141.7 c 31.26,0 61.18,-29.15 67.04,-66.4 l 41.21,-262 c 1.08,-6.77 -2.19,-12.3 -7.28,-12.3 z m -121.26,287.59 h -29.24 l 3.37,-34.69 h 29.77 z m 7.27,-64.59 h -30.23 l 3.61,-37.11 h 30.8 z m 7.78,-69.11 h -31.29 l 3.87,-39.78 h 31.9 z m 8.34,-74.15 h -32.43 l 4.16,-42.76 h 33.09 z m 33.83,207.85 h -29.24 l 4.41,-34.69 h 29.77 z m 9.2,-64.59 H 1187 l 4.72,-37.11 h 30.8 z m 9.86,-69.11 h -31.29 l 5.06,-39.78 h 31.9 z m 10.57,-74.15 h -32.43 l 5.44,-42.76 h 33.09 z"
   class="st26" />
		<path
   id="path725"
   d="M 1118.9,572.86 H 582.05 c -5.1,0 -8.45,5.53 -7.5,12.32 l 36.67,262.36 c 5.21,37.3 34.63,66.5 65.89,66.5 h 355.8 c 31.26,0 59.9,-29.19 64.12,-66.5 l 29.71,-262.36 c 0.76,-6.78 -2.74,-12.32 -7.84,-12.32 z M 666.99,860.84 h -29.24 l -4.41,-34.74 h 29.77 z m -7.21,-64.67 h -30.23 l -4.71,-37.16 h 30.8 z m -7.72,-69.21 h -31.29 l -5.05,-39.84 h 31.9 z m -8.28,-74.24 h -32.43 l -5.43,-42.82 h 33.09 z M 724.2,860.84 H 694.96 L 691.6,826.1 h 29.77 z m -5.27,-64.67 H 688.7 l -3.6,-37.16 h 30.8 z m -5.64,-69.21 H 682 l -3.86,-39.84 h 31.9 z m -6.05,-74.24 h -32.43 l -4.15,-42.82 h 33.09 z m 74.17,208.12 h -29.24 l -2.32,-34.74 h 29.77 z m -3.33,-64.67 h -30.23 l -2.48,-37.16 h 30.8 z m -3.56,-69.21 h -31.29 l -2.66,-39.84 h 31.9 z m -3.82,-74.24 h -32.43 l -2.86,-42.82 h 33.09 z m 67.93,208.12 h -29.24 l -1.28,-34.74 h 29.77 z m -1.39,-64.67 h -30.23 l -1.37,-37.16 h 30.8 z m -1.49,-69.21 h -31.29 l -1.47,-39.84 h 31.9 z m -1.59,-74.24 h -32.43 l -1.58,-42.82 h 33.09 z m 61.83,208.12 H 866.48 V 826.1 h 29.51 z m 0.56,-64.67 h -30.52 v -37.16 h 30.52 z m 0.77,-69.21 h -31.77 v -39.84 h 31.77 z m 0.48,-74.24 H 865.04 V 609.9 h 32.76 z m 55.26,208.12 h -29.24 l 0.81,-34.74 h 29.77 z m 2.49,-64.67 h -30.23 l 0.86,-37.16 h 30.8 z m 2.66,-69.21 h -31.29 l 0.92,-39.84 h 31.9 z m 2.86,-74.24 h -32.43 l 0.99,-42.82 h 33.09 z m 49.2,208.12 h -29.24 l 1.85,-34.74 h 29.77 z m 4.43,-64.67 h -30.23 l 1.98,-37.16 h 30.8 z m 4.74,-69.21 h -31.29 l 2.12,-39.84 h 31.9 z m 5.09,-74.24 H 992.1 l 2.28,-42.82 h 33.09 z m 42.95,208.12 h -29.24 l 2.89,-34.74 h 29.77 z m 6.38,-64.67 h -30.23 l 3.09,-37.16 h 30.8 z m 6.81,-69.21 h -31.29 l 3.31,-39.84 h 31.9 z m 7.32,-74.24 h -32.43 l 3.56,-42.82 h 33.09 z"
   class="st18" />
		<path
   id="path727"
   d="m 1277.22,575.21 c -1.3,-1.56 -3.07,-2.49 -5.15,-2.49 h -154.7 c -0.01,0.05 -0.02,0.09 -0.03,0.14 H 582.05 c -3.39,0 -6,2.45 -7.09,6.09 h 704.13 c -0.4,-1.45 -1.03,-2.73 -1.87,-3.74 z"
   class="st34" />
	</g>
	<path
   id="path731"
   d="m 1118.16,660.84 -33.86,29.33 -3.62,36.79 h -31.29 l 0.59,-7.06 -18.23,15.78 H 595.58 l 8.86,63.43 h 465.66 l 34.65,-19.89 z m -488.61,135.33 -4.71,-37.16 h 30.8 l 4.14,37.16 z m 59.15,0 -3.6,-37.16 h 30.8 l 3.03,37.16 z m 59.15,0 -2.48,-37.16 h 30.8 l 1.91,37.16 z m 59.16,0 -1.37,-37.16 h 30.8 l 0.8,37.16 z m 89.54,0 h -30.52 v -37.16 h 30.52 z m 59,0 h -30.23 l 0.86,-37.16 h 30.8 z m 59.15,0 h -30.23 l 1.98,-37.16 h 30.8 z m 59.16,0 h -30.23 l 3.09,-37.16 h 30.8 z"
   class="st35" />
	<path
   id="path733"
   d="m 1182.64,541.7 c -0.02,0.11 -0.02,0.22 -0.04,0.33 -1.15,6.82 -3.32,12.99 -6.29,18.62 v 9.13 l -5.74,-0.06 c -7.19,9.65 -16.75,17.65 -27.08,24.87 -4.41,3.09 -17.98,12.22 -20.21,13.88 0.89,-0.61 -1.38,1.55 -2.11,2.08 -0.4,0.6 -1.03,1.49 -1.13,1.67 -0.36,0.61 -0.69,1.25 -1.02,1.88 -1.35,2.55 -2.57,5.16 -3.96,7.69 -3.16,5.73 -6.72,11.23 -10.46,16.6 -6.7,9.64 -13.98,18.86 -20.74,28.46 -6.21,8.82 -12.3,17.87 -20.11,25.38 -17.73,17.03 -42.11,21.01 -65.79,22.6 -50.04,3.37 -99.74,-9.22 -149.79,-2.83 -26.02,3.32 -52.19,5.85 -78.31,8.33 -26.56,2.52 -53,2.53 -79.65,1.58 -26.07,-0.92 -52.08,-1.9 -78.17,-1.57 -25.22,0.32 -50.47,0.91 -75.64,-1.15 l -4.5,5.06 v -5.61 c -0.86,-0.2 -1.7,-0.47 -2.49,-0.82 h -13.6 v 28.43 c -0.09,5.67 4.33,11.11 10.9,11.11 h 462.53 c 32.71,0 63.87,-13.98 85.62,-38.42 L 1205,572.72 h 2.31 V 541.7 Z"
   class="st4" />
	<path
   id="path735"
   d="m 1179.27,541.7 -120.5,134.48 c -17.64,19.82 -42.98,31.19 -69.51,31.19 H 550.52 l 18.77,-21.13 c -7.06,-2.83 -14.1,-5.73 -21.1,-8.72 l -29.59,33.31 c -6.23,7.02 -1.25,18.11 8.13,18.11 h 462.53 c 32.71,0 63.87,-13.98 85.62,-38.42 L 1207.34,541.7 Z"
   class="st15" />
	<path
   id="path737"
   d="m 1390.67,717.82 c -0.04,-2.43 -0.9,-4.9 -2.76,-7 L 1237.66,541.7 h -28.85 l 147.17,165.67 h -74.71 c -1.17,16.78 -2.77,33.37 -3.32,49.99 h 101.81 c 6.57,0 10.98,-5.44 10.9,-11.11 v -28.43 z"
   class="st16" />
	<path
   id="path739"
   d="M 1381.22,735.82 1208.75,541.7 v 31.03 l 137.3,156.21 h -66.4 c -0.72,9.49 -1.38,18.95 -1.69,28.43 h 101.81 c 9.39,-0.01 7.69,-14.53 1.45,-21.55 z"
   class="st17" />
</g>
<path
   id="path743"
   d="M 921.47,904.2041 H 288.03 c -2.59,0 -4.7,-2.1 -4.7,-4.7 v -0.31 c 0,-2.59 2.1,-4.7 4.7,-4.7 h 633.44 c 2.59,0 4.7,2.1 4.7,4.7 v 0.31 c 0,2.6 -2.1,4.7 -4.7,4.7 z"
   class="st36" />
<polygon
   transform="translate(-331.24,-19.715898)"
   id="polygon745"
   points="841.31,154.17 841.31,260.78 900.86,190.28 934.99,154.17 "
   class="st26" />
<g
   transform="translate(-331.24,-19.715898)"
   id="g755">
	<path
   id="path747"
   d="m 770.11,54.68 c -1.49,0.48 -2.73,1.53 -3.45,2.92 l -20.69,40.15 c -1.21,2.35 -1.44,5.08 -0.63,7.59 l 34.36,107.43 c 0.46,1.43 1.99,2.22 3.43,1.77 l 109.21,-34.93 c 2.03,-0.65 3.72,-2.08 4.69,-3.97 l 20.62,-40.01 c 0.8,-1.56 0.96,-3.37 0.42,-5.05 L 883.28,21.87 c -0.46,-1.45 -2.02,-2.26 -3.47,-1.8 z"
   class="st18" />
	<path
   id="path749"
   d="m 766.77,57.39 -21.52,41.75 c -0.43,0.84 0.37,1.79 1.27,1.5 L 859.05,64.65 881.23,21.61 c 0.53,-1.03 -0.45,-2.18 -1.55,-1.83 l -109.8,34.98 c -1.35,0.43 -2.47,1.37 -3.11,2.63 z"
   class="st37" />
	<path
   id="path751"
   d="m 895.49,178.6 23.4,-45.4 -35.76,-111.8 c -0.29,-0.91 -1.54,-1.02 -1.98,-0.17 l -22.32,43.3 z"
   class="st26" />
	<path
   id="path753"
   d="m 880.84,19.96 -22.56,43.78 -113.1,36.17 c -0.19,0.78 -0.27,1.58 -0.28,2.39 l 113.27,-36.23 36.02,112.62 c 0.67,-0.43 1.29,-0.95 1.8,-1.56 L 860.12,64.96 882.79,20.98 c -0.49,-0.6 -1.19,-0.96 -1.95,-1.02 z"
   class="st38" />
</g>
<g
   transform="translate(-331.24,-19.715898)"
   id="g783">
	<path
   id="path757"
   d="M 812.56,996.88 H 706.27 c -11,0 -19.95,-8.95 -19.95,-19.95 v -22.15 h 2.57 v 22.15 c 0,9.58 7.8,17.38 17.38,17.38 h 106.29 z"
   class="st39" />
	<rect
   id="rect759"
   height="2.5699999"
   width="127.71"
   class="st39"
   y="953.48999"
   x="1057.7" />
	<path
   id="path761"
   d="m 688.01,956.06 c -9.84,0 -17.84,-8 -17.84,-17.84 0,-9.84 8,-17.84 17.84,-17.84 9.84,0 17.84,8 17.84,17.84 0,9.84 -8,17.84 -17.84,17.84 z m 0,-33.11 c -8.42,0 -15.27,6.85 -15.27,15.27 0,8.42 6.85,15.27 15.27,15.27 8.42,0 15.27,-6.85 15.27,-15.27 0,-8.42 -6.85,-15.27 -15.27,-15.27 z"
   class="st39" />
	<path
   id="path763"
   d="m 1201.97,972.62 c -9.84,0 -17.84,-8 -17.84,-17.84 0,-9.84 8,-17.84 17.84,-17.84 9.84,0 17.84,8 17.84,17.84 0,9.84 -8.01,17.84 -17.84,17.84 z m 0,-33.12 c -8.42,0 -15.27,6.85 -15.27,15.27 0,8.42 6.85,15.27 15.27,15.27 8.42,0 15.27,-6.85 15.27,-15.27 0,-8.41 -6.85,-15.27 -15.27,-15.27 z"
   class="st39" />
	<g
   id="g781">
		<path
   id="path765"
   d="m 1067.87,978.93 -217.13,78.31 c -10.1,3.64 -21.25,-1.59 -24.89,-11.69 L 783.12,927.09 c -3.64,-10.1 1.59,-21.25 11.69,-24.89 l 217.13,-78.31 c 10.1,-3.64 21.25,1.59 24.89,11.69 l 42.73,118.47 c 3.64,10.09 -1.59,21.24 -11.69,24.88 z"
   class="st13" />
		<path
   id="path767"
   d="m 859.96,965.73 -22.36,8.07 c -4.28,1.54 -9,-0.67 -10.54,-4.95 l -4.2,-11.65 c -1.54,-4.28 0.67,-9 4.95,-10.54 l 22.36,-8.07 c 4.28,-1.54 9,0.67 10.54,4.95 l 4.2,11.65 c 1.54,4.28 -0.67,9 -4.95,10.54 z"
   class="st40" />
		<path
   id="path769"
   d="m 869.89,1000.16 -27.91,10.07 -5,-13.86 27.91,-10.07 z m 32.85,-27.51 -27.91,10.07 5,13.86 27.91,-10.07 z M 940.6,959 l -27.91,10.07 5,13.86 27.91,-10.07 z m 37.86,-13.66 -27.91,10.07 5,13.86 27.91,-10.07 z"
   class="st16" />
		<g
   id="g775">
			<path
   id="path771"
   d="m 838.23,965.47 c 1.28,2.57 2.64,4.83 3.94,6.68 l 1.2,-0.43 c -4.18,-5.83 -9.14,-16.26 -9.64,-27 l -0.62,0.03 -0.6,0.22 c 0.17,3.39 0.77,6.74 1.65,9.93 l -10.75,3.88 0.42,1.16 10.68,-3.85 c 0.88,2.95 1.97,5.74 3.17,8.28 l -10.84,3.91 0.21,0.58 c 0.07,0.2 0.16,0.38 0.24,0.57 z"
   class="st41" />
			<path
   id="path773"
   d="m 843.45,941.02 -0.6,0.22 -0.49,0.37 c 6.48,8.59 9.32,19.78 9.82,26.94 l 1.2,-0.43 c -0.18,-2.25 -0.57,-4.86 -1.22,-7.66 l 12.94,-4.67 c -0.05,-0.2 -0.11,-0.4 -0.18,-0.59 l -0.21,-0.58 -12.84,4.63 c -0.7,-2.71 -1.64,-5.57 -2.84,-8.4 l 12.68,-4.57 -0.42,-1.16 -12.75,4.6 c -1.38,-3.02 -3.06,-5.99 -5.09,-8.7 z"
   class="st41" />
		</g>
		<path
   id="path777"
   d="m 890.37,1017.96 -40.36,14.56 -4.29,-11.9 40.36,-14.56 z m 53.62,-32.79 -49.78,17.95 4.29,11.9 49.78,-17.95 z"
   class="st16" />
		<path
   id="path779"
   d="m 1005.57,892.54 c -2.7,0 -5.38,-0.59 -7.89,-1.77 -4.49,-2.11 -7.89,-5.85 -9.58,-10.52 -1.68,-4.67 -1.45,-9.72 0.66,-14.21 2.11,-4.49 5.85,-7.89 10.52,-9.58 4.67,-1.68 9.72,-1.45 14.21,0.66 4.49,2.11 7.89,5.85 9.58,10.52 1.68,4.67 1.45,9.72 -0.66,14.21 -2.11,4.49 -5.85,7.89 -10.52,9.58 -2.06,0.74 -4.19,1.11 -6.32,1.11 z m 0.03,-35.96 c -1.98,0 -3.98,0.34 -5.9,1.04 -4.36,1.57 -7.85,4.75 -9.82,8.94 -1.97,4.19 -2.19,8.91 -0.62,13.26 1.57,4.36 4.75,7.85 8.94,9.82 4.2,1.97 8.91,2.19 13.26,0.62 4.36,-1.57 7.85,-4.75 9.82,-8.94 1.97,-4.19 2.19,-8.91 0.62,-13.26 -1.57,-4.36 -4.75,-7.85 -8.94,-9.82 -2.34,-1.1 -4.85,-1.66 -7.36,-1.66 z"
   class="st42" />
	</g>
</g>
<polygon
   transform="translate(-331.24,-19.715898)"
   id="polygon785"
   points="937.26,354.7 936.56,280.35 982.69,353.85 "
   class="st26" />
<g
   transform="translate(-331.24,-19.715898)"
   id="g860">
	<path
   id="path787"
   d="m 682.79,347.55 c 0.2,12.82 1.8,26.58 1.4,33.59 -0.4,7.01 -1.2,11.52 -1.2,11.52 h 31.45 c 0,0 0.4,-4.11 -7.61,-4.91 -5.37,-0.54 -7.01,-6.41 -7.01,-15.43 0,-9.02 3.01,-24.24 3.01,-24.24 z"
   class="st43" />
	<path
   id="path789"
   d="m 612.67,346.08 c -1.8,9.22 -2.34,31.92 -2.94,36.73 -0.6,4.81 -0.67,9.42 -0.67,9.42 h 29.92 c 0,0 -0.53,-3.81 -3.34,-3.94 -9.02,-0.43 -9.08,-1.6 -10.68,-5.08 -1.6,-3.47 4.34,-28.52 6.54,-35.53 2.2,-7.01 -18.83,-1.6 -18.83,-1.6 z"
   class="st43" />
	<path
   id="path791"
   d="m 630.9,349.73 c 0.22,-0.78 0.43,-1.48 0.6,-2.05 2.2,-7.01 -18.83,-1.6 -18.83,-1.6 -0.11,0.55 -0.21,1.14 -0.31,1.78 5.71,1.93 15.02,1.95 18.54,1.87 z"
   class="st26" />
	<path
   id="path793"
   d="m 697.08,350.89 c 2.63,-0.67 4.41,-1.25 5.52,-1.65 0.14,-0.73 0.22,-1.16 0.22,-1.16 l -20.03,-0.53 c 0.02,1.4 0.06,2.8 0.11,4.21 3.48,0.08 10.39,0.1 14.18,-0.87 z"
   class="st26" />
	<path
   id="path795"
   d="m 633.3,209.85 c -3.41,12.02 -2.8,18.23 -1.8,24.84 1.23,8.13 -0.8,44.08 -8.01,66.51 -7.21,22.44 -10.82,44.88 -10.82,44.88 3.25,1.73 14.76,2.27 18.83,1.6 0,0 16.83,-30.85 27.25,-49.69 9.65,-17.45 23.84,-49.08 23.84,-49.08 L 655.94,209.84 H 633.3 Z"
   class="st5" />
	<path
   id="path797"
   d="m 638.51,210.05 c -2,18.03 4.06,35.36 11.95,46.81 8.88,12.89 22.3,25.91 27.51,58.77 5.02,31.67 3.81,32.26 3.81,32.26 3.8,1.07 16.13,1.2 21.04,0.2 0,0 2.4,-2 2,-42.87 -0.4,-40.87 -20.03,-93.76 -20.03,-93.76 z"
   class="st44" />
	<path
   id="path799"
   d="m 677.87,142.76 c 6.02,7.52 18.47,7.28 21.1,6.18 4.74,-1.98 5.3,-3.25 7.33,-7.29 -7.64,-7.68 -8.57,-6.98 -8.13,-10.86 0.49,-4.29 9.58,-24.54 9.58,-24.54 l -18.17,-6.83 c 0,0 -8.6,20.13 -10.48,23.32 -1.14,1.92 -6.58,4.46 -9.08,6.5 1.19,5.49 4.24,9.02 7.85,13.52 z"
   class="st45" />
	
		<linearGradient
   gradientTransform="matrix(0.4443,0.1712,-0.1712,0.4443,-8889.6338,3255.54)"
   y2="-13360.173"
   x2="16407.547"
   y1="-13416.11"
   x1="16412.52"
   gradientUnits="userSpaceOnUse"
   id="SVGID_3_">
		<stop
   id="stop801"
   style="stop-color:#F0C3A8"
   offset="0" />
		<stop
   id="stop803"
   style="stop-color:#FFFFFF"
   offset="1" />
	</linearGradient>
	<path
   style="fill:url(#SVGID_3_)"
   id="path806"
   d="m 698.14,131.86 c -0.02,-0.31 0,-0.66 0.04,-1.06 0.49,-4.29 9.58,-24.54 9.58,-24.54 l -18.17,-6.83 c 0,0 -8.6,20.13 -10.48,23.32 -0.3,0.51 -0.74,0.92 -1.3,1.25 z"
   class="st46" />
	<path
   id="path808"
   d="m 700.35,118.43 c 0.72,0.27 1.43,0.46 2.11,0.59 2.69,-7.06 5.35,-13.62 5.35,-13.62 l -12.28,-4.3 c -2.3,7.88 -0.97,15.26 4.82,17.33 z"
   class="st47" />
	<path
   id="path810"
   d="m 714.76,99.21 c -0.92,8.75 -4.92,15.6 -13.31,14.62 -6.43,-0.68 -10.9,-8.32 -9.98,-17.07 0.92,-8.75 3.86,-15.61 13.31,-14.62 10.4,1.1 10.9,8.32 9.98,17.07 z"
   class="st45" />
	<path
   id="path812"
   d="m 686.55,82.4 c -2.43,4.15 -6.31,8.48 1.62,19.6 l 6.17,-1.41 -2.96,-13.41 z"
   class="st48" />
	<path
   id="path814"
   d="m 710.99,96.15 c -0.05,0.48 -0.48,0.83 -0.97,0.78 -0.48,-0.05 -0.83,-0.48 -0.78,-0.97 0.05,-0.49 0.48,-0.83 0.97,-0.78 0.48,0.05 0.84,0.48 0.78,0.97 z" />
	<path
   id="path816"
   d="m 696.34,103.24 c -3.43,-0.36 -5.92,-3.43 -5.55,-6.86 0.36,-3.43 3.43,-5.92 6.86,-5.55 z"
   class="st49" />
	<path
   id="path818"
   d="m 753.3,130.25 c -15.81,3.37 -41,4.59 -52.48,3.07 -1.76,5.28 -2.24,15.42 -3.81,20.76 11.3,1.72 24.4,-1.5 37.74,-4.47 3.64,-0.81 20.32,-4.04 23.49,-4.79 z"
   class="st45" />
	<path
   id="path820"
   d="m 721.66,134.25 c 2.4,3.74 0.27,17.76 0.27,17.76 l -30.19,-13.89 5.34,-5.74 c 0,0 7.21,1.47 13.49,1.87 6.28,0.4 11.09,0 11.09,0 z"
   class="st31" />
	<path
   id="path822"
   d="m 753.3,130.25 c -15.81,3.37 -41,4.59 -52.48,3.07 -1.76,5.28 -2.24,15.42 -3.81,20.76 11.3,1.72 24.4,-1.5 37.74,-4.47 3.64,-0.81 20.32,-4.04 23.49,-4.79 z"
   class="st26" />
	<path
   id="path824"
   d="m 696.65,100.3 c -1.81,-0.19 -3.12,-1.81 -2.93,-3.62 0.19,-1.81 1.81,-3.12 3.62,-2.93 z"
   class="st50" />
	<path
   id="path826"
   d="m 709.48,100.79 c -0.16,1.5 -1.5,2.59 -3.01,2.43 -1.5,-0.16 -2.59,-1.5 -2.43,-3.01 0.16,-1.5 1.5,-2.59 3.01,-2.43 1.5,0.16 2.59,1.51 2.43,3.01 z"
   class="st49" />
	<path
   id="path828"
   d="m 713.98,95.85 3.28,5.44 c 0.39,0.64 -0.04,1.47 -0.78,1.53 l -3.41,0.28 z"
   class="st49" />
	<path
   id="path830"
   d="m 697.57,92.35 -0.6,4.87 1.71,0.28 c 0.01,-1.21 0.65,-4.13 0.87,-5.08 z"
   class="st48" />
	<path
   id="path832"
   d="m 713.73,87.01 c 2.31,-1.58 2.76,-6.63 -3.67,-9.86 -5.5,-2.77 -10.49,-2.92 -15.2,-1.62 -4.14,1.14 -5.89,3.62 -6.34,3.61 0.21,-0.92 1.29,-2.02 0.58,-4.62 -1.33,-4.89 -9.02,-5.27 -11.71,-1.93 -2.7,3.34 -3.27,8.74 1.5,11.48 2.13,1.22 6.38,-0.73 7.68,-1.67 0.11,1.11 -1.61,3.02 -1.03,7.18 0.98,7.01 10.76,4.78 13.25,3.98 3.33,-1.06 5.13,-4.72 6.78,-9.37 -0.01,0 2.88,-0.89 8.16,2.82 z"
   class="st48" />
	<path
   id="path834"
   d="m 707.19,92.95 c 0.48,0.13 0.95,0.21 1.42,0.29 l 1.39,0.24 c 0.46,0.08 0.91,0.16 1.36,0.26 0.22,0.05 0.45,0.09 0.67,0.15 l 0.71,0.17 c 0.02,0.01 0.04,0.01 0.06,0.01 0.01,0 -0.01,0.01 0.09,0 0.08,-0.01 0.16,-0.08 0.19,-0.13 0.07,-0.13 0.03,-0.29 -0.1,-0.36 -0.13,-0.07 -0.29,-0.03 -0.36,0.1 0.02,-0.05 0.1,-0.12 0.18,-0.13 0.1,-0.01 0.07,0 0.08,0 0.01,0 0.02,0 0.04,0 0.01,0 0,0 0,0 0,0 -0.02,-0.02 -0.02,-0.03 l -0.07,-0.06 -0.15,-0.12 c -0.1,-0.08 -0.21,-0.15 -0.32,-0.22 -0.22,-0.13 -0.46,-0.25 -0.69,-0.35 -0.48,-0.2 -0.97,-0.33 -1.47,-0.42 -0.5,-0.08 -1,-0.12 -1.51,-0.11 -0.5,0.01 -1,0.06 -1.49,0.19 -0.15,0.04 -0.23,0.19 -0.19,0.33 0.01,0.09 0.09,0.16 0.18,0.19 z"
   class="st51" />
	<path
   id="path836"
   d="m 713.89,103.66 c 0,0 2.15,11.19 -1.81,12.15 -6.03,1.46 -12.45,-2.11 -14.72,-3.33 -2.04,-1.11 -0.82,-10.7 -0.82,-10.7 l 0.44,-4.55 1.71,0.28 c 0,0 0.24,5.92 4.7,6.77 1.54,0.28 5.86,-1.84 10.5,-0.62 z"
   class="st48" />
	<path
   id="path838"
   d="m 713.46,105.66 c 0.25,0.03 0.5,0.03 0.73,0.03 0.06,0.5 0.12,1.06 0.17,1.65 -0.34,0.05 -0.71,0.07 -1.1,0.03 -1.43,-0.15 -2.51,-0.94 -2.43,-1.77 0.1,-0.83 1.21,-0.09 2.63,0.06 z"
   class="st11" />
	<path
   id="path840"
   d="m 632.84,212.92 c 8.68,4.41 22.57,7.75 31.65,6.81 9.08,-0.93 22.57,-0.8 22.57,-0.8 l -0.93,-3.61 -52.62,-6.41 z"
   class="st3" />
	<g
   id="g846">
		<path
   id="path842"
   d="m 815.17,132.64 c -0.61,-0.51 -1.32,0.18 -1.92,1.05 0.4,-0.98 0.61,-2.01 0.05,-2.48 -0.63,-0.52 -1.7,0.52 -2.6,1.68 0.74,-1.29 1.32,-2.75 0.58,-3.36 -0.79,-0.66 -2.17,0.89 -3.27,2.42 0.64,-1.22 1.09,-2.52 0.47,-3.04 -0.66,-0.55 -2.64,1.62 -4.42,3.88 0.1,-0.13 0.19,-0.26 0.26,-0.36 0.89,-1.22 -0.83,-2.53 -3.1,0.48 -2.27,3.01 -8.06,10.47 -28.02,14.57 -18.15,3.73 -38.09,-0.41 -51.15,-3.34 -2.22,5.11 -4.63,15.36 -6.67,20.54 11.11,2.72 25.23,3.79 38.78,2.01 24.33,-3.19 37.79,-5.31 52.67,-19.99 7.79,-7.68 9.64,-12.98 8.34,-14.06 z"
   class="st45" />
		<path
   id="path844"
   d="m 757.4,165.64 c -0.27,-2.05 1.17,-3.93 3.21,-4.21 2.05,-0.27 3.93,1.17 4.21,3.21 0.03,0.19 0.03,0.38 0.03,0.57 -2.32,0.35 -4.76,0.69 -7.31,1.03 -0.06,-0.19 -0.11,-0.39 -0.14,-0.6 z"
   class="st49" />
	</g>
	<path
   id="path848"
   d="m 673.77,126.4 c -15.56,4.91 -25.98,27.68 -33.66,51.79 -5.72,17.97 -6.81,31.65 -6.81,31.65 0,0 6.41,5.41 25.24,7.21 18.83,1.8 28.05,-0.4 28.05,-0.4 0,0 6.41,-26.45 13.42,-35.86 7.01,-9.42 8.95,-13.49 8.95,-13.49 0,0 11.89,3.07 18.97,2.94 0,0 4.94,-7 6.14,-12.29 1.34,-5.88 0.4,-11.62 0.4,-11.62 0,0 -13.36,-3.67 -19.77,-6.68 -6.41,-3.01 -12.06,-6.28 -20.97,-9.22 -11.34,-3.73 -19.96,-4.03 -19.96,-4.03 z"
   class="st14" />
	<rect
   id="rect850"
   height="1.6"
   width="31.02"
   class="st48"
   y="392.16"
   x="608.51001" />
	<rect
   id="rect852"
   height="1.6"
   width="33.080002"
   class="st48"
   y="392.16"
   x="682.26001" />
	<path
   id="path854"
   d="m 619.98,392.69 c -0.14,0 -0.28,-0.07 -0.35,-0.21 -0.11,-0.19 -0.04,-0.44 0.16,-0.54 2.91,-1.62 10.62,-4.11 14.92,-4.11 0.21,0.01 0.41,0.18 0.41,0.4 0,0.22 -0.17,0.39 -0.4,0.4 h -0.01 c -4.04,0 -11.68,2.42 -14.53,4.01 -0.07,0.04 -0.13,0.05 -0.2,0.05 z"
   class="st17" />
	<path
   id="path856"
   d="m 698.15,392.56 c -0.06,0 -0.12,-0.01 -0.18,-0.04 -0.2,-0.1 -0.28,-0.34 -0.18,-0.54 0.68,-1.39 2.97,-2.3 4.77,-2.82 3.25,-0.94 7.82,-1.42 9.07,-0.65 0.19,0.12 0.25,0.36 0.13,0.55 -0.12,0.19 -0.36,0.25 -0.55,0.13 -0.83,-0.51 -4.96,-0.26 -8.43,0.74 -2.3,0.66 -3.85,1.54 -4.28,2.4 -0.06,0.15 -0.2,0.23 -0.35,0.23 z"
   class="st17" />
	<path
   id="path858"
   d="m 693.66,193.65 c 1.93,-5.08 4.11,-9.84 6.36,-12.85 7.01,-9.42 8.95,-13.49 8.95,-13.49 -9.35,-2.34 -11.63,-2.94 -11.63,-2.94 0,0 -5.76,17.87 -3.68,29.28 z"
   class="st26" />
</g>
<g
   transform="translate(-331.24,-19.715898)"
   id="g969">
	<path
   id="path862"
   d="m 1538.41,508.25 c -0.73,-5.62 -2.2,-8.62 -6.88,-9.19 -3.94,-0.48 -4.13,2.84 -8.71,2.71 -4.82,-0.14 -5.72,-4.07 -10.63,-0.61 -3.63,2.56 -3.49,8.62 0.79,15.61 4.28,6.99 -1.3,20.86 9.42,25.64 10.72,4.78 8.62,-6.35 13.62,-3.37 5,2.98 2.91,-26.82 2.39,-30.79 z"
   class="st52" />
	<path
   id="path864"
   d="m 1534.88,509.63 c 6.43,0.21 12,3 10.93,6.86 -1.07,3.86 -1.71,10.29 2.57,12.43 4.29,2.14 8.36,7.5 5.79,13.71 -2.57,6.21 1.05,4.93 4.61,9.21 5.25,6.32 -2.89,9.54 -2.14,12.21 0.98,3.51 3.06,4.17 8.96,2.93 5.91,-1.24 7.25,3.22 9.5,6.64 2.25,3.42 8.47,-4.14 11.36,-0.96 2.89,3.18 1.42,11.86 -6.07,12.19 -7.49,0.33 -7.67,-2.01 -12.42,-0.37 -6.73,2.33 -4.5,6.61 -8.21,7.43 -6.61,1.46 -7.12,-4.17 -11.46,-6.43 -4.35,-2.26 -7.32,5.64 -13.39,3.86 -4.65,-1.37 -2.04,-9.32 -8.25,-11.46 -9.95,-3.43 2.99,-11.79 -2.04,-10.71 -7.5,1.61 -11.68,-4.71 -6.64,-7.93 4.01,-2.56 -1.93,-3.86 -2.79,-9.54 -0.49,-3.23 3.21,-16.03 3.21,-16.03 z"
   class="st52" />
	<path
   id="path866"
   d="m 1580.85,580.02 c -2.46,2.57 -5.29,1.15 -7.94,-0.55 -2.65,-1.71 -2.71,-2.63 -7.9,-3.22 -5.19,-0.59 -5.94,3.91 -8.91,3.16 -2.97,-0.75 -2.94,-4.93 -6.26,-6.78 -3.32,-1.85 -5.74,1.11 -8.84,0.88 -3.1,-0.23 4.39,-10.09 3.53,-13.95 -0.86,-3.86 -5.25,-4.18 -7.82,-5.68 -2.57,-1.5 -1.93,-3.86 -2.57,-7.29 -0.64,-3.43 -1.93,-4.61 -6.86,-6.96 l -9.26,-4.66 c -0.92,3.34 -3.24,12.13 -2.85,14.73 0.86,5.68 6.8,6.98 2.79,9.54 -5.04,3.21 -0.86,9.54 6.64,7.93 5.03,-1.08 -7.91,7.28 2.04,10.71 6.21,2.14 3.6,10.1 8.25,11.46 6.07,1.79 9.05,-6.11 13.39,-3.86 4.34,2.26 4.85,7.89 11.46,6.43 3.71,-0.82 1.48,-5.1 8.21,-7.43 4.75,-1.64 4.93,0.7 12.42,0.37 4.07,-0.18 6.36,-2.82 7.14,-5.71 -1.74,-0.45 -4.93,-0.92 -6.66,0.88 z"
   class="st52" />
	<g
   id="g876">
		<path
   id="path868"
   d="m 1453.37,785.3 c 0.38,-12.9 2.13,-29.78 4.33,-46.14 -9.15,0.05 -18.31,0.14 -27.46,0.25 0.49,19.13 1.12,38.96 1.57,56.7 0.78,30.23 15.62,72.42 15.04,78.11 -0.68,3.52 11.27,2.69 16.42,0 0.46,-16.65 -11.04,-50.11 -9.9,-88.92 z"
   class="st45" />
		<g
   id="g874">
			<path
   id="path870"
   d="m 1463.28,874.22 c -0.01,0.51 -0.03,1 -0.03,1.47 l -0.24,9.25 h -3.06 l -1.03,-7.85 c -2.22,0.78 -4.29,1.87 -6.77,4.64 -4.05,4.53 -8.42,3.82 -10.68,3.82 -1.58,0 -4.89,0.23 -5.33,0 0,-3.54 8.94,-3.61 10.64,-10.75 0.03,-0.13 0.06,-0.33 0.08,-0.58 2.42,4.49 11.93,-2.42 16.42,0 z"
   class="st53" />
			<path
   id="path872"
   d="m 1458.77,876.16 c -4.13,0.82 -7.6,5.54 -10.02,7.19 -2.34,1.6 -6.79,1.65 -12.53,1.65 -0.05,0.17 -0.09,0.35 -0.09,0.55 0.44,0.23 3.75,0 5.33,0 2.26,0 6.63,0.71 10.68,-3.82 2.49,-2.77 4.55,-3.86 6.77,-4.64 l 1.03,7.85 h 3.06 c 0,0 0.24,-9.4 0.24,-9.47 -1.08,0.12 -2.58,0.32 -4.47,0.69 z"
   class="st17" />
		</g>
	</g>
	<g
   id="g886">
		<path
   id="path878"
   d="m 1500.08,738.2 c -10.41,0 -20.82,0.02 -31.23,0.06 0.03,19.37 0.45,39.97 1.96,55.29 2.97,30.06 14.05,74.45 13.67,79.82 -0.64,3.29 11.27,2.3 16.42,0 0.27,-16.99 -7.15,-61.78 -6.95,-84.96 0.1,-11.22 2.91,-29.84 6.13,-50.21 z"
   class="st45" />
		<g
   id="g884">
			<path
   id="path880"
   d="m 1500.9,873.36 c 0,0.52 -0.28,11.56 -0.28,11.56 h -2.96 l -1.16,-8.12 c -2.15,1.27 -4.17,2.98 -6.62,5.71 -4.05,4.53 -8.22,4.17 -10.48,4.17 -1.58,0 -2.55,-0.38 -2.97,-0.61 0.28,-1.91 6.28,-4.99 7.98,-12.14 0.03,-0.13 0.06,-0.33 0.07,-0.58 1.03,2.5 11.37,-1.87 16.42,0.01 z"
   class="st53" />
			<path
   id="path882"
   d="m 1489.88,882.51 c 2.45,-2.73 4.47,-4.44 6.62,-5.71 l 1.16,8.12 h 2.96 l 0.26,-9.89 c -1.28,0.14 -3.11,0.42 -4.86,0.98 -3.12,1 -6.07,5.66 -9.25,7.96 -3.04,2.19 -6.71,1.81 -9.96,1.31 -0.2,0.29 -0.34,0.55 -0.37,0.8 0.42,0.23 1.39,0.61 2.97,0.61 2.25,0 6.43,0.35 10.47,-4.18 z"
   class="st17" />
		</g>
	</g>
	<path
   id="path888"
   d="m 1507.08,588.62 c 2.52,-3.1 5.15,-5.68 8.4,-7.78 -5.03,-6.5 -9.36,-11.21 -8.08,-14.86 1.44,-4.13 14.52,-30.39 14.52,-30.39 l -18.87,-10.39 c 0,0 -12.84,26.78 -16.23,30.57 -3.06,3.43 -4.05,0.57 -15.31,-1.13 -4.2,5.67 -7.21,11.99 -10.49,18.21 3.84,1.41 10.09,3.93 16.46,7.52 7.77,4.37 17.77,7.88 22.7,16.47 2.16,-2.85 4.65,-5.46 6.9,-8.22 z"
   class="st45" />
	
		<linearGradient
   gradientTransform="matrix(-0.881,-0.4732,-0.4732,0.881,21722.746,5313.5918)"
   y2="5385.6064"
   x2="20065.512"
   y1="5351.0449"
   x1="20068.584"
   gradientUnits="userSpaceOnUse"
   id="SVGID_4_">
		<stop
   id="stop890"
   style="stop-color:#F0C3A8"
   offset="0" />
		<stop
   id="stop892"
   style="stop-color:#FFFFFF"
   offset="1" />
	</linearGradient>
	<path
   style="fill:url(#SVGID_4_)"
   id="path895"
   d="m 1485.92,556.64 c 0.29,-0.23 0.58,-0.52 0.9,-0.87 3.39,-3.79 16.23,-30.57 16.23,-30.57 l 18.87,10.39 c 0,0 -13.08,26.27 -14.52,30.39 -0.23,0.66 -0.28,1.36 -0.17,2.1 z"
   class="st54" />
	<path
   id="path897"
   d="m 1516.67,529.38 c -3.15,2.6 -3.61,7.25 -1.01,10.41 2.59,3.15 7.25,3.61 10.41,1.01 3.15,-2.59 3.61,-7.25 1.01,-10.41 -2.6,-3.15 -7.26,-3.6 -10.41,-1.01 z"
   class="st49" />
	<path
   id="path899"
   d="m 1518.89,532.08 c -1.66,1.37 -1.9,3.82 -0.53,5.48 1.37,1.66 3.82,1.9 5.48,0.53 1.66,-1.37 1.9,-3.82 0.53,-5.48 -1.37,-1.66 -3.82,-1.9 -5.48,-0.53 z"
   class="st50" />
	<path
   id="path901"
   d="m 1501.32,543.08 c -1.9,-0.57 -4.53,-1.66 -5.68,-3.01 3.94,-7.74 7.4,-14.88 7.4,-14.88 l 15.33,8.47 c -4.53,7.24 -11.44,11.11 -17.05,9.42 z"
   class="st47" />
	<path
   id="path903"
   d="m 1504.24,513.47 c -11.61,9.32 -11.62,15.9 -6.75,21.81 4.87,5.91 15.63,6.14 24,-0.07 8.35,-6.2 12.48,-14.68 5.72,-22.9 -7.33,-8.9 -14.84,-5.37 -22.97,1.16 z"
   class="st45" />
	<path
   id="path905"
   d="m 1520.68,525.67 c -0.59,-1.35 -1.27,-2.64 -2.22,-3.72 -0.47,-0.54 -1,-1.02 -1.58,-1.43 -0.58,-0.41 -1.22,-0.77 -1.9,-0.98 l -0.02,-0.01 c -0.08,-0.03 -0.13,-0.11 -0.1,-0.2 0.02,-0.07 0.09,-0.12 0.17,-0.11 1.57,0.19 2.91,1.14 3.94,2.27 0.49,0.6 0.93,1.23 1.25,1.93 0.17,0.34 0.3,0.7 0.44,1.05 l 0.3,1.09 c 0.02,0.08 -0.03,0.17 -0.11,0.19 -0.06,0.04 -0.13,0 -0.17,-0.08 z"
   class="st55" />
	<path
   id="path907"
   d="m 1513.82,523.32 c -0.43,0.35 -0.49,0.98 -0.14,1.4 0.35,0.43 0.98,0.49 1.4,0.14 0.43,-0.35 0.49,-0.98 0.14,-1.4 -0.35,-0.42 -0.97,-0.49 -1.4,-0.14 z" />
	<path
   id="path909"
   d="m 1512.41,514.89 c -0.15,-0.35 -0.27,-0.71 -0.44,-1.05 -0.33,-0.69 -0.77,-1.33 -1.25,-1.93 -0.57,-0.62 -1.24,-1.18 -1.98,-1.59 -0.2,0.1 -0.4,0.2 -0.59,0.31 0.16,0.1 0.33,0.19 0.48,0.3 0.58,0.41 1.11,0.89 1.58,1.43 0.95,1.08 1.63,2.37 2.22,3.72 v 0.01 c 0.03,0.07 0.11,0.11 0.19,0.09 0.08,-0.02 0.13,-0.11 0.11,-0.19 z"
   class="st55" />
	<path
   id="path911"
   d="m 1506.06,514.29 c -0.43,0.35 -0.49,0.98 -0.14,1.4 0.35,0.43 0.98,0.49 1.4,0.14 0.43,-0.35 0.49,-0.98 0.14,-1.4 -0.35,-0.43 -0.98,-0.49 -1.4,-0.14 z" />
	<path
   id="path913"
   d="m 1502.99,514.8 c -0.05,-0.06 -0.11,-0.1 -0.16,-0.15 -1.83,1.6 -3.33,3.11 -4.57,4.56 1.2,1.25 3.18,1.33 4.49,0.17 1.32,-1.2 1.44,-3.25 0.24,-4.58 z"
   class="st49" />
	<path
   id="path915"
   d="m 1508.5,526.52 c -1.38,1.14 -1.58,3.18 -0.44,4.56 1.14,1.38 3.18,1.58 4.56,0.44 1.38,-1.14 1.58,-3.18 0.44,-4.56 -1.13,-1.38 -3.18,-1.58 -4.56,-0.44 z"
   class="st49" />
	<path
   id="path917"
   d="m 1500.4,521.93 c -1.38,1.14 -1.58,3.18 -0.44,4.56 1.14,1.38 3.18,1.58 4.56,0.44 1.38,-1.14 -0.37,-1.89 -1.51,-3.27 -1.14,-1.38 -1.23,-2.87 -2.61,-1.73 z"
   class="st49" />
	<path
   id="path919"
   d="m 1511.15,517.79 h -5.57 c -0.66,0 -1.09,0.71 -0.79,1.3 l 1.35,2.69 z"
   class="st49" />
	<path
   id="path921"
   d="m 1447.24,617.84 c -8.57,19.29 -16.71,42 -20.14,84.85 -3.43,42.86 0.43,87 3,102.42 2.57,15.43 5.57,28.71 5.57,28.71 0,0 6,1.71 11.57,1.29 5.57,-0.43 11.14,-2.57 11.14,-2.57 0,0 -5.74,-28.48 -4.15,-47.67 1.58,-19.19 9.73,-88.19 9.73,-88.19 0,0 2.57,73.28 4.71,92.57 2.14,19.29 6.43,42.43 6.43,42.43 0,0 5.14,2.57 12,1.71 6.86,-0.86 11.14,-5.57 11.14,-5.57 0,0 -4.71,-21 -2.57,-43.28 2.14,-22.28 8.14,-72.43 9.43,-98.57 1.29,-26.14 -14.2,-63.32 -14.2,-63.32 z"
   class="st53" />
	<path
   id="path923"
   d="m 1507.57,595.02 c 1.34,-1.56 2.88,-3.43 4.18,-5.02 2.52,-3.1 0.48,-7.05 3.73,-9.15 -2.6,-3.37 -5.01,-6.25 -6.56,-8.76 -8.45,3.41 -26.64,5.47 -27.09,5.32 -0.49,-0.17 -1.44,-12.76 1.09,-20.14 -1.77,-0.33 -4.34,-1.36 -9.14,-2.25 l 0.01,-0.01 c -0.38,-0.07 -0.82,-0.14 -1.28,-0.21 -0.34,-0.06 -0.65,-0.11 -1,-0.17 -0.01,0.02 -0.03,0.04 -0.04,0.05 -1.1,-0.1 -2.28,-0.14 -3.36,-0.01 -1.12,0.85 -2.11,1.84 -4.07,4.48 -3.02,4.08 -4.14,6.98 -4.47,7.97 l -0.02,-0.01 c 0,0 -9.47,3.94 -10.78,12.14 -1.29,8.08 4.05,12.88 4.05,12.88 l -5.59,25.69 c 0,0 6.43,4.29 19.29,5.14 17.47,1.16 24.37,-0.32 24.37,-0.32 l 12.52,-14.18 2.31,-12.95 c 0,0.02 3.56,0.88 1.85,-0.49 z"
   class="st14" />
	<path
   id="path925"
   d="m 1529.31,540.91 c -19.29,-11.14 -1.86,-20.53 -4.24,-27.07 -3.23,-8.89 -10.48,-7.4 -10.86,-7.86 -1.36,-1.65 7.58,-2.89 7.58,-2.89 l 18.68,19.87 z"
   class="st52" />
	<path
   id="path927"
   d="m 1494.84,618.19 c 1.82,-8.29 4.03,-11.35 8.57,-18.65 v 8.94 z"
   class="st56" />
	<path
   id="path929"
   d="m 1514.29,631.99 c -7.96,16.23 -16.34,27.64 -27.64,26.35 -8.66,-0.99 -24.75,-11.39 -33.03,-17.05 4.51,-3.21 6.19,-7.65 7.05,-13.19 9.74,5.75 28.63,15.76 28.63,15.76 0,0 3.89,-6.14 8.92,-17.58 5.03,-11.42 6.77,-28.12 6.77,-28.12 0,0 -0.41,-0.41 -1.13,-1.1 3.86,-5.61 7.98,-11.04 11.09,-17.1 0.22,0.33 0.43,0.63 0.67,0.98 8.31,12.64 6.63,34.81 -1.33,51.05 z"
   class="st14" />
	<path
   id="path931"
   d="m 1456.55,643.05 c -2.61,-1.59 -4.48,-2.76 -5.16,-3.17 -2.93,-1.76 -13.52,-7.47 -12.47,-9.21 0.44,-0.73 1.35,-0.66 2.49,-0.08 1.18,0.6 2.46,1.19 3.15,1.5 -1.86,-0.96 -8.05,-4.25 -7.24,-5.87 0.48,-0.97 2.7,-0.03 4.94,1.04 1.58,0.75 3.19,1.57 3.96,1.97 -0.92,-0.53 -3.02,-1.69 -4.9,-2.88 -1.93,-1.22 -3.44,-2.59 -2.82,-3.4 0.56,-0.74 2.09,-0.26 3.76,0.68 1.28,0.73 2.63,1.52 3.7,2.14 -2.26,-1.42 -5.54,-3.71 -4.67,-4.71 1.24,-1.44 10.07,4.35 10.95,4.94 -0.47,-0.43 -3.12,-2.8 -3.56,-3.34 -0.77,-0.92 -0.68,-2.23 0.77,-2.09 1.33,0.13 7.59,4.37 9.89,7.03 0.95,0.53 2.15,1.18 3.52,1.89 -0.55,5.59 -1.98,10.11 -6.31,13.56 z"
   class="st45" />
	<path
   id="path933"
   d="m 1418.03,519.47 c 0,0 1.05,-20.33 5.27,-23.34 4.22,-3.01 9.22,3.35 9.72,4.57 0.5,1.21 -0.21,3 -0.21,6 0,3 0.65,11.06 0.65,11.06 l -1.57,4.3 -11.79,0.5 z"
   class="st45" />
	<path
   id="path935"
   d="m 1468.11,554.68 c -20.87,-2.98 -33.73,-3.84 -33.73,-3.84 0,0 -0.26,-20.32 -0.93,-33.08 0,0 -1.71,3.14 -6,3.14 -4.29,0 -9.43,-1.43 -9.43,-1.43 0,0 -4.22,41.54 6.93,47.94 15.86,9.1 40.57,6.57 40.57,6.57 z"
   class="st14" />
	<g
   id="g963">
		<path
   id="path937"
   d="m 1434.52,508.06 -15,-10.98 c -3.39,-2.48 -4.13,-7.25 -1.65,-10.64 l 2.26,-3.09 c 0.49,-0.67 1.43,-0.81 2.1,-0.32 0.67,0.49 0.81,1.43 0.32,2.1 l -2.26,3.09 c -1.5,2.05 -1.05,4.95 1,6.45 l 15,10.98 c 2.05,1.5 4.95,1.05 6.45,-1 l 6.39,-8.74 c 0.49,-0.67 1.43,-0.81 2.1,-0.32 0.67,0.49 0.81,1.43 0.32,2.1 l -6.39,8.74 c -2.48,3.37 -7.25,4.11 -10.64,1.63 z"
   class="st57" />
		<g
   id="g943">
			<path
   id="path939"
   d="m 1420.29,488.21 2.26,-3.09 c 0.49,-0.67 0.34,-1.61 -0.32,-2.1 -0.67,-0.49 -1.61,-0.34 -2.1,0.32 l -2.26,3.09 c -0.79,1.08 -1.25,2.3 -1.41,3.54 l 2.95,1.28 c -0.07,-1.05 0.21,-2.13 0.88,-3.04 z"
   class="st26" />
			<path
   id="path941"
   d="m 1451.56,497.68 c 0.49,-0.67 0.34,-1.61 -0.32,-2.1 -0.67,-0.49 -1.61,-0.34 -2.1,0.32 l -4.56,6.24 2.82,1.22 z"
   class="st26" />
		</g>
		<polygon
   id="polygon945"
   points="1415.48,419.53 1486.62,502.27 1478.94,512.76 1378.56,469.97 "
   class="st31" />
		<polygon
   id="polygon947"
   points="1486.62,502.27 1502.59,508.38 1489.6,526.14 1478.94,512.76 "
   class="st31" />
		
			<circle
   r="31.26"
   id="ellipse949"
   cy="444.10999"
   cx="1396.15"
   class="st58"
   transform="matrix(0.1532,-0.9882,0.9882,0.1532,743.3467,1755.7222)" />
		
			<circle
   r="27.440001"
   id="ellipse951"
   cy="444.10999"
   cx="1396.15"
   class="st5"
   transform="matrix(0.8207,-0.5714,0.5714,0.8207,-3.3986,877.394)" />
		<path
   id="path953"
   d="m 1407.36,436.42 c -0.08,0 -0.15,-0.02 -0.22,-0.07 -1.4,-1.02 -1.35,-2.58 -1.3,-3.94 0.04,-1.35 0.08,-2.52 -1,-3.31 -1.08,-0.79 -2.18,-0.4 -3.46,0.05 -1.29,0.46 -2.75,0.98 -4.15,-0.05 -1.4,-1.02 -1.35,-2.57 -1.3,-3.94 0.05,-1.35 0.08,-2.52 -0.99,-3.31 -1.08,-0.79 -2.18,-0.4 -3.46,0.05 -1.29,0.46 -2.75,0.98 -4.15,-0.05 -1.4,-1.02 -1.35,-2.57 -1.3,-3.94 0.05,-1.35 0.08,-2.52 -0.99,-3.31 -1.08,-0.79 -2.18,-0.4 -3.46,0.06 -1.29,0.46 -2.75,0.98 -4.15,-0.05 -1.4,-1.02 -1.35,-2.57 -1.3,-3.94 0.05,-1.35 0.09,-2.52 -0.99,-3.31 -1.08,-0.79 -2.18,-0.4 -3.46,0.06 -1.29,0.46 -2.75,0.98 -4.15,-0.05 -1.4,-1.02 -1.35,-2.57 -1.3,-3.94 0.05,-1.35 0.08,-2.52 -0.99,-3.31 -0.17,-0.12 -0.2,-0.36 -0.08,-0.52 0.12,-0.17 0.36,-0.2 0.52,-0.08 1.4,1.02 1.35,2.57 1.3,3.94 -0.05,1.35 -0.08,2.52 0.99,3.31 1.08,0.79 2.18,0.4 3.46,-0.06 1.29,-0.46 2.75,-0.98 4.15,0.05 1.4,1.02 1.35,2.57 1.3,3.94 -0.05,1.35 -0.09,2.52 0.99,3.31 1.08,0.79 2.18,0.4 3.46,-0.06 1.29,-0.46 2.75,-0.98 4.15,0.05 1.4,1.02 1.35,2.57 1.3,3.94 -0.05,1.35 -0.08,2.52 0.99,3.31 1.08,0.79 2.18,0.4 3.46,-0.05 1.29,-0.46 2.75,-0.98 4.15,0.05 1.4,1.02 1.35,2.57 1.3,3.94 -0.05,1.35 -0.08,2.52 0.99,3.31 1.08,0.79 2.18,0.4 3.46,-0.05 1.29,-0.46 2.75,-0.98 4.15,0.05 1.4,1.02 1.35,2.58 1.3,3.94 -0.04,1.35 -0.08,2.52 1,3.31 0.17,0.12 0.2,0.36 0.08,0.52 -0.07,0.09 -0.19,0.15 -0.3,0.15 z"
   class="st31" />
		<path
   id="path955"
   d="m 1406.8,450.87 c -0.08,0 -0.15,-0.02 -0.22,-0.07 -1.72,-1.26 -1.79,-2.93 -1.87,-4.55 -0.07,-1.51 -0.13,-2.93 -1.56,-3.98 -1.43,-1.05 -2.81,-0.68 -4.26,-0.29 -1.56,0.42 -3.18,0.85 -4.9,-0.41 -1.72,-1.26 -1.79,-2.93 -1.87,-4.55 -0.07,-1.51 -0.13,-2.93 -1.56,-3.97 -1.43,-1.05 -2.8,-0.68 -4.26,-0.29 -1.56,0.42 -3.18,0.85 -4.9,-0.4 -1.72,-1.26 -1.79,-2.93 -1.87,-4.55 -0.07,-1.51 -0.13,-2.93 -1.56,-3.97 -1.43,-1.04 -2.8,-0.67 -4.26,-0.28 -1.56,0.42 -3.18,0.85 -4.9,-0.4 -1.72,-1.26 -1.79,-2.93 -1.86,-4.55 -0.07,-1.51 -0.13,-2.93 -1.56,-3.97 -1.43,-1.04 -2.8,-0.68 -4.26,-0.28 -1.56,0.42 -3.18,0.85 -4.9,-0.4 -1.72,-1.26 -1.79,-2.93 -1.87,-4.55 -0.07,-1.51 -0.13,-2.93 -1.56,-3.97 -0.17,-0.12 -0.2,-0.36 -0.08,-0.52 0.12,-0.17 0.36,-0.2 0.52,-0.08 1.72,1.26 1.79,2.93 1.87,4.55 0.07,1.51 0.13,2.93 1.56,3.97 1.43,1.04 2.8,0.68 4.26,0.28 1.56,-0.42 3.18,-0.85 4.9,0.4 1.72,1.26 1.79,2.93 1.86,4.55 0.07,1.51 0.13,2.93 1.56,3.97 1.43,1.04 2.8,0.68 4.26,0.28 1.56,-0.42 3.18,-0.85 4.9,0.4 1.72,1.26 1.79,2.93 1.87,4.55 0.07,1.51 0.13,2.93 1.56,3.97 1.43,1.05 2.8,0.68 4.26,0.29 1.56,-0.42 3.18,-0.85 4.9,0.4 1.72,1.26 1.79,2.93 1.87,4.55 0.07,1.51 0.13,2.93 1.56,3.97 1.43,1.05 2.81,0.68 4.26,0.29 1.56,-0.42 3.18,-0.85 4.9,0.41 1.72,1.26 1.79,2.93 1.87,4.55 0.07,1.51 0.13,2.93 1.56,3.98 0.17,0.12 0.2,0.36 0.08,0.52 -0.07,0.1 -0.18,0.15 -0.3,0.15 z"
   class="st31" />
		<path
   id="path957"
   d="m 1393.4,455.49 c -0.08,0 -0.15,-0.02 -0.22,-0.07 -1.4,-1.02 -1.35,-2.58 -1.3,-3.94 0.05,-1.35 0.08,-2.52 -1,-3.31 -1.08,-0.79 -2.18,-0.4 -3.46,0.05 -1.29,0.46 -2.75,0.98 -4.15,-0.05 -1.4,-1.02 -1.35,-2.57 -1.3,-3.94 0.05,-1.35 0.08,-2.52 -0.99,-3.31 -1.08,-0.79 -2.18,-0.4 -3.46,0.05 -1.29,0.46 -2.75,0.98 -4.15,-0.05 -1.4,-1.02 -1.35,-2.57 -1.3,-3.94 0.05,-1.35 0.08,-2.52 -0.99,-3.31 -1.08,-0.79 -2.18,-0.4 -3.46,0.06 -1.29,0.46 -2.75,0.98 -4.15,-0.05 -1.4,-1.02 -1.35,-2.57 -1.3,-3.94 0.05,-1.35 0.08,-2.52 -0.99,-3.31 -1.08,-0.79 -2.18,-0.4 -3.46,0.06 -1.29,0.46 -2.75,0.98 -4.15,-0.05 -1.4,-1.02 -1.35,-2.57 -1.3,-3.94 0.05,-1.35 0.08,-2.52 -0.99,-3.31 -0.17,-0.12 -0.2,-0.36 -0.08,-0.52 0.12,-0.17 0.36,-0.2 0.52,-0.08 1.4,1.02 1.35,2.57 1.3,3.94 -0.05,1.35 -0.08,2.52 0.99,3.31 1.08,0.79 2.18,0.4 3.46,-0.06 1.29,-0.46 2.75,-0.98 4.15,0.05 1.4,1.02 1.35,2.57 1.3,3.94 -0.05,1.35 -0.08,2.52 0.99,3.31 1.08,0.79 2.18,0.4 3.46,-0.06 1.29,-0.46 2.75,-0.98 4.15,0.05 1.4,1.02 1.35,2.57 1.3,3.94 -0.05,1.35 -0.08,2.52 0.99,3.31 1.08,0.79 2.18,0.4 3.46,-0.05 1.29,-0.46 2.75,-0.98 4.15,0.05 1.4,1.02 1.35,2.57 1.3,3.94 -0.05,1.35 -0.08,2.52 0.99,3.31 1.08,0.79 2.18,0.4 3.46,-0.05 1.29,-0.46 2.75,-0.98 4.15,0.05 1.4,1.02 1.35,2.58 1.3,3.94 -0.04,1.35 -0.08,2.52 1,3.31 0.17,0.12 0.2,0.36 0.08,0.52 -0.07,0.09 -0.18,0.15 -0.3,0.15 z"
   class="st31" />
		<polygon
   id="polygon959"
   points="1486.62,502.27 1480.93,495.65 1470.91,509.34 1478.94,512.76 "
   class="st26" />
		<path
   id="path961"
   d="m 1470.07,498.59 c -0.08,0 -0.15,-0.02 -0.22,-0.07 l -42.16,-30.85 c -0.17,-0.12 -0.2,-0.36 -0.08,-0.52 0.12,-0.17 0.36,-0.2 0.52,-0.08 l 42.16,30.85 c 0.17,0.12 0.2,0.36 0.08,0.52 -0.07,0.09 -0.19,0.15 -0.3,0.15 z"
   class="st11" />
	</g>
	<path
   id="path965"
   d="m 1424.67,496.77 c 0,0 -1,6 0,6.21 1,0.21 1.57,-6.07 1.57,-6.07 0,0 -0.36,7.36 0.5,7.43 0.86,0.07 1.29,-6.29 1.29,-6.29 0,0 -0.43,7.21 0.57,7.36 1,0.14 1.86,-5.57 1.86,-5.57 0,0 -1.14,6.5 0.21,6.86 1.36,0.36 2.36,-5.43 2.36,-5.43 0,0 -0.71,-3.5 -3.93,-4.79 -3.21,-1.29 -4.07,-1.36 -5.64,-0.29 z"
   class="st45" />
	<path
   id="path967"
   d="m 1429.74,507.98 c -1.76,-2.87 -4.5,-7.43 -3.14,-8.29 1.36,-0.86 6,5.79 6,5.79 l 0.14,5 c 0,0 -2.21,-1.21 -3,-2.5 z"
   class="st45" />
</g>
<g
   transform="translate(-331.24,-19.715898)"
   id="g977">
	<path
   id="path971"
   d="m 920.97,505.55 c -0.71,0 -1.29,-0.58 -1.29,-1.29 V 395.42 c 0,-0.71 0.58,-1.29 1.29,-1.29 0.71,0 1.29,0.58 1.29,1.29 v 108.85 c 0,0.71 -0.58,1.28 -1.29,1.28 z"
   class="st59" />
	<path
   id="path973"
   d="m 950.4,505.55 c -0.71,0 -1.29,-0.58 -1.29,-1.29 V 395.42 c 0,-0.71 0.58,-1.29 1.29,-1.29 0.71,0 1.29,0.58 1.29,1.29 v 108.85 c 0,0.71 -0.58,1.28 -1.29,1.28 z"
   class="st59" />
	<path
   id="path975"
   d="m 979.83,505.55 c -0.71,0 -1.29,-0.58 -1.29,-1.29 V 395.42 c 0,-0.71 0.58,-1.29 1.29,-1.29 0.71,0 1.29,0.58 1.29,1.29 v 108.85 c -0.01,0.71 -0.58,1.28 -1.29,1.28 z"
   class="st59" />
</g>
<g
   transform="translate(-331.24,-19.715898)"
   id="g995"
   class="st6">
	<g
   id="g985">
		<path
   id="path979"
   d="m 782.98,429.7 c -0.47,0 -0.86,-0.38 -0.86,-0.86 V 319.99 c 0,-0.47 0.38,-0.86 0.86,-0.86 0.47,0 0.86,0.38 0.86,0.86 v 108.85 c 0,0.48 -0.39,0.86 -0.86,0.86 z"
   class="st3" />
		<path
   id="path981"
   d="m 812.41,429.7 c -0.47,0 -0.86,-0.38 -0.86,-0.86 V 319.99 c 0,-0.47 0.38,-0.86 0.86,-0.86 0.47,0 0.86,0.38 0.86,0.86 v 108.85 c -0.01,0.48 -0.39,0.86 -0.86,0.86 z"
   class="st3" />
		<path
   id="path983"
   d="m 841.83,429.7 c -0.47,0 -0.86,-0.38 -0.86,-0.86 V 319.99 c 0,-0.47 0.38,-0.86 0.86,-0.86 0.47,0 0.86,0.38 0.86,0.86 v 108.85 c 0,0.48 -0.38,0.86 -0.86,0.86 z"
   class="st3" />
	</g>
	<g
   id="g993">
		<path
   id="path987"
   d="m 782.98,429.7 c -0.47,0 -0.86,-0.38 -0.86,-0.86 V 319.99 c 0,-0.47 0.38,-0.86 0.86,-0.86 0.47,0 0.86,0.38 0.86,0.86 v 108.85 c 0,0.48 -0.39,0.86 -0.86,0.86 z"
   class="st60" />
		<path
   id="path989"
   d="m 812.41,429.7 c -0.47,0 -0.86,-0.38 -0.86,-0.86 V 319.99 c 0,-0.47 0.38,-0.86 0.86,-0.86 0.47,0 0.86,0.38 0.86,0.86 v 108.85 c -0.01,0.48 -0.39,0.86 -0.86,0.86 z"
   class="st60" />
		<path
   id="path991"
   d="m 841.83,429.7 c -0.47,0 -0.86,-0.38 -0.86,-0.86 V 319.99 c 0,-0.47 0.38,-0.86 0.86,-0.86 0.47,0 0.86,0.38 0.86,0.86 v 108.85 c 0,0.48 -0.38,0.86 -0.86,0.86 z"
   class="st60" />
	</g>
</g>
<g
   transform="translate(-331.24,-19.715898)"
   id="g1003">
	<path
   id="path997"
   d="m 1195.96,540.12 h -108.85 c -0.47,0 -0.86,-0.38 -0.86,-0.86 0,-0.47 0.38,-0.86 0.86,-0.86 h 108.85 c 0.47,0 0.86,0.38 0.86,0.86 0,0.48 -0.38,0.86 -0.86,0.86 z"
   class="st39" />
	<path
   id="path999"
   d="m 1195.96,510.7 h -108.85 c -0.47,0 -0.86,-0.38 -0.86,-0.86 0,-0.47 0.38,-0.86 0.86,-0.86 h 108.85 c 0.47,0 0.86,0.38 0.86,0.86 0,0.47 -0.38,0.86 -0.86,0.86 z"
   class="st39" />
	<path
   id="path1001"
   d="m 1195.96,481.27 h -108.85 c -0.47,0 -0.86,-0.38 -0.86,-0.86 0,-0.47 0.38,-0.86 0.86,-0.86 h 108.85 c 0.47,0 0.86,0.38 0.86,0.86 0,0.48 -0.38,0.86 -0.86,0.86 z"
   class="st39" />
</g>
</svg>
