<?xml version="1.0" encoding="UTF-8" standalone="no"?>
<svg
   xmlns:dc="http://purl.org/dc/elements/1.1/"
   xmlns:cc="http://creativecommons.org/ns#"
   xmlns:rdf="http://www.w3.org/1999/02/22-rdf-syntax-ns#"
   xmlns:svg="http://www.w3.org/2000/svg"
   xmlns="http://www.w3.org/2000/svg"
   xmlns:sodipodi="http://sodipodi.sourceforge.net/DTD/sodipodi-0.dtd"
   xmlns:inkscape="http://www.inkscape.org/namespaces/inkscape"
   inkscape:version="1.0 (4035a4fb49, 2020-05-01)"
   height="409.29999"
   width="711.11932"
   sodipodi:docname="service-description.svg"
   xml:space="preserve"
   viewBox="0 0 711.11932 409.29999"
   y="0px"
   x="0px"
   id="Layer_1"
   version="1.1"><metadata
   id="metadata518"><rdf:RDF><cc:Work
       rdf:about=""><dc:format>image/svg+xml</dc:format><dc:type
         rdf:resource="http://purl.org/dc/dcmitype/StillImage" /><dc:title></dc:title></cc:Work></rdf:RDF></metadata><defs
   id="defs516" /><sodipodi:namedview
   inkscape:current-layer="Layer_1"
   inkscape:window-maximized="1"
   inkscape:window-y="-9"
   inkscape:window-x="-9"
   inkscape:cy="204.49"
   inkscape:cx="352.44931"
   inkscape:zoom="0.62916667"
   fit-margin-bottom="0"
   fit-margin-right="0"
   fit-margin-left="0"
   fit-margin-top="0"
   showgrid="false"
   id="namedview514"
   inkscape:window-height="1271"
   inkscape:window-width="2400"
   inkscape:pageshadow="2"
   inkscape:pageopacity="0"
   guidetolerance="10"
   gridtolerance="10"
   objecttolerance="10"
   borderopacity="1"
   bordercolor="#666666"
   pagecolor="#ffffff" />
<style
   id="style2"
   type="text/css">
	.st0{fill:#634A50;}
	.st1{fill:#4199D0;}
	.st2{fill:#777B9C;}
	.st3{fill:#3F6B8B;}
	.st4{fill:#F2B38C;}
	.st5{fill:#E5C272;}
	.st6{fill:#569FD8;}
	.st7{fill:#F49E85;}
	.st8{fill:#2A74A0;}
	.st9{fill:#C6D1E6;}
	.st10{fill:#4B4B6D;}
	.st11{fill:#368BC1;}
	.st12{fill:#FFFFFF;}
	.st13{fill:#A3D6FD;}
	.st14{fill:#F9FFF1;}
	.st15{fill:#FBD891;}
	.st16{fill:#FDD345;}
	.st17{fill:#EF374F;}
	.st18{fill:#1F3B60;}
	.st19{fill:#FBD0C3;}
	.st20{fill:#00477D;}
	.st21{fill:#CED8E7;}
	.st22{fill:#E2ECF1;}
	.st23{fill:#5091EE;}
	.st24{fill:#77ADD8;}
	.st25{fill:#E58472;}
	.st26{fill:#E1AEA6;}
	.st27{fill:#D09892;}
	.st28{opacity:0.2;fill:#FFFFFF;}
	.st29{font-family:'OpenSans-Bold';}
	.st30{font-size:24.2758px;}
</style>
<g
   transform="translate(-607.55069,-335.51)"
   id="character6_5_">
	<path
   id="path4"
   d="m 1231.64,507.99 c 0.17,-1.42 2.7,-2.52 3.05,-3.26 0.5,-1.08 -1.82,-6.66 1.91,-8.07 1.19,-0.45 4.66,0.18 5.57,-0.13 1.28,-0.44 1.6,-3.36 3.64,-3.9 1.32,-0.35 2.69,1.4 3.89,1.7 1.53,0.38 3.35,-1.63 4.88,-1.33 1.4,0.28 1.43,2.16 2.94,3.21 1.11,0.76 3.24,-0.42 4.48,0.41 1.5,1 0.54,3.01 1.97,4.18 0.93,0.76 2.11,0.35 2.61,1.55 0.53,1.29 -0.32,3.21 -0.37,4.2 -0.08,1.57 1.45,3.69 0.77,5.07 -0.9,1.83 -2.99,0.62 -4.26,2.08 -1.49,1.72 -1.33,4.79 -2.51,5.28 -1.21,0.49 -4.77,-0.07 -5.63,0.35 -0.67,0.33 -1.23,2.63 -2.64,3.15 -0.96,0.35 -5.1,-0.16 -5.89,-0.31 -1.58,-0.3 -6.23,0.86 -6.93,0.64 -0.86,-0.28 -0.97,-2.85 -1.52,-3.38 -0.62,-0.59 -2.49,-0.04 -3.53,-1.33 -0.93,-1.15 0.61,-4.22 0.45,-4.91 -0.55,-2.31 -3.14,-2.98 -2.88,-5.2 z"
   class="st0" />
	<path
   id="path6"
   d="m 1242.98,554.59 c -3.59,-8.34 -7.15,-15.79 -7.76,-13.95 -3.42,10.41 -17.74,32.78 -12.6,40.38 4.48,6.63 16.77,-7.1 16.77,-7.1 0,0 7.58,-10.06 3.59,-19.33 z"
   class="st1" />
	<g
   id="g14">
		<path
   id="path8"
   d="m 1249.76,735.06 c 2.13,0.44 -0.25,6.6 -0.25,6.6 h 1.24 l 1,-1.91 v -5.53 z"
   class="st2" />
		<path
   id="path10"
   d="m 1241.86,737.63 c -1.77,0.28 -6.71,1.58 -6.99,3.53 -0.04,0.3 0.19,0.55 0.49,0.55 h 9.57 c 0.44,0 0.84,-0.24 1.05,-0.62 1.09,-1.98 3.44,-5.24 4.77,-5.65 1.25,-0.39 0.31,5.27 0,6.22 0.6,0 1.44,0 1.86,0 -0.14,-2.85 0.17,-6.65 0.25,-6.72 0.34,-0.33 1.41,-1.98 1.41,-3.39 0,-1.04 -1.71,-3.48 -2.25,-3.22 -0.78,0.39 -10.16,9.3 -10.16,9.3 z"
   class="st3" />
		<path
   id="path12"
   d="m 1243.75,655.17 c 1.47,12.76 5.3,69.76 3.93,73.13 -0.11,0.28 -0.99,1.24 -2.11,3.09 -1,1.66 -2.71,4.91 -3.22,6.29 -0.11,0.3 1.73,0.46 1.98,0.34 3.12,-1.54 5.43,-6.48 7.51,-9.34 1.49,-9.08 13.82,-34.51 13.14,-48.6 -0.47,-9.59 -13.65,-21.2 -13.65,-21.2 0,0 -8.31,-9.97 -7.58,-3.71 z"
   class="st4" />
	</g>
	<g
   id="g22">
		<path
   id="path16"
   d="m 1312.55,720.24 c 1.99,-0.87 3.6,5.54 3.6,5.54 l 1.02,-0.72 -0.29,-2.13 -3.19,-4.52 z"
   class="st2" />
		<path
   id="path18"
   d="m 1307.57,726.9 c -1.29,1.25 -4.57,5.16 -3.68,6.91 0.14,0.28 0.47,0.35 0.72,0.17 l 8.42,-5.94 c 1.57,-1.29 0,-6.89 0.74,-7.7 0.89,-0.97 3.09,3.76 3.38,4.72 l 1.52,-1.07 c -1.76,-2.25 -3.69,-5.53 -3.67,-5.64 0.09,-0.46 0.01,-2.43 -0.8,-3.59 -0.6,-0.85 -3.4,-1.86 -3.69,-1.33 -0.4,0.77 -2.94,13.47 -2.94,13.47 z"
   class="st3" />
		<path
   id="path20"
   d="m 1271.89,664.03 c 11.11,13.34 33.67,48.71 35.05,52.08 0.28,0.68 -0.4,4.51 1.08,10.55 0.09,0.36 1.62,-0.48 1.82,-0.87 1.62,-3.29 2.72,-10.71 1.54,-12.15 -5.49,-6.68 -5.77,-38.27 -15.78,-48.21 -12.41,-12.32 -30.58,-9.22 -30.58,-9.22 0,0 2.83,2.98 6.87,7.82 z"
   class="st4" />
	</g>
	<path
   id="path24"
   d="m 1239.38,581.97 c -7.05,21.36 1.14,73.17 2.96,80.45 1.1,4.41 42.64,-2.18 42.63,-8.18 -13.01,-20.31 -7.34,-42.74 -9.9,-50.47 -4.68,-14.15 -12.77,-22 -12.77,-22 0,0 -4.57,2.08 -15.36,2.22 -9.88,0.12 -7.56,-2.02 -7.56,-2.02 z"
   class="st5" />
	<path
   id="path26"
   d="m 1250.56,532.41 c -5.39,-0.74 -14.38,6.03 -15.34,8.24 -1.54,3.53 -1.21,5.72 -1.43,10.41 -0.04,0.88 -3.33,5.27 -3.14,7.07 0.17,1.64 2.06,3.96 3.65,4.81 0.02,6.72 3.94,14.95 3.54,20.49 -0.21,2.96 26.66,0.83 25.41,-2.4 -4.51,-11.69 7.03,-35.03 3.9,-41.68 -1.35,-2.85 -11.31,-6.21 -16.59,-6.94 z"
   class="st6" />
	<path
   id="path28"
   d="m 1246.04,516.31 c -0.61,10.22 -0.6,15.06 -1.32,16.46 -0.56,1.09 -5.62,3.6 -5.34,4.6 1.14,4.02 21.23,3.4 21.23,-0.73 0,-1.44 -6.02,-3.99 -6.37,-5.03 -1.03,-3.07 -1.73,-12.74 -1.21,-19.24 -3.53,0.65 -6.76,0.02 -6.99,3.94 z"
   class="st7" />
	<path
   id="path30"
   d="m 1237.36,504.95 c -2.11,5.69 -1.45,17.09 2.44,19.68 2.63,1.75 11.56,-1.82 13.53,-10.18 0.88,0.58 2.25,-2.15 2.09,-4.24 -0.12,-1.56 -1.54,-1.78 -2.42,-0.56 -0.63,0.41 -2.5,0.91 -3.3,0.17 -1.09,-1 -0.82,-3.42 -1.63,-4.15 -1.06,-0.95 -5.47,0.64 -6.64,-0.28 -1.29,-1 -1.59,-3.05 -2.03,-3.04 -0.71,0.03 -1.42,0.93 -2.04,2.6 z"
   class="st4" />
	<g
   id="g34">
		<path
   id="path32"
   d="m 1248.39,563.86 c -0.94,0 -1.87,-0.11 -2.73,-0.35 -1.48,-0.41 -2.57,-1.19 -3.15,-2.26 -0.14,-0.26 -0.05,-0.58 0.21,-0.72 0.26,-0.14 0.58,-0.05 0.72,0.21 0.44,0.81 1.28,1.4 2.5,1.74 2.54,0.71 5.94,0.09 7.62,-0.9 0.25,-0.15 0.58,-0.06 0.73,0.19 0.15,0.26 0.06,0.58 -0.19,0.73 -1.33,0.79 -3.53,1.36 -5.71,1.36 z"
   class="st8" />
	</g>
	<path
   id="path36"
   d="m 1266.78,538.79 c 4.04,3.57 25.47,33.76 20.18,37.89 -0.89,0.7 -3.74,1.03 -5.61,-0.61 -4.03,-3.52 -9.69,-15.59 -17.46,-22.75 -3.86,-3.57 0.42,-16.72 2.89,-14.53 z"
   class="st6" />
	<polygon
   id="polygon38"
   points="1238.83,557.9 1258.74,581.77 1250.97,583.96 1218.26,565.77 1222.24,562.16 "
   class="st9" />
	<polygon
   id="polygon40"
   points="1256.85,584.26 1237.26,561.74 1218.26,565.77 1242.39,586.12 "
   class="st10" />
	<path
   id="path42"
   d="m 1258.55,580.74 c -1.69,0.35 -2.99,0.39 -3.58,0.15 -0.65,-0.26 -2.49,-1.62 -3.26,-1.48 -0.77,0.14 -2.29,0.84 -3.26,1.12 -0.97,0.28 -1.74,0.01 -1.73,0.36 0.01,0.35 0.64,1.05 1.31,1.06 0.67,0.01 2.68,-1.36 2.71,-0.31 0.07,2.18 -3.68,2.68 -5.69,3.06 -0.92,0.17 -4.56,-0.65 -4.52,0 0.07,1.2 5.39,3.01 8.83,2.34 3.16,-0.61 6.61,-1.5 8.32,-2.21 0.71,-0.29 2.18,-0.59 2.33,-1.11 0.27,-0.88 -0.56,-3.17 -1.46,-2.98 z"
   class="st4" />
	<path
   id="path44"
   d="m 1277.19,571.42 c -3.96,1.97 -16.18,9.17 -20.58,9.6 -1.31,0.13 -0.08,4.24 1.62,3.62 1.26,-0.46 23.14,-0.16 27.55,-7.39 1.42,-2.33 -6.12,-7.05 -8.59,-5.83 z"
   class="st4" />
	<g
   id="g52">
		<path
   id="path46"
   d="m 1224.79,573.93 c 1.6,0 2.9,1.95 3.21,1.84 0.31,-0.1 0.43,-0.23 0.72,-0.47 0.63,-0.52 2.15,-2.62 3.09,-2.77 0.95,-0.15 3.01,0.03 4.25,-0.04 1.24,-0.07 2,-0.64 2.15,-0.27 0.15,0.37 -0.26,1.34 -1.03,1.6 -0.77,0.26 -3.1,-0.47 -3.25,0.69 -0.11,0.83 7.93,-0.76 8.12,-0.06 0.25,0.95 -3.84,1.39 -3.97,1.97 -0.09,0.37 4.09,-0.47 3.98,-0.11 -0.67,2.34 -5.83,4.07 -6.15,4.13 -2.79,0.52 -7.62,-0.07 -8.56,-0.01 -0.94,0.06 -3.33,1.81 -4.49,-1.05 -0.41,-0.98 -0.58,-5.45 1.93,-5.45 z"
   class="st4" />
		<g
   id="g50">
			<path
   id="path48"
   d="m 1265.15,555.07 c -0.15,0 -0.3,-0.06 -0.4,-0.18 -1.52,-1.73 -2.82,-3.49 -2.83,-3.51 -0.18,-0.24 -0.13,-0.57 0.11,-0.75 0.24,-0.18 0.57,-0.13 0.75,0.11 0.01,0.02 1.29,1.74 2.78,3.44 0.19,0.22 0.17,0.56 -0.05,0.75 -0.11,0.1 -0.24,0.14 -0.36,0.14 z"
   class="st8" />
		</g>
	</g>
</g>
<g
   transform="translate(-607.55069,-335.51)"
   id="g153">
	<path
   id="path55"
   d="m 1134.91,456.1 c 0.39,-2.2 0.6,-4.45 0.6,-6.76 0,-21.34 -17.3,-38.63 -38.63,-38.63 -4.69,0 -9.18,0.84 -13.34,2.37 -8.24,-19 -27.16,-32.3 -49.19,-32.3 -3.19,0 -6.3,0.29 -9.33,0.83 -11.68,-27.12 -38.64,-46.1 -70.05,-46.1 -31.21,0 -58.04,18.76 -69.83,45.61 -1.95,-0.22 -3.93,-0.34 -5.94,-0.34 -29.6,0 -53.6,24 -53.6,53.6 0,7.74 1.65,15.08 4.6,21.72 z"
   class="st11" />
	<g
   id="g151">
		<g
   id="g101">
			<g
   id="g59">
				<path
   id="path57"
   d="m 1029.19,457.7 c -0.89,0 -1.6,-0.72 -1.6,-1.6 v -43.02 c 0,-0.89 0.72,-1.6 1.6,-1.6 0.89,0 1.6,0.72 1.6,1.6 v 43.02 c 0,0.88 -0.72,1.6 -1.6,1.6 z"
   class="st12" />
			</g>
			<g
   id="g63">
				<path
   id="path61"
   d="m 977.21,457.7 c -0.89,0 -1.6,-0.72 -1.6,-1.6 v -82.44 c 0,-0.89 0.72,-1.6 1.6,-1.6 0.88,0 1.6,0.72 1.6,1.6 v 82.44 c 0,0.88 -0.71,1.6 -1.6,1.6 z"
   class="st12" />
			</g>
			<g
   id="g67">
				<path
   id="path65"
   d="m 1043.49,457.7 c -0.89,0 -1.6,-0.72 -1.6,-1.6 v -10.02 c 0,-0.25 0.06,-0.5 0.17,-0.73 l 8.38,-16.49 v -15.78 c 0,-0.89 0.72,-1.6 1.6,-1.6 0.89,0 1.6,0.72 1.6,1.6 v 16.17 c 0,0.25 -0.06,0.5 -0.17,0.73 l -8.38,16.49 v 9.64 c 0,0.87 -0.72,1.59 -1.6,1.59 z"
   class="st12" />
			</g>
			<g
   id="g71">
				<path
   id="path69"
   d="m 1016.23,457.7 c -0.89,0 -1.6,-0.72 -1.6,-1.6 v -19.51 l -5.43,-10.34 c -0.12,-0.23 -0.18,-0.49 -0.18,-0.75 v -26.72 c 0,-0.89 0.72,-1.6 1.6,-1.6 0.88,0 1.6,0.72 1.6,1.6 v 26.33 l 5.43,10.34 c 0.12,0.23 0.18,0.49 0.18,0.75 v 19.91 c 0,0.87 -0.72,1.59 -1.6,1.59 z"
   class="st12" />
			</g>
			<g
   id="g75">
				<path
   id="path73"
   d="m 918.49,457.7 c -0.89,0 -1.6,-0.72 -1.6,-1.6 v -19.51 l -5.43,-10.34 c -0.12,-0.23 -0.18,-0.49 -0.18,-0.75 v -26.72 c 0,-0.89 0.72,-1.6 1.6,-1.6 0.89,0 1.6,0.72 1.6,1.6 v 26.33 l 5.43,10.34 c 0.12,0.23 0.18,0.49 0.18,0.75 v 19.91 c 0,0.87 -0.72,1.59 -1.6,1.59 z"
   class="st12" />
			</g>
			<g
   id="g79">
				<path
   id="path77"
   d="m 999.39,457.7 c -0.89,0 -1.6,-0.72 -1.6,-1.6 v -14.23 l -7.08,-16.26 c -0.09,-0.2 -0.13,-0.42 -0.13,-0.64 v -39.82 c 0,-0.89 0.72,-1.6 1.6,-1.6 0.89,0 1.6,0.72 1.6,1.6 v 39.48 l 7.08,16.26 c 0.09,0.2 0.13,0.42 0.13,0.64 v 14.56 c 0,0.89 -0.71,1.61 -1.6,1.61 z"
   class="st12" />
			</g>
			<g
   id="g83">
				<path
   id="path81"
   d="m 959.3,457.7 c -0.28,0 -0.57,-0.07 -0.83,-0.23 -0.76,-0.46 -1,-1.44 -0.54,-2.2 l 7.78,-12.84 v -55.4 c 0,-0.89 0.72,-1.6 1.6,-1.6 0.89,0 1.6,0.72 1.6,1.6 v 55.85 c 0,0.29 -0.08,0.58 -0.23,0.83 l -8.02,13.23 c -0.28,0.49 -0.81,0.76 -1.36,0.76 z"
   class="st12" />
			</g>
			<g
   id="g87">
				<path
   id="path85"
   d="m 946.74,457.7 c -0.29,0 -0.59,-0.08 -0.86,-0.25 -0.75,-0.48 -0.97,-1.47 -0.49,-2.21 l 9.37,-14.7 v -34.56 l -4.51,-6.26 c -0.2,-0.27 -0.3,-0.6 -0.3,-0.94 v -25.12 c 0,-0.89 0.72,-1.6 1.6,-1.6 0.89,0 1.6,0.72 1.6,1.6 v 24.6 l 4.51,6.26 c 0.2,0.27 0.3,0.6 0.3,0.94 V 441 c 0,0.31 -0.09,0.6 -0.25,0.86 l -9.62,15.1 c -0.3,0.48 -0.82,0.74 -1.35,0.74 z"
   class="st12" />
			</g>
			<g
   id="g91">
				<path
   id="path89"
   d="m 937.66,457.7 c -0.89,0 -1.6,-0.72 -1.6,-1.6 v -41.22 c 0,-0.89 0.72,-1.6 1.6,-1.6 0.89,0 1.6,0.72 1.6,1.6 v 41.22 c 0,0.88 -0.71,1.6 -1.6,1.6 z"
   class="st12" />
			</g>
			<g
   id="g95">
				<path
   id="path93"
   d="m 937.66,441.8 c -0.46,0 -0.9,-0.2 -1.2,-0.54 l -10.29,-11.62 c -0.26,-0.29 -0.4,-0.67 -0.4,-1.06 v -46.9 c 0,-0.89 0.72,-1.6 1.6,-1.6 0.89,0 1.6,0.72 1.6,1.6 v 46.29 l 8.59,9.71 7.57,-9.91 v -17.1 l -5.83,-11.14 c -0.41,-0.78 -0.11,-1.75 0.68,-2.16 0.78,-0.41 1.75,-0.11 2.16,0.68 l 6.01,11.49 c 0.12,0.23 0.18,0.48 0.18,0.74 v 18.04 c 0,0.35 -0.12,0.69 -0.33,0.97 l -9.09,11.89 c -0.29,0.38 -0.74,0.61 -1.22,0.63 0.01,-0.01 -0.01,-0.01 -0.03,-0.01 z"
   class="st12" />
			</g>
			<g
   id="g99">
				<path
   id="path97"
   d="m 906.39,457.7 c -0.89,0 -1.6,-0.72 -1.6,-1.6 v -11.89 l -9.43,-17.68 c -0.12,-0.23 -0.19,-0.49 -0.19,-0.75 V 394.5 c 0,-0.89 0.72,-1.6 1.6,-1.6 0.88,0 1.6,0.72 1.6,1.6 v 30.87 l 9.43,17.68 c 0.12,0.23 0.19,0.49 0.19,0.75 v 12.29 c 0.01,0.89 -0.71,1.61 -1.6,1.61 z"
   class="st12" />
			</g>
		</g>
		<g
   id="g105">
			<path
   id="path103"
   d="m 896.77,395.57 c -3.02,0 -5.48,-2.46 -5.48,-5.48 0,-3.02 2.46,-5.48 5.48,-5.48 3.02,0 5.48,2.46 5.48,5.48 0,3.02 -2.46,5.48 -5.48,5.48 z m 0,-7.75 c -1.25,0 -2.27,1.02 -2.27,2.27 0,1.25 1.02,2.27 2.27,2.27 1.25,0 2.27,-1.02 2.27,-2.27 0,-1.25 -1.01,-2.27 -2.27,-2.27 z"
   class="st12" />
		</g>
		<g
   id="g109">
			<path
   id="path107"
   d="m 912.61,399.19 c -3.02,0 -5.48,-2.46 -5.48,-5.48 0,-3.02 2.46,-5.48 5.48,-5.48 3.02,0 5.48,2.46 5.48,5.48 0,3.02 -2.46,5.48 -5.48,5.48 z m 0,-7.75 c -1.25,0 -2.27,1.02 -2.27,2.27 0,1.25 1.02,2.27 2.27,2.27 1.25,0 2.27,-1.02 2.27,-2.27 0,-1.25 -1.02,-2.27 -2.27,-2.27 z"
   class="st12" />
		</g>
		<g
   id="g113">
			<path
   id="path111"
   d="m 927.37,381.72 c -0.88,0 -1.74,-0.21 -2.54,-0.63 -2.67,-1.4 -3.71,-4.72 -2.3,-7.4 1.41,-2.67 4.72,-3.71 7.4,-2.3 2.67,1.4 3.71,4.72 2.3,7.4 -0.68,1.3 -1.82,2.25 -3.22,2.68 -0.55,0.16 -1.1,0.25 -1.64,0.25 z m 0.01,-7.75 c -0.82,0 -1.61,0.44 -2.01,1.21 -0.58,1.11 -0.15,2.48 0.95,3.07 0.54,0.28 1.15,0.34 1.73,0.16 0.58,-0.18 1.05,-0.58 1.34,-1.11 0.58,-1.11 0.15,-2.48 -0.95,-3.07 -0.35,-0.18 -0.71,-0.26 -1.06,-0.26 z"
   class="st12" />
		</g>
		<g
   id="g117">
			<path
   id="path115"
   d="m 937.65,416.42 c -0.88,0 -1.74,-0.21 -2.54,-0.63 -2.67,-1.4 -3.71,-4.72 -2.3,-7.4 1.4,-2.68 4.72,-3.71 7.4,-2.3 2.67,1.4 3.71,4.72 2.3,7.4 -0.68,1.3 -1.82,2.25 -3.22,2.68 -0.54,0.16 -1.09,0.25 -1.64,0.25 z m 0.01,-7.76 c -0.23,0 -0.45,0.03 -0.68,0.1 -0.58,0.18 -1.05,0.58 -1.34,1.11 -0.58,1.11 -0.15,2.48 0.95,3.07 0.54,0.28 1.15,0.34 1.73,0.16 0.58,-0.18 1.05,-0.58 1.34,-1.11 0.58,-1.11 0.15,-2.48 -0.95,-3.07 -0.32,-0.17 -0.68,-0.26 -1.05,-0.26 z"
   class="st12" />
		</g>
		<g
   id="g121">
			<path
   id="path119"
   d="m 939.87,400.38 c -0.86,0 -1.73,-0.2 -2.54,-0.63 -2.67,-1.4 -3.71,-4.72 -2.3,-7.4 1.4,-2.67 4.72,-3.71 7.4,-2.3 2.67,1.41 3.71,4.72 2.3,7.4 v 0 c -0.98,1.86 -2.88,2.93 -4.86,2.93 z m 0.02,-7.75 c -0.82,0 -1.61,0.44 -2.01,1.21 -0.58,1.11 -0.15,2.48 0.95,3.07 1.11,0.58 2.49,0.15 3.07,-0.95 0.58,-1.11 0.15,-2.48 -0.96,-3.07 -0.34,-0.18 -0.7,-0.26 -1.05,-0.26 z m 3.42,4.07 z"
   class="st12" />
		</g>
		<g
   id="g125">
			<path
   id="path123"
   d="m 951.55,375.26 c -1.22,0 -2.45,-0.41 -3.47,-1.24 -1.13,-0.93 -1.84,-2.24 -1.98,-3.7 -0.14,-1.46 0.29,-2.88 1.21,-4.01 0.93,-1.13 2.24,-1.84 3.7,-1.98 1.46,-0.14 2.88,0.29 4.01,1.21 1.13,0.93 1.84,2.24 1.98,3.7 0.15,1.46 -0.29,2.88 -1.21,4.01 -1.08,1.32 -2.65,2.01 -4.24,2.01 z m 0.01,-7.75 c -0.08,0 -0.15,0 -0.23,0.01 -0.6,0.06 -1.15,0.35 -1.53,0.82 -0.38,0.47 -0.56,1.06 -0.5,1.66 0.06,0.6 0.35,1.15 0.82,1.53 0.97,0.79 2.4,0.65 3.2,-0.32 0.38,-0.47 0.56,-1.06 0.5,-1.66 -0.06,-0.6 -0.35,-1.15 -0.82,-1.53 -0.41,-0.33 -0.92,-0.51 -1.44,-0.51 z"
   class="st12" />
		</g>
		<g
   id="g129">
			<path
   id="path127"
   d="m 967.32,388.17 c -1.22,0 -2.45,-0.41 -3.47,-1.24 -1.13,-0.93 -1.84,-2.24 -1.98,-3.7 -0.15,-1.46 0.29,-2.88 1.21,-4.01 0.93,-1.13 2.24,-1.84 3.7,-1.98 1.46,-0.14 2.88,0.29 4.01,1.21 2.34,1.91 2.68,5.37 0.77,7.71 v 0 c -1.08,1.32 -2.65,2.01 -4.24,2.01 z m 3,-3.02 z m -2.99,-4.73 c -0.08,0 -0.15,0 -0.23,0.01 -0.6,0.06 -1.15,0.35 -1.53,0.82 -0.38,0.47 -0.56,1.06 -0.5,1.66 0.06,0.6 0.35,1.15 0.82,1.53 0.97,0.79 2.4,0.65 3.2,-0.32 0.79,-0.97 0.65,-2.4 -0.32,-3.2 -0.42,-0.32 -0.92,-0.5 -1.44,-0.5 z"
   class="st12" />
		</g>
		<g
   id="g133">
			<path
   id="path131"
   d="m 977.2,374.33 c -1.26,0 -2.47,-0.43 -3.46,-1.24 -1.13,-0.93 -1.84,-2.24 -1.98,-3.7 -0.15,-1.46 0.29,-2.88 1.21,-4.01 1.91,-2.34 5.37,-2.68 7.71,-0.77 2.34,1.91 2.68,5.37 0.77,7.71 v 0 c -0.93,1.13 -2.24,1.84 -3.7,1.98 -0.18,0.02 -0.37,0.03 -0.55,0.03 z m 3.01,-3.02 z m -3,-4.73 c -0.66,0 -1.31,0.28 -1.76,0.83 -0.38,0.47 -0.56,1.06 -0.5,1.66 0.06,0.6 0.35,1.15 0.82,1.53 0.47,0.38 1.06,0.56 1.66,0.5 0.6,-0.06 1.15,-0.35 1.53,-0.82 0.79,-0.97 0.65,-2.4 -0.32,-3.2 -0.41,-0.33 -0.92,-0.5 -1.43,-0.5 z"
   class="st12" />
		</g>
		<g
   id="g137">
			<path
   id="path135"
   d="m 992.17,386.35 c -1.26,0 -2.47,-0.43 -3.46,-1.24 -1.13,-0.93 -1.84,-2.24 -1.98,-3.7 -0.15,-1.46 0.29,-2.88 1.21,-4.01 1.91,-2.34 5.37,-2.68 7.71,-0.77 1.13,0.93 1.84,2.24 1.98,3.7 0.15,1.46 -0.29,2.88 -1.21,4.01 -0.93,1.13 -2.24,1.84 -3.7,1.98 -0.19,0.02 -0.37,0.03 -0.55,0.03 z m 0.01,-7.75 c -0.08,0 -0.15,0 -0.23,0.01 -0.6,0.06 -1.15,0.35 -1.53,0.82 -0.38,0.47 -0.56,1.06 -0.5,1.66 0.06,0.6 0.35,1.15 0.82,1.53 0.47,0.38 1.06,0.56 1.66,0.5 0.6,-0.06 1.15,-0.35 1.53,-0.82 v 0 c 0.38,-0.47 0.56,-1.06 0.5,-1.66 -0.06,-0.6 -0.35,-1.15 -0.82,-1.53 -0.4,-0.33 -0.91,-0.51 -1.43,-0.51 z"
   class="st12" />
		</g>
		<g
   id="g141">
			<path
   id="path139"
   d="m 1010.61,399.98 c -1.26,0 -2.47,-0.43 -3.46,-1.24 -1.13,-0.93 -1.84,-2.24 -1.98,-3.7 -0.15,-1.46 0.29,-2.88 1.21,-4.01 0.93,-1.13 2.24,-1.84 3.7,-1.98 1.46,-0.14 2.88,0.29 4.01,1.21 1.13,0.93 1.84,2.24 1.98,3.7 0.15,1.46 -0.29,2.88 -1.21,4.01 -0.93,1.13 -2.24,1.84 -3.7,1.98 -0.19,0.02 -0.37,0.03 -0.55,0.03 z m 0.01,-7.75 c -0.08,0 -0.15,0 -0.23,0.01 -0.6,0.06 -1.15,0.35 -1.53,0.82 -0.38,0.47 -0.56,1.06 -0.5,1.66 0.06,0.6 0.35,1.15 0.82,1.53 0.47,0.38 1.06,0.57 1.66,0.5 0.6,-0.06 1.15,-0.35 1.53,-0.82 0.38,-0.47 0.56,-1.06 0.5,-1.66 -0.06,-0.6 -0.35,-1.15 -0.82,-1.53 -0.41,-0.33 -0.91,-0.51 -1.43,-0.51 z"
   class="st12" />
		</g>
		<g
   id="g145">
			<path
   id="path143"
   d="m 1029.18,414 c -1.26,0 -2.47,-0.43 -3.46,-1.24 -2.34,-1.91 -2.68,-5.37 -0.77,-7.71 1.91,-2.34 5.37,-2.68 7.71,-0.77 1.13,0.93 1.84,2.24 1.98,3.7 0.15,1.46 -0.29,2.88 -1.21,4.01 -0.93,1.13 -2.24,1.84 -3.7,1.98 -0.18,0.02 -0.37,0.03 -0.55,0.03 z m 0.01,-7.75 c -0.66,0 -1.31,0.28 -1.76,0.83 -0.79,0.97 -0.65,2.4 0.32,3.2 0.47,0.38 1.06,0.57 1.66,0.5 0.6,-0.06 1.15,-0.35 1.53,-0.82 0.38,-0.47 0.56,-1.06 0.5,-1.66 -0.06,-0.6 -0.35,-1.15 -0.82,-1.53 -0.41,-0.35 -0.92,-0.52 -1.43,-0.52 z"
   class="st12" />
		</g>
		<g
   id="g149">
			<path
   id="path147"
   d="m 1052.03,414 c -1.26,0 -2.47,-0.43 -3.46,-1.24 -2.34,-1.91 -2.68,-5.37 -0.77,-7.71 1.91,-2.34 5.37,-2.68 7.71,-0.77 1.13,0.93 1.84,2.24 1.98,3.7 0.15,1.46 -0.29,2.88 -1.21,4.01 -0.93,1.13 -2.24,1.84 -3.7,1.98 -0.19,0.02 -0.37,0.03 -0.55,0.03 z m 0.01,-7.75 c -0.66,0 -1.31,0.28 -1.76,0.83 -0.79,0.97 -0.65,2.4 0.32,3.2 0.47,0.38 1.06,0.57 1.66,0.5 0.6,-0.06 1.15,-0.35 1.53,-0.82 0.38,-0.47 0.56,-1.06 0.5,-1.66 -0.06,-0.6 -0.35,-1.15 -0.82,-1.53 -0.42,-0.35 -0.92,-0.52 -1.43,-0.52 z"
   class="st12" />
		</g>
	</g>
</g>
<g
   transform="translate(-607.55069,-335.51)"
   id="g169">
	<g
   id="g157">
		<path
   id="path155"
   d="m 1140.69,571.81 c -1.07,0 -2.15,-0.22 -3.18,-0.7 -3.84,-1.76 -5.53,-6.3 -3.77,-10.15 4.68,-10.22 14.96,-16.83 26.2,-16.83 11.24,0 21.52,6.6 26.2,16.83 1.76,3.84 0.07,8.39 -3.77,10.15 -3.85,1.76 -8.39,0.07 -10.15,-3.77 -2.19,-4.79 -7.02,-7.89 -12.28,-7.89 -5.27,0 -10.09,3.1 -12.28,7.89 -1.3,2.81 -4.07,4.47 -6.97,4.47 z"
   class="st3" />
	</g>
	<circle
   id="circle159"
   r="10.33"
   cy="577.37"
   cx="1159.9301"
   class="st3" />
	<g
   id="g163">
		<path
   id="path161"
   d="m 1198.4,553.38 c -2.45,0 -4.9,-1 -6.67,-2.96 -8.12,-8.97 -19.71,-14.12 -31.79,-14.12 -11.67,0 -22.58,4.61 -30.73,12.98 -3.46,3.56 -9.16,3.64 -12.72,0.18 -3.56,-3.47 -3.64,-9.16 -0.18,-12.72 11.56,-11.88 27.05,-18.42 43.62,-18.42 17.16,0 33.62,7.3 45.14,20.04 3.33,3.68 3.05,9.37 -0.63,12.71 -1.73,1.54 -3.89,2.31 -6.04,2.31 z"
   class="st3" />
	</g>
	<g
   id="g167">
		<path
   id="path165"
   d="m 1109.44,529.42 c -2.44,0 -4.86,-0.98 -6.64,-2.92 -3.36,-3.66 -3.11,-9.36 0.56,-12.71 15.48,-14.18 35.57,-21.99 56.57,-21.99 20.11,0 39.56,7.24 54.75,20.37 3.76,3.25 4.17,8.93 0.92,12.69 -3.25,3.76 -8.93,4.17 -12.69,0.92 -11.93,-10.31 -27.2,-15.99 -42.99,-15.99 -16.49,0 -32.26,6.13 -44.41,17.26 -1.72,1.59 -3.89,2.37 -6.07,2.37 z"
   class="st3" />
	</g>
</g>
<g
   transform="translate(-607.55069,-335.51)"
   id="g329">
	<path
   id="path171"
   d="M 796.17,695.21 V 462.42 c 0,-7.14 5.79,-12.93 12.93,-12.93 h 333.38 c 7.14,0 12.93,5.79 12.93,12.93 v 232.79 c 0,7.14 -5.79,12.93 -12.93,12.93 H 809.1 c -7.14,0 -12.93,-5.79 -12.93,-12.93 z"
   class="st13" />
	<path
   id="path173"
   d="M 812.69,676.53 V 481.1 c 0,-1.59 1.29,-2.87 2.87,-2.87 h 310.98 c 1.59,0 2.87,1.29 2.87,2.87 v 195.43 c 0,1.59 -1.29,2.87 -2.87,2.87 H 815.57 c -1.59,0 -2.88,-1.28 -2.88,-2.87 z"
   class="st14" />
	<g
   id="g219">
		<g
   id="g177">
			<path
   id="path175"
   d="m 884.05,445.9 h -39.03 c -0.4,0 -0.72,-0.32 -0.72,-0.72 0,-0.4 0.32,-0.72 0.72,-0.72 h 39.03 c 0.4,0 0.72,0.32 0.72,0.72 0,0.39 -0.32,0.72 -0.72,0.72 z"
   class="st3" />
		</g>
		<g
   id="g181">
			<path
   id="path179"
   d="m 791.86,589.31 c -0.4,0 -0.72,-0.32 -0.72,-0.72 V 458.11 c 0,-7.53 6.12,-13.65 13.65,-13.65 h 28.74 c 0.4,0 0.72,0.32 0.72,0.72 0,0.4 -0.32,0.72 -0.72,0.72 h -28.74 c -6.73,0 -12.21,5.48 -12.21,12.21 v 130.48 c 0,0.39 -0.33,0.72 -0.72,0.72 z"
   class="st3" />
		</g>
		<g
   id="g185">
			<path
   id="path183"
   d="m 791.86,629.82 c -0.4,0 -0.72,-0.32 -0.72,-0.72 v -30.95 c 0,-0.4 0.32,-0.72 0.72,-0.72 0.4,0 0.72,0.32 0.72,0.72 v 30.95 c 0,0.4 -0.33,0.72 -0.72,0.72 z"
   class="st3" />
		</g>
		<g
   id="g189">
			<path
   id="path187"
   d="M 924.57,704.55 H 804.79 c -7.53,0 -13.65,-6.12 -13.65,-13.65 v -52.93 c 0,-0.4 0.32,-0.72 0.72,-0.72 0.4,0 0.72,0.32 0.72,0.72 v 52.93 c 0,6.73 5.48,12.21 12.21,12.21 h 119.78 c 0.4,0 0.72,0.32 0.72,0.72 0,0.4 -0.32,0.72 -0.72,0.72 z"
   class="st3" />
		</g>
		<g
   id="g193">
			<path
   id="path191"
   d="m 971.48,704.55 h -37.46 c -0.4,0 -0.72,-0.32 -0.72,-0.72 0,-0.4 0.32,-0.72 0.72,-0.72 h 37.46 c 0.4,0 0.72,0.32 0.72,0.72 0,0.4 -0.32,0.72 -0.72,0.72 z"
   class="st3" />
		</g>
		<g
   id="g197">
			<path
   id="path195"
   d="M 1080.91,704.55 H 979.86 c -0.4,0 -0.72,-0.32 -0.72,-0.72 0,-0.4 0.32,-0.72 0.72,-0.72 h 101.04 c 0.4,0 0.72,0.32 0.72,0.72 0,0.4 -0.32,0.72 -0.71,0.72 z"
   class="st3" />
		</g>
		<g
   id="g201">
			<path
   id="path199"
   d="m 1138.17,704.55 h -46.32 c -0.4,0 -0.72,-0.32 -0.72,-0.72 0,-0.4 0.32,-0.72 0.72,-0.72 h 46.32 c 6.73,0 12.21,-5.48 12.21,-12.21 v -36.36 c 0,-0.4 0.32,-0.72 0.72,-0.72 0.4,0 0.72,0.32 0.72,0.72 v 36.36 c 0,7.53 -6.12,13.65 -13.65,13.65 z"
   class="st3" />
		</g>
		<g
   id="g205">
			<path
   id="path203"
   d="m 1151.1,646.2 c -0.4,0 -0.72,-0.32 -0.72,-0.72 v -15.52 c 0,-0.4 0.32,-0.72 0.72,-0.72 0.4,0 0.72,0.32 0.72,0.72 v 15.52 c 0,0.4 -0.32,0.72 -0.72,0.72 z"
   class="st3" />
		</g>
		<g
   id="g209">
			<path
   id="path207"
   d="m 1151.1,622.99 c -0.4,0 -0.72,-0.32 -0.72,-0.72 V 502.94 c 0,-0.4 0.32,-0.72 0.72,-0.72 0.4,0 0.72,0.32 0.72,0.72 v 119.33 c 0,0.4 -0.32,0.72 -0.72,0.72 z"
   class="st3" />
		</g>
		<g
   id="g213">
			<path
   id="path211"
   d="m 1151.1,493.32 c -0.4,0 -0.72,-0.32 -0.72,-0.72 v -34.49 c 0,-6.73 -5.48,-12.21 -12.21,-12.21 h -71.23 c -0.4,0 -0.72,-0.32 -0.72,-0.72 0,-0.4 0.32,-0.72 0.72,-0.72 h 71.23 c 7.53,0 13.65,6.12 13.65,13.65 v 34.49 c 0,0.39 -0.32,0.72 -0.72,0.72 z"
   class="st3" />
		</g>
		<g
   id="g217">
			<path
   id="path215"
   d="M 1058.63,445.9 H 892.19 c -0.4,0 -0.72,-0.32 -0.72,-0.72 0,-0.4 0.32,-0.72 0.72,-0.72 h 166.44 c 0.4,0 0.72,0.32 0.72,0.72 0,0.39 -0.32,0.72 -0.72,0.72 z"
   class="st3" />
		</g>
	</g>
	<g
   id="g269">
		<g
   id="g223">
			<path
   id="path221"
   d="m 1131.09,675.81 h -38.95 c -0.4,0 -0.72,-0.32 -0.72,-0.72 0,-0.4 0.32,-0.72 0.72,-0.72 h 38.95 c 1.44,0 2.62,-0.97 2.62,-2.16 V 619.5 c 0,-0.4 0.32,-0.72 0.72,-0.72 0.4,0 0.72,0.32 0.72,0.72 v 52.72 c -0.01,1.98 -1.83,3.59 -4.06,3.59 z"
   class="st3" />
		</g>
		<g
   id="g227">
			<path
   id="path225"
   d="m 1134.42,612.66 c -0.4,0 -0.72,-0.32 -0.72,-0.72 v -51.39 c 0,-0.4 0.32,-0.72 0.72,-0.72 0.4,0 0.72,0.32 0.72,0.72 v 51.39 c 0,0.4 -0.32,0.72 -0.72,0.72 z"
   class="st3" />
		</g>
		<g
   id="g231">
			<path
   id="path229"
   d="m 1134.42,554.94 c -0.4,0 -0.72,-0.32 -0.72,-0.72 v -21.7 c 0,-0.4 0.32,-0.72 0.72,-0.72 0.4,0 0.72,0.32 0.72,0.72 v 21.7 c 0,0.4 -0.32,0.72 -0.72,0.72 z"
   class="st3" />
		</g>
		<g
   id="g235">
			<path
   id="path233"
   d="m 1134.42,528.07 c -0.4,0 -0.72,-0.32 -0.72,-0.72 v -50.56 c 0,-1.19 -1.17,-2.16 -2.62,-2.16 h -76.16 c -0.4,0 -0.72,-0.32 -0.72,-0.72 0,-0.4 0.32,-0.72 0.72,-0.72 h 76.16 c 2.23,0 4.05,1.61 4.05,3.59 v 50.56 c 0.01,0.41 -0.31,0.73 -0.71,0.73 z"
   class="st3" />
		</g>
		<g
   id="g239">
			<path
   id="path237"
   d="M 1047.25,474.63 H 862.67 c -0.4,0 -0.72,-0.32 -0.72,-0.72 0,-0.4 0.32,-0.72 0.72,-0.72 h 184.58 c 0.4,0 0.72,0.32 0.72,0.72 -0.01,0.4 -0.33,0.72 -0.72,0.72 z"
   class="st3" />
		</g>
		<g
   id="g243">
			<path
   id="path241"
   d="m 850,474.63 h -8.1 c -0.4,0 -0.72,-0.32 -0.72,-0.72 0,-0.4 0.32,-0.72 0.72,-0.72 h 8.1 c 0.4,0 0.72,0.32 0.72,0.72 -0.01,0.4 -0.33,0.72 -0.72,0.72 z"
   class="st3" />
		</g>
		<g
   id="g247">
			<path
   id="path245"
   d="m 817.69,544.51 c -0.4,0 -0.72,-0.32 -0.72,-0.72 v -67 c 0,-1.98 1.82,-3.59 4.05,-3.59 h 10.96 c 0.4,0 0.72,0.32 0.72,0.72 0,0.4 -0.32,0.72 -0.72,0.72 h -10.96 c -1.44,0 -2.62,0.97 -2.62,2.16 v 67 c 0.01,0.39 -0.31,0.71 -0.71,0.71 z"
   class="st3" />
		</g>
		<g
   id="g251">
			<path
   id="path249"
   d="m 817.69,638.68 c -0.4,0 -0.72,-0.32 -0.72,-0.72 v -87.1 c 0,-0.4 0.32,-0.72 0.72,-0.72 0.4,0 0.72,0.32 0.72,0.72 v 87.1 c 0,0.4 -0.32,0.72 -0.72,0.72 z"
   class="st3" />
		</g>
		<g
   id="g255">
			<path
   id="path253"
   d="m 862.67,675.81 h -41.64 c -2.23,0 -4.05,-1.61 -4.05,-3.59 v -24.56 c 0,-0.4 0.32,-0.72 0.72,-0.72 0.4,0 0.72,0.32 0.72,0.72 v 24.56 c 0,1.19 1.17,2.16 2.62,2.16 h 41.64 c 0.4,0 0.72,0.32 0.72,0.72 -0.02,0.39 -0.34,0.71 -0.73,0.71 z"
   class="st3" />
		</g>
		<g
   id="g259">
			<path
   id="path257"
   d="M 956.16,675.81 H 875.7 c -0.4,0 -0.72,-0.32 -0.72,-0.72 0,-0.4 0.32,-0.72 0.72,-0.72 h 80.46 c 0.4,0 0.72,0.32 0.72,0.72 0,0.4 -0.33,0.72 -0.72,0.72 z"
   class="st3" />
		</g>
		<g
   id="g263">
			<path
   id="path261"
   d="m 1059.41,675.81 h -95.67 c -0.4,0 -0.72,-0.32 -0.72,-0.72 0,-0.4 0.32,-0.72 0.72,-0.72 h 95.67 c 0.4,0 0.72,0.32 0.72,0.72 0,0.4 -0.32,0.72 -0.72,0.72 z"
   class="st3" />
		</g>
		<g
   id="g267">
			<path
   id="path265"
   d="m 1079.69,675.81 h -6.99 c -0.4,0 -0.72,-0.32 -0.72,-0.72 0,-0.4 0.32,-0.72 0.72,-0.72 h 6.99 c 0.4,0 0.72,0.32 0.72,0.72 0,0.4 -0.32,0.72 -0.72,0.72 z"
   class="st3" />
		</g>
	</g>
	<g
   id="g277">
		<path
   id="path271"
   d="m 971.33,464.08 c 0,-1.87 1.51,-3.38 3.38,-3.38 1.87,0 3.38,1.51 3.38,3.38 0,1.87 -1.51,3.38 -3.38,3.38 -1.87,0 -3.38,-1.52 -3.38,-3.38 z"
   class="st15" />
		<g
   id="g275">
			<path
   id="path273"
   d="m 971.33,465.79 c -0.09,0 -0.17,-0.02 -0.26,-0.05 -1.59,-0.62 -2.61,-2.12 -2.61,-3.82 0,-2.26 1.84,-4.1 4.1,-4.1 1.94,0 3.63,1.38 4.02,3.27 0.08,0.39 -0.17,0.77 -0.56,0.85 -0.38,0.08 -0.77,-0.17 -0.85,-0.56 -0.25,-1.23 -1.35,-2.13 -2.61,-2.13 -1.47,0 -2.66,1.19 -2.66,2.66 0,1.11 0.67,2.08 1.7,2.48 0.37,0.14 0.55,0.56 0.41,0.93 -0.12,0.3 -0.39,0.47 -0.68,0.47 z"
   class="st3" />
		</g>
	</g>
	<g
   id="g301">
		<path
   id="path279"
   d="M 1221.73,744.81 H 726.26 c -13.65,0 -24.72,-11.07 -24.72,-24.72 0,-2.38 1.93,-4.31 4.31,-4.31 h 536.28 c 2.38,0 4.31,1.93 4.31,4.31 0,13.65 -11.06,24.72 -24.71,24.72 z"
   class="st13" />
		<g
   id="g283">
			<path
   id="path281"
   d="m 749.24,742.65 h -25.85 c -6.02,0 -11.85,-2.14 -16.44,-6.03 -0.3,-0.26 -0.34,-0.71 -0.08,-1.01 0.26,-0.3 0.71,-0.34 1.01,-0.08 4.32,3.67 9.83,5.68 15.51,5.68 h 25.85 c 0.4,0 0.72,0.32 0.72,0.72 0,0.4 -0.33,0.72 -0.72,0.72 z"
   class="st3" />
		</g>
		<g
   id="g287">
			<path
   id="path285"
   d="M 978.79,742.65 H 765.9 c -0.4,0 -0.72,-0.32 -0.72,-0.72 0,-0.4 0.32,-0.72 0.72,-0.72 h 212.88 c 0.4,0 0.72,0.32 0.72,0.72 0,0.4 -0.32,0.72 -0.71,0.72 z"
   class="st3" />
		</g>
		<g
   id="g291">
			<path
   id="path289"
   d="M 1142.47,742.65 H 1005.3 c -0.4,0 -0.72,-0.32 -0.72,-0.72 0,-0.4 0.32,-0.72 0.72,-0.72 h 137.17 c 0.4,0 0.72,0.32 0.72,0.72 0,0.4 -0.32,0.72 -0.72,0.72 z"
   class="st3" />
		</g>
		<g
   id="g295">
			<path
   id="path293"
   d="m 1188.07,742.65 h -20.69 c -0.4,0 -0.72,-0.32 -0.72,-0.72 0,-0.4 0.32,-0.72 0.72,-0.72 h 20.69 c 0.4,0 0.72,0.32 0.72,0.72 0,0.4 -0.33,0.72 -0.72,0.72 z"
   class="st3" />
		</g>
		<g
   id="g299">
			<path
   id="path297"
   d="m 1218.85,742.65 h -30.79 c -0.4,0 -0.72,-0.32 -0.72,-0.72 0,-0.4 0.32,-0.72 0.72,-0.72 h 30.79 c 13.23,0 24,-10.77 24,-24 0,-1.98 -1.61,-3.59 -3.59,-3.59 H 702.98 c -1.98,0 -3.59,1.61 -3.59,3.59 0,3.45 0.72,6.79 2.13,9.91 0.16,0.36 0,0.79 -0.36,0.95 -0.36,0.16 -0.79,0 -0.95,-0.36 -1.5,-3.31 -2.26,-6.84 -2.26,-10.5 0,-2.77 2.26,-5.03 5.03,-5.03 h 536.28 c 2.77,0 5.03,2.26 5.03,5.03 0,14.03 -11.41,25.44 -25.44,25.44 z"
   class="st3" />
		</g>
	</g>
	<g
   id="g311">
		<g
   id="g305">
			<path
   id="path303"
   d="M 837.75,730.15 H 804.7 c -0.4,0 -0.72,-0.32 -0.72,-0.72 0,-0.4 0.32,-0.72 0.72,-0.72 h 33.05 c 0.4,0 0.72,0.32 0.72,0.72 0,0.4 -0.32,0.72 -0.72,0.72 z"
   class="st3" />
		</g>
		<g
   id="g309">
			<path
   id="path307"
   d="m 836.32,727.14 h -33.05 c -0.4,0 -0.72,-0.32 -0.72,-0.72 0,-0.4 0.32,-0.72 0.72,-0.72 h 33.05 c 0.4,0 0.72,0.32 0.72,0.72 0,0.39 -0.33,0.72 -0.72,0.72 z"
   class="st3" />
		</g>
	</g>
	<g
   id="g319">
		<path
   id="path313"
   d="m 853,729 c 0,-1.87 1.51,-3.38 3.38,-3.38 1.87,0 3.38,1.51 3.38,3.38 0,1.87 -1.51,3.38 -3.38,3.38 -1.87,0 -3.38,-1.51 -3.38,-3.38 z"
   class="st16" />
		<g
   id="g317">
			<path
   id="path315"
   d="m 853,730.72 c -0.09,0 -0.17,-0.02 -0.26,-0.05 -1.59,-0.62 -2.61,-2.12 -2.61,-3.82 0,-2.26 1.84,-4.1 4.1,-4.1 1.94,0 3.63,1.38 4.02,3.27 0.08,0.39 -0.17,0.77 -0.56,0.85 -0.39,0.08 -0.77,-0.17 -0.85,-0.56 -0.25,-1.23 -1.35,-2.13 -2.61,-2.13 -1.47,0 -2.66,1.19 -2.66,2.66 0,1.11 0.67,2.08 1.7,2.48 0.37,0.14 0.55,0.56 0.41,0.93 -0.13,0.29 -0.4,0.47 -0.68,0.47 z"
   class="st3" />
		</g>
	</g>
	<g
   id="g327">
		<path
   id="path321"
   d="m 875.91,729 c 0,-1.87 1.51,-3.38 3.38,-3.38 1.87,0 3.38,1.51 3.38,3.38 0,1.87 -1.51,3.38 -3.38,3.38 -1.87,0 -3.38,-1.51 -3.38,-3.38 z"
   class="st17" />
		<g
   id="g325">
			<path
   id="path323"
   d="m 875.91,730.72 c -0.09,0 -0.17,-0.02 -0.26,-0.05 -1.59,-0.62 -2.61,-2.12 -2.61,-3.82 0,-2.26 1.84,-4.1 4.1,-4.1 1.94,0 3.63,1.38 4.02,3.27 0.08,0.39 -0.17,0.77 -0.56,0.85 -0.39,0.08 -0.77,-0.17 -0.85,-0.56 -0.25,-1.23 -1.35,-2.13 -2.61,-2.13 -1.47,0 -2.66,1.19 -2.66,2.66 0,1.11 0.67,2.08 1.7,2.48 0.37,0.14 0.55,0.56 0.41,0.93 -0.12,0.29 -0.39,0.47 -0.68,0.47 z"
   class="st3" />
		</g>
	</g>
</g>
<g
   transform="translate(-607.55069,-335.51)"
   id="g387">
	<path
   id="path331"
   d="m 705.12,532.51 c 2.62,12.01 -12.08,22.29 -20.73,17.78 -1.91,-0.99 -5.44,-5.36 8.35,-20.78 -1.82,-3.85 -8.08,-8.52 -8.08,-8.52 7.62,-2.58 18.46,2.34 20.46,11.52 z"
   class="st18" />
	<path
   id="path333"
   d="m 638.61,735.39 4.08,-2.27 c 0,0 0.87,1.31 1.59,2.16 1.38,1.63 7.98,2.81 7.98,5.13 0,1.17 -1.3,2.3 -4.46,2.3 -2.01,0 -3.65,-0.28 -4.83,-0.67 -1.18,-0.39 -3.88,-1.49 -4.31,-2.21 -0.75,-1.25 -0.16,-2.7 -0.16,-2.7 -0.22,-1.29 0.11,-1.74 0.11,-1.74 z"
   class="st18" />
	<path
   id="path335"
   d="m 643.87,732.99 c 0,0 -0.63,0.99 0.41,2.29 0,0 -0.83,1.42 -2.37,2.28 -0.87,0.48 -3.42,-0.43 -3.42,-0.43 -0.21,-1.29 -0.1,-3.16 -0.1,-3.16 z"
   class="st19" />
	<path
   id="path337"
   d="m 652.91,599.72 c 0.39,2.81 3.9,41.35 1.01,76.41 -2.49,30.18 -9.31,57.7 -9.31,57.7 -0.06,0.22 -4.78,2.05 -7.56,0 l -0.1,-57.52 c 0,0 -8.18,-47.17 -10.09,-48.68 v -25.66 c 9.82,0.63 22.79,-0.82 26.05,-2.25 z"
   class="st20" />
	<g
   id="g349">
		<path
   id="path339"
   d="m 718.91,622.65 c 0.02,0.5 -2.09,1.06 -2.57,0.92 -1.05,-0.67 -0.65,-1.28 -1.72,-1.77 0.99,0.29 2.1,0.38 3.14,0.35 0.57,-0.05 1.18,-0.27 1.15,0.5 z"
   class="st19" />
		<path
   id="path341"
   d="m 713.81,621.42 c 1.07,0.49 2.17,1.1 3.21,1.77 1.24,0.78 3.83,2.84 4.01,2.98 0.5,0.45 1.9,1.41 2.18,1.86 0.18,0.29 0.33,1.27 0.18,1.66 -0.2,0.51 -0.81,0.47 -0.81,0.47 -0.13,0.71 -1.81,0.05 -1.8,0.23 0.03,0.73 -0.97,1 -2.95,-0.66 -0.12,-0.1 -5.8,-3.21 -7.53,-4.35 0.61,-1.12 3.45,-3.99 3.51,-3.96 z"
   class="st19" />
		<path
   id="path343"
   d="m 687.19,595.95 c 0.42,0.16 0.77,0.36 1.04,0.58 4.84,3.96 20.23,21.73 25.93,25.06 -1.45,1.59 -2.54,3.01 -3.16,4.23 -9.27,-5.65 -30.77,-22.33 -29.64,-26.53 1.02,-3.84 3.99,-4.04 5.83,-3.34 z"
   class="st19" />
		<path
   id="path345"
   d="m 672.23,565.95 c 1.71,-1.24 13.36,-4.28 13.65,-3.28 1.62,5.56 2.02,24.23 3.92,33.13 2.33,10.92 -6.12,8.65 -7.89,5.57 -4.67,-8.11 -13.63,-32.57 -9.68,-35.42 z"
   class="st19" />
		<path
   id="path347"
   d="m 671.46,564.88 c 1.8,-1.3 12.67,-4.35 14.73,-3.57 0.47,0.18 0.82,0.54 0.95,0.99 0.85,2.9 1.36,9.04 1.9,15.54 0.55,6.54 2.32,19.15 2.39,19.84 1.93,1.88 20.08,20.84 23.38,22.76 l -4.5,6.48 c -8.16,-4.98 -26.04,-18.59 -29.58,-24.99 -3.79,-6.62 -14.64,-33.16 -9.27,-37.05 z"
   class="st21" />
	</g>
	<path
   id="path351"
   d="m 610.33,734.7 4.25,-1.94 c 0,0 0.77,1.38 1.42,2.28 1.24,1.73 7.73,3.43 7.55,5.73 -0.09,1.17 -2.62,2.02 -4.63,1.94 -2.01,-0.08 -3.75,-0.33 -4.77,-1.04 -1.27,-0.89 -3.75,-1.79 -4.12,-2.54 -0.65,-1.31 0.05,-2.71 0.05,-2.71 -0.11,-1.3 0.25,-1.72 0.25,-1.72 z"
   class="st18" />
	<path
   id="path353"
   d="m 615.45,732.59 c 0,0 -0.39,1.07 0.54,2.45 0,0 -0.94,1.35 -2.54,2.08 -0.91,0.41 -3.37,-0.69 -3.37,-0.69 -0.11,-1.3 -0.05,-3.25 -0.05,-3.25 z"
   class="st19" />
	<path
   id="path355"
   d="m 611.68,604.95 c 9.75,1.41 18.55,7.26 21.92,6.09 0.17,2.84 -0.54,45.51 -4.87,66.88 -5.99,29.56 -11.91,54.85 -11.91,54.85 0,0 -2.74,3.13 -8.48,0.56 l 3.67,-57.66 c 0.99,-15.93 -10.14,-49.45 -0.33,-70.72 z"
   class="st20" />
	<path
   id="path357"
   d="m 664.65,545.16 c 2.15,0.21 9.32,2.79 9.32,2.79 0,0 1.24,4.56 3.73,6.1 1.71,1.06 4.22,-0.06 4.22,-0.06 0,0 4.97,5.24 4.97,9.11 0,14.6 -23.89,29.44 -28.94,61.79 -0.63,4.03 -3.87,7.1 -7.92,7.45 -9.4,0.81 -24.62,-0.49 -34.37,-13.42 -0.27,-0.36 -1.04,-0.23 -2.12,-0.12 -3.9,0.37 -6.91,-3.36 -5.73,-7.1 14.13,-44.7 38.27,-68.35 56.84,-66.54 z"
   class="st22" />
	<path
   id="path359"
   d="m 680.66,535.84 c 0.45,0.91 5.79,9.04 8.11,9.84 -0.33,0.59 -5.08,6.13 -5.46,10.25 -2.25,2.84 -11,-1.71 -10.61,-8.31 1.8,-1 6.86,-8.65 7.96,-11.78 z"
   class="st19" />
	<path
   id="path361"
   d="m 682.8,534.51 c 2.26,-5.15 7.57,-7.94 12.77,-5.65 4.84,2.12 8.79,5.57 7.52,10.53 -0.46,1.77 -8.6,15.68 -17.34,13.86 -3.7,-0.77 -7,-9.51 -5.29,-13.39 -0.01,0 2.31,-5.29 2.34,-5.35 z"
   class="st19" />
	<path
   id="path363"
   d="m 713.86,530.94 c -0.68,-2 -2.6,-3.97 -7.42,-4.01 -7.06,-0.06 -5.84,-8.18 -16.51,-9.37 -15.49,-1.72 -16.38,19.25 -16.12,20.68 0.29,1.61 0.41,4.37 3.22,4.68 2.77,0.31 11.78,-11.22 11.78,-11.22 0,0 -1.27,4.72 -0.24,5.21 2.81,1.34 5.48,-6.05 5.48,-6.05 0,0 9.17,9.66 15.92,6.95 5.42,-2.17 4.41,-5.35 3.89,-6.87 z"
   class="st18" />
	<path
   id="path365"
   d="m 685.39,533.03 c 0.54,0.15 1.48,0.62 2.1,1.33 -0.96,1.74 -2.92,4.41 -3.88,5.73 -1.22,-0.73 -2.27,-3.21 -1.9,-4.54 0.39,-1.4 2.27,-2.92 3.68,-2.52 z"
   class="st19" />
	<path
   id="path367"
   d="m 682.56,558.87 c 0.24,1.54 -3.53,4.19 -5.01,3.69 -1.46,-0.49 -2.84,-4.85 -1.73,-5.92 1.28,-1.24 6.47,0.47 6.74,2.23 z"
   class="st23" />
	<path
   id="path369"
   d="m 679.25,559.92 c -10.97,21.53 7.3,41.89 11.26,44.17 l 0.54,9.34 -9.48,-0.07 c -2.88,-2.32 -25,-32.11 -3.09,-54.04 0.21,-0.2 0.9,0.34 0.77,0.6 z"
   class="st20" />
	<path
   id="path371"
   d="m 674.43,545.94 c 0,0 -1.43,5.11 4.99,10.54 l -8.72,3.5 c 0,0 -3.11,-6.29 -1.58,-13.66 0,-0.01 2.22,-1.26 5.31,-0.38 z"
   class="st12" />
	<path
   id="path373"
   d="m 679.42,556.48 c 0,0 3.42,0.03 4.16,-1.94 0,0 0.59,0.69 0.59,2.45 0,1.84 -0.93,5.88 -0.93,5.88 -0.92,-4.36 -3.82,-6.39 -3.82,-6.39 z"
   class="st12" />
	<g
   id="g385">
		<path
   id="path375"
   d="m 693.8,619.64 c -0.01,0.5 -2.15,0.92 -2.62,0.76 -1,-0.73 -0.57,-1.32 -1.61,-1.87 0.97,0.35 2.07,0.51 3.11,0.54 0.58,-0.02 1.2,-0.2 1.12,0.57 z"
   class="st19" />
		<path
   id="path377"
   d="m 688.79,618.09 c 1.04,0.55 2.09,1.23 3.1,1.96 1.19,0.86 3.64,3.07 3.81,3.23 0.47,0.48 1.81,1.52 2.06,1.99 0.16,0.3 0.25,1.29 0.07,1.67 -0.24,0.5 -0.84,0.42 -0.84,0.42 -0.17,0.7 -1.81,-0.06 -1.81,0.12 -0.02,0.73 -1.03,0.94 -2.9,-0.85 -0.11,-0.1 -5.58,-3.56 -7.24,-4.81 0.68,-1.08 3.69,-3.76 3.75,-3.73 z"
   class="st19" />
		<path
   id="path379"
   d="m 663.82,591 c 0.41,0.18 0.75,0.41 1,0.64 4.59,4.26 18.82,22.96 24.31,26.63 -1.54,1.5 -2.73,2.84 -3.42,4.02 -8.9,-6.22 -29.31,-24.22 -27.92,-28.33 1.26,-3.76 4.24,-3.77 6.03,-2.96 z"
   class="st19" />
		<path
   id="path381"
   d="m 650.77,560.12 c 1.79,-1.13 13.6,-3.44 13.83,-2.42 1.27,5.64 0.5,24.3 1.84,33.31 1.65,11.04 -6.65,8.25 -8.22,5.07 -4.16,-8.39 -11.57,-33.36 -7.45,-35.96 z"
   class="st19" />
		<path
   id="path383"
   d="m 647.55,559.61 c 1.14,-7.42 15.28,-11.82 18.33,-2.19 2.03,6.39 2.04,34.89 2.07,35.58 1.81,2 18.73,22.06 21.91,24.19 l -4.9,6.18 c -7.83,-5.48 -24.82,-20.19 -27.96,-26.79 -3.37,-6.85 -10.46,-30.42 -9.45,-36.97 z"
   class="st21" />
	</g>
</g>
<g
   transform="translate(-607.55069,-335.51)"
   id="g439">
	
		<circle
   r="110.55"
   id="ellipse389"
   cy="586.25"
   cx="813.27002"
   class="st24"
   transform="matrix(0.7071,-0.7071,0.7071,0.7071,-176.3379,746.7765)" />
	<ellipse
   id="ellipse391"
   ry="110.19"
   rx="80.900002"
   cy="586.06"
   cx="796.51001"
   class="st13" />
	<ellipse
   id="ellipse393"
   ry="110.55"
   rx="37.860001"
   cy="586.25"
   cx="796.51001"
   class="st24" />
	<g
   id="g397">
		<path
   id="path395"
   d="m 804.54,697.95 c -61.69,0 -111.89,-50.19 -111.89,-111.89 0,-61.69 50.19,-111.89 111.89,-111.89 61.69,0 111.89,50.19 111.89,111.89 -0.01,61.7 -50.2,111.89 -111.89,111.89 z m 0,-221.1 c -60.22,0 -109.21,48.99 -109.21,109.21 0,60.22 48.99,109.21 109.21,109.21 60.22,0 109.21,-48.99 109.21,-109.21 0,-60.22 -49,-109.21 -109.21,-109.21 z"
   class="st3" />
	</g>
	<g
   id="g401">
		<path
   id="path399"
   d="m 890.91,656.39 c -0.13,0 -0.25,-0.02 -0.38,-0.06 -11.25,-3.35 -23.06,-6.04 -35.11,-8.01 -0.73,-0.12 -1.22,-0.81 -1.1,-1.54 0.12,-0.73 0.81,-1.23 1.54,-1.11 12.16,1.99 24.08,4.71 35.44,8.09 0.71,0.21 1.11,0.96 0.9,1.66 -0.18,0.59 -0.71,0.97 -1.29,0.97 z"
   class="st3" />
	</g>
	<g
   id="g405">
		<path
   id="path403"
   d="m 718.16,656.39 c -0.58,0 -1.11,-0.38 -1.28,-0.96 -0.21,-0.71 0.19,-1.45 0.9,-1.66 27.2,-8.09 56.39,-12.19 86.76,-12.19 13.23,0 26.46,0.8 39.32,2.39 0.73,0.09 1.26,0.76 1.16,1.49 -0.09,0.73 -0.75,1.26 -1.49,1.16 -12.75,-1.57 -25.87,-2.37 -38.99,-2.37 -30.11,0 -59.05,4.07 -86,12.08 -0.13,0.04 -0.26,0.06 -0.38,0.06 z"
   class="st3" />
	</g>
	<g
   id="g409">
		<path
   id="path407"
   d="m 804.54,530.56 c -5.73,0 -11.51,-0.15 -17.19,-0.45 -0.74,-0.04 -1.31,-0.67 -1.27,-1.41 0.04,-0.74 0.66,-1.31 1.41,-1.27 5.63,0.3 11.37,0.45 17.05,0.45 30.11,0 59.05,-4.07 86,-12.08 0.71,-0.21 1.45,0.19 1.66,0.9 0.21,0.71 -0.19,1.45 -0.9,1.66 -27.2,8.09 -56.39,12.2 -86.76,12.2 z"
   class="st3" />
	</g>
	<g
   id="g413">
		<path
   id="path411"
   d="m 752.79,526.36 c -0.07,0 -0.15,-0.01 -0.22,-0.02 -11.93,-1.98 -23.64,-4.66 -34.79,-7.98 -0.71,-0.21 -1.11,-0.96 -0.9,-1.66 0.21,-0.71 0.96,-1.11 1.66,-0.9 11.04,3.29 22.64,5.95 34.47,7.91 0.73,0.12 1.22,0.81 1.1,1.54 -0.11,0.65 -0.68,1.11 -1.32,1.11 z"
   class="st3" />
	</g>
	<g
   id="g417">
		<path
   id="path415"
   d="m 804.54,697.59 c -45.35,0 -82.24,-50.03 -82.24,-111.53 0,-61.5 36.89,-111.53 82.24,-111.53 18.2,0 35.44,7.89 49.86,22.8 13.87,14.36 24.2,34.71 29.08,57.32 0.16,0.72 -0.3,1.43 -1.03,1.59 -0.72,0.16 -1.43,-0.3 -1.59,-1.03 -9.91,-45.93 -41.3,-78.01 -76.32,-78.01 -43.87,0 -79.56,48.83 -79.56,108.85 0,60.02 35.69,108.85 79.56,108.85 43.87,0 79.56,-48.83 79.56,-108.85 0,-3.21 -0.1,-6.44 -0.31,-9.63 -0.05,-0.74 0.51,-1.37 1.25,-1.42 0.74,-0.04 1.37,0.51 1.42,1.25 0.21,3.24 0.31,6.54 0.31,9.8 0.01,61.51 -36.89,111.54 -82.23,111.54 z"
   class="st3" />
	</g>
	<g
   id="g421">
		<path
   id="path419"
   d="m 804.54,697.95 c -21.98,0 -39.2,-49.15 -39.2,-111.89 0,-62.74 17.22,-111.89 39.2,-111.89 21.98,0 39.2,49.15 39.2,111.89 0,62.74 -17.22,111.89 -39.2,111.89 z m 0,-221.1 c -9.36,0 -18.66,11.47 -25.51,31.47 -7.1,20.74 -11.02,48.35 -11.02,77.74 0,29.39 3.91,56.99 11.02,77.74 6.85,20 16.15,31.47 25.51,31.47 9.36,0 18.66,-11.47 25.51,-31.47 7.1,-20.74 11.02,-48.35 11.02,-77.74 0,-29.39 -3.91,-56.99 -11.02,-77.74 -6.86,-20 -16.16,-31.47 -25.51,-31.47 z"
   class="st3" />
	</g>
	<g
   id="g425">
		<path
   id="path423"
   d="m 804.54,698.32 c -0.74,0 -1.34,-0.6 -1.34,-1.34 v -74.42 c 0,-0.74 0.6,-1.34 1.34,-1.34 0.74,0 1.34,0.6 1.34,1.34 v 74.42 c -0.01,0.74 -0.6,1.34 -1.34,1.34 z"
   class="st3" />
	</g>
	<g
   id="g429">
		<path
   id="path427"
   d="m 804.54,609.09 c -0.74,0 -1.34,-0.6 -1.34,-1.34 V 475.51 c 0,-0.74 0.6,-1.34 1.34,-1.34 0.74,0 1.34,0.6 1.34,1.34 v 132.24 c -0.01,0.74 -0.6,1.34 -1.34,1.34 z"
   class="st3" />
	</g>
	<g
   id="g433">
		<path
   id="path431"
   d="M 822,587.59 H 693.8 c -0.74,0 -1.34,-0.6 -1.34,-1.34 0,-0.74 0.6,-1.34 1.34,-1.34 H 822 c 0.74,0 1.34,0.6 1.34,1.34 0,0.74 -0.6,1.34 -1.34,1.34 z"
   class="st3" />
	</g>
	<g
   id="g437">
		<path
   id="path435"
   d="m 915.27,587.59 h -56.42 c -0.74,0 -1.34,-0.6 -1.34,-1.34 0,-0.74 0.6,-1.34 1.34,-1.34 h 56.42 c 0.74,0 1.34,0.6 1.34,1.34 0,0.74 -0.6,1.34 -1.34,1.34 z"
   class="st3" />
	</g>
</g>
<g
   transform="translate(-607.55069,-335.51)"
   id="g509">
	<g
   id="g493">
		<polygon
   id="polygon441"
   points="1098.97,693.63 1098.28,639.16 1135.77,639.16 1139.18,646.29 1176.24,646.29 1175.64,693.63 "
   class="st25" />
		<g
   id="g485">
			<rect
   id="rect443"
   height="34"
   width="54.84"
   class="st26"
   y="641.75"
   x="1111.52" />
			<rect
   id="rect445"
   height="5.7399998"
   width="54.84"
   class="st27"
   y="641.75"
   x="1111.52" />
			<g
   id="g449">
				<path
   id="path447"
   d="m 1167.04,676.2 h -54.84 c -0.05,0 -0.09,-0.04 -0.09,-0.09 v -34 c 0,-0.05 0.04,-0.09 0.09,-0.09 h 54.84 c 0.05,0 0.09,0.04 0.09,0.09 v 34 c 0.01,0.05 -0.03,0.09 -0.09,0.09 z m -54.75,-0.19 h 54.66 V 642.2 h -54.66 z"
   class="st3" />
			</g>
			<g
   id="g453">
				<path
   id="path451"
   d="m 1167.04,647.94 h -54.84 c -0.05,0 -0.09,-0.04 -0.09,-0.09 v -5.74 c 0,-0.05 0.04,-0.09 0.09,-0.09 h 54.84 c 0.05,0 0.09,0.04 0.09,0.09 v 5.74 c 0.01,0.05 -0.03,0.09 -0.09,0.09 z m -54.75,-0.19 h 54.66 v -5.55 h -54.66 z"
   class="st3" />
			</g>
			<rect
   id="rect455"
   height="2.28"
   width="25.440001"
   class="st26"
   y="643.47998"
   x="1140.9301" />
			<g
   id="g463">
				<circle
   id="circle457"
   r="0.91000003"
   cy="644.62"
   cx="1114.0699"
   class="st26" />
				<circle
   id="circle459"
   r="0.91000003"
   cy="644.62"
   cx="1117.76"
   class="st26" />
				<circle
   id="circle461"
   r="0.91000003"
   cy="644.62"
   cx="1121.45"
   class="st26" />
			</g>
			<g
   id="g483">
				<g
   id="g479">
					<path
   id="path465"
   d="m 1138.05,652.63 h -23.15 c -0.63,0 -1.14,-0.51 -1.14,-1.14 v 0 c 0,-0.63 0.51,-1.14 1.14,-1.14 h 23.15 c 0.63,0 1.14,0.51 1.14,1.14 v 0 c 0.01,0.63 -0.51,1.14 -1.14,1.14 z"
   class="st27" />
					<path
   id="path467"
   d="m 1138.05,655.87 h -23.15 c -0.63,0 -1.14,-0.51 -1.14,-1.14 v 0 c 0,-0.63 0.51,-1.14 1.14,-1.14 h 23.15 c 0.63,0 1.14,0.51 1.14,1.14 v 0 c 0.01,0.63 -0.51,1.14 -1.14,1.14 z"
   class="st27" />
					<path
   id="path469"
   d="m 1138.05,659.1 h -23.15 c -0.63,0 -1.14,-0.51 -1.14,-1.14 v 0 c 0,-0.63 0.51,-1.14 1.14,-1.14 h 23.15 c 0.63,0 1.14,0.51 1.14,1.14 v 0 c 0.01,0.63 -0.51,1.14 -1.14,1.14 z"
   class="st27" />
					<path
   id="path471"
   d="m 1138.05,662.34 h -23.15 c -0.63,0 -1.14,-0.51 -1.14,-1.14 v 0 c 0,-0.63 0.51,-1.14 1.14,-1.14 h 23.15 c 0.63,0 1.14,0.51 1.14,1.14 v 0 c 0.01,0.63 -0.51,1.14 -1.14,1.14 z"
   class="st27" />
					<path
   id="path473"
   d="m 1138.05,665.58 h -23.15 c -0.63,0 -1.14,-0.51 -1.14,-1.14 v 0 c 0,-0.63 0.51,-1.14 1.14,-1.14 h 23.15 c 0.63,0 1.14,0.51 1.14,1.14 v 0 c 0.01,0.63 -0.51,1.14 -1.14,1.14 z"
   class="st27" />
					<path
   id="path475"
   d="m 1138.05,668.81 h -23.15 c -0.63,0 -1.14,-0.51 -1.14,-1.14 v 0 c 0,-0.63 0.51,-1.14 1.14,-1.14 h 23.15 c 0.63,0 1.14,0.51 1.14,1.14 v 0 c 0.01,0.63 -0.51,1.14 -1.14,1.14 z"
   class="st27" />
					<path
   id="path477"
   d="m 1138.05,672.05 h -23.15 c -0.63,0 -1.14,-0.51 -1.14,-1.14 v 0 c 0,-0.63 0.51,-1.14 1.14,-1.14 h 23.15 c 0.63,0 1.14,0.51 1.14,1.14 v 0 c 0.01,0.63 -0.51,1.14 -1.14,1.14 z"
   class="st27" />
				</g>
				<rect
   id="rect481"
   height="22.379999"
   width="20.42"
   class="st27"
   y="650.01001"
   x="1143.53" />
			</g>
		</g>
		<g
   id="g491">
			<polygon
   id="polygon487"
   points="1094.38,659.45 1180.23,659.45 1175.66,712.9 1098.94,712.9 "
   class="st25" />
			<polygon
   id="polygon489"
   points="1180.23,659.45 1175.66,712.9 1098.94,712.9 "
   class="st28" />
		</g>
	</g>
	<g
   id="g507">
		<g
   id="g497">
			<path
   id="path495"
   d="m 1128.73,679.6 -14.17,6.1 v 0.07 l 14.17,6.1 v 2.56 l -16.83,-7.56 v -2.26 l 16.83,-7.56 z"
   class="st3" />
		</g>
		<g
   id="g501">
			<path
   id="path499"
   d="m 1147.11,677.04 16.83,7.56 v 2.26 l -16.83,7.56 v -2.56 l 14.17,-6.1 v -0.07 l -14.17,-6.1 z"
   class="st3" />
		</g>
		<g
   id="g505">
			<path
   id="path503"
   d="m 1130.51,701.65 c -0.15,0 -0.31,-0.03 -0.46,-0.1 -0.57,-0.25 -0.83,-0.92 -0.57,-1.5 l 11.73,-26.34 c 0.25,-0.57 0.92,-0.83 1.5,-0.57 0.57,0.25 0.83,0.92 0.57,1.5 l -11.73,26.34 c -0.2,0.42 -0.61,0.67 -1.04,0.67 z"
   class="st3" />
		</g>
	</g>
</g>
<text
   y="244.30569"
   x="332.33243"
   id="text511"
   class="st11 st29 st30">Amazon EC2 </text>
</svg>
