<?xml version="1.0" encoding="UTF-8" standalone="no"?>
<svg
   xmlns:dc="http://purl.org/dc/elements/1.1/"
   xmlns:cc="http://creativecommons.org/ns#"
   xmlns:rdf="http://www.w3.org/1999/02/22-rdf-syntax-ns#"
   xmlns:svg="http://www.w3.org/2000/svg"
   xmlns="http://www.w3.org/2000/svg"
   xmlns:sodipodi="http://sodipodi.sourceforge.net/DTD/sodipodi-0.dtd"
   xmlns:inkscape="http://www.inkscape.org/namespaces/inkscape"
   inkscape:version="1.0 (4035a4fb49, 2020-05-01)"
   height="49.986488"
   width="50"
   sodipodi:docname="characteristics-icon-01.svg"
   xml:space="preserve"
   viewBox="0 0 50 49.986488"
   y="0px"
   x="0px"
   id="Layer_1"
   version="1.1"><metadata
   id="metadata123"><rdf:RDF><cc:Work
       rdf:about=""><dc:format>image/svg+xml</dc:format><dc:type
         rdf:resource="http://purl.org/dc/dcmitype/StillImage" /><dc:title></dc:title></cc:Work></rdf:RDF></metadata><defs
   id="defs121" /><sodipodi:namedview
   inkscape:current-layer="Layer_1"
   inkscape:window-maximized="1"
   inkscape:window-y="-9"
   inkscape:window-x="-9"
   inkscape:cy="18.73"
   inkscape:cx="18.71"
   inkscape:zoom="20.16"
   fit-margin-bottom="0"
   fit-margin-right="0"
   fit-margin-left="0"
   fit-margin-top="0"
   showgrid="false"
   id="namedview119"
   inkscape:window-height="1271"
   inkscape:window-width="2400"
   inkscape:pageshadow="2"
   inkscape:pageopacity="0"
   guidetolerance="10"
   gridtolerance="10"
   objecttolerance="10"
   borderopacity="1"
   bordercolor="#666666"
   pagecolor="#ffffff" />
<style
   id="style2"
   type="text/css">
	.st0{fill:#77B0DF;}
</style>
<g
   transform="matrix(1.3509862,0,0,1.3509862,-8.4977032,-8.4706835)"
   id="g116">
	<g
   id="g100">
		<g
   id="g26">
			<g
   id="g24">
				<g
   id="g12">
					<g
   id="g6">
						<rect
   id="rect4"
   height="4.5599999"
   width="1"
   class="st0"
   y="9.8699999"
   x="24.290001" />
					</g>
					<g
   id="g10">
						<path
   id="path8"
   d="m 24.79,10.47 c -1.16,0 -2.1,-0.94 -2.1,-2.1 0,-1.16 0.94,-2.1 2.1,-2.1 1.16,0 2.1,0.94 2.1,2.1 0,1.16 -0.94,2.1 -2.1,2.1 z m 0,-3.2 c -0.61,0 -1.1,0.49 -1.1,1.1 0,0.61 0.49,1.1 1.1,1.1 0.61,0 1.1,-0.49 1.1,-1.1 0,-0.6 -0.49,-1.1 -1.1,-1.1 z"
   class="st0" />
					</g>
				</g>
				<g
   id="g22">
					<g
   id="g16">
						<rect
   id="rect14"
   height="4.5599999"
   width="1"
   class="st0"
   y="35.119999"
   x="24.290001" />
					</g>
					<g
   id="g20">
						<path
   id="path18"
   d="m 24.79,43.27 c -1.16,0 -2.1,-0.94 -2.1,-2.1 0,-1.16 0.94,-2.1 2.1,-2.1 1.16,0 2.1,0.94 2.1,2.1 0,1.16 -0.94,2.1 -2.1,2.1 z m 0,-3.19 c -0.61,0 -1.1,0.49 -1.1,1.1 0,0.61 0.49,1.1 1.1,1.1 0.61,0 1.1,-0.49 1.1,-1.1 0,-0.61 -0.49,-1.1 -1.1,-1.1 z"
   class="st0" />
					</g>
				</g>
			</g>
		</g>
		<g
   id="g50">
			<g
   id="g48">
				<g
   id="g36">
					<g
   id="g30">
						
							<rect
   id="rect28"
   height="4.5599999"
   width="1"
   class="st0"
   transform="matrix(0.7071,-0.7071,0.7071,0.7071,-6.5568,15.8595)"
   y="13.57"
   x="15.37" />
					</g>
					<g
   id="g34">
						<path
   id="path32"
   d="m 13.2,15.27 c -0.54,0 -1.07,-0.2 -1.48,-0.61 -0.82,-0.82 -0.82,-2.15 0,-2.97 0.82,-0.82 2.15,-0.82 2.97,0 0.82,0.82 0.82,2.15 0,2.97 -0.42,0.41 -0.96,0.61 -1.49,0.61 z m 0,-3.19 c -0.28,0 -0.56,0.11 -0.78,0.32 -0.43,0.43 -0.43,1.13 0,1.55 0.43,0.43 1.13,0.43 1.55,0 0.43,-0.43 0.43,-1.13 0,-1.55 -0.21,-0.22 -0.49,-0.32 -0.77,-0.32 z"
   class="st0" />
					</g>
				</g>
				<g
   id="g46">
					<g
   id="g40">
						
							<rect
   id="rect38"
   height="4.5599999"
   width="1"
   class="st0"
   transform="matrix(0.7071,-0.7071,0.7071,0.7071,-13.9536,33.717)"
   y="31.42"
   x="33.220001" />
					</g>
					<g
   id="g44">
						<path
   id="path42"
   d="m 36.39,38.47 c -0.54,0 -1.07,-0.2 -1.48,-0.61 -0.82,-0.82 -0.82,-2.15 0,-2.97 0.82,-0.82 2.15,-0.82 2.97,0 0.82,0.82 0.82,2.15 0,2.97 -0.41,0.4 -0.95,0.61 -1.49,0.61 z m 0,-3.2 c -0.28,0 -0.56,0.11 -0.78,0.32 -0.43,0.43 -0.43,1.13 0,1.55 0.43,0.43 1.13,0.43 1.55,0 0.43,-0.43 0.43,-1.13 0,-1.55 -0.2,-0.21 -0.49,-0.32 -0.77,-0.32 z"
   class="st0" />
					</g>
				</g>
			</g>
		</g>
		<g
   id="g74">
			<g
   id="g72">
				<g
   id="g60">
					<g
   id="g54">
						<rect
   id="rect52"
   height="1"
   width="4.5599999"
   class="st0"
   y="24.27"
   x="9.8900003" />
					</g>
					<g
   id="g58">
						<path
   id="path56"
   d="m 8.39,26.87 c -1.16,0 -2.1,-0.94 -2.1,-2.1 0,-1.16 0.94,-2.1 2.1,-2.1 1.16,0 2.1,0.94 2.1,2.1 0,1.16 -0.94,2.1 -2.1,2.1 z m 0,-3.19 c -0.61,0 -1.1,0.49 -1.1,1.1 0,0.61 0.49,1.1 1.1,1.1 0.61,0 1.1,-0.49 1.1,-1.1 0,-0.61 -0.49,-1.1 -1.1,-1.1 z"
   class="st0" />
					</g>
				</g>
				<g
   id="g70">
					<g
   id="g64">
						<rect
   id="rect62"
   height="1"
   width="4.5599999"
   class="st0"
   y="24.27"
   x="35.139999" />
					</g>
					<g
   id="g68">
						<path
   id="path66"
   d="m 41.2,26.87 c -1.16,0 -2.1,-0.94 -2.1,-2.1 0,-1.16 0.94,-2.1 2.1,-2.1 1.16,0 2.1,0.94 2.1,2.1 -0.01,1.16 -0.95,2.1 -2.1,2.1 z m 0,-3.19 c -0.61,0 -1.1,0.49 -1.1,1.1 0,0.61 0.49,1.1 1.1,1.1 0.61,0 1.1,-0.49 1.1,-1.1 0,-0.61 -0.5,-1.1 -1.1,-1.1 z"
   class="st0" />
					</g>
				</g>
			</g>
		</g>
		<g
   id="g98">
			<g
   id="g96">
				<g
   id="g84">
					<g
   id="g78">
						
							<rect
   id="rect76"
   height="1"
   width="4.5599999"
   class="st0"
   transform="matrix(0.7071,-0.7072,0.7072,0.7071,-19.1848,21.0923)"
   y="33.200001"
   x="13.59" />
					</g>
					<g
   id="g82">
						<path
   id="path80"
   d="m 13.2,38.47 c -0.54,0 -1.07,-0.2 -1.48,-0.61 -0.82,-0.82 -0.82,-2.15 0,-2.97 0.82,-0.82 2.15,-0.82 2.97,0 0.82,0.82 0.82,2.15 0,2.97 -0.42,0.4 -0.96,0.61 -1.49,0.61 z m 0,-3.2 c -0.28,0 -0.56,0.11 -0.78,0.32 -0.43,0.43 -0.43,1.13 0,1.55 0.43,0.43 1.13,0.43 1.55,0 0.43,-0.43 0.43,-1.13 0,-1.55 -0.21,-0.21 -0.49,-0.32 -0.77,-0.32 z"
   class="st0" />
					</g>
				</g>
				<g
   id="g94">
					<g
   id="g88">
						
							<rect
   id="rect86"
   height="1"
   width="4.5599999"
   class="st0"
   transform="matrix(0.7071,-0.7071,0.7071,0.7071,-1.3265,28.4867)"
   y="15.34"
   x="31.450001" />
					</g>
					<g
   id="g92">
						<path
   id="path90"
   d="m 36.39,15.27 c -0.54,0 -1.07,-0.2 -1.48,-0.61 -0.82,-0.82 -0.82,-2.15 0,-2.97 0.82,-0.82 2.15,-0.82 2.97,0 0.82,0.82 0.82,2.15 0,2.97 -0.41,0.41 -0.95,0.61 -1.49,0.61 z m 0,-3.19 c -0.28,0 -0.56,0.11 -0.78,0.32 -0.43,0.43 -0.43,1.13 0,1.55 0.43,0.43 1.13,0.43 1.55,0 0.43,-0.43 0.43,-1.13 0,-1.55 -0.2,-0.22 -0.49,-0.32 -0.77,-0.32 z"
   class="st0" />
					</g>
				</g>
			</g>
		</g>
	</g>
	<g
   id="g114">
		<g
   id="g104">
			<path
   id="path102"
   d="m 25.01,32.24 c -0.06,0 -0.12,-0.01 -0.18,-0.03 L 17.3,29.38 c -0.19,-0.07 -0.32,-0.26 -0.32,-0.47 v -8.48 c 0,-0.16 0.08,-0.32 0.22,-0.41 0.13,-0.09 0.31,-0.11 0.46,-0.06 l 7.53,2.83 c 0.19,0.07 0.32,0.26 0.32,0.47 v 8.48 c 0,0.16 -0.08,0.32 -0.22,0.41 -0.08,0.06 -0.18,0.09 -0.28,0.09 z m -7.03,-3.67 6.53,2.45 v -7.41 l -6.53,-2.45 z"
   class="st0" />
		</g>
		<g
   id="g108">
			<path
   id="path106"
   d="m 25.01,32.24 c -0.1,0 -0.2,-0.03 -0.28,-0.08 -0.14,-0.09 -0.22,-0.25 -0.22,-0.42 v -8.48 c 0,-0.21 0.13,-0.4 0.33,-0.47 l 7.1,-2.63 c 0.15,-0.06 0.32,-0.04 0.46,0.06 0.13,0.09 0.21,0.25 0.21,0.41 v 8.21 c 0,0.2 -0.12,0.39 -0.31,0.46 l -7.1,2.89 c -0.06,0.03 -0.13,0.05 -0.19,0.05 z m 0.5,-8.63 v 7.38 l 6.1,-2.49 v -7.16 z"
   class="st0" />
		</g>
		<g
   id="g112">
			<path
   id="path110"
   d="m 25.01,23.76 c -0.06,0 -0.12,-0.01 -0.18,-0.03 L 17.3,20.9 c -0.2,-0.07 -0.32,-0.26 -0.32,-0.47 0,-0.21 0.13,-0.4 0.33,-0.47 l 7.1,-2.63 c 0.11,-0.04 0.24,-0.04 0.35,0 l 7.53,2.83 c 0.2,0.07 0.32,0.26 0.32,0.47 0,0.21 -0.13,0.4 -0.33,0.47 l -7.1,2.63 c -0.05,0.02 -0.11,0.03 -0.17,0.03 z m -6.1,-3.32 6.1,2.29 5.67,-2.1 -6.1,-2.29 z"
   class="st0" />
		</g>
	</g>
</g>
</svg>
