<?xml version="1.0" encoding="UTF-8" standalone="no"?>
<svg
   xmlns:dc="http://purl.org/dc/elements/1.1/"
   xmlns:cc="http://creativecommons.org/ns#"
   xmlns:rdf="http://www.w3.org/1999/02/22-rdf-syntax-ns#"
   xmlns:svg="http://www.w3.org/2000/svg"
   xmlns="http://www.w3.org/2000/svg"
   xmlns:xlink="http://www.w3.org/1999/xlink"
   xmlns:sodipodi="http://sodipodi.sourceforge.net/DTD/sodipodi-0.dtd"
   xmlns:inkscape="http://www.inkscape.org/namespaces/inkscape"
   inkscape:version="1.0 (4035a4fb49, 2020-05-01)"
   height="49.435242"
   width="50"
   sodipodi:docname="granted-benefits-icon-05.svg"
   xml:space="preserve"
   viewBox="0 0 50 49.435242"
   y="0px"
   x="0px"
   id="Layer_1"
   version="1.1"><metadata
   id="metadata217"><rdf:RDF><cc:Work
       rdf:about=""><dc:format>image/svg+xml</dc:format><dc:type
         rdf:resource="http://purl.org/dc/dcmitype/StillImage" /><dc:title></dc:title></cc:Work></rdf:RDF></metadata><defs
   id="defs215" /><sodipodi:namedview
   inkscape:current-layer="Layer_1"
   inkscape:window-maximized="1"
   inkscape:window-y="-9"
   inkscape:window-x="-9"
   inkscape:cy="18.39"
   inkscape:cx="19.92"
   inkscape:zoom="20.16"
   fit-margin-bottom="0"
   fit-margin-right="0"
   fit-margin-left="0"
   fit-margin-top="0"
   showgrid="false"
   id="namedview213"
   inkscape:window-height="1271"
   inkscape:window-width="2400"
   inkscape:pageshadow="2"
   inkscape:pageopacity="0"
   guidetolerance="10"
   gridtolerance="10"
   objecttolerance="10"
   borderopacity="1"
   bordercolor="#666666"
   pagecolor="#ffffff" />
<style
   id="style2"
   type="text/css">
	.st0{fill:#77B0DF;}
	.st1{clip-path:url(#SVGID_2_);}
</style>
<g
   transform="matrix(1.2550201,0,0,1.2550201,-6.3755021,-8.2956829)"
   id="g16">
	<g
   id="g8">
		<g
   id="g6">
			<path
   id="path4"
   d="m 35.06,46 c -3.66,0 -6.95,-1.98 -8.67,-5.18 h -6.86 l -2.5,-2.5 -2.41,2.41 -2.41,-2.41 -2.62,2.62 -4.27,-4.79 4.16,-4.66 H 26.4 c 1.72,-3.21 5.01,-5.18 8.67,-5.18 5.43,0 9.85,4.42 9.85,9.85 C 44.9,41.58 40.49,46 35.06,46 Z M 20.04,39.57 h 7.12 l 0.17,0.35 c 1.46,2.98 4.42,4.83 7.73,4.83 4.74,0 8.6,-3.86 8.6,-8.6 0,-4.74 -3.86,-8.6 -8.6,-8.6 -3.31,0 -6.28,1.85 -7.73,4.83 l -0.17,0.35 H 10.02 l -3.05,3.42 2.66,2.98 2.57,-2.57 2.41,2.41 2.41,-2.41 z"
   class="st0" />
		</g>
	</g>
	<g
   id="g14">
		<g
   id="g12">
			<path
   id="path10"
   d="m 39.05,40.1 c -2.16,0 -3.91,-1.75 -3.91,-3.91 0,-2.16 1.75,-3.91 3.91,-3.91 2.16,0 3.91,1.75 3.91,3.91 0,2.16 -1.76,3.91 -3.91,3.91 z m 0,-6.58 c -1.47,0 -2.67,1.2 -2.67,2.67 0,1.47 1.2,2.67 2.67,2.67 1.47,0 2.67,-1.2 2.67,-2.67 -0.01,-1.47 -1.2,-2.67 -2.67,-2.67 z"
   class="st0" />
		</g>
	</g>
</g>
<g
   transform="matrix(1.2550201,0,0,1.2550201,-6.3755021,-8.2956829)"
   id="g210">
	<defs
   id="defs19">
		<path
   d="M 29.07,4.59 C 27.11,4.29 25.16,3.99 23.2,3.7 18.12,2.92 12.96,2.15 7.85,2.76 6.08,2.98 4.13,3.5 3.25,5.05 2.85,5.75 2.74,6.57 2.63,7.37 1.7,14.41 0.75,21.49 1.16,28.58 c 0.07,1.28 0.22,2.64 0.99,3.67 0.8,1.05 2.11,1.56 3.35,2.02 0.43,0.16 0.89,0.32 1.35,0.26 1.04,-0.13 1.61,-1.28 2.51,-1.82 0.61,-0.36 1.34,-0.42 2.04,-0.47 4.3,-0.28 8.61,-0.32 12.92,-0.12 0.56,0.03 1.14,0.05 1.67,-0.12 1.02,-0.33 1.65,-1.31 2.36,-2.1 1.65,-1.85 4.1,-2.96 6.58,-2.99 2.48,-0.03 4.96,1.03 6.65,2.84 0.37,0.39 0.72,0.84 1.22,1.06 0.69,0.31 1.48,0.11 2.21,-0.08 0.88,-0.24 1.8,-0.5 2.43,-1.15 1.1,-1.13 0.93,-2.95 0.68,-4.52 -0.68,-4.31 -1.3,-8.71 -0.7,-13.04 0.2,-1.42 0.53,-2.83 0.55,-4.26 C 47.99,6.33 47.67,4.83 46.73,3.75 45.82,2.71 44.42,2.18 43.04,2.05 41.66,1.92 40.27,2.13 38.9,2.34 35.79,2.82 32.68,3.31 29.56,3.79 Z"
   id="SVGID_1_" />
	</defs>
	<clipPath
   id="SVGID_2_">
		<use
   height="100%"
   width="100%"
   y="0"
   x="0"
   id="use21"
   style="overflow:visible"
   xlink:href="#SVGID_1_" />
	</clipPath>
	<g
   id="g208"
   clip-path="url(#SVGID_2_)"
   class="st1">
		<g
   id="g84">
			<g
   id="g30">
				<g
   id="g28">
					<path
   id="path24"
   d="M 7.41,7.72 H 7.4 L 6.32,8.16 6.16,7.67 7.51,7.11 h 0.71 v 4.78 H 7.41 Z"
   class="st0" />
					<polygon
   id="polygon26"
   points="6.05,8.75 5.62,7.42 7.42,6.68 8.66,6.68 8.66,12.33 6.98,12.33 6.98,8.36 "
   class="st0" />
				</g>
			</g>
			<g
   id="g38">
				<g
   id="g36">
					<path
   id="path32"
   d="m 13.73,9.45 c 0,1.62 -0.78,2.52 -2.15,2.52 -1.21,0 -2.02,-0.87 -2.04,-2.45 0,-1.6 0.89,-2.48 2.15,-2.48 1.3,-0.01 2.04,0.89 2.04,2.41 z m -3.35,0.07 c 0,1.24 0.49,1.95 1.25,1.95 0.86,0 1.26,-0.77 1.26,-1.99 0,-1.18 -0.39,-1.95 -1.25,-1.95 -0.73,0 -1.26,0.69 -1.26,1.99 z"
   class="st0" />
					<path
   id="path34"
   d="m 11.58,12.41 c -1.48,0 -2.46,-1.13 -2.48,-2.88 0,-1.78 1.01,-2.92 2.58,-2.92 1.53,0 2.48,1.09 2.48,2.85 0.01,1.84 -0.96,2.95 -2.58,2.95 z m 0.06,-4.44 c -0.61,0 -0.83,0.8 -0.83,1.56 0,0.35 0.06,1.51 0.82,1.51 0.68,0 0.83,-0.85 0.83,-1.56 0,-1 -0.28,-1.51 -0.82,-1.51 z"
   class="st0" />
				</g>
			</g>
			<g
   id="g46">
				<g
   id="g44">
					<path
   id="path40"
   d="M 17.39,7.72 H 17.37 L 16.3,8.16 16.14,7.67 17.49,7.11 h 0.71 v 4.78 h -0.81 z"
   class="st0" />
					<polygon
   id="polygon42"
   points="16.03,8.75 15.6,7.42 17.4,6.68 18.64,6.68 18.64,12.33 16.96,12.33 16.96,8.36 "
   class="st0" />
				</g>
			</g>
			<g
   id="g54">
				<g
   id="g52">
					<path
   id="path48"
   d="m 23.71,9.45 c 0,1.62 -0.78,2.52 -2.15,2.52 -1.21,0 -2.02,-0.87 -2.04,-2.45 0,-1.6 0.89,-2.48 2.15,-2.48 1.3,-0.01 2.04,0.89 2.04,2.41 z m -3.35,0.07 c 0,1.24 0.49,1.95 1.25,1.95 0.86,0 1.26,-0.77 1.26,-1.99 0,-1.18 -0.39,-1.95 -1.25,-1.95 -0.73,0 -1.26,0.69 -1.26,1.99 z"
   class="st0" />
					<path
   id="path50"
   d="m 21.56,12.41 c -1.48,0 -2.46,-1.13 -2.48,-2.88 0,-1.78 1.01,-2.92 2.58,-2.92 1.53,0 2.48,1.09 2.48,2.85 0.01,1.84 -0.96,2.95 -2.58,2.95 z m 0.06,-4.44 c -0.61,0 -0.83,0.8 -0.83,1.56 0,0.35 0.06,1.51 0.82,1.51 0.68,0 0.83,-0.85 0.83,-1.56 0,-1 -0.28,-1.51 -0.82,-1.51 z"
   class="st0" />
				</g>
			</g>
			<g
   id="g62">
				<g
   id="g60">
					<path
   id="path56"
   d="M 27.37,7.72 H 27.35 L 26.28,8.17 26.12,7.68 27.47,7.12 h 0.71 v 4.78 h -0.81 z"
   class="st0" />
					<polygon
   id="polygon58"
   points="26.01,8.75 25.58,7.42 27.38,6.68 28.62,6.68 28.62,12.33 26.94,12.33 26.94,8.36 "
   class="st0" />
				</g>
			</g>
			<g
   id="g82">
				<g
   id="g68">
					<path
   id="path64"
   d="m 33.69,9.45 c 0,1.62 -0.78,2.52 -2.15,2.52 -1.21,0 -2.02,-0.87 -2.04,-2.45 0,-1.6 0.89,-2.48 2.15,-2.48 1.3,-0.01 2.04,0.89 2.04,2.41 z m -3.35,0.07 c 0,1.24 0.49,1.95 1.25,1.95 0.86,0 1.26,-0.77 1.26,-1.99 0,-1.18 -0.39,-1.95 -1.25,-1.95 -0.73,0 -1.26,0.69 -1.26,1.99 z"
   class="st0" />
					<path
   id="path66"
   d="m 31.54,12.41 c -1.48,0 -2.46,-1.13 -2.48,-2.88 0,-1.78 1.01,-2.92 2.58,-2.92 1.53,0 2.48,1.09 2.48,2.85 0.01,1.84 -0.96,2.95 -2.58,2.95 z M 31.6,7.97 c -0.61,0 -0.83,0.8 -0.83,1.56 0,0.35 0.06,1.51 0.82,1.51 0.68,0 0.83,-0.85 0.83,-1.56 0,-1 -0.28,-1.51 -0.82,-1.51 z"
   class="st0" />
				</g>
				<g
   id="g74">
					<path
   id="path70"
   d="m 39.04,9.45 c 0,1.62 -0.78,2.52 -2.15,2.52 -1.21,0 -2.02,-0.87 -2.04,-2.45 0,-1.6 0.89,-2.48 2.15,-2.48 1.3,-0.01 2.04,0.89 2.04,2.41 z m -3.35,0.07 c 0,1.24 0.49,1.95 1.25,1.95 0.86,0 1.26,-0.77 1.26,-1.99 0,-1.18 -0.39,-1.95 -1.25,-1.95 -0.73,0 -1.26,0.69 -1.26,1.99 z"
   class="st0" />
					<path
   id="path72"
   d="m 36.89,12.41 c -1.48,0 -2.46,-1.13 -2.48,-2.88 0,-1.78 1.01,-2.92 2.58,-2.92 1.53,0 2.48,1.09 2.48,2.85 0.01,1.84 -0.96,2.95 -2.58,2.95 z m 0.06,-4.44 c -0.61,0 -0.83,0.8 -0.83,1.56 0,0.35 0.06,1.51 0.82,1.51 0.68,0 0.83,-0.85 0.83,-1.56 0,-1 -0.28,-1.51 -0.82,-1.51 z"
   class="st0" />
				</g>
				<g
   id="g80">
					<path
   id="path76"
   d="M 42.1,7.72 H 42.08 L 41.01,8.17 40.85,7.68 42.2,7.12 h 0.71 V 11.9 H 42.1 Z"
   class="st0" />
					<polygon
   id="polygon78"
   points="40.74,8.75 40.31,7.42 42.11,6.68 43.34,6.68 43.34,12.33 41.66,12.33 41.66,8.36 "
   class="st0" />
				</g>
			</g>
		</g>
		<g
   id="g144">
			<g
   id="g92">
				<g
   id="g90">
					<path
   id="path86"
   d="m 9.71,18.77 c 0,1.62 -0.78,2.52 -2.15,2.52 -1.21,0 -2.02,-0.87 -2.04,-2.45 0,-1.6 0.89,-2.48 2.15,-2.48 1.29,-0.01 2.04,0.89 2.04,2.41 z m -3.36,0.07 c 0,1.24 0.49,1.95 1.25,1.95 0.86,0 1.26,-0.77 1.26,-1.99 0,-1.18 -0.39,-1.95 -1.25,-1.95 -0.73,0 -1.26,0.69 -1.26,1.99 z"
   class="st0" />
					<path
   id="path88"
   d="m 7.56,21.72 c -1.48,0 -2.46,-1.13 -2.48,-2.88 0,-1.78 1.01,-2.92 2.58,-2.92 1.53,0 2.48,1.09 2.48,2.85 0,1.85 -0.97,2.95 -2.58,2.95 z m 0.05,-4.43 c -0.61,0 -0.83,0.8 -0.83,1.56 0,0.35 0.06,1.51 0.82,1.51 0.68,0 0.83,-0.85 0.83,-1.56 0,-1.01 -0.27,-1.51 -0.82,-1.51 z"
   class="st0" />
				</g>
			</g>
			<g
   id="g100">
				<g
   id="g98">
					<path
   id="path94"
   d="m 13.37,17.03 h -0.02 l -1.07,0.45 -0.16,-0.49 1.35,-0.56 h 0.71 v 4.78 h -0.81 z"
   class="st0" />
					<polygon
   id="polygon96"
   points="12.01,18.07 11.58,16.74 13.38,16 14.61,16 14.61,21.64 12.93,21.64 12.93,17.68 "
   class="st0" />
				</g>
			</g>
			<g
   id="g126">
				<g
   id="g106">
					<path
   id="path102"
   d="m 19.69,18.77 c 0,1.62 -0.78,2.52 -2.15,2.52 -1.21,0 -2.02,-0.87 -2.04,-2.45 0,-1.6 0.89,-2.48 2.15,-2.48 1.29,-0.01 2.04,0.89 2.04,2.41 z m -3.36,0.07 c 0,1.24 0.49,1.95 1.25,1.95 0.86,0 1.26,-0.77 1.26,-1.99 0,-1.18 -0.39,-1.95 -1.25,-1.95 -0.73,0 -1.26,0.69 -1.26,1.99 z"
   class="st0" />
					<path
   id="path104"
   d="m 17.54,21.72 c -1.48,0 -2.46,-1.13 -2.48,-2.88 0,-1.78 1.01,-2.92 2.58,-2.92 1.53,0 2.48,1.09 2.48,2.85 0,1.85 -0.96,2.95 -2.58,2.95 z m 0.05,-4.43 c -0.61,0 -0.83,0.8 -0.83,1.56 0,0.35 0.06,1.51 0.82,1.51 0.68,0 0.83,-0.85 0.83,-1.56 0,-1.01 -0.27,-1.51 -0.82,-1.51 z"
   class="st0" />
				</g>
				<g
   id="g112">
					<path
   id="path108"
   d="m 25.04,18.77 c 0,1.62 -0.78,2.52 -2.15,2.52 -1.21,0 -2.02,-0.87 -2.04,-2.45 0,-1.6 0.89,-2.48 2.15,-2.48 1.29,-0.01 2.04,0.89 2.04,2.41 z m -3.36,0.07 c 0,1.24 0.49,1.95 1.25,1.95 0.86,0 1.26,-0.77 1.26,-1.99 0,-1.18 -0.39,-1.95 -1.25,-1.95 -0.73,0 -1.26,0.69 -1.26,1.99 z"
   class="st0" />
					<path
   id="path110"
   d="m 22.89,21.72 c -1.48,0 -2.46,-1.13 -2.48,-2.88 0,-1.78 1.01,-2.92 2.58,-2.92 1.53,0 2.48,1.09 2.48,2.85 0,1.85 -0.96,2.95 -2.58,2.95 z m 0.05,-4.43 c -0.61,0 -0.83,0.8 -0.83,1.56 0,0.35 0.06,1.51 0.82,1.51 0.68,0 0.83,-0.85 0.83,-1.56 0,-1.01 -0.27,-1.51 -0.82,-1.51 z"
   class="st0" />
				</g>
				<g
   id="g118">
					<path
   id="path114"
   d="M 28.1,17.03 H 28.08 L 27,17.48 26.84,16.99 28.19,16.43 h 0.71 v 4.78 h -0.8 z"
   class="st0" />
					<polygon
   id="polygon116"
   points="26.74,18.07 26.3,16.74 28.1,16 29.34,16 29.34,21.64 27.66,21.64 27.66,17.68 "
   class="st0" />
				</g>
				<g
   id="g124">
					<path
   id="path120"
   d="m 33.45,17.03 h -0.02 l -1.07,0.45 -0.16,-0.49 1.35,-0.56 h 0.71 v 4.78 h -0.81 z"
   class="st0" />
					<polygon
   id="polygon122"
   points="32.09,18.07 31.65,16.74 33.45,16 34.69,16 34.69,21.64 33.01,21.64 33.01,17.68 "
   class="st0" />
				</g>
			</g>
			<g
   id="g134">
				<g
   id="g132">
					<path
   id="path128"
   d="m 37.44,17.03 h -0.02 l -1.07,0.45 -0.16,-0.49 1.35,-0.56 h 0.71 v 4.78 h -0.81 z"
   class="st0" />
					<polygon
   id="polygon130"
   points="36.08,18.07 35.64,16.74 37.45,16 38.68,16 38.68,21.64 37,21.64 37,17.68 "
   class="st0" />
				</g>
			</g>
			<g
   id="g142">
				<g
   id="g140">
					<path
   id="path136"
   d="m 43.75,18.77 c 0,1.62 -0.78,2.52 -2.15,2.52 -1.21,0 -2.02,-0.87 -2.04,-2.45 0,-1.6 0.89,-2.48 2.15,-2.48 1.3,-0.01 2.04,0.89 2.04,2.41 z m -3.35,0.07 c 0,1.24 0.49,1.95 1.25,1.95 0.86,0 1.26,-0.77 1.26,-1.99 0,-1.18 -0.39,-1.95 -1.25,-1.95 -0.73,0 -1.26,0.69 -1.26,1.99 z"
   class="st0" />
					<path
   id="path138"
   d="m 41.61,21.72 c -1.48,0 -2.46,-1.13 -2.48,-2.88 0,-1.78 1.01,-2.92 2.58,-2.92 1.53,0 2.48,1.09 2.48,2.85 0,1.85 -0.97,2.95 -2.58,2.95 z m 0.05,-4.43 c -0.61,0 -0.83,0.8 -0.83,1.56 0,0.35 0.06,1.51 0.82,1.51 0.68,0 0.83,-0.85 0.83,-1.56 0,-1.01 -0.27,-1.51 -0.82,-1.51 z"
   class="st0" />
				</g>
			</g>
		</g>
		<g
   id="g206">
			<g
   id="g152">
				<g
   id="g150">
					<path
   id="path146"
   d="M 7.41,25.64 H 7.4 L 6.33,26.09 6.17,25.6 7.52,25.04 h 0.71 v 4.78 H 7.41 Z"
   class="st0" />
					<polygon
   id="polygon148"
   points="6.05,26.67 5.62,25.34 7.42,24.6 8.66,24.6 8.66,30.25 6.98,30.25 6.98,26.28 "
   class="st0" />
				</g>
			</g>
			<g
   id="g160">
				<g
   id="g158">
					<path
   id="path154"
   d="m 13.73,27.37 c 0,1.62 -0.78,2.52 -2.15,2.52 -1.21,0 -2.02,-0.87 -2.04,-2.45 0,-1.6 0.89,-2.48 2.15,-2.48 1.3,-0.01 2.04,0.89 2.04,2.41 z m -3.35,0.07 c 0,1.24 0.49,1.95 1.25,1.95 0.86,0 1.26,-0.77 1.26,-1.99 0,-1.18 -0.39,-1.95 -1.25,-1.95 -0.73,0 -1.26,0.69 -1.26,1.99 z"
   class="st0" />
					<path
   id="path156"
   d="m 11.58,30.33 c -1.48,0 -2.46,-1.13 -2.48,-2.88 0,-1.78 1.01,-2.92 2.58,-2.92 1.53,0 2.48,1.09 2.48,2.85 0.01,1.84 -0.96,2.95 -2.58,2.95 z m 0.06,-4.44 c -0.61,0 -0.83,0.8 -0.83,1.56 0,0.35 0.06,1.51 0.82,1.51 0.68,0 0.83,-0.85 0.83,-1.56 0,-1 -0.28,-1.51 -0.82,-1.51 z"
   class="st0" />
				</g>
			</g>
			<g
   id="g168">
				<g
   id="g166">
					<path
   id="path162"
   d="m 17.39,25.64 h -0.02 l -1.07,0.45 -0.16,-0.49 1.35,-0.56 h 0.71 v 4.78 h -0.81 z"
   class="st0" />
					<polygon
   id="polygon164"
   points="16.03,26.67 15.6,25.34 17.4,24.6 18.64,24.6 18.64,30.25 16.96,30.25 16.96,26.28 "
   class="st0" />
				</g>
			</g>
			<g
   id="g176">
				<g
   id="g174">
					<path
   id="path170"
   d="m 23.71,27.37 c 0,1.62 -0.78,2.52 -2.15,2.52 -1.21,0 -2.02,-0.87 -2.04,-2.45 0,-1.6 0.89,-2.48 2.15,-2.48 1.3,-0.01 2.04,0.89 2.04,2.41 z m -3.35,0.07 c 0,1.24 0.49,1.95 1.25,1.95 0.86,0 1.26,-0.77 1.26,-1.99 0,-1.18 -0.39,-1.95 -1.25,-1.95 -0.73,0 -1.26,0.69 -1.26,1.99 z"
   class="st0" />
					<path
   id="path172"
   d="m 21.56,30.33 c -1.48,0 -2.46,-1.13 -2.48,-2.88 0,-1.78 1.01,-2.92 2.58,-2.92 1.53,0 2.48,1.09 2.48,2.85 0.01,1.84 -0.96,2.95 -2.58,2.95 z m 0.06,-4.44 c -0.61,0 -0.83,0.8 -0.83,1.56 0,0.35 0.06,1.51 0.82,1.51 0.68,0 0.83,-0.85 0.83,-1.56 0,-1 -0.28,-1.51 -0.82,-1.51 z"
   class="st0" />
				</g>
			</g>
			<g
   id="g184">
				<g
   id="g182">
					<path
   id="path178"
   d="m 27.37,25.64 h -0.02 l -1.07,0.45 -0.16,-0.49 1.35,-0.56 h 0.71 v 4.78 h -0.81 z"
   class="st0" />
					<polygon
   id="polygon180"
   points="26.01,26.67 25.58,25.34 27.38,24.6 28.62,24.6 28.62,30.25 26.94,30.25 26.94,26.28 "
   class="st0" />
				</g>
			</g>
			<g
   id="g204">
				<g
   id="g190">
					<path
   id="path186"
   d="m 33.69,27.37 c 0,1.62 -0.78,2.52 -2.15,2.52 -1.21,0 -2.02,-0.87 -2.04,-2.45 0,-1.6 0.89,-2.48 2.15,-2.48 1.3,-0.01 2.04,0.89 2.04,2.41 z m -3.35,0.07 c 0,1.24 0.49,1.95 1.25,1.95 0.86,0 1.26,-0.77 1.26,-1.99 0,-1.18 -0.39,-1.95 -1.25,-1.95 -0.73,0 -1.26,0.69 -1.26,1.99 z"
   class="st0" />
					<path
   id="path188"
   d="m 31.54,30.33 c -1.48,0 -2.46,-1.13 -2.48,-2.88 0,-1.78 1.01,-2.92 2.58,-2.92 1.53,0 2.48,1.09 2.48,2.85 0.01,1.84 -0.96,2.95 -2.58,2.95 z m 0.06,-4.44 c -0.61,0 -0.83,0.8 -0.83,1.56 0,0.35 0.06,1.51 0.82,1.51 0.68,0 0.83,-0.85 0.83,-1.56 0,-1 -0.28,-1.51 -0.82,-1.51 z"
   class="st0" />
				</g>
				<g
   id="g196">
					<path
   id="path192"
   d="m 39.04,27.37 c 0,1.62 -0.78,2.52 -2.15,2.52 -1.21,0 -2.02,-0.87 -2.04,-2.45 0,-1.6 0.89,-2.48 2.15,-2.48 1.3,-0.01 2.04,0.89 2.04,2.41 z m -3.35,0.07 c 0,1.24 0.49,1.95 1.25,1.95 0.86,0 1.26,-0.77 1.26,-1.99 0,-1.18 -0.39,-1.95 -1.25,-1.95 -0.73,0 -1.26,0.69 -1.26,1.99 z"
   class="st0" />
					<path
   id="path194"
   d="m 36.89,30.33 c -1.48,0 -2.46,-1.13 -2.48,-2.88 0,-1.78 1.01,-2.92 2.58,-2.92 1.53,0 2.48,1.09 2.48,2.85 0.01,1.84 -0.96,2.95 -2.58,2.95 z m 0.06,-4.44 c -0.61,0 -0.83,0.8 -0.83,1.56 0,0.35 0.06,1.51 0.82,1.51 0.68,0 0.83,-0.85 0.83,-1.56 0,-1 -0.28,-1.51 -0.82,-1.51 z"
   class="st0" />
				</g>
				<g
   id="g202">
					<path
   id="path198"
   d="m 42.1,25.64 h -0.02 l -1.07,0.45 -0.16,-0.49 1.35,-0.56 h 0.71 v 4.78 H 42.1 Z"
   class="st0" />
					<polygon
   id="polygon200"
   points="40.74,26.67 40.31,25.34 42.11,24.6 43.34,24.6 43.34,30.25 41.66,30.25 41.66,26.28 "
   class="st0" />
				</g>
			</g>
		</g>
	</g>
</g>
</svg>
