<?xml version="1.0" encoding="UTF-8" standalone="no"?>
<svg
   xmlns:dc="http://purl.org/dc/elements/1.1/"
   xmlns:cc="http://creativecommons.org/ns#"
   xmlns:rdf="http://www.w3.org/1999/02/22-rdf-syntax-ns#"
   xmlns:svg="http://www.w3.org/2000/svg"
   xmlns="http://www.w3.org/2000/svg"
   xmlns:sodipodi="http://sodipodi.sourceforge.net/DTD/sodipodi-0.dtd"
   xmlns:inkscape="http://www.inkscape.org/namespaces/inkscape"
   inkscape:version="1.0 (4035a4fb49, 2020-05-01)"
   height="39.185246"
   width="50"
   sodipodi:docname="granted-benefits-icon-03.svg"
   xml:space="preserve"
   viewBox="0 0 50 39.185246"
   y="0px"
   x="0px"
   id="Layer_1"
   version="1.1"><metadata
   id="metadata20"><rdf:RDF><cc:Work
       rdf:about=""><dc:format>image/svg+xml</dc:format><dc:type
         rdf:resource="http://purl.org/dc/dcmitype/StillImage" /><dc:title></dc:title></cc:Work></rdf:RDF></metadata><defs
   id="defs18" /><sodipodi:namedview
   inkscape:current-layer="Layer_1"
   inkscape:window-maximized="1"
   inkscape:window-y="-9"
   inkscape:window-x="-9"
   inkscape:cy="19.65"
   inkscape:cx="24"
   inkscape:zoom="20.16"
   fit-margin-bottom="0"
   fit-margin-right="0"
   fit-margin-left="0"
   fit-margin-top="0"
   showgrid="false"
   id="namedview16"
   inkscape:window-height="1271"
   inkscape:window-width="2400"
   inkscape:pageshadow="2"
   inkscape:pageopacity="0"
   guidetolerance="10"
   gridtolerance="10"
   objecttolerance="10"
   borderopacity="1"
   bordercolor="#666666"
   pagecolor="#ffffff" />
<style
   id="style2"
   type="text/css">
	.st0{fill:none;stroke:#77B0DF;stroke-width:2;stroke-miterlimit:10;}
</style>
<g
   transform="matrix(1.0418837,0,0,1.0418837,-1.0418837,-5.5740778)"
   id="g1778">
	<path
   d="M 5.71,16.74 V 6.35 H 44.29 V 9.32 M 25,36.03 h -7.42"
   class="st0"
   id="path1731" />
	<path
   d="m 17.58,41.96 h 8.16"
   class="st0"
   id="path1733" />
	<path
   d="M 22.03,41.96 22.77,39"
   class="st0"
   id="path1735" />
	<path
   d="m 3.48,19.71 h 9.65 c 0.82,0 1.48,0.66 1.48,1.48 v 19.29 c 0,0.82 -0.66,1.48 -1.48,1.48 H 3.48 C 2.66,41.96 2,41.3 2,40.48 V 21.19 c 0,-0.82 0.66,-1.48 1.48,-1.48 z"
   class="st0"
   id="rect1739" />
	<path
   d="m 29.45,12.29 h 17.06 c 0.82,0 1.48,0.66 1.48,1.48 v 26.71 c 0,0.82 -0.66,1.48 -1.48,1.48 H 29.45 c -0.82,0 -1.48,-0.66 -1.48,-1.48 V 13.77 c 0,-0.82 0.66,-1.48 1.48,-1.48 z"
   class="st0"
   id="path1741" />
	<path
   d="M 17.58,32.32 H 25"
   class="st0"
   id="path1743" />
	<path
   d="M 2,38.25 H 14.61"
   class="st0"
   id="path1760" />
	<path
   d="M 2,22.67 H 14.61"
   class="st0"
   id="path1762" />
	<path
   d="M 27.97,16 H 48"
   class="st0"
   id="path1764" />
	<path
   d="M 27.97,38.25 H 48"
   class="st0"
   id="path1766" />
</g>
</svg>
