<?xml version="1.0" encoding="UTF-8" standalone="no"?>
<svg
   xmlns:dc="http://purl.org/dc/elements/1.1/"
   xmlns:cc="http://creativecommons.org/ns#"
   xmlns:rdf="http://www.w3.org/1999/02/22-rdf-syntax-ns#"
   xmlns:svg="http://www.w3.org/2000/svg"
   xmlns="http://www.w3.org/2000/svg"
   xmlns:sodipodi="http://sodipodi.sourceforge.net/DTD/sodipodi-0.dtd"
   xmlns:inkscape="http://www.inkscape.org/namespaces/inkscape"
   inkscape:version="1.0 (4035a4fb49, 2020-05-01)"
   height="53.525383"
   width="50"
   sodipodi:docname="granted-benefits-icon-06.svg"
   xml:space="preserve"
   viewBox="0 0 50 53.525383"
   y="0px"
   x="0px"
   id="Layer_1"
   version="1.1"><metadata
   id="metadata14"><rdf:RDF><cc:Work
       rdf:about=""><dc:format>image/svg+xml</dc:format><dc:type
         rdf:resource="http://purl.org/dc/dcmitype/StillImage" /><dc:title></dc:title></cc:Work></rdf:RDF></metadata><defs
   id="defs12" /><sodipodi:namedview
   inkscape:current-layer="Layer_1"
   inkscape:window-maximized="1"
   inkscape:window-y="-9"
   inkscape:window-x="-9"
   inkscape:cy="38.593281"
   inkscape:cx="106.31823"
   inkscape:zoom="3.5638182"
   fit-margin-bottom="0"
   fit-margin-right="0"
   fit-margin-left="0"
   fit-margin-top="0"
   showgrid="false"
   id="namedview10"
   inkscape:window-height="1271"
   inkscape:window-width="2400"
   inkscape:pageshadow="2"
   inkscape:pageopacity="0"
   guidetolerance="10"
   gridtolerance="10"
   objecttolerance="10"
   borderopacity="1"
   bordercolor="#666666"
   pagecolor="#ffffff" />
<style
   id="style2"
   type="text/css">
	.st0{fill:none;stroke:#78B1DF;stroke-miterlimit:10;}
</style>
<g
   transform="matrix(2.0145044,0,0,2.0145044,-24.939564,-23.126511)"
   id="XMLID_556_">
	<path
   d="m 28.06,32.94 1.51,1.93 2.36,-1.36 L 31,31.25 c 0.41,-0.35 0.8,-0.73 1.15,-1.15 l 2.27,0.92 1.36,-2.36 -1.93,-1.51 c 0.18,-0.5 0.32,-1.03 0.42,-1.56 l 2.43,-0.34 v -2.72 l -2.43,-0.34 c -0.1,-0.54 -0.24,-1.06 -0.42,-1.56 l 1.93,-1.51 -1.36,-2.36 -2.27,0.92 C 31.8,17.27 31.42,16.88 31,16.53 l 0.92,-2.27 -2.36,-1.36 -1.51,1.93 c -0.5,-0.18 -1.03,-0.32 -1.56,-0.42 l -0.34,-2.43 h -2.72 l -0.34,2.43 c -0.54,0.1 -1.06,0.24 -1.56,0.42 l -1.51,-1.93 -2.36,1.36 0.92,2.27 c -0.41,0.35 -0.8,0.73 -1.15,1.15 l -2.27,-0.92 -1.36,2.36 1.93,1.51 c -0.18,0.5 -0.32,1.03 -0.42,1.56 l -2.43,0.34 v 2.72 l 2.43,0.34 c 0.1,0.54 0.24,1.06 0.42,1.56 l -1.93,1.51 1.36,2.36 2.27,-0.92 c 0.35,0.41 0.73,0.8 1.15,1.15 l -0.92,2.27 2.36,1.36 1.51,-1.93"
   class="st0"
   id="XMLID_561_" />
	<path
   d="m 24.79,16.52 c 4.07,0 7.37,3.3 7.37,7.37"
   class="st0"
   id="XMLID_559_" />
	<path
   d="m 21.43,30.44 c -2.38,-1.22 -4,-3.7 -4,-6.55"
   class="st0"
   id="XMLID_558_" />
	<path
   d="m 26.49,38.05 v -9.83 c 0,-0.22 0.14,-0.42 0.34,-0.52 1.48,-0.72 2.5,-2.05 2.5,-3.82 0,-1.54 -0.77,-2.9 -1.95,-3.72 -0.37,-0.26 -0.89,0.02 -0.89,0.47 v 2.68 c 0,0.31 -0.25,0.57 -0.57,0.57 h -2.27 c -0.31,0 -0.57,-0.25 -0.57,-0.57 v -2.68 c 0,-0.45 -0.51,-0.73 -0.89,-0.47 -1.18,0.82 -1.95,2.18 -1.95,3.72 0,1.77 1.02,3.1 2.5,3.82 0.2,0.1 0.34,0.29 0.34,0.52 v 9.83"
   class="st0"
   id="XMLID_557_" />
</g>
</svg>
