<?xml version="1.0" encoding="UTF-8" standalone="no"?>
<svg
   xmlns:dc="http://purl.org/dc/elements/1.1/"
   xmlns:cc="http://creativecommons.org/ns#"
   xmlns:rdf="http://www.w3.org/1999/02/22-rdf-syntax-ns#"
   xmlns:svg="http://www.w3.org/2000/svg"
   xmlns="http://www.w3.org/2000/svg"
   xmlns:sodipodi="http://sodipodi.sourceforge.net/DTD/sodipodi-0.dtd"
   xmlns:inkscape="http://www.inkscape.org/namespaces/inkscape"
   inkscape:version="1.0 (4035a4fb49, 2020-05-01)"
   height="41.855354"
   width="50"
   sodipodi:docname="granted-benefits-icon-04.svg"
   xml:space="preserve"
   viewBox="0 0 50 41.855354"
   y="0px"
   x="0px"
   id="Layer_1"
   version="1.1"><metadata
   id="metadata20"><rdf:RDF><cc:Work
       rdf:about=""><dc:format>image/svg+xml</dc:format><dc:type
         rdf:resource="http://purl.org/dc/dcmitype/StillImage" /><dc:title></dc:title></cc:Work></rdf:RDF></metadata><defs
   id="defs18" /><sodipodi:namedview
   inkscape:current-layer="Layer_1"
   inkscape:window-maximized="1"
   inkscape:window-y="-9"
   inkscape:window-x="-9"
   inkscape:cy="10.94"
   inkscape:cx="13.010001"
   inkscape:zoom="20.16"
   fit-margin-bottom="0"
   fit-margin-right="0"
   fit-margin-left="0"
   fit-margin-top="0"
   showguides="false"
   showgrid="false"
   id="namedview16"
   inkscape:window-height="1271"
   inkscape:window-width="2400"
   inkscape:pageshadow="2"
   inkscape:pageopacity="0"
   guidetolerance="10"
   gridtolerance="10"
   objecttolerance="10"
   borderopacity="1"
   bordercolor="#666666"
   pagecolor="#ffffff" />
<style
   id="style2"
   type="text/css">
	.st0{fill:#77B0DF;}
</style>
<g
   transform="matrix(1.9531196,0,0,1.9531196,-23.417904,-27.460862)"
   id="XMLID_642_">
	<path
   d="m 35.23,35.49 h -16.6 c -0.17,0 -0.32,-0.1 -0.37,-0.26 -0.06,-0.16 -0.01,-0.33 0.12,-0.44 l 2.27,-1.86 c 1.14,-0.94 1.79,-2.32 1.79,-3.79 V 22.7 c 0,-1.31 1.07,-2.37 2.37,-2.37 h 10.41 c 1.31,0 2.37,1.07 2.37,2.37 v 10.41 c 0.01,1.32 -1.05,2.38 -2.36,2.38 z M 19.74,34.71 h 15.49 c 0.87,0 1.59,-0.71 1.59,-1.59 V 22.71 c 0,-0.87 -0.71,-1.59 -1.59,-1.59 H 24.82 c -0.87,0 -1.59,0.71 -1.59,1.59 v 6.44 c 0,1.71 -0.76,3.32 -2.08,4.4 z"
   class="st0"
   id="XMLID_652_" />
	<path
   d="m 21.26,29.24 h -6.9 c -1.31,0 -2.37,-1.07 -2.37,-2.37 V 16.46 c 0,-1.31 1.07,-2.37 2.37,-2.37 L 30.9,14.06 c 0.17,0 0.32,0.1 0.37,0.26 0.06,0.16 0.01,0.33 -0.12,0.44 l -2.22,1.84 c -0.81,0.66 -1.37,1.55 -1.63,2.56 -0.05,0.21 -0.27,0.34 -0.48,0.28 -0.21,-0.05 -0.34,-0.27 -0.28,-0.48 0.3,-1.17 0.96,-2.2 1.89,-2.98 l 1.38,-1.14 -15.44,0.02 c -0.88,0 -1.59,0.71 -1.59,1.59 v 10.41 c 0,0.87 0.71,1.59 1.59,1.59 h 6.9 c 0.22,0 0.39,0.18 0.39,0.39 0,0.21 -0.18,0.4 -0.4,0.4 z"
   class="st0"
   id="XMLID_625_" />
	<g
   id="XMLID_646_">
		<path
   d="m 23.86,19.22 h -8.39 c -0.22,0 -0.39,-0.18 -0.39,-0.39 0,-0.22 0.18,-0.39 0.39,-0.39 h 8.39 c 0.22,0 0.39,0.18 0.39,0.39 0.01,0.21 -0.17,0.39 -0.39,0.39 z"
   class="st0"
   id="XMLID_624_" />
		<path
   d="m 19.67,19.22 c -0.22,0 -0.39,-0.18 -0.39,-0.39 v -1.61 c 0,-0.22 0.18,-0.39 0.39,-0.39 0.21,0 0.39,0.18 0.39,0.39 v 1.61 c 0,0.21 -0.18,0.39 -0.39,0.39 z"
   class="st0"
   id="XMLID_623_" />
		<path
   d="m 15.85,26.05 c -0.16,0 -0.31,-0.1 -0.37,-0.25 -0.08,-0.2 0.02,-0.43 0.23,-0.51 5.32,-2.04 5.98,-6.32 5.99,-6.36 0.03,-0.22 0.23,-0.36 0.45,-0.33 0.22,0.03 0.37,0.23 0.33,0.45 -0.01,0.05 -0.18,1.23 -1.08,2.68 -0.82,1.33 -2.42,3.15 -5.41,4.3 -0.05,0.01 -0.1,0.02 -0.14,0.02 z"
   class="st0"
   id="XMLID_622_" />
		<path
   d="m 22.71,25.77 c -0.05,0 -0.11,-0.01 -0.16,-0.04 -3.04,-1.39 -4.59,-3.63 -4.99,-4.28 -0.11,-0.19 -0.06,-0.43 0.13,-0.54 0.19,-0.11 0.43,-0.06 0.54,0.13 0.37,0.6 1.81,2.68 4.65,3.98 0.2,0.09 0.28,0.32 0.19,0.52 -0.06,0.14 -0.21,0.23 -0.36,0.23 z"
   class="st0"
   id="XMLID_621_" />
	</g>
	<g
   id="XMLID_643_">
		<path
   d="m 33.11,32.16 c -0.16,0 -0.3,-0.09 -0.37,-0.25 L 30,25.18 27.26,31.91 c -0.08,0.2 -0.31,0.3 -0.51,0.22 -0.2,-0.08 -0.3,-0.31 -0.22,-0.51 l 3.1,-7.63 c 0.06,-0.15 0.2,-0.25 0.37,-0.25 0.16,0 0.3,0.1 0.37,0.25 l 3.1,7.63 c 0.08,0.2 -0.02,0.43 -0.22,0.51 -0.04,0.02 -0.09,0.03 -0.14,0.03 z"
   class="st0"
   id="XMLID_620_" />
		<path
   d="m 32.02,29.68 h -4.11 c -0.22,0 -0.39,-0.18 -0.39,-0.39 0,-0.22 0.18,-0.39 0.39,-0.39 h 4.11 c 0.22,0 0.39,0.18 0.39,0.39 0.01,0.21 -0.17,0.39 -0.39,0.39 z"
   class="st0"
   id="XMLID_619_" />
	</g>
</g>
</svg>
