<?xml version="1.0" encoding="UTF-8" standalone="no"?>
<svg
   xmlns:dc="http://purl.org/dc/elements/1.1/"
   xmlns:cc="http://creativecommons.org/ns#"
   xmlns:rdf="http://www.w3.org/1999/02/22-rdf-syntax-ns#"
   xmlns:svg="http://www.w3.org/2000/svg"
   xmlns="http://www.w3.org/2000/svg"
   xmlns:sodipodi="http://sodipodi.sourceforge.net/DTD/sodipodi-0.dtd"
   xmlns:inkscape="http://www.inkscape.org/namespaces/inkscape"
   version="1.1"
   id="Capa_1"
   x="0px"
   y="0px"
   width="123.96081"
   height="109.30482"
   viewBox="0 0 123.96081 109.30483"
   xml:space="preserve"
   sodipodi:docname="quotation-mark.svg"
   inkscape:version="1.0 (4035a4fb49, 2020-05-01)"><metadata
   id="metadata43"><rdf:RDF><cc:Work
       rdf:about=""><dc:format>image/svg+xml</dc:format><dc:type
         rdf:resource="http://purl.org/dc/dcmitype/StillImage" /><dc:title></dc:title></cc:Work></rdf:RDF></metadata><defs
   id="defs41" /><sodipodi:namedview
   inkscape:document-rotation="0"
   pagecolor="#ffffff"
   bordercolor="#666666"
   borderopacity="1"
   objecttolerance="10"
   gridtolerance="10"
   guidetolerance="10"
   inkscape:pageopacity="0"
   inkscape:pageshadow="2"
   inkscape:window-width="2400"
   inkscape:window-height="1271"
   id="namedview39"
   showgrid="false"
   fit-margin-top="0"
   fit-margin-left="0"
   fit-margin-right="0"
   fit-margin-bottom="0"
   inkscape:zoom="8.1315899"
   inkscape:cx="58.168206"
   inkscape:cy="54.65232"
   inkscape:window-x="-9"
   inkscape:window-y="-9"
   inkscape:window-maximized="1"
   inkscape:current-layer="g6" />
<g
   id="g6"
   transform="translate(0,-7.328179)">
	<path
   style="fill:#ffffff"
   d="m 49.8,29.032 c 3.1,-1.3 4.4,-5 3,-8 l -4.9,-10.3 c -1.4,-2.899 -4.8,-4.2 -7.8,-2.899 -8.5,3.6 -15.8,8.3 -21.6,14 C 11.4,28.532 6.6,36.232 4,44.732 c -2.6,8.601 -4,20.3 -4,35.2 v 30.7 c 0,3.3 2.7,6 6,6 h 39.3 c 3.3,0 6,-2.7 6,-6 v -39.3 c 0,-3.301 -2.7,-6 -6,-6 H 26.5 c 0.2,-10.101 2.6,-18.2 7,-24.301 3.6,-4.898 9,-8.898 16.3,-11.999 z"
   id="path2" />
	<path
   style="fill:#ffffff"
   d="m 120.4,29.032 c 3.1,-1.3 4.399,-5 3,-8 l -4.9,-10.199 c -1.4,-2.9 -4.8,-4.2 -7.8,-2.9 -8.4,3.6 -15.601,8.3 -21.5,13.9 -7.101,6.8 -12,14.5 -14.601,23 -2.6,8.399 -3.899,20.1 -3.899,35.1 v 30.7 c 0,3.3 2.7,6 6,6 H 116 c 3.3,0 6,-2.7 6,-6 v -39.3 c 0,-3.301 -2.7,-6 -6,-6 H 97.1 c 0.2,-10.101 2.601,-18.2 7,-24.301 3.6,-4.899 9,-8.899 16.3,-12 z"
   id="path4" />
</g>
<g
   id="g8"
   transform="translate(0,-7.328179)">
</g>
<g
   id="g10"
   transform="translate(0,-7.328179)">
</g>
<g
   id="g12"
   transform="translate(0,-7.328179)">
</g>
<g
   id="g14"
   transform="translate(0,-7.328179)">
</g>
<g
   id="g16"
   transform="translate(0,-7.328179)">
</g>
<g
   id="g18"
   transform="translate(0,-7.328179)">
</g>
<g
   id="g20"
   transform="translate(0,-7.328179)">
</g>
<g
   id="g22"
   transform="translate(0,-7.328179)">
</g>
<g
   id="g24"
   transform="translate(0,-7.328179)">
</g>
<g
   id="g26"
   transform="translate(0,-7.328179)">
</g>
<g
   id="g28"
   transform="translate(0,-7.328179)">
</g>
<g
   id="g30"
   transform="translate(0,-7.328179)">
</g>
<g
   id="g32"
   transform="translate(0,-7.328179)">
</g>
<g
   id="g34"
   transform="translate(0,-7.328179)">
</g>
<g
   id="g36"
   transform="translate(0,-7.328179)">
</g>
</svg>
