<?xml version="1.0" encoding="UTF-8" standalone="no"?>
<svg
   xmlns:dc="http://purl.org/dc/elements/1.1/"
   xmlns:cc="http://creativecommons.org/ns#"
   xmlns:rdf="http://www.w3.org/1999/02/22-rdf-syntax-ns#"
   xmlns:svg="http://www.w3.org/2000/svg"
   xmlns="http://www.w3.org/2000/svg"
   xmlns:sodipodi="http://sodipodi.sourceforge.net/DTD/sodipodi-0.dtd"
   xmlns:inkscape="http://www.inkscape.org/namespaces/inkscape"
   inkscape:version="1.0 (4035a4fb49, 2020-05-01)"
   height="46.02837"
   width="50"
   sodipodi:docname="granted-benefits-icon-02.svg"
   xml:space="preserve"
   viewBox="0 0 50 46.02837"
   y="0px"
   x="0px"
   id="Layer_1"
   version="1.1"><metadata
   id="metadata39"><rdf:RDF><cc:Work
       rdf:about=""><dc:format>image/svg+xml</dc:format><dc:type
         rdf:resource="http://purl.org/dc/dcmitype/StillImage" /><dc:title></dc:title></cc:Work></rdf:RDF></metadata><defs
   id="defs37" /><sodipodi:namedview
   inkscape:current-layer="Layer_1"
   inkscape:window-maximized="1"
   inkscape:window-y="-9"
   inkscape:window-x="-9"
   inkscape:cy="35.941327"
   inkscape:cx="14.62534"
   inkscape:zoom="7.1276364"
   fit-margin-bottom="0"
   fit-margin-right="0"
   fit-margin-left="0"
   fit-margin-top="0"
   showgrid="false"
   id="namedview35"
   inkscape:window-height="1271"
   inkscape:window-width="2400"
   inkscape:pageshadow="2"
   inkscape:pageopacity="0"
   guidetolerance="10"
   gridtolerance="10"
   objecttolerance="10"
   borderopacity="1"
   bordercolor="#666666"
   pagecolor="#ffffff" />
<style
   id="style2"
   type="text/css">
	.st0{fill:#77B0DF;stroke:#77B0DF;stroke-width:0.25;stroke-miterlimit:10;}
</style>
<g
   transform="matrix(1.4184397,0,0,1.4184397,-10.177305,-11.992908)"
   id="g32">
	<g
   id="g6">
		<path
   id="path4"
   d="M 13.56,38.12 V 32.76 C 9.74,31.22 7.3,27.97 7.3,24.41 c 0,-5.12 4.97,-9.28 11.08,-9.28 6.11,0 11.08,4.16 11.08,9.28 0,5.12 -4.97,9.28 -11.08,9.28 -0.13,0 -0.25,-0.01 -0.37,-0.01 z m 4.81,-21.99 c -5.56,0 -10.08,3.72 -10.08,8.28 0,3.24 2.33,6.2 5.94,7.54 l 0.33,0.12 v 3.63 l 3.05,-3.05 0.42,0.02 c 0.12,0.01 0.23,0.01 0.35,0.01 5.56,0 10.08,-3.72 10.08,-8.28 -0.01,-4.56 -4.53,-8.27 -10.09,-8.27 z"
   class="st0" />
	</g>
	<g
   id="g10">
		<path
   id="path8"
   d="M 37.63,40.78 33.47,36.62 C 29.75,37.27 26.2,36.34 23.6,34.28 l 0.62,-0.78 c 2.43,1.93 5.79,2.77 9.32,2.09 l 0.26,-0.05 2.83,2.83 v -3.84 l 0.25,-0.14 c 2.76,-1.55 4.41,-4.11 4.41,-6.85 0,-4.57 -4.52,-8.28 -10.08,-8.28 -0.68,0 -1.35,0.06 -2,0.16 l -0.16,-0.99 c 0.71,-0.12 1.44,-0.18 2.17,-0.18 6.11,0 11.08,4.16 11.08,9.28 0,3.02 -1.74,5.83 -4.66,7.57 v 5.68 z"
   class="st0" />
	</g>
	<g
   id="g14">
		<path
   id="path12"
   d="m 20.84,30.8 c -0.47,-1.04 -0.7,-2.14 -0.7,-3.26 0,-3.02 1.76,-5.86 4.71,-7.6 l 0.51,0.86 c -2.64,1.56 -4.22,4.07 -4.22,6.74 0,0.98 0.21,1.94 0.61,2.85 z"
   class="st0" />
	</g>
	<g
   id="g18">
		<path
   id="path16"
   d="m 39.86,19.49 -0.98,-0.21 c 0.1,-0.47 0.15,-0.94 0.15,-1.42 0,-4.57 -4.52,-8.28 -10.08,-8.28 -3.81,0 -7.25,1.74 -8.99,4.53 l -0.85,-0.53 c 1.91,-3.09 5.68,-5 9.83,-5 6.11,0 11.08,4.16 11.08,9.28 0.01,0.55 -0.05,1.1 -0.16,1.63 z"
   class="st0" />
	</g>
	<g
   id="g22">
		<path
   id="path20"
   d="m 36.98,30.19 -3.76,-3.76 c -0.88,0.31 -1.8,0.52 -2.75,0.63 l -0.12,-0.99 c 0.97,-0.12 1.92,-0.35 2.81,-0.69 l 0.3,-0.11 2.5,2.5 v -3.96 l 0.18,-0.15 c 0.41,-0.34 0.78,-0.71 1.11,-1.11 l 0.77,0.64 c -0.32,0.38 -0.67,0.74 -1.06,1.08 v 5.92 z"
   class="st0" />
	</g>
	<g
   id="g26">
		<path
   id="path24"
   d="m 26.71,26.96 c -1.39,-0.24 -2.69,-0.69 -3.87,-1.35 l 0.49,-0.87 c 1.08,0.6 2.28,1.02 3.56,1.24 z"
   class="st0" />
	</g>
	<g
   id="g30">
		<path
   id="path28"
   d="m 19.67,22.94 c -1.17,-1.51 -1.8,-3.26 -1.8,-5.07 h 1 c 0,1.58 0.55,3.13 1.58,4.46 z"
   class="st0" />
	</g>
</g>
</svg>
