<?xml version="1.0" encoding="UTF-8" standalone="no"?>
<svg
   xmlns:dc="http://purl.org/dc/elements/1.1/"
   xmlns:cc="http://creativecommons.org/ns#"
   xmlns:rdf="http://www.w3.org/1999/02/22-rdf-syntax-ns#"
   xmlns:svg="http://www.w3.org/2000/svg"
   xmlns="http://www.w3.org/2000/svg"
   xmlns:xlink="http://www.w3.org/1999/xlink"
   xmlns:sodipodi="http://sodipodi.sourceforge.net/DTD/sodipodi-0.dtd"
   xmlns:inkscape="http://www.inkscape.org/namespaces/inkscape"
   inkscape:version="1.0 (4035a4fb49, 2020-05-01)"
   height="846.03003"
   width="650"
   sodipodi:docname="Granted-Benefits-center.svg"
   xml:space="preserve"
   viewBox="0 0 650 846.03003"
   y="0px"
   x="0px"
   id="Layer_1"
   version="1.1"><metadata
   id="metadata721"><rdf:RDF><cc:Work
       rdf:about=""><dc:format>image/svg+xml</dc:format><dc:type
         rdf:resource="http://purl.org/dc/dcmitype/StillImage" /><dc:title></dc:title></cc:Work></rdf:RDF></metadata><defs
   id="defs719" /><sodipodi:namedview
   inkscape:current-layer="Layer_1"
   inkscape:window-maximized="1"
   inkscape:window-y="-9"
   inkscape:window-x="-9"
   inkscape:cy="422.98"
   inkscape:cx="313.17"
   inkscape:zoom="1.12"
   fit-margin-bottom="0"
   fit-margin-right="0"
   fit-margin-left="0"
   fit-margin-top="0"
   showgrid="false"
   id="namedview717"
   inkscape:window-height="1271"
   inkscape:window-width="2400"
   inkscape:pageshadow="2"
   inkscape:pageopacity="0"
   guidetolerance="10"
   gridtolerance="10"
   objecttolerance="10"
   borderopacity="1"
   bordercolor="#666666"
   pagecolor="#ffffff" />
<style
   id="style2"
   type="text/css">
	.st0{fill:#73A9FF;}
	.st1{fill:#8DCFFF;}
	.st2{enable-background:new    ;}
	.st3{fill:#C2E7FF;}
	.st4{fill:#92BADF;}
	.st5{fill:#92BADE;}
	.st6{fill:#A5CDF1;}
	.st7{fill:#A0C9ED;}
	.st8{fill:#B5DDFF;}
	.st9{fill:#B3DBFF;}
	.st10{fill:#BFE5FF;}
	.st11{fill:#BAE0FF;}
	.st12{clip-path:url(#SVGID_2_);fill:#96BEE2;}
	.st13{clip-path:url(#SVGID_4_);enable-background:new    ;}
	.st14{fill:#96BEE2;}
	.st15{clip-path:url(#SVGID_6_);enable-background:new    ;}
	.st16{fill:#91B9DE;}
	.st17{fill:#C1E6FF;}
	.st18{clip-path:url(#SVGID_8_);enable-background:new    ;}
	.st19{fill:#BEE4FF;}
	.st20{fill:#9FC7EB;}
	.st21{clip-path:url(#SVGID_10_);enable-background:new    ;}
	.st22{fill:#A0C8EC;}
	.st23{fill:#A4CDF1;}
	.st24{fill:#9AC3E8;}
	.st25{clip-path:url(#SVGID_12_);enable-background:new    ;}
	.st26{fill:#9AC3E7;}
	.st27{fill:#B5DCFF;}
	.st28{fill:#B3DCFF;}
	.st29{clip-path:url(#SVGID_14_);enable-background:new    ;}
	.st30{fill:#AED7FB;}
	.st31{fill:#AFD7FB;}
	.st32{clip-path:url(#SVGID_16_);enable-background:new    ;}
	.st33{fill:#A9D2F6;}
	.st34{clip-path:url(#SVGID_18_);enable-background:new    ;}
	.st35{fill:#B4DCFF;}
	.st36{fill:#B6DDFF;}
	.st37{fill:#BDE3FF;}
	.st38{clip-path:url(#SVGID_20_);enable-background:new    ;}
	.st39{clip-path:url(#SVGID_22_);enable-background:new    ;}
	.st40{fill:#B7DDFF;}
	.st41{fill:#B0D8FC;}
	.st42{fill:#96BFE3;}
	.st43{fill:#E6FFFF;}
	.st44{fill:#99C1E6;}
	.st45{fill:#97C1E4;}
	.st46{fill:#A6D0F3;}
	.st47{fill:#BCE2FF;}
	.st48{clip-path:url(#SVGID_24_);enable-background:new    ;}
	.st49{fill:#9AC3E6;}
	.st50{fill:#9FC8EB;}
	.st51{fill:#A4CDF0;}
	.st52{fill:#A8D2F5;}
	.st53{fill:#AED7FA;}
	.st54{fill:#B2DCFF;}
	.st55{fill:#B4DBFF;}
	.st56{fill:#B5DEFF;}
	.st57{fill:#B9E0FF;}
	.st58{fill:#C4E9FF;}
	.st59{fill:#9CC3E8;}
	.st60{clip-path:url(#SVGID_26_);enable-background:new    ;}
	.st61{clip-path:url(#SVGID_28_);enable-background:new    ;}
	.st62{fill:#C1E8FF;}
	.st63{fill:#ACD5F8;}
	.st64{clip-path:url(#SVGID_30_);enable-background:new    ;}
	.st65{clip-path:url(#SVGID_32_);enable-background:new    ;}
	.st66{fill:#B0D8FD;}
	.st67{fill:#C2E9FF;}
	.st68{fill:#EAFFFF;}
	.st69{fill:#9AC1E2;}
	.st70{fill:#9FC4E5;}
	.st71{fill:#BBE0FF;}
	.st72{fill:#C7EAFF;}
	.st73{clip-path:url(#SVGID_34_);enable-background:new    ;}
	.st74{fill:#97BEDF;}
	.st75{fill:#9DC3E4;}
	.st76{fill:#A2C8E9;}
	.st77{fill:#A7CEEE;}
	.st78{fill:#ADD3F3;}
	.st79{fill:#B2D8F8;}
	.st80{fill:#B7DDFD;}
	.st81{fill:#BCE1FF;}
	.st82{clip-path:url(#SVGID_36_);enable-background:new    ;}
	.st83{fill:#92B9DA;}
	.st84{fill:#C5E8FF;}
	.st85{clip-path:url(#SVGID_38_);enable-background:new    ;}
	.st86{fill:#A9D0F0;}
	.st87{fill:#C3E6FF;}
	.st88{clip-path:url(#SVGID_40_);enable-background:new    ;}
	.st89{fill:#ACD2F2;}
	.st90{clip-path:url(#SVGID_42_);enable-background:new    ;}
	.st91{clip-path:url(#SVGID_44_);enable-background:new    ;}
	.st92{fill:#B8DEFE;}
	.st93{fill:#C0E4FF;}
	.st94{clip-path:url(#SVGID_46_);enable-background:new    ;}
	.st95{fill:#95BCDD;}
	.st96{fill:#BEE2FF;}
	.st97{fill:#EDFFFF;}
	.st98{fill:#98BFE0;}
	.st99{clip-path:url(#SVGID_48_);}
	.st100{fill:#30363D;}
	.st101{fill:#484F59;}
	.st102{fill:#D1DBEA;}
	.st103{fill:#E4EEF3;}
</style>
<g
   transform="translate(-186.83,-27.02)"
   id="g10">
	<polygon
   id="polygon4"
   points="509.86,166.35 532.4,399.69 554.95,831.79 509.86,831.79 464.78,831.79 487.32,399.69 "
   class="st0" />
	<polygon
   id="polygon6"
   points="509.86,166.35 525.56,399.69 541.28,831.79 509.86,831.79 478.44,831.79 494.15,399.69 "
   class="st1" />
	<polygon
   id="polygon8"
   points="509.86,166.35 514.51,399.69 519.16,831.79 509.86,831.79 500.55,831.79 505.2,399.69 "
   class="st0" />
</g>
<path
   id="path12"
   d="m 583.91,846.02 c 3.25,-6.73 5.13,-14.25 5.13,-22.22 0,-28.25 -22.91,-51.18 -51.18,-51.18 -28.26,0 -51.19,22.93 -51.19,51.18 0,7.97 1.87,15.49 5.14,22.22 z"
   class="st1" />
<path
   id="path14"
   d="m 512.46,795.08 c 0.25,-2.17 0.42,-4.38 0.42,-6.63 0,-30.76 -24.93,-55.71 -55.71,-55.71 -8.71,0 -16.92,2.05 -24.27,5.61 -8.47,-29.03 -35.23,-50.26 -67,-50.26 -34.73,0 -63.44,25.36 -68.87,58.54 -17.85,3.13 -33.56,12.53 -44.64,25.94 -3.65,-1.2 -7.56,-1.85 -11.63,-1.85 -20.8,0 -37.66,16.86 -37.66,37.66 0,20.53 16.45,37.2 36.89,37.62 0,0 0,0.02 0.02,0.03 h 108.66 31.35 13.6 70.93 44.95 c 0.02,-0.06 0.05,-0.14 0.07,-0.19 0.71,0.04 1.38,0.19 2.09,0.19 14.11,0 25.52,-11.42 25.52,-25.51 0,-13.84 -11,-25.02 -24.72,-25.44 z"
   class="st0" />
<path
   id="path16"
   d="m 293.08,808.34 c -10.52,0 -20.32,3.05 -28.63,8.25 -0.42,-45.12 -37.09,-81.58 -82.31,-81.58 -35.5,0 -65.63,22.46 -77.22,53.9 -8.77,-3.19 -18.21,-5.01 -28.07,-5.01 -35.1,0 -64.97,21.97 -76.85,52.85 7.27,5.61 16.31,9.04 26.17,9.24 0,0 0,0.03 0.02,0.04 h 128.13 36.97 16.03 83.63 53 c 0.04,-0.08 0.06,-0.16 0.1,-0.24 0.19,0.01 0.38,0.03 0.56,0.05 -7.05,-21.74 -27.44,-37.5 -51.53,-37.5 z"
   class="st1" />
<g
   transform="translate(-186.83,-27.02)"
   id="g280">
	<g
   id="g278"
   class="st2">
		<g
   id="g20">
			<polygon
   id="polygon18"
   points="468.59,396.9 452.12,364.2 453.19,363.52 469.67,396.2 "
   class="st3" />
		</g>
		<g
   id="g24">
			<polygon
   id="polygon22"
   points="525.16,368.7 508.69,336 504.65,327.55 521.12,360.24 "
   class="st4" />
		</g>
		<g
   id="g28">
			<polygon
   id="polygon26"
   points="433.84,407.83 417.37,375.13 425.17,381.52 441.64,414.21 "
   class="st5" />
		</g>
		<g
   id="g32">
			<polygon
   id="polygon30"
   points="580.81,350.55 564.33,317.85 567.72,306.29 584.19,338.99 "
   class="st6" />
		</g>
		<g
   id="g36">
			<polygon
   id="polygon34"
   points="385.23,447.43 368.75,414.74 382.88,416.69 399.36,449.39 "
   class="st7" />
		</g>
		<g
   id="g40">
			<polygon
   id="polygon38"
   points="629.89,343.93 613.41,311.24 623.82,298 640.29,330.69 "
   class="st8" />
		</g>
		<g
   id="g44">
			<polygon
   id="polygon42"
   points="353.61,486.88 337.13,454.2 355.91,451.47 372.38,484.16 "
   class="st9" />
		</g>
		<g
   id="g48">
			<polygon
   id="polygon46"
   points="666.45,349.68 649.98,316.99 666.18,303.63 682.67,336.33 "
   class="st10" />
		</g>
		<g
   id="g52">
			<polygon
   id="polygon50"
   points="342.83,521.46 326.35,488.76 347.47,481.71 363.95,514.4 "
   class="st11" />
		</g>
		<g
   id="g62"
   class="st2">
			<defs
   id="defs55">
				<path
   d="m 406.5,506.6 -16.48,-32.68 c -7.57,-15.02 3.23,-37.56 26.81,-60.5 14.99,-14.57 35.14,-29.3 59.02,-42.36 64.82,-35.42 132.57,-45.1 151.36,-21.62 l 16.47,32.69 c -18.77,-23.47 -86.53,-13.79 -151.35,21.63 -23.89,13.06 -44.04,27.79 -59.03,42.36 -23.57,22.92 -34.37,45.47 -26.8,60.48 z"
   class="st2"
   id="SVGID_1_" />
			</defs>
			<clipPath
   id="SVGID_2_">
				<use
   height="100%"
   width="100%"
   y="0"
   x="0"
   id="use57"
   style="overflow:visible"
   xlink:href="#SVGID_1_" />
			</clipPath>
			<path
   id="path60"
   clip-path="url(#SVGID_2_)"
   d="m 602.71,337.59 c -4.09,-0.63 -8.54,-0.96 -13.27,-0.97 -3.96,-0.02 -8.13,0.18 -12.48,0.58 -3.99,0.37 -8.13,0.91 -12.4,1.62 -4.17,0.7 -8.47,1.56 -12.87,2.58 -4.52,1.05 -9.16,2.28 -13.87,3.66 -5.13,1.51 -10.37,3.22 -15.66,5.12 -6.58,2.36 -13.26,5.01 -19.98,7.96 -8.75,3.83 -17.57,8.16 -26.34,12.94 -15.7,8.58 -29.79,17.89 -41.86,27.4 -5.24,4.13 -10.1,8.3 -14.55,12.47 -0.89,0.83 -1.76,1.66 -2.62,2.49 -2.6,2.53 -5.05,5.06 -7.32,7.56 -2.76,3.02 -5.28,6.03 -7.54,9 -2.2,2.88 -4.16,5.72 -5.87,8.51 -1.74,2.84 -3.22,5.62 -4.44,8.33 -1.31,2.91 -2.3,5.75 -2.98,8.49 -0.81,3.26 -1.15,6.38 -1.02,9.32 0.16,3.33 0.93,6.43 2.37,9.28 l 16.48,32.68 c -1.43,-2.83 -2.21,-5.94 -2.36,-9.27 -0.13,-2.96 0.21,-6.07 1.02,-9.33 0.68,-2.74 1.68,-5.57 2.98,-8.49 1.22,-2.71 2.71,-5.5 4.44,-8.33 1.71,-2.79 3.67,-5.64 5.86,-8.52 2.27,-2.97 4.79,-5.98 7.54,-9 2.28,-2.51 4.72,-5.04 7.32,-7.56 0.86,-0.83 1.73,-1.66 2.61,-2.49 4.45,-4.17 9.32,-8.34 14.56,-12.47 12.07,-9.51 26.16,-18.81 41.86,-27.4 8.77,-4.79 17.59,-9.11 26.33,-12.94 6.73,-2.96 13.4,-5.6 19.99,-7.96 5.29,-1.9 10.52,-3.61 15.65,-5.12 4.72,-1.39 9.34,-2.61 13.88,-3.65 4.39,-1.02 8.69,-1.89 12.87,-2.58 4.26,-0.71 8.4,-1.25 12.39,-1.62 4.35,-0.4 8.52,-0.6 12.48,-0.58 4.73,0.02 9.17,0.34 13.26,0.97 11,1.69 19.49,5.59 24.49,11.85 l -16.47,-32.69 c -4.99,-6.26 -13.49,-10.16 -24.48,-11.84 z"
   class="st12" />
		</g>
		<g
   id="g74"
   class="st2">
			<defs
   id="defs65">
				<path
   d="m 629.67,353.26 c 5.49,10.9 10.99,21.8 16.47,32.69 -0.66,-1.34 -1.49,-2.61 -2.46,-3.83 l -16.47,-32.69 c 0.97,1.22 1.79,2.5 2.46,3.83 z"
   class="st2"
   id="SVGID_3_" />
			</defs>
			<clipPath
   id="SVGID_4_">
				<use
   height="100%"
   width="100%"
   y="0"
   x="0"
   id="use67"
   style="overflow:visible"
   xlink:href="#SVGID_3_" />
			</clipPath>
			<g
   id="g72"
   clip-path="url(#SVGID_4_)"
   class="st13">
				<path
   id="path70"
   d="m 629.67,353.26 16.47,32.69 c -0.66,-1.34 -1.49,-2.61 -2.46,-3.83 l -16.47,-32.69 c 0.97,1.22 1.79,2.5 2.46,3.83"
   class="st14" />
			</g>
		</g>
		<g
   id="g78">
			<polygon
   id="polygon76"
   points="686.13,367.06 669.66,334.36 689.67,322.54 706.14,355.24 "
   class="st3" />
		</g>
		<g
   id="g90"
   class="st2">
			<defs
   id="defs81">
				<path
   d="m 669.66,334.36 16.48,32.7 c 1.41,3.21 2.35,7.02 2.57,11.11 l -16.47,-32.68 c -0.23,-4.1 -1.17,-7.91 -2.58,-11.13 z"
   class="st2"
   id="SVGID_5_" />
			</defs>
			<clipPath
   id="SVGID_6_">
				<use
   height="100%"
   width="100%"
   y="0"
   x="0"
   id="use83"
   style="overflow:visible"
   xlink:href="#SVGID_5_" />
			</clipPath>
			<g
   id="g88"
   clip-path="url(#SVGID_6_)"
   class="st15">
				<path
   id="path86"
   d="m 669.66,334.36 16.48,32.7 c 1.41,3.21 2.35,7.02 2.57,11.11 l -16.47,-32.68 c -0.23,-4.1 -1.17,-7.91 -2.58,-11.13"
   class="st14" />
			</g>
		</g>
		<g
   id="g94">
			<polygon
   id="polygon92"
   points="346.49,537.33 330.02,504.65 337.72,514.27 354.19,546.96 "
   class="st16" />
		</g>
		<g
   id="g98">
			
				<rect
   id="rect96"
   height="36.610001"
   width="23.48"
   class="st17"
   transform="matrix(0.893,-0.4501,0.4501,0.893,-198.286,216.6223)"
   y="507.01999"
   x="344.69" />
		</g>
		<g
   id="g110"
   class="st2">
			<defs
   id="defs101">
				<path
   d="m 369.71,510.2 16.49,32.69 c -4.09,-1.71 -7.85,-3.91 -11.04,-6.52 l -16.47,-32.69 c 3.18,2.62 6.94,4.82 11.02,6.52 z"
   class="st2"
   id="SVGID_7_" />
			</defs>
			<clipPath
   id="SVGID_8_">
				<use
   height="100%"
   width="100%"
   y="0"
   x="0"
   id="use103"
   style="overflow:visible"
   xlink:href="#SVGID_7_" />
			</clipPath>
			<g
   id="g108"
   clip-path="url(#SVGID_8_)"
   class="st18">
				<path
   id="path106"
   d="m 369.71,510.2 16.49,32.69 c -4.09,-1.71 -7.85,-3.91 -11.04,-6.52 l -16.47,-32.69 c 3.18,2.62 6.94,4.82 11.02,6.52"
   class="st14" />
			</g>
		</g>
		<g
   id="g114">
			<polygon
   id="polygon112"
   points="686.54,394.01 670.06,361.31 691.48,352.42 707.96,385.11 "
   class="st19" />
		</g>
		<g
   id="g118">
			<polygon
   id="polygon116"
   points="707.96,385.11 691.48,352.42 693.35,338.42 709.82,371.11 "
   class="st20" />
		</g>
		<g
   id="g132"
   class="st2">
			<defs
   id="defs121">
				<path
   d="m 670.06,361.31 16.48,32.7 c -1.4,4.47 -3.53,9.35 -6.28,14.39 l -16.47,-32.69 c 2.75,-5.04 4.87,-9.93 6.27,-14.4 z"
   class="st2"
   id="SVGID_9_" />
			</defs>
			<clipPath
   id="SVGID_10_">
				<use
   height="100%"
   width="100%"
   y="0"
   x="0"
   id="use123"
   style="overflow:visible"
   xlink:href="#SVGID_9_" />
			</clipPath>
			<g
   id="g130"
   clip-path="url(#SVGID_10_)"
   class="st21">
				<path
   id="path126"
   d="m 670.06,361.31 16.48,32.7 c -0.78,2.49 -1.79,5.11 -3.01,7.82 l -16.47,-32.69 c 1.21,-2.71 2.22,-5.34 3,-7.83"
   class="st22" />
				<path
   id="path128"
   d="m 667.06,369.14 16.47,32.69 c -0.96,2.14 -2.05,4.34 -3.27,6.57 l -16.47,-32.69 c 1.21,-2.23 2.31,-4.43 3.27,-6.57"
   class="st23" />
			</g>
		</g>
		<g
   id="g136">
			<polygon
   id="polygon134"
   points="386.31,560.31 369.83,527.62 388.07,514.84 404.55,547.54 "
   class="st17" />
		</g>
		<g
   id="g140">
			<polygon
   id="polygon138"
   points="370,556.23 353.52,523.54 369.83,527.62 386.31,560.31 "
   class="st24" />
		</g>
		<g
   id="g154"
   class="st2">
			<defs
   id="defs143">
				<path
   d="m 406.29,515.93 16.48,32.69 c -6.02,0.05 -12.37,-0.29 -18.21,-1.09 l -16.49,-32.69 c 5.84,0.81 12.2,1.14 18.22,1.09 z"
   class="st2"
   id="SVGID_11_" />
			</defs>
			<clipPath
   id="SVGID_12_">
				<use
   height="100%"
   width="100%"
   y="0"
   x="0"
   id="use145"
   style="overflow:visible"
   xlink:href="#SVGID_11_" />
			</clipPath>
			<g
   id="g152"
   clip-path="url(#SVGID_12_)"
   class="st25">
				<path
   id="path148"
   d="m 406.29,515.93 16.48,32.69 c -0.52,0.01 -1.04,0.01 -1.57,0.01 l -16.47,-32.7 c 0.51,0.01 1.04,0.01 1.56,0"
   class="st22" />
				<path
   id="path150"
   d="m 404.72,515.94 16.47,32.7 c -5.55,-0.03 -11.31,-0.37 -16.64,-1.1 l -16.49,-32.69 c 5.34,0.73 11.11,1.07 16.66,1.09"
   class="st26" />
			</g>
		</g>
		<g
   id="g158">
			<polygon
   id="polygon156"
   points="667.61,427.26 651.13,394.56 671.39,389.68 687.86,422.38 "
   class="st27" />
		</g>
		<g
   id="g162">
			<polygon
   id="polygon160"
   points="687.86,422.38 671.39,389.68 682.56,372.98 699.04,405.67 "
   class="st28" />
		</g>
		<g
   id="g176"
   class="st2">
			<defs
   id="defs165">
				<path
   d="m 651.13,394.56 16.48,32.7 c -3.89,4.83 -8.83,10.36 -14.33,15.92 l -16.48,-32.7 c 5.51,-5.55 10.45,-11.08 14.33,-15.92 z"
   class="st2"
   id="SVGID_13_" />
			</defs>
			<clipPath
   id="SVGID_14_">
				<use
   height="100%"
   width="100%"
   y="0"
   x="0"
   id="use167"
   style="overflow:visible"
   xlink:href="#SVGID_13_" />
			</clipPath>
			<g
   id="g174"
   clip-path="url(#SVGID_14_)"
   class="st29">
				<path
   id="path170"
   d="m 651.13,394.56 16.48,32.7 c -2.17,2.7 -4.68,5.62 -7.43,8.63 l -16.47,-32.68 c 2.75,-3.02 5.25,-5.95 7.42,-8.65"
   class="st30" />
				<path
   id="path172"
   d="m 643.72,403.21 16.47,32.68 c -2.16,2.38 -4.48,4.83 -6.91,7.28 l -16.48,-32.7 c 2.43,-2.43 4.75,-4.88 6.92,-7.26"
   class="st9" />
			</g>
		</g>
		<g
   id="g180">
			<polygon
   id="polygon178"
   points="435.32,559.9 418.85,527.21 432.19,513.76 448.66,546.45 "
   class="st11" />
		</g>
		<g
   id="g184">
			<polygon
   id="polygon182"
   points="412.35,561.86 395.87,529.17 418.85,527.21 435.32,559.9 "
   class="st31" />
		</g>
		<g
   id="g200"
   class="st2">
			<defs
   id="defs187">
				<path
   d="m 455.37,509.33 16.47,32.7 c -7.3,1.69 -15.41,3.28 -23.18,4.42 l -16.47,-32.69 c 7.76,-1.15 15.88,-2.74 23.18,-4.43 z"
   class="st2"
   id="SVGID_15_" />
			</defs>
			<clipPath
   id="SVGID_16_">
				<use
   height="100%"
   width="100%"
   y="0"
   x="0"
   id="use189"
   style="overflow:visible"
   xlink:href="#SVGID_15_" />
			</clipPath>
			<g
   id="g198"
   clip-path="url(#SVGID_16_)"
   class="st32">
				<path
   id="path192"
   d="m 455.37,509.33 16.47,32.7 c -0.04,0 -0.09,0.02 -0.12,0.03 l -16.48,-32.7 c 0.04,-0.01 0.08,-0.02 0.13,-0.03"
   class="st30" />
				<path
   id="path194"
   d="m 455.24,509.36 16.48,32.7 c -5.74,1.33 -11.98,2.59 -18.16,3.62 l -16.47,-32.69 c 6.17,-1.03 12.41,-2.3 18.15,-3.63"
   class="st33" />
				<path
   id="path196"
   d="m 437.09,512.99 16.47,32.69 c -1.64,0.28 -3.27,0.53 -4.9,0.77 l -16.47,-32.69 c 1.62,-0.25 3.26,-0.5 4.9,-0.77"
   class="st23" />
			</g>
		</g>
		<g
   id="g214"
   class="st2">
			<defs
   id="defs203">
				<path
   d="m 615.19,430.11 16.47,32.69 c -6.03,4.89 -13.1,10.26 -20.64,15.54 l -16.48,-32.68 c 7.54,-5.3 14.61,-10.66 20.65,-15.55 z"
   class="st2"
   id="SVGID_17_" />
			</defs>
			<clipPath
   id="SVGID_18_">
				<use
   height="100%"
   width="100%"
   y="0"
   x="0"
   id="use205"
   style="overflow:visible"
   xlink:href="#SVGID_17_" />
			</clipPath>
			<g
   id="g212"
   clip-path="url(#SVGID_18_)"
   class="st34">
				<path
   id="path208"
   d="m 615.19,430.11 16.47,32.69 c -1.21,0.98 -2.45,1.98 -3.73,2.98 l -16.48,-32.69 c 1.28,-1.01 2.53,-2.01 3.74,-2.98"
   class="st35" />
				<path
   id="path210"
   d="m 611.45,433.09 16.48,32.69 c -5.14,4.05 -10.87,8.34 -16.91,12.56 l -16.48,-32.68 c 6.03,-4.24 11.76,-8.52 16.91,-12.57"
   class="st36" />
			</g>
		</g>
		<g
   id="g218">
			<polygon
   id="polygon216"
   points="648.28,462.52 631.8,429.83 650.95,412.43 667.43,445.13 "
   class="st37" />
		</g>
		<g
   id="g222">
			<polygon
   id="polygon220"
   points="631.66,462.8 615.19,430.11 631.8,429.83 648.28,462.52 "
   class="st33" />
		</g>
		<g
   id="g236"
   class="st2">
			<defs
   id="defs225">
				<path
   d="m 511.01,491.16 16.48,32.7 c -8.04,3.3 -16.78,6.56 -25.37,9.44 l -16.47,-32.7 c 8.58,-2.87 17.32,-6.14 25.36,-9.44 z"
   class="st2"
   id="SVGID_19_" />
			</defs>
			<clipPath
   id="SVGID_20_">
				<use
   height="100%"
   width="100%"
   y="0"
   x="0"
   id="use227"
   style="overflow:visible"
   xlink:href="#SVGID_19_" />
			</clipPath>
			<g
   id="g234"
   clip-path="url(#SVGID_20_)"
   class="st38">
				<path
   id="path230"
   d="m 511.01,491.16 16.48,32.7 c -5.56,2.28 -11.46,4.54 -17.41,6.67 L 493.6,497.84 c 5.95,-2.13 11.85,-4.39 17.41,-6.68"
   class="st35" />
				<path
   id="path232"
   d="m 493.6,497.84 16.48,32.69 c -2.65,0.96 -5.32,1.87 -7.97,2.77 l -16.47,-32.7 c 2.64,-0.88 5.3,-1.81 7.96,-2.76"
   class="st9" />
			</g>
		</g>
		<g
   id="g248"
   class="st2">
			<defs
   id="defs239">
				<path
   d="m 567.56,462.97 16.48,32.69 c -4.09,2.43 -8.27,4.81 -12.54,7.15 -4.32,2.36 -8.66,4.62 -12.99,6.81 l -16.48,-32.7 c 4.33,-2.19 8.67,-4.44 13,-6.8 4.26,-2.33 8.43,-4.72 12.53,-7.15 z"
   class="st2"
   id="SVGID_21_" />
			</defs>
			<clipPath
   id="SVGID_22_">
				<use
   height="100%"
   width="100%"
   y="0"
   x="0"
   id="use241"
   style="overflow:visible"
   xlink:href="#SVGID_21_" />
			</clipPath>
			<g
   id="g246"
   clip-path="url(#SVGID_22_)"
   class="st39">
				<path
   id="path244"
   d="m 567.56,462.97 16.48,32.69 c -4.09,2.43 -8.27,4.81 -12.54,7.15 -4.32,2.36 -8.66,4.62 -12.99,6.81 l -16.48,-32.7 c 4.33,-2.19 8.67,-4.44 13,-6.8 4.26,-2.33 8.43,-4.72 12.53,-7.15"
   class="st36" />
			</g>
		</g>
		<g
   id="g252">
			<polygon
   id="polygon250"
   points="468.44,553.57 451.97,520.88 478.83,513.11 495.31,545.8 "
   class="st40" />
		</g>
		<g
   id="g256">
			<polygon
   id="polygon254"
   points="495.31,545.8 478.83,513.11 485.64,500.6 502.11,533.3 "
   class="st41" />
		</g>
		<g
   id="g260">
			<polygon
   id="polygon258"
   points="582.98,496.35 566.5,463.66 577.52,468.01 593.99,500.7 "
   class="st42" />
		</g>
		<g
   id="g264">
			<polygon
   id="polygon262"
   points="593.99,500.7 577.52,468.01 602.33,452.04 618.81,484.73 "
   class="st3" />
		</g>
		<g
   id="g268">
			<path
   id="path266"
   d="m 613.41,311.24 c 6,-0.03 12.36,0.3 18.21,1.09 l 18.24,-12.77 16.31,4.08 -16.2,13.35 c 4.09,1.69 7.84,3.9 11.03,6.5 l 20.98,-10.59 7.68,9.63 -20.01,11.82 c 1.41,3.22 2.35,7.03 2.57,11.12 l 21.12,-7.07 -1.86,14.01 -21.42,8.89 c -1.4,4.47 -3.52,9.36 -6.26,14.39 l 18.77,-2.73 -11.17,16.7 -20.26,4.89 c -3.88,4.83 -8.83,10.37 -14.34,15.92 l 14.15,1.95 -19.15,17.39 -16.62,0.28 c -6.04,4.9 -13.1,10.26 -20.65,15.55 l 7.8,6.38 -24.82,15.97 -11.01,-4.35 1.06,-0.68 c -4.1,2.42 -8.27,4.81 -12.53,7.16 -4.33,2.35 -8.67,4.61 -13,6.8 l 0.51,10.07 -27.5,12.63 -4.03,-8.46 c -8.04,3.29 -16.78,6.57 -25.37,9.44 l -6.81,12.51 -26.86,7.77 3.4,-11.55 c -7.29,1.7 -15.41,3.29 -23.18,4.43 l -13.34,13.45 -22.98,1.96 10.42,-13.24 c -6.02,0.05 -12.37,-0.29 -18.22,-1.09 l -18.24,12.77 -16.31,-4.08 16.19,-13.33 c -4.08,-1.71 -7.84,-3.9 -11.03,-6.51 l -20.97,10.58 -7.7,-9.63 20.02,-11.83 c -1.41,-3.21 -2.34,-7.03 -2.57,-11.11 l -21.12,7.06 1.85,-14.01 21.42,-8.89 c 1.42,-4.49 3.54,-9.37 6.28,-14.4 l -18.78,2.72 11.18,-16.7 20.24,-4.87 c 3.91,-4.85 8.84,-10.38 14.33,-15.93 l -14.13,-1.95 19.14,-17.38 16.63,-0.29 c 6.01,-4.88 13.1,-10.26 20.65,-15.55 l -7.8,-6.39 24.82,-15.96 11,4.35 -1.07,0.69 c 4.11,-2.42 8.28,-4.81 12.55,-7.15 4.33,-2.37 8.66,-4.62 12.98,-6.8 l -0.5,-10.08 27.49,-12.62 4.05,8.46 c 8.05,-3.29 16.78,-6.55 25.35,-9.42 l 6.83,-12.52 26.84,-7.76 -3.39,11.55 c 7.3,-1.7 15.41,-3.29 23.17,-4.41 l 13.36,-13.47 22.96,-1.96 z m 13.8,38.2 c -18.78,-23.48 -86.54,-13.8 -151.36,21.62 -23.88,13.06 -44.04,27.79 -59.02,42.36 -25.68,24.98 -36.2,49.49 -24.35,64.32 18.77,23.49 86.53,13.81 151.35,-21.62 23.89,-13.06 44.03,-27.79 59.02,-42.37 25.69,-24.97 36.21,-49.48 24.36,-64.31"
   class="st43" />
		</g>
		<g
   id="g272">
			<polygon
   id="polygon270"
   points="531.53,532.32 515.04,499.63 542.55,487 559.02,519.69 "
   class="st10" />
		</g>
		<g
   id="g276">
			<polygon
   id="polygon274"
   points="559.02,519.69 542.55,487 542.03,476.93 558.51,509.62 "
   class="st44" />
		</g>
	</g>
</g>
<g
   transform="translate(-186.83,-27.02)"
   id="g440">
	<g
   id="g438"
   class="st2">
		<g
   id="g284">
			<polygon
   id="polygon282"
   points="721.22,432.6 711.92,408.41 708.91,396.84 718.21,421.03 "
   class="st45" />
		</g>
		<g
   id="g288">
			<polygon
   id="polygon286"
   points="616.27,472.79 606.96,448.59 624.95,452.04 634.25,476.25 "
   class="st46" />
		</g>
		<g
   id="g292">
			<polygon
   id="polygon290"
   points="773.3,432.41 764,408.21 781.48,392.9 790.79,417.1 "
   class="st47" />
		</g>
		<g
   id="g336"
   class="st2">
			<defs
   id="defs295">
				<path
   d="m 727.8,437.48 9.3,24.2 c -2.55,-6.63 -17,-7.68 -34.11,-2.09 -9.31,3.04 -17.65,7.45 -23.59,12.14 -5.94,4.68 -9.5,9.64 -9.28,13.75 0.04,0.66 0.17,1.27 0.38,1.84 l -9.3,-24.19 c -0.22,-0.57 -0.35,-1.19 -0.39,-1.84 -0.22,-4.12 3.34,-9.07 9.28,-13.76 5.95,-4.68 14.28,-9.1 23.59,-12.14 17.12,-5.59 31.58,-4.54 34.12,2.09 z"
   class="st2"
   id="SVGID_23_" />
			</defs>
			<clipPath
   id="SVGID_24_">
				<use
   height="100%"
   width="100%"
   y="0"
   x="0"
   id="use297"
   style="overflow:visible"
   xlink:href="#SVGID_23_" />
			</clipPath>
			<g
   id="g334"
   clip-path="url(#SVGID_24_)"
   class="st48">
				<path
   id="path300"
   d="m 727.8,437.48 9.3,24.2 c -0.91,-2.38 -3.37,-4.04 -6.93,-4.93 l -9.3,-24.21 c 3.57,0.9 6.02,2.56 6.93,4.94"
   class="st49" />
				<path
   id="path302"
   d="m 720.88,432.54 9.3,24.21 c -1.08,-0.28 -2.27,-0.48 -3.56,-0.61 l -9.3,-24.2 c 1.29,0.13 2.47,0.33 3.56,0.6"
   class="st50" />
				<path
   id="path304"
   d="m 717.32,431.94 9.3,24.2 c -1.05,-0.1 -2.18,-0.16 -3.35,-0.17 l -9.3,-24.2 c 1.17,0.01 2.29,0.07 3.35,0.17"
   class="st51" />
				<path
   id="path306"
   d="m 713.97,431.78 9.3,24.2 c -1.07,-0.01 -2.18,0.04 -3.34,0.11 l -9.31,-24.2 c 1.16,-0.08 2.28,-0.12 3.35,-0.11"
   class="st52" />
				<path
   id="path308"
   d="m 710.62,431.89 9.31,24.2 c -1.13,0.08 -2.28,0.19 -3.48,0.36 l -9.31,-24.2 c 1.2,-0.16 2.35,-0.29 3.48,-0.36"
   class="st53" />
				<path
   id="path310"
   d="m 707.13,432.25 9.31,24.2 c -1.23,0.16 -2.49,0.36 -3.79,0.61 l -9.29,-24.19 c 1.29,-0.25 2.55,-0.46 3.77,-0.62"
   class="st54" />
				<path
   id="path312"
   d="m 703.36,432.87 9.29,24.19 c -1.4,0.27 -2.84,0.6 -4.31,0.97 l -9.29,-24.2 c 1.46,-0.38 2.91,-0.69 4.31,-0.96"
   class="st55" />
				<path
   id="path314"
   d="m 699.06,433.83 9.29,24.2 c -1.75,0.45 -3.54,0.96 -5.36,1.56 -0.12,0.04 -0.23,0.08 -0.36,0.12 l -9.31,-24.2 c 0.12,-0.04 0.24,-0.08 0.36,-0.12 1.83,-0.59 3.62,-1.11 5.38,-1.56"
   class="st56" />
				<path
   id="path316"
   d="m 693.33,435.51 9.31,24.2 c -6.89,2.27 -13.23,5.3 -18.44,8.63 l -9.3,-24.19 c 5.21,-3.33 11.55,-6.36 18.43,-8.64"
   class="st57" />
				<path
   id="path318"
   d="m 674.9,444.14 9.3,24.19 c -1.54,0.99 -2.98,1.99 -4.31,3.02 l -9.3,-24.2 c 1.32,-1.02 2.77,-2.03 4.31,-3.01"
   class="st56" />
				<path
   id="path320"
   d="m 670.58,447.16 9.3,24.2 c -0.16,0.12 -0.32,0.25 -0.48,0.37 -0.87,0.69 -1.69,1.38 -2.46,2.08 l -9.3,-24.2 c 0.77,-0.7 1.58,-1.39 2.46,-2.08 0.15,-0.12 0.31,-0.25 0.48,-0.37"
   class="st55" />
				<path
   id="path322"
   d="m 667.64,449.61 9.3,24.2 c -0.8,0.74 -1.56,1.47 -2.23,2.2 l -9.3,-24.19 c 0.68,-0.74 1.43,-1.48 2.23,-2.21"
   class="st54" />
				<path
   id="path324"
   d="m 665.41,451.82 9.3,24.19 c -0.65,0.71 -1.23,1.41 -1.75,2.1 l -9.31,-24.2 c 0.52,-0.69 1.12,-1.39 1.76,-2.09"
   class="st53" />
				<path
   id="path326"
   d="m 663.66,453.91 9.31,24.2 c -0.52,0.7 -0.98,1.4 -1.38,2.09 l -9.3,-24.2 c 0.38,-0.69 0.84,-1.38 1.37,-2.09"
   class="st52" />
				<path
   id="path328"
   d="m 662.28,456 9.3,24.2 c -0.41,0.74 -0.74,1.46 -0.98,2.18 l -9.31,-24.2 c 0.25,-0.72 0.58,-1.45 0.99,-2.18"
   class="st51" />
				<path
   id="path330"
   d="m 661.3,458.18 9.31,24.2 c -0.29,0.85 -0.46,1.68 -0.48,2.48 l -9.3,-24.2 c 0.02,-0.8 0.18,-1.63 0.47,-2.48"
   class="st50" />
				<path
   id="path332"
   d="m 660.82,460.66 9.3,24.2 c -0.02,0.21 -0.01,0.41 0.01,0.62 0.04,0.66 0.17,1.27 0.38,1.84 l -9.3,-24.19 c -0.22,-0.57 -0.35,-1.19 -0.39,-1.84 0,-0.21 -0.01,-0.42 0,-0.63"
   class="st49" />
			</g>
		</g>
		<g
   id="g340">
			<polygon
   id="polygon338"
   points="595.95,515.65 586.65,491.45 613.71,483.66 623.01,507.84 "
   class="st17" />
		</g>
		<g
   id="g344">
			<polygon
   id="polygon342"
   points="784.65,456.89 775.35,432.69 803.12,422.59 812.43,446.79 "
   class="st58" />
		</g>
		<g
   id="g348">
			<polygon
   id="polygon346"
   points="812.43,446.79 803.12,422.59 802.37,409.16 811.68,433.35 "
   class="st59" />
		</g>
		<g
   id="g360"
   class="st2">
			<defs
   id="defs351">
				<path
   d="m 625.04,492.38 9.31,24.2 c -5.32,-2.03 -9.2,-4.95 -11.34,-8.74 l -9.3,-24.19 c 2.13,3.78 6.02,6.71 11.33,8.73 z"
   class="st2"
   id="SVGID_25_" />
			</defs>
			<clipPath
   id="SVGID_26_">
				<use
   height="100%"
   width="100%"
   y="0"
   x="0"
   id="use353"
   style="overflow:visible"
   xlink:href="#SVGID_25_" />
			</clipPath>
			<g
   id="g358"
   clip-path="url(#SVGID_26_)"
   class="st60">
				<path
   id="path356"
   d="m 625.04,492.38 9.31,24.2 c -5.32,-2.03 -9.2,-4.95 -11.34,-8.74 l -9.3,-24.19 c 2.13,3.78 6.02,6.71 11.33,8.73"
   class="st49" />
			</g>
		</g>
		<g
   id="g378"
   class="st2">
			<defs
   id="defs363">
				<path
   d="m 775.35,432.69 9.3,24.2 c -2.1,5.11 -5.97,10.49 -11.27,15.86 l -9.3,-24.19 c 5.29,-5.38 9.17,-10.75 11.27,-15.87 z"
   class="st2"
   id="SVGID_27_" />
			</defs>
			<clipPath
   id="SVGID_28_">
				<use
   height="100%"
   width="100%"
   y="0"
   x="0"
   id="use365"
   style="overflow:visible"
   xlink:href="#SVGID_27_" />
			</clipPath>
			<g
   id="g376"
   clip-path="url(#SVGID_28_)"
   class="st61">
				<path
   id="path368"
   d="m 775.35,432.69 9.3,24.2 c -0.5,1.22 -1.1,2.46 -1.8,3.71 l -9.3,-24.21 c 0.69,-1.24 1.3,-2.48 1.8,-3.7"
   class="st51" />
				<path
   id="path370"
   d="m 773.55,436.39 9.3,24.21 c -0.95,1.67 -2.06,3.38 -3.34,5.09 l -9.3,-24.2 c 1.28,-1.71 2.4,-3.41 3.34,-5.1"
   class="st52" />
				<path
   id="path372"
   d="m 770.21,441.49 9.3,24.2 c -1.28,1.72 -2.74,3.45 -4.33,5.18 l -9.3,-24.2 c 1.59,-1.73 3.04,-3.46 4.33,-5.18"
   class="st53" />
				<path
   id="path374"
   d="m 765.88,446.67 9.3,24.2 c -0.58,0.63 -1.18,1.26 -1.79,1.88 l -9.3,-24.19 c 0.61,-0.63 1.21,-1.26 1.79,-1.89"
   class="st54" />
			</g>
		</g>
		<g
   id="g382">
			<polygon
   id="polygon380"
   points="638.87,534.4 629.57,510.2 649.78,495.72 659.08,519.92 "
   class="st62" />
		</g>
		<g
   id="g386">
			<polygon
   id="polygon384"
   points="616.83,531.9 607.53,507.71 629.57,510.2 638.87,534.4 "
   class="st63" />
		</g>
		<g
   id="g404"
   class="st2">
			<defs
   id="defs389">
				<path
   d="m 677.11,492.21 9.31,24.2 c -9.88,2.15 -19.1,3.32 -27.33,3.51 l -9.3,-24.19 c 8.23,-0.21 17.44,-1.37 27.32,-3.52 z"
   class="st2"
   id="SVGID_29_" />
			</defs>
			<clipPath
   id="SVGID_30_">
				<use
   height="100%"
   width="100%"
   y="0"
   x="0"
   id="use391"
   style="overflow:visible"
   xlink:href="#SVGID_29_" />
			</clipPath>
			<g
   id="g402"
   clip-path="url(#SVGID_30_)"
   class="st64">
				<path
   id="path394"
   d="m 677.11,492.21 9.31,24.2 c -1.46,0.32 -2.9,0.61 -4.33,0.89 l -9.3,-24.2 c 1.42,-0.28 2.86,-0.58 4.32,-0.89"
   class="st55" />
				<path
   id="path396"
   d="m 672.78,493.09 9.3,24.2 c -3.17,0.62 -6.28,1.11 -9.28,1.52 l -9.3,-24.2 c 3.01,-0.4 6.11,-0.91 9.28,-1.52"
   class="st54" />
				<path
   id="path398"
   d="m 663.5,494.61 9.3,24.2 c -2.92,0.39 -5.76,0.67 -8.5,0.86 l -9.3,-24.2 c 2.74,-0.18 5.58,-0.47 8.5,-0.86"
   class="st53" />
				<path
   id="path400"
   d="m 655,495.48 9.3,24.2 c -1.78,0.13 -3.52,0.21 -5.22,0.24 l -9.3,-24.19 c 1.7,-0.04 3.44,-0.13 5.22,-0.25"
   class="st52" />
			</g>
		</g>
		<g
   id="g416"
   class="st2">
			<defs
   id="defs407">
				<path
   d="m 739.39,467.48 9.3,24.19 c -8.21,4.98 -17.42,9.63 -27.31,13.7 l -9.3,-24.19 c 9.88,-4.07 19.1,-8.72 27.31,-13.7 z"
   class="st2"
   id="SVGID_31_" />
			</defs>
			<clipPath
   id="SVGID_32_">
				<use
   height="100%"
   width="100%"
   y="0"
   x="0"
   id="use409"
   style="overflow:visible"
   xlink:href="#SVGID_31_" />
			</clipPath>
			<g
   id="g414"
   clip-path="url(#SVGID_32_)"
   class="st65">
				<path
   id="path412"
   d="m 739.39,467.48 9.3,24.19 c -8.21,4.98 -17.42,9.63 -27.31,13.7 l -9.3,-24.19 c 9.88,-4.07 19.1,-8.72 27.31,-13.7"
   class="st57" />
			</g>
		</g>
		<g
   id="g420">
			<polygon
   id="polygon418"
   points="770.44,492.72 761.14,468.52 782.07,452.02 791.37,476.21 "
   class="st10" />
		</g>
		<g
   id="g424">
			<polygon
   id="polygon422"
   points="748.69,491.67 739.39,467.48 761.14,468.52 770.44,492.72 "
   class="st66" />
		</g>
		<g
   id="g428">
			<polygon
   id="polygon426"
   points="689.43,527.96 680.13,503.76 710.5,493.87 719.8,518.07 "
   class="st67" />
		</g>
		<g
   id="g432">
			<polygon
   id="polygon430"
   points="719.8,518.07 710.5,493.87 712.07,481.18 721.37,505.37 "
   class="st22" />
		</g>
		<g
   id="g436">
			<path
   id="path434"
   d="M 781.48,392.9 764,408.21 c 5.31,2.02 9.18,4.97 11.31,8.74 l 27.06,-7.8 0.75,13.43 -27.78,10.1 c -2.1,5.12 -5.98,10.49 -11.26,15.87 l 17.98,3.45 -20.93,16.5 -21.75,-1.04 c -8.21,4.98 -17.43,9.63 -27.31,13.7 l -1.58,12.69 -30.37,9.89 -3.02,-11.55 c -9.88,2.15 -19.09,3.31 -27.33,3.52 l -20.21,14.48 -22.04,-2.49 17.52,-15.33 c -5.31,-2.02 -9.2,-4.95 -11.33,-8.72 l -27.06,7.79 -0.73,-13.44 27.76,-10.08 c 2.1,-5.12 6,-10.5 11.27,-15.87 l -17.99,-3.46 20.93,-16.5 21.76,1.02 c 8.19,-4.95 17.41,-9.61 27.32,-13.69 l 1.56,-12.68 30.38,-9.9 3,11.57 c 9.86,-2.16 19.1,-3.32 27.33,-3.53 l 20.23,-14.49 z m -53.29,46.42 c -0.46,-8.23 -15.9,-9.99 -34.5,-3.93 -9.31,3.04 -17.64,7.46 -23.59,12.14 -5.94,4.68 -9.5,9.64 -9.28,13.76 0.46,8.24 15.93,9.99 34.52,3.93 9.3,-3.04 17.64,-7.45 23.57,-12.13 5.96,-4.69 9.51,-9.65 9.28,-13.77"
   class="st68" />
		</g>
	</g>
</g>
<g
   transform="translate(-186.83,-27.02)"
   id="g646">
	<g
   id="g644"
   class="st2">
		<g
   id="g444">
			<polygon
   id="polygon442"
   points="394.6,603.82 385.85,579.32 376.74,569.47 385.49,593.96 "
   class="st69" />
		</g>
		<g
   id="g448">
			<polygon
   id="polygon446"
   points="609.56,529.11 600.81,504.61 591.04,520.71 599.79,545.2 "
   class="st70" />
		</g>
		<g
   id="g452">
			<polygon
   id="polygon450"
   points="347.52,646.05 338.77,621.55 318.56,619.42 327.32,643.92 "
   class="st71" />
		</g>
		<g
   id="g456">
			<polygon
   id="polygon454"
   points="665.9,546.11 657.15,521.61 635.23,536.74 643.98,561.23 "
   class="st11" />
		</g>
		<g
   id="g460">
			<polygon
   id="polygon458"
   points="337.9,684.31 329.15,659.81 305.41,664.53 314.16,689.02 "
   class="st72" />
		</g>
		<g
   id="g504"
   class="st2">
			<defs
   id="defs463">
				<path
   d="m 425.33,625.5 c 2.92,8.16 5.84,16.33 8.75,24.49 -1.87,-5.23 0.5,-12.02 7.68,-19.58 16.97,-17.87 54.41,-33.26 83.61,-34.39 16.87,-0.65 27.3,3.59 29.85,10.73 l -8.75,-24.49 c -2.55,-7.14 -12.98,-11.38 -29.85,-10.73 -29.2,1.13 -66.63,16.52 -83.61,34.39 -7.18,7.56 -9.55,14.35 -7.68,19.58 z"
   class="st2"
   id="SVGID_33_" />
			</defs>
			<clipPath
   id="SVGID_34_">
				<use
   height="100%"
   width="100%"
   y="0"
   x="0"
   id="use465"
   style="overflow:visible"
   xlink:href="#SVGID_33_" />
			</clipPath>
			<g
   id="g502"
   clip-path="url(#SVGID_34_)"
   class="st73">
				<path
   id="path468"
   d="m 425.33,625.5 8.75,24.49 c -1.44,-4.03 -0.37,-8.99 3.49,-14.51 l -8.75,-24.49 c -3.85,5.52 -4.93,10.47 -3.49,14.51"
   class="st74" />
				<path
   id="path470"
   d="m 428.83,610.98 8.75,24.49 c 1.12,-1.6 2.48,-3.26 4.08,-4.96 l -8.75,-24.49 c -1.6,1.7 -2.96,3.36 -4.08,4.96"
   class="st75" />
				<path
   id="path472"
   d="m 432.91,606.03 8.75,24.49 c 0.03,-0.03 0.06,-0.07 0.1,-0.11 1.29,-1.36 2.7,-2.7 4.22,-4.03 l -8.75,-24.49 c -1.52,1.33 -2.93,2.67 -4.22,4.03 -0.03,0.04 -0.07,0.07 -0.1,0.11"
   class="st76" />
				<path
   id="path474"
   d="m 437.23,601.89 8.75,24.49 c 1.45,-1.27 3,-2.52 4.63,-3.75 l -8.75,-24.49 c -1.63,1.23 -3.18,2.48 -4.63,3.75"
   class="st77" />
				<path
   id="path476"
   d="m 441.86,598.14 8.75,24.49 c 1.62,-1.21 3.32,-2.41 5.09,-3.58 l -8.75,-24.49 c -1.77,1.17 -3.47,2.36 -5.09,3.58"
   class="st78" />
				<path
   id="path478"
   d="m 446.95,594.57 8.75,24.49 c 1.85,-1.22 3.78,-2.41 5.78,-3.56 L 452.73,591 c -2,1.16 -3.93,2.35 -5.78,3.57"
   class="st79" />
				<path
   id="path480"
   d="m 452.73,591 8.75,24.49 c 2.25,-1.3 4.6,-2.57 7.01,-3.78 l -8.75,-24.49 c -2.41,1.22 -4.75,2.48 -7.01,3.78"
   class="st80" />
				<path
   id="path482"
   d="m 459.74,587.22 8.75,24.49 c 3.05,-1.53 6.21,-2.98 9.44,-4.34 l -8.75,-24.49 c -3.23,1.36 -6.39,2.81 -9.44,4.34"
   class="st71" />
				<path
   id="path484"
   d="m 469.18,582.89 8.75,24.49 c 11.71,-4.91 24.39,-8.58 36.36,-10.31 l -8.75,-24.49 c -11.97,1.72 -24.65,5.39 -36.36,10.31"
   class="st81" />
				<path
   id="path486"
   d="m 505.54,572.57 8.75,24.49 c 3.15,-0.46 6.24,-0.78 9.26,-0.95 l -8.75,-24.49 c -3.02,0.17 -6.11,0.5 -9.26,0.95"
   class="st71" />
				<path
   id="path488"
   d="m 514.8,571.62 8.75,24.49 c 0.61,-0.03 1.22,-0.06 1.82,-0.09 1.77,-0.07 3.46,-0.08 5.08,-0.05 l -8.75,-24.49 c -1.62,-0.04 -3.32,-0.02 -5.08,0.05 -0.61,0.02 -1.21,0.05 -1.82,0.09"
   class="st80" />
				<path
   id="path490"
   d="m 521.7,571.49 8.75,24.49 c 1.97,0.05 3.84,0.17 5.59,0.36 l -8.75,-24.49 c -1.75,-0.2 -3.62,-0.32 -5.59,-0.36"
   class="st79" />
				<path
   id="path492"
   d="m 527.29,571.84 8.75,24.49 c 1.72,0.19 3.33,0.45 4.84,0.77 l -8.75,-24.49 c -1.5,-0.32 -3.12,-0.58 -4.84,-0.77"
   class="st78" />
				<path
   id="path494"
   d="m 532.13,572.61 8.75,24.49 c 1.56,0.33 3,0.74 4.33,1.2 l -8.75,-24.49 c -1.32,-0.46 -2.76,-0.87 -4.33,-1.2"
   class="st77" />
				<path
   id="path496"
   d="m 536.47,573.82 8.75,24.49 c 1.46,0.52 2.77,1.11 3.94,1.78 l -8.75,-24.49 c -1.17,-0.68 -2.48,-1.27 -3.94,-1.78"
   class="st76" />
				<path
   id="path498"
   d="m 540.41,575.59 8.75,24.49 c 1.43,0.82 2.64,1.75 3.62,2.77 l -8.75,-24.49 c -0.98,-1.02 -2.19,-1.95 -3.62,-2.77"
   class="st75" />
				<path
   id="path500"
   d="m 544.03,578.36 8.75,24.49 c 1.12,1.17 1.94,2.48 2.45,3.9 l -8.75,-24.49 c -0.52,-1.42 -1.34,-2.72 -2.45,-3.9"
   class="st74" />
			</g>
		</g>
		<g
   id="g516"
   class="st2">
			<defs
   id="defs507">
				<path
   d="m 329.15,659.81 8.75,24.49 c 1.13,3.14 2.86,6.06 5.16,8.74 l -8.75,-24.49 c -2.3,-2.68 -4.03,-5.6 -5.16,-8.74 z"
   class="st2"
   id="SVGID_35_" />
			</defs>
			<clipPath
   id="SVGID_36_">
				<use
   height="100%"
   width="100%"
   y="0"
   x="0"
   id="use509"
   style="overflow:visible"
   xlink:href="#SVGID_35_" />
			</clipPath>
			<g
   id="g514"
   clip-path="url(#SVGID_36_)"
   class="st82">
				<path
   id="path512"
   d="m 329.15,659.81 8.75,24.49 c 1.13,3.14 2.86,6.06 5.16,8.74 l -8.75,-24.49 c -2.3,-2.68 -4.03,-5.6 -5.16,-8.74"
   class="st74" />
			</g>
		</g>
		<g
   id="g520">
			<polygon
   id="polygon518"
   points="676.69,562.62 667.94,538.13 667.8,559.98 676.55,584.47 "
   class="st83" />
		</g>
		<g
   id="g524">
			<polygon
   id="polygon522"
   points="676.55,584.47 667.8,559.98 641.75,570.07 650.51,594.57 "
   class="st84" />
		</g>
		<g
   id="g536"
   class="st2">
			<defs
   id="defs527">
				<path
   d="m 636.4,581.3 8.75,24.49 c 2.38,-3.89 4.06,-7.61 5.35,-11.23 l -8.75,-24.49 c -1.29,3.62 -2.97,7.34 -5.35,11.23 z"
   class="st2"
   id="SVGID_37_" />
			</defs>
			<clipPath
   id="SVGID_38_">
				<use
   height="100%"
   width="100%"
   y="0"
   x="0"
   id="use529"
   style="overflow:visible"
   xlink:href="#SVGID_37_" />
			</clipPath>
			<g
   id="g534"
   clip-path="url(#SVGID_38_)"
   class="st85">
				<path
   id="path532"
   d="m 636.4,581.3 8.75,24.49 c 2.38,-3.89 4.06,-7.61 5.35,-11.23 l -8.75,-24.49 c -1.29,3.62 -2.97,7.34 -5.35,11.23"
   class="st74" />
			</g>
		</g>
		<g
   id="g540">
			<polygon
   id="polygon538"
   points="349.61,717.19 340.85,692.7 316.19,681.06 324.94,705.55 "
   class="st86" />
		</g>
		<g
   id="g544">
			<polygon
   id="polygon542"
   points="370.29,708.19 361.54,683.69 340.85,692.7 349.61,717.19 "
   class="st87" />
		</g>
		<g
   id="g560"
   class="st2">
			<defs
   id="defs547">
				<path
   d="m 361.54,683.69 8.75,24.5 c 5.36,1.41 11.26,2.51 17.76,3.2 L 379.3,686.9 c -6.51,-0.7 -12.4,-1.8 -17.76,-3.21 z"
   class="st2"
   id="SVGID_39_" />
			</defs>
			<clipPath
   id="SVGID_40_">
				<use
   height="100%"
   width="100%"
   y="0"
   x="0"
   id="use549"
   style="overflow:visible"
   xlink:href="#SVGID_39_" />
			</clipPath>
			<g
   id="g558"
   clip-path="url(#SVGID_40_)"
   class="st88">
				<path
   id="path552"
   d="m 361.54,683.69 8.75,24.5 c 1.62,0.43 3.28,0.82 5,1.19 l -8.75,-24.5 c -1.72,-0.37 -3.38,-0.76 -5,-1.19"
   class="st77" />
				<path
   id="path554"
   d="m 366.54,684.88 8.75,24.5 c 3.86,0.82 7.98,1.49 12.39,1.97 l -8.75,-24.5 c -4.41,-0.48 -8.53,-1.14 -12.39,-1.97"
   class="st78" />
				<path
   id="path556"
   d="m 378.92,686.85 8.75,24.5 c 0.13,0.01 0.25,0.03 0.38,0.04 L 379.3,686.9 c -0.13,-0.02 -0.25,-0.03 -0.38,-0.05"
   class="st79" />
			</g>
		</g>
		<g
   id="g564">
			<polygon
   id="polygon562"
   points="663.52,607.73 654.77,583.24 629.91,609.42 638.66,633.91 "
   class="st89" />
		</g>
		<g
   id="g568">
			<polygon
   id="polygon566"
   points="638.66,633.91 629.91,609.42 607.31,612.83 616.07,637.33 "
   class="st84" />
		</g>
		<g
   id="g582"
   class="st2">
			<defs
   id="defs571">
				<path
   d="m 589.82,625.87 8.75,24.49 c 6.24,-4.24 12.08,-8.59 17.49,-13.04 l -8.75,-24.49 c -5.41,4.46 -11.25,8.8 -17.49,13.04 z"
   class="st2"
   id="SVGID_41_" />
			</defs>
			<clipPath
   id="SVGID_42_">
				<use
   height="100%"
   width="100%"
   y="0"
   x="0"
   id="use573"
   style="overflow:visible"
   xlink:href="#SVGID_41_" />
			</clipPath>
			<g
   id="g580"
   clip-path="url(#SVGID_42_)"
   class="st90">
				<path
   id="path576"
   d="m 589.82,625.87 8.75,24.49 c 3.42,-2.32 6.71,-4.67 9.88,-7.05 l -8.75,-24.49 c -3.17,2.38 -6.46,4.73 -9.88,7.05"
   class="st78" />
				<path
   id="path578"
   d="m 599.7,618.82 8.75,24.49 c 2.62,-1.97 5.16,-3.97 7.61,-5.98 l -8.75,-24.49 c -2.45,2.01 -4.99,4 -7.61,5.98"
   class="st77" />
			</g>
		</g>
		<g
   id="g596"
   class="st2">
			<defs
   id="defs585">
				<path
   d="m 429.08,685.68 8.75,24.49 c 8.57,-1.07 17.23,-2.5 26.02,-4.31 l -8.75,-24.49 c -8.79,1.81 -17.46,3.24 -26.02,4.31 z"
   class="st2"
   id="SVGID_43_" />
			</defs>
			<clipPath
   id="SVGID_44_">
				<use
   height="100%"
   width="100%"
   y="0"
   x="0"
   id="use587"
   style="overflow:visible"
   xlink:href="#SVGID_43_" />
			</clipPath>
			<g
   id="g594"
   clip-path="url(#SVGID_44_)"
   class="st91">
				<path
   id="path590"
   d="m 429.08,685.68 8.75,24.49 c 1.96,-0.24 3.93,-0.51 5.9,-0.79 l -8.75,-24.49 c -1.97,0.28 -3.94,0.54 -5.9,0.79"
   class="st71" />
				<path
   id="path592"
   d="m 434.98,684.89 8.75,24.49 c 6.64,-0.95 13.34,-2.12 20.12,-3.52 l -8.75,-24.49 c -6.78,1.39 -13.48,2.57 -20.12,3.52"
   class="st81" />
			</g>
		</g>
		<g
   id="g600">
			<polygon
   id="polygon598"
   points="437.83,710.17 429.08,685.68 415.33,696.4 424.09,720.9 "
   class="st92" />
		</g>
		<g
   id="g604">
			<polygon
   id="polygon602"
   points="424.09,720.9 415.33,696.4 372.53,698.05 381.28,722.55 "
   class="st93" />
		</g>
		<g
   id="g618"
   class="st2">
			<defs
   id="defs607">
				<path
   d="m 513.3,664.51 8.75,24.49 c 8.81,-3.28 17.47,-6.83 25.89,-10.64 l -8.75,-24.49 c -8.42,3.81 -17.09,7.37 -25.89,10.64 z"
   class="st2"
   id="SVGID_45_" />
			</defs>
			<clipPath
   id="SVGID_46_">
				<use
   height="100%"
   width="100%"
   y="0"
   x="0"
   id="use609"
   style="overflow:visible"
   xlink:href="#SVGID_45_" />
			</clipPath>
			<g
   id="g616"
   clip-path="url(#SVGID_46_)"
   class="st94">
				<path
   id="path612"
   d="m 513.3,664.51 8.75,24.49 c 5.42,-2.01 10.78,-4.13 16.07,-6.36 l -8.75,-24.5 c -5.29,2.24 -10.66,4.36 -16.07,6.37"
   class="st81" />
				<path
   id="path614"
   d="m 529.36,658.15 8.75,24.5 c 3.3,-1.39 6.58,-2.82 9.82,-4.29 l -8.75,-24.49 c -3.23,1.46 -6.51,2.89 -9.82,4.28"
   class="st71" />
			</g>
		</g>
		<g
   id="g622">
			<polygon
   id="polygon620"
   points="468.19,713.63 459.44,689.13 455.1,681.37 463.85,705.86 "
   class="st95" />
		</g>
		<g
   id="g626">
			<polygon
   id="polygon624"
   points="605.33,657.69 596.58,633.2 553.63,656.7 562.38,681.19 "
   class="st96" />
		</g>
		<g
   id="g630">
			<polygon
   id="polygon628"
   points="562.38,681.19 553.63,656.7 539.18,653.87 547.94,678.36 "
   class="st92" />
		</g>
		<g
   id="g634">
			<path
   id="path632"
   d="m 318.56,619.42 20.21,2.13 c -2.63,3.7 -4.87,7.31 -6.57,10.8 l -26.65,10.34 -0.13,21.84 23.73,-4.72 c 1.13,3.14 2.86,6.06 5.16,8.74 l -18.12,12.5 24.67,11.65 20.68,-9.01 c 5.36,1.41 11.25,2.51 17.76,3.21 l -6.77,11.16 42.8,-1.65 13.75,-10.72 c 8.56,-1.07 17.23,-2.5 26.02,-4.31 l 4.35,7.77 49.5,-14.51 4.35,-10.11 c 8.81,-3.28 17.47,-6.83 25.89,-10.65 l 14.45,2.83 42.95,-23.5 -6.76,-7.33 c 6.24,-4.24 12.08,-8.59 17.49,-13.04 l 22.6,-3.41 24.86,-26.18 -18.37,-1.94 c 2.38,-3.89 4.06,-7.61 5.36,-11.23 l 26.04,-10.1 0.14,-21.85 -27.4,5.45 c -1.39,-2.43 -3.11,-4.74 -5.31,-6.84 l 21.92,-15.13 -24.63,-11.66 -28.89,12.57 c -3.93,-0.77 -8.11,-1.4 -12.58,-1.82 l 9.78,-16.09 -42.82,1.65 -21.22,16.54 c -5.36,0.78 -10.74,1.7 -16.17,2.76 l -6.73,-12.04 -49.51,14.53 -6.66,15.51 c -5.58,2.09 -11.1,4.31 -16.56,6.62 l -21.47,-4.21 -42.95,23.51 9.1,9.86 c -4.79,3.12 -9.36,6.32 -13.7,9.58 l -28.71,4.33 z m 136.6,16.8 c -29.19,1.13 -39.12,-12.43 -22.15,-30.3 16.97,-17.87 54.41,-33.26 83.61,-34.39 29.23,-1.13 39.15,12.44 22.17,30.31 -16.97,17.87 -54.4,33.26 -83.63,34.38"
   class="st97" />
		</g>
		<g
   id="g638">
			<polygon
   id="polygon636"
   points="522.05,689 513.3,664.51 508.94,674.62 517.7,699.11 "
   class="st98" />
		</g>
		<g
   id="g642">
			<polygon
   id="polygon640"
   points="517.7,699.11 508.94,674.62 459.44,689.13 468.19,713.63 "
   class="st72" />
		</g>
	</g>
</g>
<g
   transform="translate(-186.83,-27.02)"
   id="g662">
	<defs
   id="defs649">
		<rect
   height="303.82999"
   width="91.339996"
   y="140.71001"
   x="458.07001"
   id="SVGID_47_" />
	</defs>
	<clipPath
   id="SVGID_48_">
		<use
   height="100%"
   width="100%"
   y="0"
   x="0"
   id="use651"
   style="overflow:visible"
   xlink:href="#SVGID_47_" />
	</clipPath>
	<g
   id="g660"
   clip-path="url(#SVGID_48_)"
   class="st99">
		<polygon
   id="polygon654"
   points="509.86,166.35 532.4,399.69 554.95,831.79 509.86,831.79 464.78,831.79 487.32,399.69 "
   class="st0" />
		<polygon
   id="polygon656"
   points="509.86,166.35 525.56,399.69 541.28,831.79 509.86,831.79 478.44,831.79 494.15,399.69 "
   class="st1" />
		<polygon
   id="polygon658"
   points="509.86,166.35 514.51,399.69 519.16,831.79 509.86,831.79 500.55,831.79 505.2,399.69 "
   class="st0" />
	</g>
</g>
<g
   transform="translate(-186.83,-27.02)"
   id="g714">
	<g
   id="g668">
		<path
   id="path664"
   d="m 509.87,217.52 c 13.78,0 24.95,18.55 24.95,41.44 0,2.91 -0.18,5.74 -0.53,8.47 h -48.86 c -0.34,-2.73 -0.52,-5.56 -0.52,-8.47 0,-22.88 11.18,-41.44 24.96,-41.44 z"
   class="st100" />
		<path
   id="path666"
   d="m 516.36,217.52 c 10.19,0 18.46,18.55 18.46,41.44 0,2.91 -0.14,5.74 -0.38,8.47 H 498.3 c -0.25,-2.73 -0.38,-5.56 -0.38,-8.47 -0.01,-22.88 8.25,-41.44 18.44,-41.44 z"
   class="st101" />
	</g>
	<g
   id="g686">
		<g
   id="g676">
			<path
   id="path670"
   d="m 533.42,118.24 c 0,44.15 22.62,82.57 56,102.47 1,0.93 1.98,1.85 2.94,2.73 6.17,5.62 4.16,32.22 4.16,32.22 H 533.1 c 0,0 0,-138.42 0,-153.86 0,2.38 0.21,5.38 0.58,8.83 -0.16,2.52 -0.26,5.06 -0.26,7.61 z"
   class="st101" />
			<path
   id="path672"
   d="m 533.1,169.77 c 10.12,25.75 29.21,47.1 53.51,60.31 1.09,0.94 2.18,1.84 3.23,2.71 4.12,3.43 4.92,14.65 4.9,22.87 H 533.1 c 0,0 0,-44.53 0,-85.89 z"
   class="st102" />
			<path
   id="path674"
   d="m 589.18,252.54 c 0.98,0.73 1.8,1.81 2.47,3.12 H 533.1 c 0,0 0,-22.8 0,-50.92 12.31,18.92 30.49,34.59 52.41,45.08 1.25,0.94 2.48,1.85 3.67,2.72 z"
   class="st103" />
		</g>
		<g
   id="g684">
			<path
   id="path678"
   d="m 486.3,118.24 c 0,44.15 -22.62,82.57 -55.99,102.47 -1.01,0.93 -1.99,1.85 -2.95,2.73 -6.17,5.62 -4.15,32.22 -4.15,32.22 h 63.42 c 0,0 0,-138.42 0,-153.86 0,2.38 -0.2,5.38 -0.58,8.83 0.16,2.52 0.25,5.06 0.25,7.61 z"
   class="st101" />
			<path
   id="path680"
   d="m 486.63,169.77 c -10.12,25.75 -29.21,47.1 -53.51,60.31 -1.1,0.94 -2.18,1.84 -3.23,2.71 -4.12,3.43 -4.91,14.65 -4.91,22.87 h 61.65 c 0,0 0,-44.53 0,-85.89 z"
   class="st102" />
			<path
   id="path682"
   d="m 430.55,252.54 c -0.99,0.73 -1.79,1.81 -2.47,3.12 h 58.55 c 0,0 0,-22.8 0,-50.92 -12.3,18.92 -30.48,34.59 -52.42,45.08 -1.24,0.94 -2.47,1.85 -3.66,2.72 z"
   class="st103" />
		</g>
	</g>
	<g
   id="g696">
		<path
   id="path688"
   d="M 485.02,255.66 V 96.61 c 0,-14.57 10.82,-61.81 24.85,-69.58 14.03,7.77 24.85,55.01 24.85,69.58 v 159.05 z"
   class="st103" />
		<path
   id="path690"
   d="m 509.87,27.02 c 0.14,0.08 0.28,0.18 0.42,0.27 V 255.65 H 485.02 V 96.61 c 0,-14.57 10.82,-61.81 24.85,-69.59 z"
   class="st102" />
		<path
   id="path692"
   d="M 527.62,59.51 H 492.1 c 4.46,-14.7 10.71,-28.58 17.76,-32.48 7.05,3.9 13.3,17.78 17.76,32.48 z"
   class="st101" />
		<path
   id="path694"
   d="m 510.29,59.51 h -18.18 c 4.46,-14.7 10.71,-28.58 17.76,-32.48 0.14,0.08 0.28,0.18 0.42,0.27 z"
   class="st100" />
	</g>
	<path
   id="path698"
   d="m 494.57,85.85 c 1.02,2.33 4.4,1.45 8.37,-0.03 4.54,-1.78 9.6,-1.78 14.13,0 3.96,1.47 7.34,2.36 8.36,0.03 v 0 c 1.05,-2.26 -1.42,-7.75 -6.58,-9.76 -5.68,-2.21 -12.02,-2.21 -17.7,0 -5.16,1.99 -7.62,7.49 -6.58,9.76 z"
   class="st101" />
	<g
   id="g712">
		<g
   id="g704">
			<path
   id="path700"
   d="m 560.55,217.52 c 6.03,0 10.91,18.55 10.91,41.44 0,2.91 -0.07,5.74 -0.23,8.47 h -21.37 c -0.16,-2.73 -0.23,-5.56 -0.23,-8.47 0,-22.88 4.89,-41.44 10.92,-41.44 z"
   class="st101" />
			<path
   id="path702"
   d="m 560.55,217.52 c 1.57,0 3.06,1.29 4.42,3.56 -4.96,2.7 -8.77,18.84 -8.77,38.41 0,2.72 0.07,5.37 0.21,7.94 h -6.54 c -0.16,-2.73 -0.23,-5.56 -0.23,-8.47 -0.01,-22.88 4.88,-41.44 10.91,-41.44 z"
   class="st100" />
		</g>
		<g
   id="g710">
			<path
   id="path706"
   d="m 459.19,217.52 c 6.03,0 10.91,18.55 10.91,41.44 0,2.91 -0.08,5.74 -0.23,8.47 H 448.5 c -0.15,-2.73 -0.23,-5.56 -0.23,-8.47 0,-22.88 4.88,-41.44 10.92,-41.44 z"
   class="st101" />
			<path
   id="path708"
   d="m 459.19,217.52 c 1.57,0 3.06,1.29 4.42,3.56 -4.96,2.7 -8.77,18.84 -8.77,38.41 0,2.72 0.07,5.37 0.21,7.94 h -6.54 c -0.15,-2.73 -0.23,-5.56 -0.23,-8.47 -0.01,-22.88 4.87,-41.44 10.91,-41.44 z"
   class="st100" />
		</g>
	</g>
</g>
</svg>
