<?xml version="1.0" encoding="UTF-8" standalone="no"?>
<svg
   xmlns:dc="http://purl.org/dc/elements/1.1/"
   xmlns:cc="http://creativecommons.org/ns#"
   xmlns:rdf="http://www.w3.org/1999/02/22-rdf-syntax-ns#"
   xmlns:svg="http://www.w3.org/2000/svg"
   xmlns="http://www.w3.org/2000/svg"
   xmlns:sodipodi="http://sodipodi.sourceforge.net/DTD/sodipodi-0.dtd"
   xmlns:inkscape="http://www.inkscape.org/namespaces/inkscape"
   inkscape:version="1.0 (4035a4fb49, 2020-05-01)"
   height="38.36401"
   width="50"
   sodipodi:docname="granted-benefits-icon-01.svg"
   xml:space="preserve"
   viewBox="0 0 50 38.36401"
   y="0px"
   x="0px"
   id="Layer_1"
   version="1.1"><metadata
   id="metadata11"><rdf:RDF><cc:Work
       rdf:about=""><dc:format>image/svg+xml</dc:format><dc:type
         rdf:resource="http://purl.org/dc/dcmitype/StillImage" /><dc:title></dc:title></cc:Work></rdf:RDF></metadata><defs
   id="defs9" /><sodipodi:namedview
   inkscape:current-layer="Layer_1"
   inkscape:window-maximized="1"
   inkscape:window-y="-9"
   inkscape:window-x="-9"
   inkscape:cy="-7.468838"
   inkscape:cx="-12.908454"
   inkscape:zoom="7.1276364"
   fit-margin-bottom="0"
   fit-margin-right="0"
   fit-margin-left="0"
   fit-margin-top="0"
   showgrid="false"
   id="namedview7"
   inkscape:window-height="1271"
   inkscape:window-width="2400"
   inkscape:pageshadow="2"
   inkscape:pageopacity="0"
   guidetolerance="10"
   gridtolerance="10"
   objecttolerance="10"
   borderopacity="1"
   bordercolor="#666666"
   pagecolor="#ffffff" />
<style
   id="style2"
   type="text/css">
	.st0{fill:#77B0DF;}
</style>
<path
   style="stroke-width:2.04499"
   d="M 19.488753,15.357873 H 4.948875 C 2.229039,15.357873 0,17.586912 0,20.306748 v 9.038855 c 0,2.208589 1.492843,4.13088 3.558282,4.744377 v 2.535787 c 0,1.186094 0.777096,1.738241 1.492843,1.738241 0.286298,0 0.715746,-0.0818 1.186094,-0.470347 l 4.335378,-3.599182 h 8.936605 c 2.719837,0 4.948876,-2.229039 4.948876,-4.948876 v -9.038855 c -0.02045,-2.719836 -2.249489,-4.948875 -4.969325,-4.948875 z m 2.903885,13.98773 c 0,1.615542 -1.308793,2.924336 -2.924335,2.924336 h -9.304704 c -0.245399,0 -0.470347,0.0818 -0.654397,0.224949 l -3.96728,3.292433 v -2.515337 c 0,-0.531698 -0.388548,-0.961146 -0.920245,-1.002045 C 3.149284,32.126789 1.98364,30.858896 1.98364,29.366053 v -9.038855 c 0,-1.615542 1.308794,-2.924335 2.924335,-2.924335 h 14.539878 c 1.615542,0 2.924335,1.308793 2.924335,2.924335 v 9.018405 z M 4.764826,23.149284 h 14.887526 v -2.02454 H 4.764826 Z m 10.920246,5.378323 h 3.96728 v -2.02454 h -3.96728 z m -10.920246,0 h 7.914111 v -2.02454 H 4.764826 Z"
   class="st0"
   id="XMLID_567_" />
<path
   style="stroke-width:2.04499"
   d="M 45.439673,4.580777 H 43.824131 L 32.862986,16.237219 c -0.593047,0.633947 -1.370143,0.981595 -2.208589,0.981595 -0.838446,0 -1.615542,-0.347648 -2.208589,-0.981595 L 17.484663,4.580777 h -1.615542 v 1.247444 l 11.083844,11.799591 c 0.981595,1.042945 2.290389,1.615542 3.701432,1.615542 1.411043,0 2.719836,-0.572597 3.701431,-1.615542 L 45.439673,5.828221 Z m -1.615542,19.754601 h 1.615542 v -1.247443 l -6.359918,-6.768917 -1.390593,1.472393 z M 46.114519,0 H 15.214724 c -2.147239,0 -3.885481,1.738241 -3.885481,3.885481 v 9.93865 h 2.02454 V 3.90593 c 0,-1.022494 0.838446,-1.86094 1.860941,-1.86094 h 30.899795 c 1.022495,0 1.860941,0.838446 1.860941,1.86094 v 21.104295 c 0,1.022495 -0.838446,1.860941 -1.860941,1.860941 H 26.319018 v 2.02454 H 46.114519 C 48.261759,28.895706 50,27.157464 50,25.010225 V 3.90593 C 50,1.758691 48.261759,0 46.114519,0 Z"
   class="st0"
   id="XMLID_562_" />
</svg>
