<?xml version="1.0" encoding="UTF-8" standalone="no"?>
<!-- Generator: Adobe Illustrator 24.0.1, SVG Export Plug-In . SVG Version: 6.00 Build 0)  -->

<svg
   xmlns:dc="http://purl.org/dc/elements/1.1/"
   xmlns:cc="http://creativecommons.org/ns#"
   xmlns:rdf="http://www.w3.org/1999/02/22-rdf-syntax-ns#"
   xmlns:svg="http://www.w3.org/2000/svg"
   xmlns="http://www.w3.org/2000/svg"
   xmlns:xlink="http://www.w3.org/1999/xlink"
   xmlns:sodipodi="http://sodipodi.sourceforge.net/DTD/sodipodi-0.dtd"
   xmlns:inkscape="http://www.inkscape.org/namespaces/inkscape"
   version="1.1"
   id="sky"
   x="0px"
   y="0px"
   viewBox="0 0 841.89001 81.601912"
   xml:space="preserve"
   sodipodi:docname="clouds.svg"
   width="841.89001"
   height="81.601913"
   inkscape:version="0.92.3 (2405546, 2018-03-11)"><metadata
   id="metadata72"><rdf:RDF><cc:Work
       rdf:about=""><dc:format>image/svg+xml</dc:format><dc:type
         rdf:resource="http://purl.org/dc/dcmitype/StillImage" /><dc:title></dc:title></cc:Work></rdf:RDF></metadata><defs
   id="defs70"><linearGradient
     gradientTransform="translate(0,-215.85)"
     y2="109.0035"
     x2="158.3374"
     y1="292.3443"
     x1="156.84996"
     gradientUnits="userSpaceOnUse"
     id="linearGradient1118">
	<stop
   id="stop1100"
   style="stop-color:#FFFFFF"
   offset="0" />
	<stop
   id="stop1102"
   style="stop-color:#FAFDFE"
   offset="0.10945418" />
	<stop
   id="stop1104"
   style="stop-color:#EFF8FD"
   offset="0.16170242" />
	<stop
   id="stop1106"
   style="stop-color:#DFF0FB"
   offset="0.502" />
	<stop
   id="stop1108"
   style="stop-color:#C8E6F9"
   offset="0.6231" />
	<stop
   id="stop1110"
   style="stop-color:#AADBF6"
   offset="0.7364" />
	<stop
   id="stop1112"
   style="stop-color:#83CDF2"
   offset="0.844" />
	<stop
   id="stop1114"
   style="stop-color:#4CBFEE"
   offset="0.9452" />
	<stop
   id="stop1116"
   style="stop-color:#00B8EC"
   offset="1" />
</linearGradient><linearGradient
     y2="116.1362"
     x2="673.44482"
     y1="296.96921"
     x1="673.44482"
     gradientUnits="userSpaceOnUse"
     id="linearGradient1078">
	<stop
   id="stop1060"
   style="stop-color:#FFFFFF"
   offset="0" />
	<stop
   id="stop1062"
   style="stop-color:#FAFDFE"
   offset="0.10636668" />
	<stop
   id="stop1064"
   style="stop-color:#EFF8FD"
   offset="0.24083158" />
	<stop
   id="stop1066"
   style="stop-color:#DFF0FB"
   offset="0.502" />
	<stop
   id="stop1068"
   style="stop-color:#C8E6F9"
   offset="0.6231" />
	<stop
   id="stop1070"
   style="stop-color:#AADBF6"
   offset="0.7364" />
	<stop
   id="stop1072"
   style="stop-color:#83CDF2"
   offset="0.844" />
	<stop
   id="stop1074"
   style="stop-color:#4CBFEE"
   offset="0.9452" />
	<stop
   id="stop1076"
   style="stop-color:#00B8EC"
   offset="1" />
</linearGradient><linearGradient
     inkscape:collect="always"
     xlink:href="#linearGradient1118"
     id="linearGradient1011"
     gradientUnits="userSpaceOnUse"
     x1="425.58798"
     y1="293.25488"
     x2="424.31839"
     y2="100.814"
     gradientTransform="translate(0,-215.85)" /><clipPath
     clipPathUnits="userSpaceOnUse"
     id="clipPath1084"><rect
       style="fill:none;fill-opacity:1"
       id="rect1086"
       width="841.89001"
       height="81.601913"
       x="3.930154e-09"
       y="-0.011913626"
       ry="0.37186" /></clipPath><clipPath
     clipPathUnits="userSpaceOnUse"
     id="clipPath1088"><rect
       style="fill:none;fill-opacity:1"
       id="rect1090"
       width="841.89001"
       height="81.601913"
       x="3.930154e-09"
       y="-0.011913626"
       ry="0.37186" /></clipPath><clipPath
     clipPathUnits="userSpaceOnUse"
     id="clipPath1092"><rect
       style="fill:none;fill-opacity:1"
       id="rect1094"
       width="841.89001"
       height="81.601913"
       x="3.930154e-09"
       y="-0.011913626"
       ry="0.37186" /></clipPath><clipPath
     clipPathUnits="userSpaceOnUse"
     id="clipPath1096"><rect
       style="fill:none;fill-opacity:1"
       id="rect1098"
       width="841.89001"
       height="81.601913"
       x="3.930154e-09"
       y="-0.011913626"
       ry="0.37186" /></clipPath></defs><sodipodi:namedview
   pagecolor="#ffffff"
   bordercolor="#666666"
   borderopacity="1"
   objecttolerance="10"
   gridtolerance="10"
   guidetolerance="10"
   inkscape:pageopacity="0"
   inkscape:pageshadow="2"
   inkscape:window-width="1920"
   inkscape:window-height="1031"
   id="namedview68"
   showgrid="false"
   inkscape:pagecheckerboard="true"
   inkscape:zoom="0.95077131"
   inkscape:cx="267.68883"
   inkscape:cy="81.61787"
   inkscape:window-x="0"
   inkscape:window-y="25"
   inkscape:window-maximized="1"
   inkscape:current-layer="sky"
   fit-margin-top="0"
   fit-margin-left="0"
   fit-margin-right="0"
   fit-margin-bottom="0" />
<style
   type="text/css"
   id="style2">
	.st0{fill:url(#SVGID_1_);}
	.st1{fill:url(#SVGID_2_);}
	.st2{fill:url(#SVGID_3_);}
</style>
<linearGradient
   id="SVGID_1_"
   gradientUnits="userSpaceOnUse"
   x1="156.84996"
   y1="292.3443"
   x2="158.3374"
   y2="109.0035"
   gradientTransform="translate(0,-215.85)">
	<stop
   offset="0"
   style="stop-color:#FFFFFF"
   id="stop4" />
	<stop
   offset="0.16064459"
   style="stop-color:#FAFDFE"
   id="stop6" />
	<stop
   offset="0.2803303"
   style="stop-color:#EFF8FD"
   id="stop8" />
	<stop
   offset="0.502"
   style="stop-color:#DFF0FB"
   id="stop10" />
	<stop
   offset="0.6231"
   style="stop-color:#C8E6F9"
   id="stop12" />
	<stop
   offset="0.7364"
   style="stop-color:#AADBF6"
   id="stop14" />
	<stop
   offset="0.844"
   style="stop-color:#83CDF2"
   id="stop16" />
	<stop
   offset="0.9452"
   style="stop-color:#4CBFEE"
   id="stop18" />
	<stop
   offset="1"
   style="stop-color:#00B8EC"
   id="stop20" />
</linearGradient>
<path
   class="st0"
   d="m 0,22.6 c 3.68,-2.01 7.91,-3.16 12.41,-3.16 10.86,0 20.14,6.67 23.94,16.11 2.22,-5.81 7.86,-9.94 14.49,-9.94 3.26,0 6.29,1 8.78,2.71 C 62.2,12.27 76.2,0 93.08,0 c 16.02,0 29.44,11.05 32.98,25.89 4.69,-4.85 11.28,-7.87 18.58,-7.87 14.24,0 25.78,11.46 25.78,25.61 0,0.56 -0.02,1.12 -0.06,1.67 3.15,-3.08 7.46,-4.99 12.23,-4.99 5.08,0 9.63,2.17 12.82,5.61 3.67,-8.06 11.83,-13.67 21.32,-13.67 11.92,0 21.75,8.85 23.2,20.3 4.15,-6.5 11.45,-10.81 19.77,-10.81 12.09,0 22.02,9.11 23.25,20.8 2.16,-2.11 5.11,-3.42 8.38,-3.42 6.6,0 11.95,5.31 11.95,11.87 0,1.46 -0.28,2.86 -0.77,4.15 1.29,-0.61 2.73,-0.97 4.26,-0.97 5.47,0 9.91,4.41 9.91,9.84 0,0.14 -0.02,0.27 -0.02,0.41 H 0 Z"
   id="path23"
   style="fill:url(#SVGID_1_)"
   inkscape:connector-curvature="0"
   clip-path="url(#clipPath1096)"
   transform="translate(0,0.01191363)" />
<linearGradient
   id="SVGID_2_"
   gradientUnits="userSpaceOnUse"
   x1="671.9574"
   y1="292.5069"
   x2="673.44482"
   y2="116.1362"
   gradientTransform="translate(0,-215.85)">
	<stop
   offset="0"
   style="stop-color:#FFFFFF"
   id="stop25" />
	<stop
   offset="0.14976496"
   style="stop-color:#FAFDFE"
   id="stop27" />
	<stop
   offset="0.26422319"
   style="stop-color:#EFF8FD"
   id="stop29" />
	<stop
   offset="0.502"
   style="stop-color:#DFF0FB"
   id="stop31" />
	<stop
   offset="0.6231"
   style="stop-color:#C8E6F9"
   id="stop33" />
	<stop
   offset="0.7364"
   style="stop-color:#AADBF6"
   id="stop35" />
	<stop
   offset="0.844"
   style="stop-color:#83CDF2"
   id="stop37" />
	<stop
   offset="0.9452"
   style="stop-color:#4CBFEE"
   id="stop39" />
	<stop
   offset="1"
   style="stop-color:#00B8EC"
   id="stop41" />
</linearGradient>
<path
   class="st1"
   d="M 841.89,16.7 C 836.15,7.61 825.96,1.56 814.36,1.56 c -15.36,0 -28.22,10.59 -31.61,24.82 -4.5,-4.65 -10.81,-7.54 -17.81,-7.54 -13.65,0 -24.71,10.99 -24.71,24.55 0,0.54 0.02,1.07 0.06,1.6 -3.02,-2.96 -7.16,-4.78 -11.73,-4.78 -4.87,0 -9.23,2.08 -12.29,5.38 -3.52,-7.73 -11.34,-13.11 -20.43,-13.11 -11.42,0 -20.85,8.49 -22.24,19.46 -3.98,-6.23 -10.97,-10.37 -18.95,-10.37 -10.1,0 -18.63,6.65 -21.43,15.78 -4.3,-3.6 -9.85,-5.77 -15.92,-5.77 -3.48,0 -6.79,0.72 -9.8,2.01 -2.05,-4.66 -6.72,-7.92 -12.17,-7.92 -7.33,0 -13.27,5.9 -13.27,13.18 0,0.4 0.02,0.8 0.06,1.2 -3.88,-1.92 -8.25,-3.02 -12.88,-3.02 -10.83,0 -20.26,5.94 -25.19,14.71 -1.92,-0.97 -4.09,-1.52 -6.39,-1.52 -5.49,0 -10.25,3.11 -12.6,7.64 -2.18,-2.45 -5.36,-4 -8.91,-4 -5.12,0 -9.47,3.22 -11.15,7.73 h 336.89 z"
   id="path44"
   style="fill:url(#SVGID_2_)"
   inkscape:connector-curvature="0"
   clip-path="url(#clipPath1092)"
   transform="translate(0,0.01191363)" />
<linearGradient
   id="SVGID_3_"
   gradientUnits="userSpaceOnUse"
   x1="424.31839"
   y1="341.4371"
   x2="424.31839"
   y2="100.814"
   spreadMethod="pad">
	<stop
   offset="0"
   style="stop-color:#FFFFFF"
   id="stop46" />
	<stop
   offset="0.2595"
   style="stop-color:#FBFDFF"
   id="stop48" />
	<stop
   offset="0.4122"
   style="stop-color:#F1F8FD"
   id="stop50" />
	<stop
   offset="0.5373"
   style="stop-color:#E2F1FC"
   id="stop52" />
	<stop
   offset="0.6474"
   style="stop-color:#CDE8F9"
   id="stop54" />
	<stop
   offset="0.7477"
   style="stop-color:#B2DDF6"
   id="stop56" />
	<stop
   offset="0.8408"
   style="stop-color:#8ED1F3"
   id="stop58" />
	<stop
   offset="0.9268"
   style="stop-color:#60C4EF"
   id="stop60" />
	<stop
   offset="1"
   style="stop-color:#00B8EC"
   id="stop62" />
</linearGradient>
<path
   class="st2"
   d="m 239.72,96.16 c 1.28,-3.44 4.6,-5.9 8.52,-5.9 2.71,0 5.14,1.18 6.8,3.06 1.8,-3.46 5.43,-5.83 9.62,-5.83 1.76,0 3.41,0.42 4.88,1.16 3.77,-6.7 10.97,-11.23 19.24,-11.23 3.53,0 6.87,0.83 9.83,2.3 -0.03,-0.3 -0.05,-0.61 -0.05,-0.92 0,-5.56 4.54,-10.07 10.14,-10.07 4.16,0 7.73,2.49 9.29,6.05 2.3,-0.99 4.83,-1.54 7.48,-1.54 4.63,0 8.87,1.66 12.15,4.41 2.14,-6.97 8.65,-12.05 16.37,-12.05 6.09,0 11.43,3.16 14.47,7.92 1.06,-8.38 8.26,-14.86 16.98,-14.86 6.94,0 12.92,4.11 15.6,10.01 2.33,-2.52 5.67,-4.11 9.38,-4.11 3.49,0 6.65,1.4 8.96,3.66 -0.03,-0.41 -0.05,-0.81 -0.05,-1.22 0,-10.35 8.45,-18.75 18.87,-18.75 5.35,0 10.17,2.21 13.6,5.76 2.59,-10.87 12.41,-18.95 24.14,-18.95 12.36,0 22.61,8.98 24.5,20.73 1.83,-1.25 4.04,-1.99 6.43,-1.99 4.85,0 8.98,3.03 10.61,7.28 2.78,-6.91 9.58,-11.79 17.52,-11.79 10.42,0 18.87,8.39 18.87,18.74 0,1.69 -0.23,3.33 -0.66,4.89 0.33,-0.02 0.67,-0.03 1.01,-0.03 5.58,0 10.52,2.77 13.48,7 2.2,-3.97 6.45,-6.66 11.33,-6.66 7.14,0 12.93,5.75 12.93,12.85 0,0.77 -0.08,1.53 -0.21,2.26 1.71,-0.99 3.69,-1.57 5.81,-1.57 5.65,0 10.34,4.04 11.32,9.37 H 239.72 Z"
   id="path65"
   style="fill:url(#linearGradient1011);fill-opacity:1"
   inkscape:connector-curvature="0"
   clip-path="url(#clipPath1088)"
   transform="translate(0,0.01191363)" />
<rect
   style="fill:none;fill-opacity:1"
   id="rect1080"
   width="715.45776"
   height="72.884468"
   x="4.4623146"
   y="-2.0109167"
   ry="0.37186"
   clip-path="url(#clipPath1084)"
   transform="translate(0,0.01191363)" /></svg>
