<?xml version="1.0" encoding="utf-8"?>
<!-- Generator: Adobe Illustrator 24.0.1, SVG Export Plug-In . SVG Version: 6.00 Build 0)  -->
<svg version="1.1" id="Layer_1" xmlns="http://www.w3.org/2000/svg" xmlns:xlink="http://www.w3.org/1999/xlink" x="0px" y="0px"
	 viewBox="0 0 150 150" style="enable-background:new 0 0 150 150;" xml:space="preserve">
<style type="text/css">
	.st0{fill:#EBF5FD;}
	.st1{fill:#FF95A9;}
	.st2{fill:#3F6D92;}
	.st3{fill:#FFFFFF;}
	.st4{fill:#77B0DF;}
</style>
<path class="st0" d="M98.9,138.47c32.99-10.27,57.08-38.37,43.11-65.28C129.95,49.94,8.26-15.59,1.03,45.08
	S53.53,152.59,98.9,138.47z"/>
<path class="st0" d="M135.55,38.27c-13.85,9.56-45.73-8.85-30.27-26.25S148.9,29.05,135.55,38.27z"/>
<g>
	<g>
		<g>
			<g>
				<g>
					<path class="st1" d="M70.25,47.43c-2.67,0-4.77-2.13-4.59-4.63c0.36-5.04,1.11-9.89,3.38-12.78c1.45-1.85,3.73-3.95,6.1-3.95
						c1.94,0,4.26,0.01,6.94,0.01c2.48,0,4.82,2.24,6.29,4.21c2.14,2.87,2.84,7.62,3.18,12.52c0.17,2.5-1.93,4.62-4.59,4.62
						L70.25,47.43z"/>
				</g>
			</g>
			<g>
				<g>
					<path class="st2" d="M86.97,48.52C86.97,48.52,86.97,48.52,86.97,48.52l-16.71,0c-1.62,0-3.17-0.66-4.25-1.82
						c-1.02-1.1-1.53-2.51-1.42-3.98c0.34-4.78,1.04-10.1,3.61-13.38c1.28-1.63,3.88-4.36,6.95-4.36c0,0,0.01,0,0.01,0L82.09,25
						c3.21,0,5.87,2.91,7.17,4.65c2.42,3.23,3.07,8.43,3.39,13.09c0.1,1.46-0.41,2.87-1.43,3.96
						C90.14,47.86,88.59,48.52,86.97,48.52z M75.14,27.17c-1.54,0-3.5,1.32-5.23,3.53c-2.22,2.83-2.85,8-3.15,12.19
						c-0.06,0.86,0.24,1.69,0.84,2.34c0.67,0.72,1.64,1.13,2.66,1.13l0,0l16.71,0c0,0,0,0,0,0c1.02,0,1.99-0.41,2.65-1.12
						c0.6-0.65,0.9-1.47,0.85-2.33c-0.28-4.09-0.87-9.14-2.96-11.94c-1.76-2.36-3.79-3.77-5.42-3.77L75.14,27.17
						C75.14,27.17,75.14,27.17,75.14,27.17z"/>
				</g>
			</g>
		</g>
		<g>
			<g>
				<g>
					<ellipse class="st3" cx="78.42" cy="20.55" rx="6.96" ry="6.78"/>
				</g>
			</g>
			<g>
				<g>
					<path class="st2" d="M78.42,28.42c-4.44,0-8.05-3.53-8.05-7.87s3.61-7.87,8.05-7.87c4.44,0,8.05,3.53,8.05,7.87
						S82.86,28.42,78.42,28.42z M78.42,14.86c-3.23,0-5.87,2.55-5.87,5.69s2.63,5.69,5.87,5.69s5.87-2.55,5.87-5.69
						S81.66,14.86,78.42,14.86z"/>
				</g>
			</g>
		</g>
	</g>
	<g>
		<g>
			<g>
				<g>
					<path class="st1" d="M27.81,97.36c-2.4,0-4.29-1.92-4.13-4.17c0.33-4.53,1-8.9,3.04-11.5c1.31-1.66,3.36-3.56,5.49-3.55
						c1.75,0,3.83,0.01,6.24,0.01c2.23,0,4.34,2.02,5.66,3.79c1.93,2.58,2.55,6.85,2.86,11.26c0.16,2.25-1.74,4.15-4.13,4.15
						L27.81,97.36z"/>
				</g>
			</g>
			<g>
				<g>
					<path class="st2" d="M42.85,98.45C42.85,98.45,42.85,98.45,42.85,98.45l-15.04,0l0,0c-1.49,0-2.92-0.61-3.91-1.68
						c-0.94-1.01-1.41-2.31-1.31-3.66c0.31-4.31,0.94-9.13,3.27-12.1c1.16-1.48,3.53-3.97,6.34-3.97c0,0,0.01,0,0.01,0l6.24,0.01
						c2.94,0,5.36,2.65,6.54,4.23c2.19,2.93,2.78,7.63,3.07,11.84c0.09,1.35-0.37,2.64-1.31,3.65
						C45.76,97.84,44.34,98.45,42.85,98.45z M27.81,96.27l15.04,0c0,0,0,0,0,0c0.89,0,1.73-0.36,2.31-0.98
						c0.52-0.56,0.78-1.27,0.73-2.01c-0.25-3.67-0.78-8.19-2.64-10.69c-1.57-2.1-3.36-3.35-4.79-3.35l-6.24-0.01c0,0,0,0-0.01,0
						c-1.36,0-3.09,1.17-4.63,3.13c-1.98,2.52-2.54,7.15-2.81,10.91c-0.05,0.74,0.21,1.46,0.73,2.02
						C26.08,95.91,26.92,96.27,27.81,96.27L27.81,96.27z"/>
				</g>
			</g>
		</g>
		<g>
			<g>
				<g>
					<ellipse class="st3" cx="35.16" cy="73.16" rx="6.26" ry="6.1"/>
				</g>
			</g>
			<g>
				<g>
					<path class="st2" d="M35.16,80.36c-4.05,0-7.35-3.23-7.35-7.19c0-3.97,3.3-7.19,7.35-7.19c4.05,0,7.35,3.23,7.35,7.19
						C42.51,77.13,39.22,80.36,35.16,80.36z M35.16,68.15c-2.85,0-5.17,2.25-5.17,5.01c0,2.76,2.32,5.01,5.17,5.01
						c2.85,0,5.17-2.25,5.17-5.01C40.33,70.4,38.01,68.15,35.16,68.15z"/>
				</g>
			</g>
		</g>
	</g>
	<g>
		<g>
			<g>
				<g>
					<path class="st4" d="M10.45,140.64c-1.8,0-3.22-1.44-3.1-3.13c0.24-3.4,0.75-6.68,2.28-8.63c0.98-1.25,2.52-2.67,4.12-2.66
						c1.31,0,2.87,0.01,4.68,0.01c1.68,0,3.25,1.51,4.25,2.84c1.45,1.94,1.92,5.14,2.14,8.45c0.12,1.69-1.3,3.12-3.1,3.12
						L10.45,140.64z"/>
				</g>
			</g>
			<g>
				<g>
					<path class="st2" d="M21.73,141.73C21.73,141.73,21.73,141.73,21.73,141.73l-11.28,0c0,0,0,0,0,0c-1.19,0-2.34-0.49-3.13-1.34
						c-0.76-0.81-1.13-1.86-1.05-2.95c0.24-3.28,0.72-6.94,2.51-9.22c0.9-1.15,2.75-3.08,4.97-3.08c0,0,0.01,0,0.01,0l4.68,0.01
						c2.32,0,4.21,2.06,5.12,3.28c1.69,2.26,2.14,5.83,2.36,9.03c0.08,1.09-0.3,2.13-1.06,2.94
						C24.07,141.25,22.93,141.73,21.73,141.73z M10.45,139.55l11.28,0c0,0,0,0,0,0c0.59,0,1.15-0.24,1.53-0.65
						c0.34-0.36,0.51-0.83,0.48-1.3c-0.19-2.71-0.58-6.06-1.93-7.87c-1.12-1.5-2.39-2.4-3.37-2.41l-4.68-0.01c0,0,0,0,0,0
						c-0.93,0-2.15,0.84-3.25,2.25c-1.44,1.83-1.85,5.26-2.05,8.03c-0.03,0.48,0.13,0.94,0.47,1.31
						C9.3,139.32,9.86,139.55,10.45,139.55L10.45,139.55z"/>
				</g>
			</g>
		</g>
		<g>
			<g>
				<g>
					<ellipse class="st3" cx="15.97" cy="122.49" rx="4.7" ry="4.58"/>
				</g>
			</g>
			<g>
				<g>
					<path class="st2" d="M15.97,128.16c-3.19,0-5.79-2.54-5.79-5.67c0-3.12,2.6-5.67,5.79-5.67c3.19,0,5.79,2.54,5.79,5.67
						C21.75,125.62,19.16,128.16,15.97,128.16z M15.97,119.01c-1.99,0-3.61,1.56-3.61,3.48c0,1.92,1.62,3.48,3.61,3.48
						s3.61-1.56,3.61-3.48C19.57,120.57,17.95,119.01,15.97,119.01z"/>
				</g>
			</g>
		</g>
	</g>
	<g>
		<g>
			<g>
				<g>
					<path class="st4" d="M35.46,140.64c-1.8,0-3.22-1.44-3.1-3.13c0.24-3.4,0.75-6.68,2.28-8.63c0.98-1.25,2.52-2.67,4.12-2.66
						c1.31,0,2.87,0.01,4.68,0.01c1.68,0,3.25,1.51,4.25,2.84c1.45,1.94,1.92,5.14,2.14,8.45c0.12,1.69-1.3,3.12-3.1,3.12
						L35.46,140.64z"/>
				</g>
			</g>
			<g>
				<g>
					<path class="st2" d="M46.74,141.73C46.74,141.73,46.74,141.73,46.74,141.73l-11.28,0c0,0,0,0,0,0c-1.19,0-2.34-0.49-3.13-1.34
						c-0.76-0.81-1.13-1.86-1.05-2.95c0.24-3.28,0.72-6.94,2.51-9.22c0.9-1.15,2.75-3.08,4.97-3.08c0,0,0.01,0,0.01,0l4.68,0.01
						c2.32,0,4.21,2.06,5.12,3.28c1.69,2.26,2.14,5.83,2.36,9.03c0.08,1.09-0.3,2.13-1.06,2.94
						C49.07,141.25,47.93,141.73,46.74,141.73z M35.46,139.55l11.28,0c0,0,0,0,0,0c0.59,0,1.15-0.24,1.53-0.65
						c0.34-0.36,0.51-0.83,0.48-1.3c-0.19-2.71-0.58-6.06-1.93-7.87c-1.12-1.5-2.39-2.4-3.37-2.41l-4.68-0.01c0,0,0,0,0,0
						c-0.93,0-2.15,0.84-3.25,2.25c-1.44,1.83-1.85,5.26-2.05,8.03c-0.03,0.48,0.13,0.94,0.47,1.31
						C34.31,139.32,34.87,139.55,35.46,139.55L35.46,139.55z"/>
				</g>
			</g>
		</g>
		<g>
			<g>
				<g>
					<ellipse class="st3" cx="40.97" cy="122.49" rx="4.7" ry="4.58"/>
				</g>
			</g>
			<g>
				<g>
					<path class="st2" d="M40.97,128.16c-3.19,0-5.79-2.54-5.79-5.67c0-3.12,2.6-5.67,5.79-5.67c3.19,0,5.79,2.54,5.79,5.67
						C46.76,125.62,44.16,128.16,40.97,128.16z M40.97,119.01c-1.99,0-3.61,1.56-3.61,3.48c0,1.92,1.62,3.48,3.61,3.48
						s3.61-1.56,3.61-3.48C44.58,120.57,42.96,119.01,40.97,119.01z"/>
				</g>
			</g>
		</g>
	</g>
	<g>
		<g>
			<g>
				<g>
					<path class="st4" d="M60.47,140.64c-1.8,0-3.22-1.44-3.1-3.13c0.24-3.4,0.75-6.68,2.28-8.63c0.98-1.25,2.52-2.67,4.12-2.66
						c1.31,0,2.87,0.01,4.68,0.01c1.68,0,3.25,1.51,4.25,2.84c1.45,1.94,1.92,5.14,2.14,8.45c0.12,1.69-1.3,3.12-3.1,3.12
						L60.47,140.64z"/>
				</g>
			</g>
			<g>
				<g>
					<path class="st2" d="M71.75,141.73C71.75,141.73,71.75,141.73,71.75,141.73l-11.28,0c0,0,0,0,0,0c-1.19,0-2.34-0.49-3.13-1.34
						c-0.76-0.81-1.13-1.86-1.05-2.95c0.24-3.28,0.72-6.94,2.51-9.22c0.9-1.15,2.75-3.08,4.97-3.08c0,0,0.01,0,0.01,0l4.68,0.01
						c2.32,0,4.21,2.06,5.12,3.28c1.69,2.26,2.14,5.83,2.36,9.03c0.08,1.09-0.3,2.13-1.06,2.94
						C74.08,141.25,72.94,141.73,71.75,141.73z M60.47,139.55l11.28,0c0,0,0,0,0,0c0.59,0,1.15-0.24,1.53-0.65
						c0.34-0.36,0.51-0.83,0.48-1.3c-0.19-2.71-0.58-6.06-1.93-7.87c-1.12-1.5-2.39-2.4-3.37-2.41l-4.68-0.01c0,0,0,0,0,0
						c-0.93,0-2.15,0.84-3.25,2.25c-1.44,1.83-1.85,5.26-2.05,8.03c-0.03,0.48,0.13,0.94,0.47,1.31
						C59.32,139.32,59.87,139.55,60.47,139.55L60.47,139.55z"/>
				</g>
			</g>
		</g>
		<g>
			<g>
				<g>
					<ellipse class="st3" cx="65.98" cy="122.49" rx="4.7" ry="4.58"/>
				</g>
			</g>
			<g>
				<g>
					<path class="st2" d="M65.98,128.16c-3.19,0-5.79-2.54-5.79-5.67c0-3.12,2.6-5.67,5.79-5.67c3.19,0,5.79,2.54,5.79,5.67
						C71.77,125.62,69.17,128.16,65.98,128.16z M65.98,119.01c-1.99,0-3.61,1.56-3.61,3.48c0,1.92,1.62,3.48,3.61,3.48
						s3.61-1.56,3.61-3.48C69.59,120.57,67.97,119.01,65.98,119.01z"/>
				</g>
			</g>
		</g>
	</g>
	<g>
		<g>
			<g>
				<g>
					<path class="st4" d="M84.51,140.64c-1.8,0-3.22-1.44-3.1-3.13c0.24-3.4,0.75-6.68,2.28-8.63c0.98-1.25,2.52-2.67,4.12-2.66
						c1.31,0,2.87,0.01,4.68,0.01c1.68,0,3.25,1.51,4.25,2.84c1.45,1.94,1.92,5.14,2.14,8.45c0.12,1.69-1.3,3.12-3.1,3.12
						L84.51,140.64z"/>
				</g>
			</g>
			<g>
				<g>
					<path class="st2" d="M95.79,141.73C95.79,141.73,95.79,141.73,95.79,141.73l-11.28,0c0,0,0,0,0,0c-1.19,0-2.34-0.49-3.13-1.34
						c-0.76-0.81-1.13-1.86-1.05-2.95c0.24-3.28,0.72-6.94,2.51-9.22c0.9-1.15,2.75-3.08,4.97-3.08c0,0,0.01,0,0.01,0l4.68,0.01
						c2.32,0,4.21,2.06,5.12,3.28c1.69,2.26,2.14,5.83,2.36,9.03c0.07,1.09-0.3,2.13-1.06,2.94
						C98.12,141.25,96.98,141.73,95.79,141.73z M84.51,139.55l11.28,0c0,0,0,0,0,0c0.59,0,1.15-0.24,1.53-0.65
						c0.34-0.36,0.51-0.83,0.48-1.3c-0.19-2.71-0.58-6.06-1.93-7.87c-1.12-1.5-2.39-2.4-3.37-2.41l-4.68-0.01c0,0,0,0,0,0
						c-0.93,0-2.15,0.84-3.25,2.25c-1.44,1.83-1.85,5.26-2.05,8.03c-0.03,0.48,0.13,0.94,0.47,1.31
						C83.36,139.32,83.92,139.55,84.51,139.55L84.51,139.55z"/>
				</g>
			</g>
		</g>
		<g>
			<g>
				<g>
					<ellipse class="st3" cx="90.03" cy="122.49" rx="4.7" ry="4.58"/>
				</g>
			</g>
			<g>
				<g>
					<path class="st2" d="M90.03,128.16c-3.19,0-5.79-2.54-5.79-5.67c0-3.12,2.6-5.67,5.79-5.67c3.19,0,5.79,2.54,5.79,5.67
						C95.81,125.62,93.22,128.16,90.03,128.16z M90.03,119.01c-1.99,0-3.61,1.56-3.61,3.48c0,1.92,1.62,3.48,3.61,3.48
						s3.61-1.56,3.61-3.48C93.63,120.57,92.01,119.01,90.03,119.01z"/>
				</g>
			</g>
		</g>
	</g>
	<g>
		<g>
			<g>
				<g>
					<path class="st1" d="M70.13,97.36c-2.4,0-4.29-1.92-4.13-4.17c0.33-4.53,1-8.9,3.04-11.5c1.31-1.66,3.36-3.56,5.49-3.55
						c1.75,0,3.83,0.01,6.24,0.01c2.23,0,4.34,2.02,5.66,3.79c1.93,2.58,2.55,6.85,2.86,11.26c0.16,2.25-1.74,4.15-4.13,4.15
						L70.13,97.36z"/>
				</g>
			</g>
			<g>
				<g>
					<path class="st2" d="M85.17,98.45C85.17,98.45,85.17,98.45,85.17,98.45l-15.04,0l0,0c-1.49,0-2.92-0.61-3.91-1.68
						c-0.94-1.01-1.41-2.31-1.31-3.66c0.31-4.31,0.94-9.13,3.27-12.1c1.16-1.48,3.53-3.97,6.34-3.97c0,0,0.01,0,0.01,0l6.24,0.01
						c2.94,0,5.36,2.65,6.54,4.23c2.19,2.93,2.78,7.63,3.07,11.84c0.09,1.35-0.37,2.64-1.31,3.65
						C88.08,97.84,86.66,98.45,85.17,98.45z M70.13,96.27l15.04,0c0,0,0,0,0,0c0.89,0,1.73-0.36,2.31-0.98
						c0.52-0.56,0.78-1.27,0.73-2.01c-0.25-3.67-0.78-8.19-2.64-10.69c-1.57-2.1-3.36-3.35-4.79-3.35l-6.24-0.01
						c-1.33,0.02-3.09,1.17-4.63,3.13c-1.98,2.52-2.54,7.16-2.81,10.91c-0.05,0.74,0.21,1.46,0.73,2.02
						C68.4,95.91,69.24,96.27,70.13,96.27L70.13,96.27z"/>
				</g>
			</g>
		</g>
		<g>
			<g>
				<g>
					<ellipse class="st3" cx="77.48" cy="73.16" rx="6.26" ry="6.1"/>
				</g>
			</g>
			<g>
				<g>
					<path class="st2" d="M77.48,80.36c-4.05,0-7.35-3.23-7.35-7.19c0-3.97,3.3-7.19,7.35-7.19c4.05,0,7.35,3.23,7.35,7.19
						C84.83,77.13,81.53,80.36,77.48,80.36z M77.48,68.15c-2.85,0-5.17,2.25-5.17,5.01c0,2.76,2.32,5.01,5.17,5.01
						c2.85,0,5.17-2.25,5.17-5.01C82.65,70.4,80.33,68.15,77.48,68.15z"/>
				</g>
			</g>
		</g>
	</g>
	<g>
		<g>
			<g>
				<g>
					<path class="st1" d="M114.37,97.36c-2.4,0-4.29-1.92-4.13-4.17c0.33-4.53,1-8.9,3.04-11.5c1.31-1.66,3.36-3.56,5.49-3.55
						c1.75,0,3.83,0.01,6.24,0.01c2.23,0,4.34,2.02,5.66,3.79c1.93,2.58,2.55,6.85,2.86,11.26c0.16,2.25-1.74,4.15-4.13,4.15
						L114.37,97.36z"/>
				</g>
			</g>
			<g>
				<g>
					<path class="st2" d="M129.41,98.45C129.41,98.45,129.41,98.45,129.41,98.45l-15.04,0l0,0c-1.49,0-2.92-0.61-3.91-1.68
						c-0.94-1.01-1.41-2.31-1.31-3.66c0.31-4.31,0.94-9.13,3.27-12.1c1.16-1.48,3.53-3.97,6.34-3.97c0,0,0.01,0,0.01,0l6.24,0.01
						c2.94,0,5.36,2.65,6.54,4.23c2.19,2.93,2.78,7.63,3.07,11.84c0.09,1.35-0.37,2.64-1.31,3.65
						C132.32,97.84,130.9,98.45,129.41,98.45z M114.37,96.27l15.04,0c0,0,0,0,0,0c0.89,0,1.73-0.36,2.31-0.98
						c0.52-0.56,0.78-1.27,0.73-2.01c-0.25-3.67-0.78-8.19-2.64-10.69c-1.57-2.1-3.36-3.35-4.79-3.35l-6.24-0.01c0,0,0,0-0.01,0
						c-1.36,0-3.09,1.17-4.63,3.13c-1.98,2.52-2.54,7.15-2.81,10.91c-0.05,0.74,0.21,1.46,0.73,2.02
						C112.64,95.91,113.48,96.27,114.37,96.27L114.37,96.27z"/>
				</g>
			</g>
		</g>
		<g>
			<g>
				<g>
					<ellipse class="st3" cx="121.72" cy="73.16" rx="6.26" ry="6.1"/>
				</g>
			</g>
			<g>
				<g>
					<path class="st2" d="M121.72,80.36c-4.05,0-7.35-3.23-7.35-7.19c0-3.97,3.3-7.19,7.35-7.19c4.05,0,7.35,3.23,7.35,7.19
						C129.08,77.13,125.78,80.36,121.72,80.36z M121.72,68.15c-2.85,0-5.17,2.25-5.17,5.01c0,2.76,2.32,5.01,5.17,5.01
						c2.85,0,5.17-2.25,5.17-5.01C126.89,70.4,124.57,68.15,121.72,68.15z"/>
				</g>
			</g>
		</g>
	</g>
	<g>
		<g>
			<g>
				<line class="st2" x1="77.96" y1="54.22" x2="77.96" y2="58.92"/>
			</g>
		</g>
		<g>
			<g>
				<path class="st2" d="M77.96,60.01c-0.6,0-1.09-0.49-1.09-1.09v-4.7c0-0.6,0.49-1.09,1.09-1.09c0.6,0,1.09,0.49,1.09,1.09v4.7
					C79.05,59.52,78.56,60.01,77.96,60.01z"/>
			</g>
		</g>
	</g>
	<g>
		<g>
			<g>
				<path class="st2" d="M122.21,60.01c-0.6,0-1.09-0.49-1.09-1.09v-3.6H36.4v3.6c0,0.6-0.49,1.09-1.09,1.09
					c-0.6,0-1.09-0.49-1.09-1.09v-4.7c0-0.6,0.49-1.09,1.09-1.09h86.9c0.6,0,1.09,0.49,1.09,1.09v4.7
					C123.31,59.52,122.82,60.01,122.21,60.01z"/>
			</g>
		</g>
	</g>
	<g>
		<g>
			<g>
				<g>
					<path class="st4" d="M109.52,140.64c-1.8,0-3.22-1.44-3.1-3.13c0.24-3.4,0.75-6.68,2.28-8.63c0.98-1.25,2.52-2.67,4.12-2.66
						c1.31,0,2.87,0.01,4.68,0.01c1.68,0,3.25,1.51,4.25,2.84c1.45,1.94,1.92,5.14,2.14,8.45c0.12,1.69-1.3,3.12-3.1,3.12
						L109.52,140.64z"/>
				</g>
			</g>
			<g>
				<g>
					<path class="st2" d="M120.8,141.73C120.8,141.73,120.8,141.73,120.8,141.73l-11.28,0c0,0,0,0,0,0c-1.19,0-2.34-0.49-3.13-1.34
						c-0.76-0.81-1.13-1.86-1.05-2.95c0.23-3.28,0.72-6.94,2.51-9.22c0.9-1.15,2.75-3.08,4.97-3.08c0,0,0.01,0,0.01,0l4.68,0.01
						c2.32,0,4.21,2.06,5.12,3.28c1.69,2.26,2.14,5.83,2.36,9.03c0.08,1.09-0.3,2.13-1.06,2.94
						C123.13,141.25,121.99,141.73,120.8,141.73z M109.52,139.55l11.28,0c0,0,0,0,0,0c0.59,0,1.15-0.24,1.53-0.65
						c0.34-0.36,0.51-0.83,0.48-1.3c-0.19-2.71-0.58-6.06-1.93-7.87c-1.12-1.5-2.39-2.4-3.37-2.41l-4.68-0.01c0,0,0,0,0,0
						c-0.93,0-2.15,0.84-3.25,2.25c-1.44,1.83-1.85,5.26-2.05,8.03c-0.03,0.48,0.13,0.94,0.47,1.31
						C108.37,139.32,108.93,139.55,109.52,139.55L109.52,139.55z"/>
				</g>
			</g>
		</g>
		<g>
			<g>
				<g>
					<ellipse class="st3" cx="115.03" cy="122.49" rx="4.7" ry="4.58"/>
				</g>
			</g>
			<g>
				<g>
					<path class="st2" d="M115.03,128.16c-3.19,0-5.79-2.54-5.79-5.67c0-3.12,2.6-5.67,5.79-5.67c3.19,0,5.79,2.54,5.79,5.67
						C120.82,125.62,118.22,128.16,115.03,128.16z M115.03,119.01c-1.99,0-3.61,1.56-3.61,3.48c0,1.92,1.62,3.48,3.61,3.48
						s3.61-1.56,3.61-3.48C118.64,120.57,117.02,119.01,115.03,119.01z"/>
				</g>
			</g>
		</g>
	</g>
	<g>
		<g>
			<g>
				<g>
					<path class="st4" d="M134.52,140.64c-1.8,0-3.22-1.44-3.1-3.13c0.24-3.4,0.75-6.68,2.28-8.63c0.98-1.25,2.52-2.67,4.12-2.66
						c1.31,0,2.87,0.01,4.68,0.01c1.68,0,3.25,1.51,4.25,2.84c1.45,1.94,1.92,5.14,2.14,8.45c0.12,1.69-1.3,3.12-3.1,3.12
						L134.52,140.64z"/>
				</g>
			</g>
			<g>
				<g>
					<path class="st2" d="M145.81,141.73C145.81,141.73,145.81,141.73,145.81,141.73l-11.28,0c0,0,0,0,0,0
						c-1.19,0-2.34-0.49-3.13-1.34c-0.76-0.81-1.13-1.86-1.05-2.95c0.24-3.28,0.72-6.94,2.51-9.22c0.9-1.15,2.75-3.08,4.97-3.08
						c0,0,0.01,0,0.01,0l4.68,0.01c2.32,0,4.21,2.06,5.12,3.28c1.69,2.26,2.14,5.83,2.36,9.03c0.08,1.09-0.3,2.13-1.06,2.94
						C148.14,141.25,147,141.73,145.81,141.73z M134.53,139.55l11.28,0c0,0,0,0,0,0c0.59,0,1.15-0.24,1.53-0.65
						c0.34-0.36,0.51-0.83,0.48-1.3c-0.19-2.71-0.58-6.06-1.93-7.87c-1.12-1.5-2.39-2.4-3.37-2.41l-4.68-0.01c0,0,0,0,0,0
						c-0.93,0-2.15,0.84-3.25,2.25c-1.44,1.83-1.85,5.26-2.05,8.03c-0.03,0.48,0.13,0.94,0.47,1.31
						C133.38,139.32,133.93,139.55,134.53,139.55L134.53,139.55z"/>
				</g>
			</g>
		</g>
		<g>
			<g>
				<g>
					<ellipse class="st3" cx="140.04" cy="122.49" rx="4.7" ry="4.58"/>
				</g>
			</g>
			<g>
				<g>
					<path class="st2" d="M140.04,128.16c-3.19,0-5.79-2.54-5.79-5.67c0-3.12,2.6-5.67,5.79-5.67c3.19,0,5.79,2.54,5.79,5.67
						C145.83,125.62,143.23,128.16,140.04,128.16z M140.04,119.01c-1.99,0-3.61,1.56-3.61,3.48c0,1.92,1.62,3.48,3.61,3.48
						c1.99,0,3.61-1.56,3.61-3.48C143.65,120.57,142.03,119.01,140.04,119.01z"/>
				</g>
			</g>
		</g>
	</g>
	<g>
		<g>
			<g>
				<line class="st2" x1="16.17" y1="110.3" x2="16.17" y2="105.23"/>
			</g>
		</g>
		<g>
			<g>
				<path class="st2" d="M16.17,111.39c-0.6,0-1.09-0.49-1.09-1.09v-5.07c0-0.6,0.49-1.09,1.09-1.09c0.6,0,1.09,0.49,1.09,1.09v5.07
					C17.26,110.91,16.77,111.39,16.17,111.39z"/>
			</g>
		</g>
	</g>
	<g>
		<g>
			<g>
				<line class="st2" x1="40.97" y1="110.3" x2="40.97" y2="105.23"/>
			</g>
		</g>
		<g>
			<g>
				<path class="st2" d="M40.97,111.39c-0.6,0-1.09-0.49-1.09-1.09v-5.07c0-0.6,0.49-1.09,1.09-1.09c0.6,0,1.09,0.49,1.09,1.09v5.07
					C42.06,110.91,41.58,111.39,40.97,111.39z"/>
			</g>
		</g>
	</g>
	<g>
		<g>
			<g>
				<line class="st2" x1="65.78" y1="110.3" x2="65.78" y2="105.23"/>
			</g>
		</g>
		<g>
			<g>
				<path class="st2" d="M65.78,111.39c-0.6,0-1.09-0.49-1.09-1.09v-5.07c0-0.6,0.49-1.09,1.09-1.09c0.6,0,1.09,0.49,1.09,1.09v5.07
					C66.87,110.91,66.38,111.39,65.78,111.39z"/>
			</g>
		</g>
	</g>
	<g>
		<g>
			<g>
				<line class="st2" x1="90.58" y1="110.3" x2="90.58" y2="105.23"/>
			</g>
		</g>
		<g>
			<g>
				<path class="st2" d="M90.58,111.39c-0.6,0-1.09-0.49-1.09-1.09v-5.07c0-0.6,0.49-1.09,1.09-1.09c0.6,0,1.09,0.49,1.09,1.09v5.07
					C91.67,110.91,91.19,111.39,90.58,111.39z"/>
			</g>
		</g>
	</g>
	<g>
		<g>
			<g>
				<line class="st2" x1="115.39" y1="110.3" x2="115.39" y2="105.23"/>
			</g>
		</g>
		<g>
			<g>
				<path class="st2" d="M115.39,111.39c-0.6,0-1.09-0.49-1.09-1.09v-5.07c0-0.6,0.49-1.09,1.09-1.09c0.6,0,1.09,0.49,1.09,1.09
					v5.07C116.48,110.91,115.99,111.39,115.39,111.39z"/>
			</g>
		</g>
	</g>
	<g>
		<g>
			<g>
				<line class="st2" x1="140.19" y1="110.3" x2="140.19" y2="105.23"/>
			</g>
		</g>
		<g>
			<g>
				<path class="st2" d="M140.19,111.39c-0.6,0-1.09-0.49-1.09-1.09v-5.07c0-0.6,0.49-1.09,1.09-1.09c0.6,0,1.09,0.49,1.09,1.09
					v5.07C141.28,110.91,140.8,111.39,140.19,111.39z"/>
			</g>
		</g>
	</g>
	<g>
		<g>
			<g>
				<polyline class="st2" points="16.17,105.23 64.87,105.23 114.67,105.23 139.72,105.23 				"/>
			</g>
		</g>
		<g>
			<g>
				<path class="st2" d="M139.72,106.32H16.17c-0.6,0-1.09-0.49-1.09-1.09c0-0.6,0.49-1.09,1.09-1.09h123.55
					c0.6,0,1.09,0.49,1.09,1.09C140.81,105.83,140.32,106.32,139.72,106.32z"/>
			</g>
		</g>
	</g>
</g>
</svg>
