<?xml version="1.0" encoding="utf-8"?>
<!-- Generator: Adobe Illustrator 24.0.1, SVG Export Plug-In . SVG Version: 6.00 Build 0)  -->
<svg version="1.1" id="Layer_1" xmlns="http://www.w3.org/2000/svg" xmlns:xlink="http://www.w3.org/1999/xlink" x="0px" y="0px"
	 viewBox="0 0 150 150" style="enable-background:new 0 0 150 150;" xml:space="preserve">
<style type="text/css">
	.st0{fill:#EBF5FD;}
	.st1{fill:#77B0DF;}
	.st2{fill:#FFFFFF;}
	.st3{fill:#3F6D92;}
	.st4{fill:#FF95A9;}
</style>
<g>
	<path class="st0" d="M104.83,137.89C73.31,145.09,0,136.15,0,98.51C0,78.29,11.41,67,24.97,67c40.38,0,47.44,37.38,58.53,26.73
		c11.17-10.73,53.49-14.98,61.31-2.17C157.62,112.52,140.12,129.83,104.83,137.89z"/>
	<path class="st0" d="M64.2,32.49c-6.96,17.36-51.14,15.17-54.41,7.76c-3.31-7.49-0.97-17.91,19.25-27.06
		C47.72,4.72,72.33,12.19,64.2,32.49z"/>
	<g>
		<rect x="17.46" y="32.56" class="st1" width="116.32" height="88.5"/>
		
			<rect x="36.43" y="23.71" transform="matrix(-1.836970e-16 1 -1 -1.836970e-16 152.4368 1.195)" class="st2" width="78.39" height="106.2"/>
		<path class="st3" d="M25.37,37.62H22.2v-6.97c0-3.07,2.5-5.57,5.57-5.57c3.07,0,5.57,2.5,5.57,5.57v1.91h-3.17v-1.91
			c0-1.32-1.08-2.4-2.4-2.4c-1.32,0-2.4,1.08-2.4,2.4V37.62z"/>
		<path class="st3" d="M41.32,37.62h-3.17v-6.97c0-3.07,2.5-5.57,5.57-5.57c3.07,0,5.57,2.5,5.57,5.57v1.91h-3.17v-1.91
			c0-1.32-1.08-2.4-2.4-2.4c-1.32,0-2.4,1.08-2.4,2.4V37.62z"/>
		<path class="st3" d="M57.27,37.62H54.1v-6.97c0-3.07,2.5-5.57,5.57-5.57c3.07,0,5.57,2.5,5.57,5.57v1.91h-3.17v-1.91
			c0-1.32-1.08-2.4-2.4-2.4c-1.32,0-2.4,1.08-2.4,2.4V37.62z"/>
		<path class="st3" d="M73.22,37.62h-3.17v-6.97c0-3.07,2.5-5.57,5.57-5.57c3.07,0,5.57,2.5,5.57,5.57v1.91h-3.17v-1.91
			c0-1.32-1.08-2.4-2.4-2.4c-1.32,0-2.4,1.08-2.4,2.4V37.62z"/>
		<path class="st3" d="M89.17,37.62H86v-6.97c0-3.07,2.5-5.57,5.57-5.57c3.07,0,5.57,2.5,5.57,5.57v1.91h-3.17v-1.91
			c0-1.32-1.08-2.4-2.4-2.4s-2.4,1.08-2.4,2.4V37.62z"/>
		<path class="st3" d="M105.12,37.62h-3.17v-6.97c0-3.07,2.5-5.57,5.57-5.57c3.07,0,5.57,2.5,5.57,5.57v1.91h-3.17v-1.91
			c0-1.32-1.08-2.4-2.4-2.4c-1.32,0-2.4,1.08-2.4,2.4V37.62z"/>
		<path class="st3" d="M121.07,37.62h-3.17v-6.97c0-3.07,2.5-5.57,5.57-5.57s5.57,2.5,5.57,5.57v1.91h-3.17v-1.91
			c0-1.32-1.08-2.4-2.4-2.4c-1.32,0-2.4,1.08-2.4,2.4V37.62z"/>
		<polygon class="st0" points="128.72,40.15 25.05,56.31 25.05,40.15 		"/>
		<g>
			<rect x="72.37" y="59.66" class="st1" width="6.5" height="6.5"/>
			<rect x="85.37" y="59.66" class="st1" width="6.5" height="6.5"/>
			<rect x="98.38" y="59.66" class="st1" width="6.5" height="6.5"/>
			<rect x="111.38" y="59.66" class="st1" width="6.5" height="6.5"/>
			<rect x="33.36" y="72.66" class="st1" width="6.5" height="6.5"/>
			<rect x="46.36" y="72.66" class="st1" width="6.5" height="6.5"/>
			<rect x="59.37" y="72.66" class="st1" width="6.5" height="6.5"/>
			<rect x="72.37" y="72.66" class="st4" width="6.5" height="6.5"/>
			<rect x="85.37" y="72.66" class="st1" width="6.5" height="6.5"/>
			<rect x="98.38" y="72.66" class="st1" width="6.5" height="6.5"/>
			<rect x="111.38" y="72.66" class="st1" width="6.5" height="6.5"/>
			<rect x="33.36" y="85.67" class="st1" width="6.5" height="6.5"/>
			<rect x="46.36" y="85.67" class="st1" width="6.5" height="6.5"/>
			<rect x="59.37" y="85.67" class="st1" width="6.5" height="6.5"/>
			<rect x="72.37" y="85.67" class="st1" width="6.5" height="6.5"/>
			<rect x="85.37" y="85.67" class="st1" width="6.5" height="6.5"/>
			<rect x="98.38" y="85.67" class="st3" width="6.5" height="6.5"/>
			<rect x="111.38" y="85.67" class="st1" width="6.5" height="6.5"/>
			<rect x="33.36" y="98.67" class="st1" width="6.5" height="6.5"/>
			<rect x="46.36" y="98.67" class="st1" width="6.5" height="6.5"/>
			<rect x="59.37" y="98.67" class="st1" width="6.5" height="6.5"/>
			<rect x="72.37" y="98.67" class="st1" width="6.5" height="6.5"/>
			<rect x="85.37" y="98.67" class="st1" width="6.5" height="6.5"/>
		</g>
		<polygon class="st3" points="130.31,117.59 22.52,117.59 22.52,114.42 127.14,114.42 127.14,37.62 130.31,37.62 		"/>
		<rect x="15.88" y="32.56" class="st3" width="3.17" height="59.6"/>
		<rect x="15.88" y="95.01" class="st3" width="3.17" height="5.53"/>
	</g>
</g>
</svg>
