<?xml version="1.0" encoding="UTF-8" standalone="no"?>
<!-- Generator: Adobe Illustrator 24.0.1, SVG Export Plug-In . SVG Version: 6.00 Build 0)  -->

<svg
   xmlns:dc="http://purl.org/dc/elements/1.1/"
   xmlns:cc="http://creativecommons.org/ns#"
   xmlns:rdf="http://www.w3.org/1999/02/22-rdf-syntax-ns#"
   xmlns:svg="http://www.w3.org/2000/svg"
   xmlns="http://www.w3.org/2000/svg"
   xmlns:sodipodi="http://sodipodi.sourceforge.net/DTD/sodipodi-0.dtd"
   xmlns:inkscape="http://www.inkscape.org/namespaces/inkscape"
   version="1.1"
   id="Layer_1"
   x="0px"
   y="0px"
   viewBox="0 0 105.40991 92.192543"
   xml:space="preserve"
   sodipodi:docname="illustration6-process-icon2.svg"
   width="105.40991"
   height="92.192543"
   inkscape:version="0.92.3 (2405546, 2018-03-11)"><metadata
   id="metadata16"><rdf:RDF><cc:Work
       rdf:about=""><dc:format>image/svg+xml</dc:format><dc:type
         rdf:resource="http://purl.org/dc/dcmitype/StillImage" /><dc:title></dc:title></cc:Work></rdf:RDF></metadata><defs
   id="defs14" /><sodipodi:namedview
   pagecolor="#ffffff"
   bordercolor="#666666"
   borderopacity="1"
   objecttolerance="10"
   gridtolerance="10"
   guidetolerance="10"
   inkscape:pageopacity="0"
   inkscape:pageshadow="2"
   inkscape:window-width="640"
   inkscape:window-height="480"
   id="namedview12"
   showgrid="false"
   fit-margin-top="0"
   fit-margin-left="0"
   fit-margin-right="0"
   fit-margin-bottom="0"
   inkscape:zoom="2.1454545"
   inkscape:cx="52.869907"
   inkscape:cy="46.332544"
   inkscape:window-x="0"
   inkscape:window-y="25"
   inkscape:window-maximized="0"
   inkscape:current-layer="Layer_1" />
<style
   type="text/css"
   id="style2">
	.st0{fill:none;stroke:#76B0DF;stroke-width:4;stroke-miterlimit:10;}
</style>
<g
   id="XMLID_4810_"
   transform="translate(-2.1300933,-9.1400013)">
	<circle
   id="XMLID_4802_"
   class="st0"
   cx="75.620003"
   cy="41.060001"
   r="29.92"
   style="fill:none;stroke:#76b0df;stroke-width:4;stroke-miterlimit:10" />
	<polyline
   id="XMLID_4788_"
   class="st0"
   points="75.62,20.35 75.62,41.06 87.13,47.97  "
   style="fill:none;stroke:#76b0df;stroke-width:4;stroke-miterlimit:10" />
	<circle
   id="XMLID_4786_"
   class="st0"
   cx="31.889999"
   cy="59.470001"
   r="6.9099998"
   style="fill:none;stroke:#76b0df;stroke-width:4;stroke-miterlimit:10" />
	<path
   id="XMLID_4520_"
   class="st0"
   d="m 39.45,32.61 -3.56,6.56 C 33.64,38.72 31.3,38.65 28.95,38.98 l -3.21,-6.73 -7.5,2.88 2.12,7.15 c -1.97,1.32 -3.65,2.94 -5.03,4.78 l -7.04,-2.49 -3.27,7.34 6.56,3.56 c -0.45,2.25 -0.52,4.59 -0.19,6.94 l -6.73,3.21 2.88,7.5 7.15,-2.12 c 1.32,1.97 2.94,3.65 4.78,5.03 l -2.49,7.04 7.34,3.27 3.56,-6.56 c 2.25,0.45 4.59,0.52 6.94,0.19 l 3.21,6.73 7.5,-2.88 -2.12,-7.15 c 1.97,-1.32 3.65,-2.94 5.03,-4.78 l 7.04,2.49"
   inkscape:connector-curvature="0"
   style="fill:none;stroke:#76b0df;stroke-width:4;stroke-miterlimit:10" />
	<path
   id="XMLID_4519_"
   class="st0"
   d="m 81.93,75.71 c 0.11,2.42 -0.94,4.86 -3.03,6.42 -3.34,2.5 -8.07,1.81 -10.57,-1.53 -1.03,-1.38 -1.52,-3.01 -1.5,-4.61"
   inkscape:connector-curvature="0"
   style="fill:none;stroke:#76b0df;stroke-width:4;stroke-miterlimit:10" />
	<path
   id="XMLID_4517_"
   class="st0"
   d="m 58.6,82.05 -4.96,3.27 4.22,6.42 4.96,-3.27 c 1.34,1.27 2.88,2.34 4.61,3.13 l -1.2,5.82 7.52,1.55 1.2,-5.82 c 1.9,-0.05 3.74,-0.41 5.47,-1.05 l 3.27,4.96 6.42,-4.22 -3.27,-4.96 c 1.27,-1.34 2.34,-2.88 3.13,-4.61 l 5.82,1.2 1.55,-7.52 -5.82,-1.2"
   inkscape:connector-curvature="0"
   style="fill:none;stroke:#76b0df;stroke-width:4;stroke-miterlimit:10" />
</g>
</svg>