<?xml version="1.0" encoding="UTF-8" standalone="no"?>
<!-- Generator: Adobe Illustrator 24.0.1, SVG Export Plug-In . SVG Version: 6.00 Build 0)  -->

<svg
   xmlns:dc="http://purl.org/dc/elements/1.1/"
   xmlns:cc="http://creativecommons.org/ns#"
   xmlns:rdf="http://www.w3.org/1999/02/22-rdf-syntax-ns#"
   xmlns:svg="http://www.w3.org/2000/svg"
   xmlns="http://www.w3.org/2000/svg"
   xmlns:sodipodi="http://sodipodi.sourceforge.net/DTD/sodipodi-0.dtd"
   xmlns:inkscape="http://www.inkscape.org/namespaces/inkscape"
   version="1.1"
   x="0px"
   y="0px"
   viewBox="0 0 4543.3384 2602.5054"
   xml:space="preserve"
   id="svg443"
   sodipodi:docname="illustration-description.svg"
   width="4543.3384"
   height="2602.5054"
   inkscape:version="0.92.3 (2405546, 2018-03-11)"><metadata
   id="metadata449"><rdf:RDF><cc:Work
       rdf:about=""><dc:format>image/svg+xml</dc:format><dc:type
         rdf:resource="http://purl.org/dc/dcmitype/StillImage" /><dc:title></dc:title></cc:Work></rdf:RDF></metadata><defs
   id="defs447" /><sodipodi:namedview
   pagecolor="#ffffff"
   bordercolor="#666666"
   borderopacity="1"
   objecttolerance="10"
   gridtolerance="10"
   guidetolerance="10"
   inkscape:pageopacity="0"
   inkscape:pageshadow="2"
   inkscape:window-width="640"
   inkscape:window-height="480"
   id="namedview445"
   showgrid="false"
   fit-margin-top="0"
   fit-margin-left="0"
   fit-margin-right="0"
   fit-margin-bottom="0"
   inkscape:zoom="0.0566"
   inkscape:cx="2390.9283"
   inkscape:cy="1121.1853"
   inkscape:window-x="0"
   inkscape:window-y="25"
   inkscape:window-maximized="0"
   inkscape:current-layer="svg443" />
<style
   type="text/css"
   id="style2">
	.st0{fill-rule:evenodd;clip-rule:evenodd;fill:#EFEFFD;}
	.st1{filter:url(#Adobe_OpacityMaskFilter);}
	.st2{filter:url(#Adobe_OpacityMaskFilter_1_);}
	.st3{mask:url(#SVGID_1_);fill:url(#SVGID_2_);}
	.st4{fill:#BBBFEB;}
	.st5{fill:#F5F6F8;}
	.st6{fill:url(#SVGID_3_);}
	.st7{fill:url(#SVGID_4_);}
	.st8{opacity:0.16;fill:#2B0A71;}
	.st9{fill:url(#SVGID_5_);}
	.st10{fill:url(#SVGID_6_);}
	.st11{fill:url(#SVGID_7_);}
	.st12{fill:url(#SVGID_8_);}
	.st13{fill:url(#SVGID_9_);}
	.st14{fill:url(#SVGID_10_);}
	.st15{fill:url(#SVGID_11_);}
	.st16{fill:url(#SVGID_12_);}
	.st17{fill:url(#SVGID_13_);}
	.st18{fill:url(#SVGID_14_);}
	.st19{fill:#506D8E;}
	.st20{fill:url(#SVGID_15_);}
	.st21{fill:url(#SVGID_16_);}
	.st22{opacity:0.59;fill:url(#SVGID_17_);}
	.st23{opacity:0.35;}
	.st24{fill:#3B3C8F;}
	.st25{fill:#5B86C4;}
	.st26{fill:#3B67AE;}
	.st27{opacity:0.55;fill:#3B67AE;}
	.st28{fill:#FBCD9D;}
	.st29{fill:#711A8E;}
	.st30{fill:#551670;}
	.st31{fill:url(#SVGID_18_);}
	.st32{fill:url(#SVGID_19_);}
	.st33{fill:url(#SVGID_20_);}
	.st34{fill:url(#SVGID_21_);}
	.st35{filter:url(#Adobe_OpacityMaskFilter_2_);}
	.st36{filter:url(#Adobe_OpacityMaskFilter_3_);}
	.st37{mask:url(#SVGID_22_);fill:url(#SVGID_23_);}
	.st38{fill:url(#SVGID_24_);}
	.st39{opacity:0.2;fill:#5B86C4;}
	.st40{opacity:0.3;fill:#3B67AE;}
</style>
<g
   id="background"
   transform="translate(-109.07174,-81.18)">
	<path
   id="XMLID_857_"
   class="st0"
   d="m 1548.44,217.06 -2.08,-13.89 -0.56,-0.95 c -0.66,-1.96 -1.71,-2.57 -3.15,-1.85 l -1.57,0.16 c -0.76,-2.43 -2.18,-2.74 -4.27,-0.93 l -129.22,111.2 -18.4,-19.58 c -4.06,-4.26 -6.19,-9.15 -6.39,-14.67 -0.35,-5.77 1.3,-10.77 4.96,-14.98 20.28,-26.88 43.5,-55 69.67,-84.35 3.65,-4.21 8.07,-6.57 13.23,-7.08 5.45,-1.18 10.55,-0.36 15.3,2.46 l 47.38,25.47 36.43,-18.52 6.81,-42.99 c 0.78,-5.59 3.23,-10.11 7.33,-13.57 3.75,-3.76 8.39,-5.74 13.91,-5.94 l 100.44,-5.21 c 5.52,-0.2 10.17,1.15 13.93,4.04 4.52,2.44 7.57,6.28 9.13,11.5 l 20.8,55.83 37.15,9.5 35.67,-24.99 c 4.7,-3.3 9.81,-4.62 15.33,-3.96 5.75,0.18 10.54,2.21 14.37,6.09 7.32,7.45 18.5,18.24 33.55,32.39 14.07,12.5 29.31,26.96 45.71,43.38 3.83,3.88 6,8.4 6.5,13.57 0.57,5.29 -0.55,10.32 -3.37,15.07 -4.05,7.01 -7.76,13.57 -11.15,19.67 l -0.23,0.91 c -4.2,7.62 -8.02,15.01 -11.46,22.17 l 11.22,24.1 c 13.2,5.84 26.85,12.01 40.95,18.52 2.04,0.84 3.81,2.1 5.32,3.77 l 9.29,8.33 c 3.77,2.89 6.09,6.81 6.97,11.76 3.09,10.98 6.18,25.55 9.25,43.71 1.69,9.76 3.92,24.76 6.68,44.99 0.58,5.3 -0.55,10.32 -3.36,15.06 -2.67,4.15 -6.39,7.38 -11.17,9.7 l -57.88,21.24 -11.21,31.24 c 11.15,21.41 18.98,34.62 23.49,39.63 4.06,4.25 6.3,9.33 6.73,15.23 0.58,5.29 -1.04,10.35 -4.84,15.17 -11.51,16.04 -34.87,42.62 -70.1,79.74 -3.5,3.61 -8.02,5.78 -13.57,6.51 -5.68,0.8 -10.89,-0.21 -15.64,-3.03 l -40.44,-27.15 -13.32,-22.47 -38.22,-64.47 c 3.01,-1.62 6.02,-3.31 9.02,-5.09 24.53,-14.54 43.88,-33.19 58.06,-55.95 1.07,-1.66 1.34,-3.36 0.82,-5.1 -0.14,-1.97 -0.93,-3.29 -2.36,-3.98 -1.65,-1.07 -3.36,-1.34 -5.1,-0.83 -1.97,0.14 -3.48,1.04 -4.55,2.7 -12.74,20.88 -30.61,38.14 -53.62,51.77 -3,1.78 -6.03,3.45 -9.08,5 l -38.33,-64.66 c 10.23,-4.1 19.44,-10.46 27.64,-19.08 14.55,-15.8 21.73,-33.81 21.53,-54.02 l 0.23,-0.9 c 0.35,-8.92 -0.25,-17.28 -1.79,-25.07 l 0.1,1.48 c -4.36,-19.46 -17.39,-36.25 -39.09,-50.38 l 0.34,0.57 c -27.95,-18.62 -54.61,-20.93 -79.96,-6.93 -0.76,0.45 -1.71,1.01 -2.84,1.69 -11.74,4.4 -21.39,12.34 -28.93,23.82 -0.38,0.22 -0.65,0.64 -0.8,1.24 -5.94,7.99 -10.29,16.93 -13.06,26.83 -3.55,0.19 -6.81,0.46 -9.78,0.8 -4.45,-5.76 -9.33,-10.39 -14.63,-13.87 -1.93,-1.25 -3.89,-2.39 -5.88,-3.43 -1.34,-0.44 -2.74,-0.85 -4.19,-1.23 -4.41,-3.9 -9.24,-7.01 -14.51,-9.34 l 31.98,-27.54 c 2.48,-2.16 3.45,-5.12 2.93,-8.91 l -5.43,-35.09 c 6.53,-5.32 13.61,-10.25 21.23,-14.76 14.79,-8.77 30.3,-14.89 46.52,-18.35 1.75,-0.52 2.96,-1.5 3.65,-2.93 1.07,-1.66 1.34,-3.36 0.82,-5.1 -0.14,-1.97 -0.93,-3.29 -2.36,-3.98 -1.66,-1.07 -3.36,-1.34 -5.1,-0.82 -17.34,3.62 -34.1,10.22 -50.28,19.81 -5.9,3.5 -11.52,7.22 -16.84,11.14 L 1550.42,231 c 54.55,-30.94 112.01,-38.69 172.38,-23.26 62.62,16.01 110.35,51.27 143.18,105.78 0.9,1.52 2.25,2.51 4.06,2.97 1.81,0.46 3.48,0.25 5,-0.65 1.52,-0.9 2.51,-2.26 2.97,-4.07 0.46,-1.81 0.25,-3.48 -0.65,-4.99 -34.62,-57.55 -85.06,-94.79 -151.31,-111.72 -62.25,-15.92 -121.46,-8.59 -177.61,22 z m 227.73,-21.74 c 1.52,-0.9 3.33,-1.29 5.45,-1.18 l 0.57,-0.34 -2.94,-1.07 z m 821.14,174.36 c -0.98,-0.79 -1.52,-1.84 -1.61,-3.15 -0.02,-1.19 0.36,-2.27 1.15,-3.25 0.66,-0.9 1.64,-1.4 2.95,-1.49 8.85,-0.64 17.78,-1.14 26.78,-1.52 1.11,-0.15 2.09,0.21 2.94,1.07 0.85,0.86 1.39,1.91 1.61,3.15 0.02,1.18 -0.41,2.2 -1.27,3.06 -0.86,0.85 -1.85,1.35 -2.96,1.5 -8.8,0.43 -17.62,0.97 -26.47,1.6 -1.17,0.01 -2.21,-0.31 -3.12,-0.97 z m -62.99,2.24 c -0.22,-1.24 0.1,-2.28 0.96,-3.13 0.79,-0.98 1.8,-1.58 3.03,-1.8 8.82,-0.96 17.63,-1.82 26.4,-2.58 1.18,-0.02 2.26,0.36 3.24,1.15 0.9,0.66 1.4,1.64 1.5,2.95 0.02,1.18 -0.31,2.23 -0.96,3.14 -0.79,0.98 -1.77,1.48 -2.96,1.49 -8.9,0.84 -17.7,1.69 -26.4,2.58 -1.24,0.22 -2.28,-0.1 -3.13,-0.96 -0.98,-0.78 -1.54,-1.73 -1.68,-2.84 z m -92.4,7.11 c 1.03,-0.27 2.11,-0.05 3.21,0.66 0.98,0.79 1.58,1.8 1.8,3.03 0.15,1.11 -0.14,2.22 -0.85,3.32 -0.79,0.98 -1.73,1.54 -2.84,1.69 -8.67,1.21 -17.34,2.59 -26,4.13 -1.24,0.22 -2.34,-0.06 -3.32,-0.85 -1.11,-0.71 -1.67,-1.66 -1.69,-2.84 -0.35,-1.16 -0.13,-2.23 0.66,-3.21 0.71,-1.1 1.72,-1.7 3.03,-1.8 8.73,-1.41 17.4,-2.79 26,-4.13 z m 32.08,-3.39 c 0.59,-1.03 1.53,-1.59 2.84,-1.69 8.75,-1.09 17.5,-2.17 26.25,-3.26 1.23,-0.22 2.35,0.06 3.32,0.85 0.9,0.66 1.46,1.61 1.69,2.84 0.09,1.31 -0.19,2.42 -0.85,3.32 -0.79,0.98 -1.8,1.58 -3.03,1.8 -8.76,1.09 -17.5,2.18 -26.25,3.26 -1.31,0.09 -2.36,-0.22 -3.14,-0.96 -1.11,-0.71 -1.71,-1.72 -1.8,-3.04 -0.22,-1.22 0.11,-2.26 0.97,-3.12 z m -122.54,23.7 c -0.22,-1.24 0.02,-2.4 0.73,-3.51 0.59,-1.03 1.5,-1.66 2.73,-1.87 8.71,-1.75 17.43,-3.33 26.15,-4.74 1.16,-0.35 2.23,-0.13 3.21,0.66 0.9,0.66 1.53,1.57 1.87,2.73 0.22,1.23 -0.06,2.34 -0.85,3.32 -0.66,0.91 -1.57,1.53 -2.73,1.88 -8.65,1.54 -17.27,3.15 -25.84,4.82 -1.24,0.22 -2.37,0.04 -3.4,-0.55 -1.1,-0.72 -1.72,-1.63 -1.87,-2.74 z m -26.47,8.52 c -0.71,1.11 -1.62,1.73 -2.73,1.87 -8.63,1.87 -17.23,3.8 -25.78,5.8 -1.23,0.22 -2.3,0 -3.21,-0.66 -1.03,-0.58 -1.72,-1.45 -2.07,-2.62 -0.22,-1.24 0,-2.31 0.66,-3.21 0.58,-1.03 1.46,-1.72 2.62,-2.07 8.55,-2 17.21,-3.96 25.97,-5.91 1.11,-0.14 2.18,0.08 3.21,0.66 1.11,0.71 1.77,1.68 1.99,2.92 0.15,1.12 -0.07,2.19 -0.66,3.22 z m -246.74,-94.61 c 1.61,-0.44 3.21,-0.2 4.79,0.74 l 15.42,8.29 11.82,-5.99 1.97,-13.98 c 0.34,-1.74 1.19,-3.18 2.55,-4.33 1.17,-1.21 2.67,-1.84 4.51,-1.9 l 32.48,-1.83 c 1.72,0.01 3.2,0.49 4.46,1.46 1.43,0.69 2.41,1.9 2.92,3.65 l 6.64,18.1 12.08,3.09 11.58,-8.14 c 1.44,-1.03 3.09,-1.41 4.95,-1.14 1.85,-0.07 3.4,0.55 4.68,1.84 2.28,2.41 5.89,5.9 10.83,10.49 4.57,3.96 9.48,8.65 14.74,14.07 1.2,1.17 1.9,2.63 2.09,4.4 0.2,1.76 -0.15,3.34 -1.04,4.72 -1.35,2.34 -2.54,4.49 -3.59,6.48 l -0.08,0.3 c -1.48,2.41 -2.72,4.78 -3.74,7.09 l 3.63,7.85 c 4.22,1.94 8.65,3.93 13.28,5.97 0.68,0.28 1.27,0.7 1.77,1.25 l 2.86,2.66 c 1.25,0.97 2,2.23 2.25,3.79 1.04,3.48 2.04,8.19 2.99,14.12 0.49,3.13 1.23,7.98 2.23,14.57 0.19,1.77 -0.22,3.38 -1.24,4.83 -0.76,1.3 -1.94,2.35 -3.53,3.12 l -7.46,2.76 c 8.43,-2.12 16.8,-4.22 25.1,-6.3 1.04,-0.27 2.17,-0.09 3.4,0.55 0.9,0.66 1.53,1.57 1.88,2.73 0.27,1.04 0.15,2.13 -0.36,3.29 -0.79,0.98 -1.7,1.6 -2.73,1.88 -8.6,2.19 -17.15,4.36 -25.63,6.48 -1.16,0.35 -2.25,0.22 -3.29,-0.36 -1.11,-0.71 -1.79,-1.58 -2.06,-2.62 -0.35,-1.16 -0.16,-2.29 0.55,-3.4 0.41,-0.73 0.99,-1.28 1.71,-1.65 l -9.77,3.61 -3.53,10.04 c 3.59,6.92 6.14,11.22 7.64,12.89 1.15,1.37 1.86,2.99 2.13,4.89 0.12,1.64 -0.46,3.26 -1.73,4.87 -3.58,5.2 -11.14,13.78 -22.67,25.74 -1.04,1.13 -2.47,1.89 -4.28,2.28 -1.77,0.19 -3.44,-0.18 -5.02,-1.12 l -14.84,-9.91 -9.74,4.75 -4.48,17.52 c -0.49,1.49 -1.35,2.77 -2.59,3.85 -1.31,0.95 -2.76,1.55 -4.32,1.79 l -32.48,0.54 c -1.59,-0.08 -3.07,-0.57 -4.45,-1.46 -1.46,-1.01 -2.41,-2.33 -2.85,-3.95 l -5.65,-18.18 -9.47,-3.87 c -1.57,1.1 -3.44,2.55 -5.62,4.36 -0.12,0.07 -0.25,0.15 -0.38,0.22 -2.25,1.68 -4.95,3.62 -8.08,5.82 -1.44,1.03 -3,1.43 -4.65,1.22 -1.79,-0.13 -3.35,-0.75 -4.68,-1.84 -2.72,-2.61 -5.23,-5.05 -7.54,-7.32 -5.02,1.64 -10.03,3.34 -15.05,5.08 -1.16,0.35 -2.26,0.23 -3.28,-0.36 -1.16,-0.51 -1.91,-1.34 -2.26,-2.5 -0.47,-1.09 -0.42,-2.14 0.17,-3.17 0.51,-1.16 1.35,-1.91 2.51,-2.26 3.6,-1.32 7.23,-2.62 10.89,-3.9 -4.38,-4.41 -7.74,-7.97 -10.06,-10.69 -0.88,-1.19 -1.4,-2.5 -1.56,-3.94 -0.17,-1.44 0.1,-2.71 0.81,-3.81 l 7.31,-16.63 -2.53,-7.72 -16.4,-1.3 c -1.86,-0.26 -3.4,-0.98 -4.6,-2.14 -1.28,-1.29 -2.05,-2.88 -2.32,-4.78 -1.39,-13.87 -2.23,-26.53 -2.52,-37.97 -0.02,-2.04 0.59,-3.77 1.8,-5.17 1.27,-1.61 2.89,-2.48 4.85,-2.62 l 14.91,-1.66 3.95,-11.05 -9.32,-10.11 c -1.28,-1.29 -2.02,-2.82 -2.2,-4.59 -0.07,-1.84 0.51,-3.46 1.72,-4.87 6.5,-8.63 14.02,-17.71 22.56,-27.21 1.07,-1.35 2.49,-2.11 4.26,-2.3 z m 35.41,81.76 c -0.95,7.91 1.72,15.3 8.01,22.16 l -0.22,-0.38 c 4.89,4.79 9.84,7.66 14.85,8.63 2.4,0.29 4.84,0.38 7.33,0.26 l 0.19,-0.11 c 6.83,-0.29 12.54,-2.91 17.13,-7.85 4.77,-5.22 7.12,-11.05 7.05,-17.51 l 0.07,-0.3 c -0.01,-2.9 -0.23,-5.59 -0.68,-8.06 l 0.04,0.49 c -1.37,-6.36 -5.56,-11.83 -12.54,-16.4 l 0.11,0.19 c -9.07,-6.07 -17.72,-6.84 -25.96,-2.29 -0.25,0.15 -0.57,0.34 -0.95,0.56 -3.71,1.52 -6.79,4.11 -9.22,7.78 -0.13,0.08 -0.22,0.21 -0.27,0.41 -2.64,3.63 -4.29,7.77 -4.94,12.42 z m 64.24,-74.47 -1.02,0.86 c 0.51,-0.3 1.12,-0.41 1.85,-0.33 l 0.19,-0.11 z m -264.78,99.31 c -0.14,-1.96 -1.04,-3.48 -2.7,-4.55 -1.28,-1.29 -2.9,-1.87 -4.87,-1.73 -1.59,-0.08 -2.92,0.7 -3.98,2.36 -1.29,1.27 -1.86,2.9 -1.73,4.87 1.39,23.09 -1.27,47.14 -7.98,72.13 -11.46,46.08 -33.54,84.2 -66.23,114.35 -1.29,1.28 -2.06,3.01 -2.3,5.21 -0.08,1.59 0.51,3.03 1.79,4.32 1.28,1.29 2.82,2.17 4.64,2.63 1.97,-0.14 3.59,-0.85 4.89,-2.13 20.68,-19.32 37.32,-41.53 49.94,-66.63 -0.42,-0.08 -0.85,-0.22 -1.27,-0.4 -1.08,-0.38 -1.86,-1.12 -2.33,-2.2 -0.55,-1.21 -0.57,-2.4 -0.05,-3.56 0.38,-1.08 1.18,-1.9 2.39,-2.45 2.2,-0.93 4.39,-1.84 6.57,-2.74 5.99,-13.61 10.88,-28 14.65,-43.15 7.02,-26.21 9.88,-51.65 8.57,-76.33 z m 52.45,89.34 c 1.09,-0.47 2.21,-0.45 3.37,0.06 0.95,0.46 1.71,1.29 2.26,2.51 0.35,1.16 0.33,2.28 -0.05,3.36 -0.59,1.03 -1.42,1.78 -2.51,2.26 -8.21,3.16 -16.44,6.42 -24.7,9.77 -1.08,0.47 -2.21,0.46 -3.37,-0.05 -1.15,-0.51 -1.97,-1.31 -2.44,-2.4 -0.47,-1.09 -0.46,-2.21 0.05,-3.36 0.51,-1.16 1.31,-1.97 2.39,-2.45 8.26,-3.36 16.59,-6.59 25,-9.7 z m 57.84,-21.73 c 1.08,-0.47 2.21,-0.45 3.37,0.06 0.96,0.46 1.71,1.29 2.26,2.51 0.34,1.16 0.33,2.28 -0.06,3.36 -0.59,1.03 -1.42,1.78 -2.51,2.26 -8.28,3.03 -16.56,6.06 -24.85,9.09 -1.29,0.42 -2.41,0.4 -3.36,-0.06 -1.16,-0.51 -1.91,-1.35 -2.25,-2.51 -0.55,-1.21 -0.53,-2.34 0.06,-3.37 0.38,-1.08 1.22,-1.83 2.51,-2.25 8.27,-3.03 16.56,-6.06 24.83,-9.09 z m 628.21,-121.27 266.1,-42.18 -277.64,6.73 88.08,-48.11 282.78,27.89 -471.54,158.58 53.77,-93.88 z m -911.66,-85.85 c -1.66,-1.07 -3.36,-1.34 -5.1,-0.82 -1.74,0.52 -3.03,1.8 -3.87,3.84 -0.69,1.43 -0.77,3.02 -0.26,4.76 0.52,1.74 1.8,3.03 3.83,3.88 28.13,12.88 50.71,33.66 67.72,62.36 18.81,31.73 25.7,64.97 20.68,99.73 -0.46,1.81 -0.05,3.36 1.22,4.66 1.28,1.29 2.82,2.17 4.64,2.63 1.81,0.46 3.36,0.06 4.66,-1.22 1.29,-1.28 2.17,-2.82 2.63,-4.64 5.06,-37.85 -2.48,-73.78 -22.64,-107.79 -18.36,-30.98 -42.87,-53.44 -73.51,-67.39 z"
   inkscape:connector-curvature="0"
   style="clip-rule:evenodd;fill:#efeffd;fill-rule:evenodd" />
	<g
   id="g278">
		<g
   id="g43">
			<defs
   id="defs10">
				<filter
   id="Adobe_OpacityMaskFilter"
   filterUnits="userSpaceOnUse"
   x="109.08"
   y="1008.08"
   width="1139.28"
   height="561.65997">
					<feFlood
   result="back"
   id="feFlood5" />
					<feBlend
   in="SourceGraphic"
   in2="back"
   mode="normal"
   id="feBlend7" />
				</filter>
			</defs>
			<mask
   maskUnits="userSpaceOnUse"
   x="109.08"
   y="1008.08"
   width="1139.28"
   height="561.66"
   id="mask37">
				<g
   class="st1"
   id="g35"
   style="filter:url(#Adobe_OpacityMaskFilter)">
					<defs
   id="defs17">

							<filter
   id="Adobe_OpacityMaskFilter_1_"
   filterUnits="userSpaceOnUse"
   x="109.08"
   y="1008.08"
   width="1139.28"
   height="561.65997">
							<feFlood
   result="back"
   id="feFlood12" />
							<feBlend
   in="SourceGraphic"
   in2="back"
   mode="normal"
   id="feBlend14" />
						</filter>
					</defs>
					<mask
   maskUnits="userSpaceOnUse"
   x="109.08"
   y="1008.08"
   width="1139.28"
   height="561.66"
   id="SVGID_1_">
						<g
   class="st2"
   id="g19"
   style="filter:url(#Adobe_OpacityMaskFilter_1_)">
						</g>
					</mask>

						<linearGradient
   id="SVGID_2_"
   gradientUnits="userSpaceOnUse"
   x1="4819.186"
   y1="4059.7019"
   x2="4819.186"
   y2="5220.0991"
   gradientTransform="matrix(-0.1801,-0.9837,0.9837,-0.1801,-3018.657,6845.5674)">
						<stop
   offset="0"
   style="stop-color:#FFFFFF"
   id="stop22" />
						<stop
   offset="0.2793"
   style="stop-color:#FBFBFB"
   id="stop24" />
						<stop
   offset="0.5574"
   style="stop-color:#EFEFEF"
   id="stop26" />
						<stop
   offset="0.8342"
   style="stop-color:#DBDBDB"
   id="stop28" />
						<stop
   offset="0.9946"
   style="stop-color:#CCCCCC"
   id="stop30" />
					</linearGradient>
					<path
   class="st3"
   d="m 1225.01,1204.75 c -0.1,0.16 -0.19,0.32 -0.28,0.49 -4.86,9.64 -153.39,301.29 -322.06,256.18 -171.5,-45.86 22.46,-158.63 -53.11,-196.3 -75.57,-37.67 -92.54,291.64 -253.4,303.92 -160.86,12.28 15.87,-143.23 -6.48,-194.95 C 567.33,1322.37 351.6,1598 234.81,1546.4 118.02,1494.8 1.43,1280 286.96,1244.9 c 285.53,-35.1 394.77,22.18 381.84,-48.44 -12.93,-70.62 -158.27,3.21 -212.8,-107.02 -54.53,-110.23 251.07,-106.07 386.05,-1.98 134.98,104.09 98.18,-26.56 161.26,-33.82 56.49,-6.5 210.35,86.27 241.87,105.71 3.15,1.94 4.12,6.06 2.18,9.21 z"
   mask="url(#SVGID_1_)"
   id="path33"
   inkscape:connector-curvature="0"
   style="fill:url(#SVGID_2_)" />
				</g>
			</mask>
			<path
   class="st4"
   d="m 1225.01,1204.75 c -0.1,0.16 -0.19,0.32 -0.28,0.49 -4.86,9.64 -153.39,301.29 -322.06,256.18 -171.5,-45.86 22.46,-158.63 -53.11,-196.3 -75.57,-37.67 -92.54,291.64 -253.4,303.92 -160.86,12.28 15.87,-143.23 -6.48,-194.95 C 567.33,1322.37 351.6,1598 234.81,1546.4 118.02,1494.8 1.43,1280 286.96,1244.9 c 285.53,-35.1 394.77,22.18 381.84,-48.44 -12.93,-70.62 -158.27,3.21 -212.8,-107.02 -54.53,-110.23 251.07,-106.07 386.05,-1.98 134.98,104.09 98.18,-26.56 161.26,-33.82 56.49,-6.5 210.35,86.27 241.87,105.71 3.15,1.94 4.12,6.06 2.18,9.21 z"
   id="path39"
   inkscape:connector-curvature="0"
   style="fill:#bbbfeb" />
			<path
   class="st5"
   d="m 892.1,1227.22 -246.84,-147.9 c -3.66,-2.19 -8.4,-1 -10.59,2.65 -2.19,3.65 -1,8.4 2.65,10.59 L 857.7,1224.6 c 5.25,3.15 3.87,11.11 -2.14,12.3 l -520.39,103.18 c -4.18,0.83 -6.9,4.89 -6.07,9.07 0.84,4.2 4.89,6.9 9.07,6.07 l 370.95,-73.55 c 5.43,-1.08 9.74,4.52 7.31,9.5 -18.59,38.1 -61.56,119.39 -90.61,173.42 -2.02,3.75 -0.61,8.44 3.14,10.45 3.75,2.02 8.44,0.61 10.45,-3.14 0.26,-0.48 26.1,-48.56 51.28,-96.6 31.45,-60 43.84,-84.9 48.12,-96.28 0.82,-2.17 2.69,-3.77 4.97,-4.23 l 312.59,-61.98 c 6.35,-1.26 10.61,6.34 6.22,11.1 l -135.55,147.1 c -2.89,3.13 -2.69,8.02 0.44,10.91 3.14,2.89 8.02,2.69 10.91,-0.44 l 162.06,-175.88 c 0.01,-0.01 0.01,-0.01 0.02,-0.02 1.03,-1.13 2.33,-1.97 3.83,-2.27 l 13.09,-2.6 c 1.2,-0.24 2.41,-0.08 3.58,0.27 2.73,0.83 5.8,0.11 7.87,-2.11 0.15,-0.16 0.28,-0.34 0.42,-0.51 l 189.28,-37.53 c 4.18,-0.83 6.9,-4.89 6.07,-9.07 -0.05,-0.25 -0.11,-0.49 -0.18,-0.73 -1.13,-3.76 -4.96,-6.12 -8.89,-5.34 l -188.31,37.34 c -2.11,0.42 -4.29,-0.2 -5.86,-1.67 l -87.42,-81.41 c -3.12,-2.91 -8,-2.73 -10.91,0.39 -2.91,3.12 -2.73,8.01 0.39,10.91 l 72.19,67.23 c 3.99,3.72 2.09,10.4 -3.26,11.46 l -194.74,38.61 c -1.74,0.35 -3.58,0.02 -5.02,-1.01 -0.15,-0.1 -0.32,-0.21 -0.5,-0.32 z"
   id="path41"
   inkscape:connector-curvature="0"
   style="fill:#f5f6f8" />
		</g>
		<g
   id="g56">

				<linearGradient
   id="SVGID_3_"
   gradientUnits="userSpaceOnUse"
   x1="4656.1797"
   y1="3924.5332"
   x2="4656.1797"
   y2="5211.2827"
   gradientTransform="matrix(-0.5411,-0.841,0.841,-0.5411,-523.7416,8113.9282)">
				<stop
   offset="2.663895e-07"
   style="stop-color:#BBBFEB"
   id="stop45" />
				<stop
   offset="0.4731"
   style="stop-color:#CCCFF5"
   id="stop47" />
				<stop
   offset="1"
   style="stop-color:#DADDFD"
   id="stop49" />
			</linearGradient>
			<path
   class="st6"
   d="m 1332.34,1429.09 c -0.03,0.21 -0.06,0.41 -0.08,0.62 -0.91,11.94 -30.05,373.69 -222.04,398.67 -195.21,25.4 -43.95,-172.13 -137.35,-178.85 -93.39,-6.71 28.27,338.1 -131.47,418.62 -159.74,80.52 -44.21,-153.56 -88.96,-197.15 -44.76,-43.6 -149.56,330.12 -291.09,326.52 -141.54,-3.6 -351.8,-174.59 -73.86,-331.15 277.94,-156.56 414.13,-143.96 371.05,-210.91 -43.08,-66.95 -160.92,70.13 -263.38,-19.87 -102.46,-90 212.63,-214.78 394.99,-165.05 182.35,49.73 89.45,-68.69 151.06,-102.77 55.18,-30.51 252.11,-0.38 292.63,6.25 4.05,0.66 6.79,4.48 6.13,8.52 z"
   id="path52"
   inkscape:connector-curvature="0"
   style="fill:url(#SVGID_3_)" />
			<path
   class="st5"
   d="M 1000.5,1592.71 684.96,1545.3 c -4.67,-0.7 -9.03,2.52 -9.74,7.19 -0.7,4.67 2.52,9.03 7.19,9.74 l 281.71,42.32 c 6.71,1.01 8.66,9.76 3,13.51 l -490,325.54 c -3.94,2.62 -5.01,7.93 -2.39,11.87 2.63,3.95 7.93,5.01 11.87,2.39 l 349.29,-232.05 c 5.11,-3.4 11.9,0.53 11.51,6.65 -2.97,46.92 -12.7,148.41 -19.68,216.07 -0.49,4.7 2.94,8.91 7.64,9.39 4.7,0.49 8.91,-2.93 9.39,-7.64 0.06,-0.6 6.26,-60.81 11.79,-120.7 6.91,-74.8 9.1,-105.56 8.69,-119.04 -0.08,-2.58 1.16,-5 3.31,-6.43 l 294.33,-195.54 c 5.98,-3.97 13.55,2.02 11.06,8.75 l -76.86,208.06 c -1.64,4.43 0.63,9.35 5.06,10.99 4.44,1.64 9.36,-0.63 10.99,-5.06 l 91.9,-248.76 c 0,-0.01 0.01,-0.02 0.01,-0.02 0.58,-1.59 1.56,-3.01 2.97,-3.94 l 12.33,-8.19 c 1.13,-0.75 2.44,-1.1 3.79,-1.23 3.14,-0.31 6,-2.34 7.18,-5.49 0.09,-0.23 0.15,-0.47 0.21,-0.7 l 178.22,-118.4 c 3.94,-2.62 5.01,-7.93 2.39,-11.87 -0.16,-0.23 -0.32,-0.46 -0.49,-0.67 -2.75,-3.38 -7.67,-4.18 -11.37,-1.72 l -177.32,117.8 c -1.98,1.32 -4.48,1.6 -6.71,0.77 l -124.01,-46.55 c -4.42,-1.66 -9.36,0.58 -11.02,5.01 -1.66,4.43 0.59,9.36 5.01,11.02 l 102.41,38.44 c 5.66,2.13 6.54,9.78 1.5,13.12 l -183.37,121.82 c -1.64,1.09 -3.66,1.53 -5.58,1.08 -0.23,-0.04 -0.45,-0.09 -0.67,-0.12 z"
   id="path54"
   inkscape:connector-curvature="0"
   style="fill:#f5f6f8" />
		</g>

			<linearGradient
   id="SVGID_4_"
   gradientUnits="userSpaceOnUse"
   x1="3441.0254"
   y1="8540.8525"
   x2="3863.9856"
   y2="8540.8525"
   gradientTransform="matrix(0.5491,-1.3396,1.283,0.4105,-12107.03,2105.4597)">
			<stop
   offset="2.663895e-07"
   style="stop-color:#BBBFEB"
   id="stop58" />
			<stop
   offset="0.4731"
   style="stop-color:#CCCFF5"
   id="stop60" />
			<stop
   offset="1"
   style="stop-color:#DADDFD"
   id="stop62" />
		</linearGradient>
		<path
   class="st7"
   d="M 639.64,822.93 C 624.28,665.98 794.5,724.31 851.37,747.97 L 722.95,624.27 C 699.72,651.52 512.69,864.81 495.42,688.39 479.25,523 669.12,596.64 715.3,616.89 l -89.17,-85.9 1.21,-1.26 C 575.04,527.81 364.57,511.74 485.51,377 607.23,241.39 633.5,465.91 637.92,519.08 l 86.93,83.74 C 701.95,555.02 624.64,372 788.78,381.89 964.88,392.5 761.55,585.54 733.62,611.27 L 862.9,735.8 c -24.88,-53.22 -94.02,-226.55 65.83,-216.91 173.81,10.47 -22.01,198.67 -54,228.31 l 135.13,130.17 c -24.88,-53.22 -94.02,-226.55 65.83,-216.91 173.81,10.47 -22.01,198.67 -54,228.31 l 206.67,199.09 -11.62,12.07 -205.54,-198 C 975.6,942.81 804.28,1129.78 787.79,961.28 773.09,811.02 928.5,858.08 991.68,883.13 L 865.11,761.2 c -30.36,35.22 -208.63,233.78 -225.47,61.73 z"
   id="path65"
   inkscape:connector-curvature="0"
   style="fill:url(#SVGID_4_)" />
		<g
   id="g80">
			<g
   id="g78">
				<path
   class="st8"
   d="m 1266.13,853.25 c 45.69,-0.59 89.39,7.64 129.42,23.07 28.23,10.88 90.8,-9.08 100.45,-33.49 60.84,-153.97 212.66,-264.11 391.74,-266.43 145.36,-1.88 274.6,67.73 352.78,175.49 15.46,21.31 96.75,46.12 126.81,38.93 36.17,-8.65 73.9,-13.46 112.71,-13.97 276.66,-3.58 503.78,212.84 507.28,483.37 3.51,271.64 -132.67,491.65 -494.61,496.33 -111.19,1.44 -214.38,-32.66 -298.26,-91.52 -13.99,-9.82 -93,46.21 -128.81,76.56 -67.18,56.93 -154.48,91.85 -250.31,93.09 -178.42,2.31 -330.37,-112.87 -378.88,-272.18 -7.45,-24.45 -83.74,-49.29 -121.74,-44.45 -13.09,1.67 -26.42,2.61 -39.94,2.78 -188.52,2.44 -343.28,-145.03 -345.67,-329.38 -2.39,-184.35 148.51,-335.77 337.03,-338.2 z"
   id="path67"
   inkscape:connector-curvature="0"
   style="opacity:0.16000001;fill:#2b0a71" />
				<linearGradient
   id="SVGID_5_"
   gradientUnits="userSpaceOnUse"
   x1="963.50708"
   y1="1213.8601"
   x2="3021.7859"
   y2="1213.8601">
					<stop
   offset="0.3871"
   style="stop-color:#FFFFFF"
   id="stop69" />
					<stop
   offset="0.6786"
   style="stop-color:#EAEFF9"
   id="stop71" />
					<stop
   offset="1"
   style="stop-color:#D7E1F3"
   id="stop73" />
				</linearGradient>
				<path
   class="st9"
   d="m 1300.57,861.57 c 45.69,-0.59 89.39,7.64 129.42,23.07 28.23,10.88 90.8,-9.08 100.45,-33.49 60.84,-153.97 212.66,-264.11 391.74,-266.43 145.36,-1.88 274.6,67.73 352.78,175.49 15.46,21.31 96.75,46.12 126.81,38.93 36.17,-8.65 73.9,-13.46 112.71,-13.97 276.66,-3.58 503.78,212.84 507.28,483.37 3.5,270.54 -217.95,492.75 -494.61,496.33 -111.19,1.44 -214.38,-32.66 -298.26,-91.52 -13.99,-9.82 -93,46.21 -128.81,76.56 -67.18,56.93 -154.48,91.85 -250.31,93.09 -178.42,2.31 -330.37,-112.87 -378.88,-272.18 -7.45,-24.45 -83.74,-49.29 -121.74,-44.45 -13.09,1.67 -26.42,2.61 -39.94,2.78 -188.52,2.44 -343.28,-145.03 -345.67,-329.38 -2.39,-184.34 148.51,-335.76 337.03,-338.2 z"
   id="path76"
   inkscape:connector-curvature="0"
   style="fill:url(#SVGID_5_)" />
			</g>
		</g>
		<g
   id="g276">
			<g
   id="g261">

					<linearGradient
   id="SVGID_6_"
   gradientUnits="userSpaceOnUse"
   x1="2355.573"
   y1="1230.3503"
   x2="4540.2173"
   y2="1230.3503"
   gradientTransform="matrix(0.964,0.2659,-0.2659,0.964,468.0074,-631.4268)">
					<stop
   offset="0"
   style="stop-color:#305688"
   id="stop82" />
					<stop
   offset="0.0257"
   style="stop-color:#315788"
   id="stop84" />
					<stop
   offset="0.6215"
   style="stop-color:#48678C"
   id="stop86" />
					<stop
   offset="1"
   style="stop-color:#506D8E"
   id="stop88" />
				</linearGradient>
				<path
   class="st10"
   d="m 4515.83,1761.36 c -215.5,649.92 -860.84,1046.98 -1441.41,886.85 -580.57,-160.13 -876.51,-816.8 -661,-1466.72 215.5,-649.92 860.84,-1046.97 1441.41,-886.85 580.57,160.12 876.5,816.8 661,1466.72 z"
   id="path91"
   inkscape:connector-curvature="0"
   style="fill:url(#SVGID_6_)" />
				<g
   id="g248">
					<g
   id="g246">
						<g
   id="g244">
							<g
   id="g107">

									<linearGradient
   id="SVGID_7_"
   gradientUnits="userSpaceOnUse"
   x1="4310.0215"
   y1="1664.2058"
   x2="4634.7905"
   y2="1664.2058">
									<stop
   offset="0"
   style="stop-color:#87B9DD"
   id="stop93" />
									<stop
   offset="1"
   style="stop-color:#88ADDB"
   id="stop95" />
								</linearGradient>
								<path
   class="st11"
   d="m 4501.15,1845.88 -163.06,-44.97 c -21.47,-5.92 -33.14,-28.53 -25.94,-50.23 l 79.39,-239.44 c 7.2,-21.71 30.65,-34.62 52.12,-28.7 l 163.06,44.97 c 21.47,5.92 33.14,28.53 25.94,50.23 l -79.39,239.44 c -7.2,21.71 -30.65,34.62 -52.12,28.7 z"
   id="path98"
   inkscape:connector-curvature="0"
   style="fill:url(#SVGID_7_)" />

									<linearGradient
   id="SVGID_8_"
   gradientUnits="userSpaceOnUse"
   x1="4299.7456"
   y1="1664.2065"
   x2="4645.0649"
   y2="1664.2065">
									<stop
   offset="0"
   style="stop-color:#87B9DD"
   id="stop100" />
									<stop
   offset="1"
   style="stop-color:#88ADDB"
   id="stop102" />
								</linearGradient>
								<path
   class="st12"
   d="m 4511.82,1857.57 c -4.54,0 -9.04,-0.61 -13.39,-1.81 l -163.06,-44.97 c -12.92,-3.56 -23.5,-12.01 -29.78,-23.77 -6.48,-12.13 -7.6,-26.18 -3.16,-39.57 l 79.4,-239.44 c 7.25,-21.88 28.3,-37.17 51.18,-37.17 4.54,0 9.04,0.61 13.39,1.81 l 163.06,44.97 c 12.92,3.56 23.5,12.01 29.79,23.77 6.48,12.13 7.6,26.18 3.16,39.57 L 4563,1820.4 c -7.26,21.89 -28.3,37.17 -51.18,37.17 z M 4433,1491.34 c -14.17,0 -27.21,9.51 -31.72,23.12 l -79.4,239.44 c -2.65,8 -2.02,16.33 1.79,23.46 3.61,6.76 9.7,11.61 17.15,13.67 l 163.06,44.97 c 2.57,0.71 5.24,1.07 7.94,1.07 14.17,0 27.21,-9.51 31.72,-23.12 l 79.39,-239.44 c 2.65,-8 2.02,-16.33 -1.78,-23.46 -3.61,-6.76 -9.71,-11.61 -17.16,-13.67 l -163.06,-44.97 c -2.57,-0.71 -5.24,-1.07 -7.93,-1.07 z"
   id="path105"
   inkscape:connector-curvature="0"
   style="fill:url(#SVGID_8_)" />
							</g>
							<g
   id="g131">

									<linearGradient
   id="SVGID_9_"
   gradientUnits="userSpaceOnUse"
   x1="3291.365"
   y1="2007.3759"
   x2="3575.3882"
   y2="2007.3759"
   gradientTransform="matrix(0.3669,-0.9361,0.964,0.2659,521.8208,2936.501)">
									<stop
   offset="4.102398e-07"
   style="stop-color:#ACC9DB"
   id="stop109" />
									<stop
   offset="0.1048"
   style="stop-color:#A7C5DB"
   id="stop111" />
									<stop
   offset="0.6523"
   style="stop-color:#90B3DB"
   id="stop113" />
									<stop
   offset="1"
   style="stop-color:#88ADDB"
   id="stop115" />
								</linearGradient>
								<path
   class="st13"
   d="m 3890.5,200 -63.33,190.99 c -7.2,21.71 -30.65,34.62 -52.12,28.7 l -206.34,-56.91 c -21.47,-5.92 -33.14,-28.53 -25.94,-50.23 l 63.33,-190.99 c 7.2,-21.71 30.65,-34.62 52.12,-28.7 l 206.34,56.91 c 21.46,5.92 33.14,28.53 25.94,50.23 z"
   id="path118"
   inkscape:connector-curvature="0"
   style="fill:url(#SVGID_9_)" />

									<linearGradient
   id="SVGID_10_"
   gradientUnits="userSpaceOnUse"
   x1="3048.8894"
   y1="-7.7863998"
   x2="3375.4355"
   y2="-7.7863998"
   gradientTransform="matrix(0.964,0.2659,-0.3669,0.9361,617.2548,-590.5465)">
									<stop
   offset="4.102398e-07"
   style="stop-color:#ACC9DB"
   id="stop120" />
									<stop
   offset="0.1048"
   style="stop-color:#A7C5DB"
   id="stop122" />
									<stop
   offset="0.6523"
   style="stop-color:#90B3DB"
   id="stop124" />
									<stop
   offset="1"
   style="stop-color:#88ADDB"
   id="stop126" />
								</linearGradient>
								<path
   class="st14"
   d="m 3785.72,431.39 c -4.54,0 -9.04,-0.61 -13.39,-1.81 l -206.34,-56.91 c -12.92,-3.56 -23.5,-12 -29.78,-23.77 -6.48,-12.13 -7.6,-26.18 -3.16,-39.57 l 63.33,-190.99 c 7.26,-21.88 28.3,-37.16 51.18,-37.16 4.54,0 9.04,0.61 13.39,1.81 l 206.34,56.91 c 12.92,3.56 23.5,12 29.79,23.77 6.48,12.13 7.6,26.18 3.16,39.57 l -63.33,190.99 c -7.26,21.87 -28.31,37.16 -51.19,37.16 z M 3647.56,101.67 c -14.17,0 -27.21,9.51 -31.73,23.12 l -63.33,190.99 c -2.65,8 -2.02,16.34 1.79,23.46 3.61,6.76 9.7,11.61 17.15,13.67 l 206.34,56.91 c 2.57,0.71 5.24,1.07 7.94,1.07 14.16,0 27.21,-9.51 31.72,-23.12 l 63.33,-190.99 c 2.65,-8 2.02,-16.34 -1.78,-23.46 -3.61,-6.76 -9.71,-11.61 -17.16,-13.67 l -206.34,-56.91 c -2.57,-0.71 -5.24,-1.07 -7.93,-1.07 z"
   id="path129"
   inkscape:connector-curvature="0"
   style="fill:url(#SVGID_10_)" />
							</g>

								<linearGradient
   id="SVGID_11_"
   gradientUnits="userSpaceOnUse"
   x1="4382.4287"
   y1="1230.1364"
   x2="2201.5139"
   y2="1230.1364"
   gradientTransform="matrix(0.964,0.2659,-0.3164,0.9501,542.6311,-610.6552)">
								<stop
   offset="0"
   style="stop-color:#87B9DD"
   id="stop133" />
								<stop
   offset="1"
   style="stop-color:#88ADDB"
   id="stop135" />
							</linearGradient>
							<path
   class="st15"
   d="m 4378.08,1723.37 c -215.5,649.92 -860.84,1046.97 -1441.41,886.85 -580.56,-160.13 -876.51,-816.8 -661,-1466.72 215.51,-649.92 860.84,-1046.98 1441.41,-886.85 580.57,160.13 876.5,816.8 661,1466.72 z"
   id="path138"
   inkscape:connector-curvature="0"
   style="fill:url(#SVGID_11_)" />
							<g
   id="g162">

									<linearGradient
   id="SVGID_12_"
   gradientUnits="userSpaceOnUse"
   x1="2289.7671"
   y1="1230.3525"
   x2="4320.2324"
   y2="1230.3525"
   gradientTransform="matrix(0.964,0.2659,-0.2659,0.964,468.0074,-631.4268)">
									<stop
   offset="4.102398e-07"
   style="stop-color:#ACC9DB"
   id="stop140" />
									<stop
   offset="0.1048"
   style="stop-color:#A7C5DB"
   id="stop142" />
									<stop
   offset="0.6523"
   style="stop-color:#90B3DB"
   id="stop144" />
									<stop
   offset="1"
   style="stop-color:#88ADDB"
   id="stop146" />
								</linearGradient>
								<path
   class="st16"
   d="M 4303.89,1702.91 C 4103.6,2306.96 3503.8,2676 2964.21,2527.17 2424.62,2378.34 2149.56,1768.01 2349.86,1163.96 2550.15,559.91 3149.95,190.87 3689.54,339.7 c 539.59,148.83 814.65,759.15 614.35,1363.21 z"
   id="path149"
   inkscape:connector-curvature="0"
   style="fill:url(#SVGID_12_)" />

									<linearGradient
   id="SVGID_13_"
   gradientUnits="userSpaceOnUse"
   x1="3291.9712"
   y1="2391.1455"
   x2="3291.9712"
   y2="69.125198"
   gradientTransform="matrix(0.964,0.2659,-0.3164,0.9501,542.6311,-610.6552)">
									<stop
   offset="4.102398e-07"
   style="stop-color:#ACC9DB"
   id="stop151" />
									<stop
   offset="0.1048"
   style="stop-color:#A7C5DB"
   id="stop153" />
									<stop
   offset="0.6523"
   style="stop-color:#90B3DB"
   id="stop155" />
									<stop
   offset="1"
   style="stop-color:#88ADDB"
   id="stop157" />
								</linearGradient>
								<path
   class="st17"
   d="m 3209.25,2570.39 c -84.2,0 -167.56,-11.22 -247.77,-33.34 -240.4,-66.3 -439.65,-227.93 -561.05,-455.12 -70.26,-131.5 -111.69,-277.55 -123.11,-434.12 -11.82,-161.89 9.31,-325.76 62.8,-487.08 41.97,-126.58 102.14,-245.45 178.82,-353.31 74.13,-104.26 162.05,-196.03 261.33,-272.77 98.4,-76.06 205.17,-135.22 317.34,-175.84 114.22,-41.36 230.93,-62.34 346.88,-62.34 84.2,0 167.56,11.22 247.77,33.34 240.4,66.3 439.65,227.94 561.05,455.12 70.27,131.49 111.69,277.55 123.11,434.12 11.82,161.89 -9.31,325.76 -62.8,487.08 -41.97,126.58 -102.13,245.45 -178.82,353.3 -74.13,104.26 -162.05,196.03 -261.33,272.77 -98.4,76.06 -205.17,135.22 -317.34,175.84 -114.22,41.37 -230.93,62.35 -346.88,62.35 z M 3444.5,316.98 c -472.79,0 -918.92,349.62 -1084.91,850.21 -103.35,311.69 -81.87,641.58 58.93,905.08 118.72,222.18 313.49,380.22 548.42,445.02 78.43,21.63 159.96,32.6 242.31,32.6 472.79,0 918.92,-349.62 1084.91,-850.2 C 4397.51,1388 4376.03,1058.11 4235.23,794.61 4116.51,572.43 3921.75,414.39 3686.81,349.59 3608.38,327.95 3526.85,316.98 3444.5,316.98 Z"
   id="path160"
   inkscape:connector-curvature="0"
   style="fill:url(#SVGID_13_)" />
							</g>
							<g
   id="g179">

									<linearGradient
   id="SVGID_14_"
   gradientUnits="userSpaceOnUse"
   x1="3604.5186"
   y1="2182.3843"
   x2="2979.4241"
   y2="277.88849"
   gradientTransform="matrix(0.964,0.2659,-0.3164,0.9501,542.6311,-610.6552)">
									<stop
   offset="0"
   style="stop-color:#FFFFFF"
   id="stop164" />
									<stop
   offset="0.3858"
   style="stop-color:#FCFDFE"
   id="stop166" />
									<stop
   offset="0.6453"
   style="stop-color:#F3F6FB"
   id="stop168" />
									<stop
   offset="0.8668"
   style="stop-color:#E4EBF7"
   id="stop170" />
									<stop
   offset="1"
   style="stop-color:#D7E1F3"
   id="stop172" />
								</linearGradient>
								<path
   class="st18"
   d="m 4186.67,1670.57 c -176.26,531.58 -704.09,856.33 -1178.94,725.36 -474.85,-130.97 -716.9,-668.07 -540.64,-1199.64 176.26,-531.58 704.09,-856.33 1178.94,-725.36 474.85,130.97 716.9,668.07 540.64,1199.64 z"
   id="path175"
   inkscape:connector-curvature="0"
   style="fill:url(#SVGID_14_)" />
								<path
   class="st19"
   d="m 3223.37,2442.48 c -74.86,0 -148.98,-9.97 -220.3,-29.65 -213.82,-58.97 -391.03,-202.7 -498.97,-404.7 -62.4,-116.77 -99.18,-246.45 -109.32,-385.42 -10.48,-143.58 8.25,-288.91 55.68,-431.93 37.2,-112.2 90.53,-217.56 158.5,-313.17 65.72,-92.43 143.68,-173.8 231.71,-241.84 87.29,-67.47 182.02,-119.96 281.57,-156.01 101.45,-36.74 205.13,-55.37 308.16,-55.37 74.86,0 148.98,9.97 220.3,29.65 213.83,58.98 391.03,202.7 498.97,404.71 62.4,116.77 99.18,246.45 109.32,385.42 10.48,143.58 -8.25,288.91 -55.68,431.93 -37.2,112.2 -90.53,217.56 -158.5,313.17 -65.72,92.43 -143.67,173.8 -231.71,241.84 -87.29,67.47 -182.03,119.96 -281.57,156.01 -101.46,36.73 -205.13,55.36 -308.16,55.36 z M 3430.39,459.44 c -412.45,0 -801.73,305.27 -946.66,742.36 -90.22,272.09 -71.52,559.96 51.29,789.8 103.37,193.45 272.9,331.04 477.37,387.43 68.29,18.83 139.27,28.38 210.98,28.38 412.45,0 801.73,-305.27 946.66,-742.36 90.22,-272.09 71.53,-559.96 -51.29,-789.8 -103.37,-193.44 -272.9,-331.04 -477.37,-387.43 -68.29,-18.83 -139.28,-28.38 -210.98,-28.38 z"
   id="path177"
   inkscape:connector-curvature="0"
   style="fill:#506d8e" />
							</g>

								<linearGradient
   id="SVGID_15_"
   gradientUnits="userSpaceOnUse"
   x1="3214.2798"
   y1="1230.1364"
   x2="3369.6626"
   y2="1230.1364"
   gradientTransform="matrix(0.964,0.2659,-0.3164,0.9501,542.6311,-610.6552)">
								<stop
   offset="0.0229"
   style="stop-color:#9AC5DD"
   id="stop181" />
								<stop
   offset="1"
   style="stop-color:#73B3DE"
   id="stop183" />
							</linearGradient>
							<path
   class="st20"
   d="m 3401.77,1454.09 c -15.35,46.3 -61.33,74.59 -102.7,63.18 -41.36,-11.41 -62.45,-58.19 -47.09,-104.5 15.36,-46.31 61.33,-74.59 102.7,-63.18 41.36,11.41 62.44,58.19 47.09,104.5 z"
   id="path186"
   inkscape:connector-curvature="0"
   style="fill:url(#SVGID_15_)" />
							<g
   id="g242">
								<g
   id="g236">
									<g
   id="g190">
										<path
   class="st19"
   d="m 3532.76,812.52 c -18.39,-5.07 -30.35,-18.08 -26.71,-29.07 l 66.62,-200.91 c 3.64,-10.98 21.5,-15.77 39.89,-10.7 18.39,5.07 30.35,18.08 26.71,29.07 l -66.62,200.91 c -3.64,10.98 -21.5,15.77 -39.89,10.7 z"
   id="path188"
   inkscape:connector-curvature="0"
   style="fill:#506d8e" />
									</g>
									<g
   id="g194">
										<path
   class="st19"
   d="m 3041.19,2295.02 c -20.85,-5.75 -34.79,-19.31 -31.15,-30.29 l 66.62,-200.91 c 3.64,-10.98 23.49,-15.22 44.33,-9.47 20.85,5.75 34.79,19.31 31.15,30.29 l -66.62,200.91 c -3.64,10.97 -23.48,15.21 -44.33,9.47 z"
   id="path192"
   inkscape:connector-curvature="0"
   style="fill:#506d8e" />
									</g>
									<g
   id="g198">
										<path
   class="st19"
   d="m 3218.1,819.44 c -6.14,-1.69 -10.93,-6.91 -12.1,-14.19 l -32.04,-198.74 c -1.75,-10.86 5.19,-22.22 15.51,-25.37 10.32,-3.15 20.09,3.11 21.85,13.97 l 32.04,198.74 c 1.75,10.86 -5.19,22.22 -15.51,25.37 -3.4,1.04 -6.74,1.05 -9.75,0.22 z"
   id="path196"
   inkscape:connector-curvature="0"
   style="fill:#506d8e" />
									</g>
									<g
   id="g202">
										<path
   class="st19"
   d="m 3454.54,2285.95 c -6.14,-1.69 -10.93,-6.91 -12.1,-14.19 l -32.04,-198.74 c -1.75,-10.86 5.19,-22.22 15.51,-25.37 10.32,-3.14 20.1,3.11 21.85,13.97 l 32.04,198.74 c 1.75,10.86 -5.19,22.22 -15.51,25.37 -3.4,1.03 -6.74,1.05 -9.75,0.22 z"
   id="path200"
   inkscape:connector-curvature="0"
   style="fill:#506d8e" />
									</g>
									<g
   id="g206">
										<path
   class="st19"
   d="m 2930.78,996.19 c -3.01,-0.83 -5.78,-2.53 -7.98,-5.11 L 2800.69,847.76 c -6.67,-7.83 -5.55,-20.8 2.51,-28.96 8.06,-8.16 20,-8.42 26.68,-0.59 l 122.11,143.32 c 6.67,7.83 5.55,20.8 -2.51,28.96 -5.41,5.47 -12.56,7.39 -18.7,5.7 z"
   id="path204"
   inkscape:connector-curvature="0"
   style="fill:#506d8e" />
									</g>
									<g
   id="g210">
										<path
   class="st19"
   d="m 3831.86,2053.76 c -3.01,-0.83 -5.78,-2.53 -7.98,-5.11 l -122.11,-143.32 c -6.67,-7.83 -5.55,-20.8 2.51,-28.96 8.05,-8.15 19.99,-8.43 26.68,-0.58 l 122.11,143.32 c 6.67,7.83 5.55,20.8 -2.51,28.96 -5.4,5.46 -12.55,7.38 -18.7,5.69 z"
   id="path208"
   inkscape:connector-curvature="0"
   style="fill:#506d8e" />
									</g>
									<g
   id="g214">
										<path
   class="st19"
   d="m 2738.81,1322.77 -179.47,-49.5 c -9.81,-2.71 -10.75,-26.04 -2.1,-52.12 8.65,-26.08 23.61,-45.03 33.42,-42.32 l 179.47,49.5 c 9.81,2.71 10.75,26.04 2.1,52.12 -8.65,26.09 -23.61,45.03 -33.42,42.32 z"
   id="path212"
   inkscape:connector-curvature="0"
   style="fill:#506d8e" />
									</g>
									<g
   id="g218">
										<path
   class="st19"
   d="m 4064.75,1683.06 -179.47,-49.5 c -9.81,-2.71 -11.49,-23.81 -3.75,-47.15 7.74,-23.34 21.96,-40.06 31.77,-37.35 l 179.47,49.5 c 9.81,2.71 11.49,23.81 3.75,47.15 -7.74,23.34 -21.96,40.06 -31.77,37.35 z"
   id="path216"
   inkscape:connector-curvature="0"
   style="fill:#506d8e" />
									</g>
									<g
   id="g222">
										<path
   class="st19"
   d="m 2529.61,1694.58 c -6.14,-1.69 -10.93,-6.91 -12.1,-14.19 -1.75,-10.86 5.19,-22.22 15.51,-25.37 l 188.73,-57.59 c 10.32,-3.15 20.1,3.11 21.85,13.97 1.75,10.86 -5.19,22.22 -15.51,25.37 l -188.73,57.59 c -3.4,1.03 -6.74,1.05 -9.75,0.22 z"
   id="path220"
   inkscape:connector-curvature="0"
   style="fill:#506d8e" />
									</g>
									<g
   id="g226">
										<path
   class="st19"
   d="m 3922.26,1269.65 c -6.14,-1.69 -10.93,-6.91 -12.1,-14.19 -1.75,-10.86 5.19,-22.22 15.51,-25.37 l 188.73,-57.59 c 10.33,-3.15 20.1,3.1 21.85,13.97 1.75,10.86 -5.19,22.22 -15.51,25.37 l -188.73,57.59 c -3.4,1.04 -6.73,1.05 -9.75,0.22 z"
   id="path224"
   inkscape:connector-curvature="0"
   style="fill:#506d8e" />
									</g>
									<g
   id="g230">
										<path
   class="st19"
   d="m 2702.62,2078.56 c -3.01,-0.83 -5.78,-2.53 -7.98,-5.11 -6.67,-7.83 -5.55,-20.8 2.51,-28.96 l 147.43,-149.24 c 8.05,-8.16 19.99,-8.42 26.68,-0.59 6.67,7.83 5.55,20.8 -2.51,28.96 l -147.43,149.24 c -5.41,5.47 -12.56,7.39 -18.7,5.7 z"
   id="path228"
   inkscape:connector-curvature="0"
   style="fill:#506d8e" />
									</g>
									<g
   id="g234">
										<path
   class="st19"
   d="m 3790.48,977.31 c -3.01,-0.83 -5.78,-2.53 -7.98,-5.11 -6.67,-7.83 -5.55,-20.8 2.51,-28.96 L 3932.43,794 c 8.06,-8.15 19.99,-8.42 26.68,-0.58 6.67,7.83 5.55,20.8 -2.51,28.96 l -147.43,149.24 c -5.4,5.47 -12.55,7.38 -18.69,5.69 z"
   id="path232"
   inkscape:connector-curvature="0"
   style="fill:#506d8e" />
									</g>
								</g>
								<g
   id="g240">
									<path
   class="st19"
   d="m 2929.17,1857.55 c -2.96,-0.82 -5.69,-2.48 -7.88,-4.99 -6.74,-7.76 -5.72,-20.72 2.28,-28.95 L 3312.3,1424 3490.18,850.44 c 3.42,-11.04 14.21,-17.99 24.1,-15.53 9.73,2.41 15.13,13.41 11.7,24.44 l -181.28,584.56 -396.71,407.81 c -5.41,5.56 -12.63,7.53 -18.82,5.83 z"
   id="path238"
   inkscape:connector-curvature="0"
   style="fill:#506d8e" />
								</g>
							</g>
						</g>
					</g>
				</g>

					<linearGradient
   id="SVGID_16_"
   gradientUnits="userSpaceOnUse"
   x1="4259.5342"
   y1="1066.574"
   x2="4375.0356"
   y2="1066.574"
   gradientTransform="matrix(1.1188,0.3736,-0.3159,0.9461,73.5187,-931.5866)">
					<stop
   offset="4.102398e-07"
   style="stop-color:#ACC9DB"
   id="stop250" />
					<stop
   offset="0.1048"
   style="stop-color:#A7C5DB"
   id="stop252" />
					<stop
   offset="0.6523"
   style="stop-color:#90B3DB"
   id="stop254" />
					<stop
   offset="1"
   style="stop-color:#88ADDB"
   id="stop256" />
				</linearGradient>
				<path
   class="st21"
   d="m 4502.15,1668.86 c -31.05,93 -27.3,178.06 8.38,189.97 35.68,11.92 89.79,-53.82 120.84,-146.82 31.05,-93 27.3,-178.06 -8.38,-189.97 -35.68,-11.92 -89.78,53.82 -120.84,146.82 z"
   id="path259"
   inkscape:connector-curvature="0"
   style="fill:url(#SVGID_16_)" />
			</g>
			<linearGradient
   id="SVGID_17_"
   gradientUnits="userSpaceOnUse"
   x1="3356.0205"
   y1="2409.1089"
   x2="3356.0205"
   y2="1013.6392">
				<stop
   offset="0"
   style="stop-color:#FFFFFF"
   id="stop263" />
				<stop
   offset="0.1127"
   style="stop-color:#F5F7FC"
   id="stop265" />
				<stop
   offset="0.3686"
   style="stop-color:#E4EBF7"
   id="stop267" />
				<stop
   offset="0.6495"
   style="stop-color:#DAE3F4"
   id="stop269" />
				<stop
   offset="1"
   style="stop-color:#D7E1F3"
   id="stop271" />
			</linearGradient>
			<path
   class="st22"
   d="m 2487.53,1879.96 c 88.06,241.83 273.94,430.72 527.93,500.78 464.31,128.06 980.42,-189.48 1152.77,-709.26 76.21,-229.83 72.43,-460.7 4.38,-657.84 z"
   id="path274"
   inkscape:connector-curvature="0"
   style="opacity:0.58999999;fill:url(#SVGID_17_)" />
		</g>
	</g>
</g>
<g
   id="people"
   transform="translate(-109.07174,-81.18)">
	<g
   id="g440">
		<g
   class="st23"
   id="g283"
   style="opacity:0.35">
			<path
   class="st24"
   d="m 1901.45,923.75 c 19.14,-69.17 31.04,-135.12 14.18,-154.39 -11.93,-13.63 -28.76,-20.55 -50.01,-20.55 -27.49,0 -56.01,11.51 -71.33,17.7 -1.29,0.52 -2.47,0.99 -3.58,1.44 1.66,-5.12 3.1,-10.4 4.2,-15.89 7.27,-36.33 -17.92,-83.92 -45.8,-128.69 9.15,-0.87 21.5,-3.86 21.5,-3.86 6.29,-1.05 9.55,-3.03 14.09,-0.3 l 47.41,20.83 c 3.93,2.37 8.05,0.04 4.8,-3.2 l -81.72,-57.95 c -15.86,-8.85 -31.69,-9.81 -37.76,-7.19 l -1.01,0.43 c -15.63,-24.87 -27.8,-46.54 -29.48,-61.67 -5.49,-49.42 -54.91,-76.87 -95.18,-82.36 -25.85,-3.53 -31.83,-54.06 -32.8,-89.8 13.95,-17.16 23.8,-47.1 23.8,-69.59 v 0 c 0.01,-0.07 19.94,-118.8 -108.14,-78.55 -128.12,40.27 -80.53,151.91 -80.53,151.91 0,0 -82.36,25.62 -123.85,106.16 -41.47,80.5 -15.86,137.88 -15.86,137.88 0,0 -76.26,28.67 -81.75,136.66 -5.26,103.41 159.82,120.8 173.82,122.09 -0.96,14.3 -1.7,28.86 -2.1,43.41 h -0.07 l -0.03,1.04 c -0.14,5.81 -0.19,11.46 -0.2,17.04 -0.01,1.35 -0.03,2.7 -0.03,4.04 0,0.05 0.03,0.07 0.04,0.11 0.63,128.88 38.08,194.14 114.2,199.2 7.63,0.51 15.58,0.77 23.62,0.77 85.27,0 177.57,-28.82 244.96,-49.87 9.64,-3.01 18.79,-5.86 27.44,-8.49 -3.36,28.05 -6.73,57.36 -9.98,85.57 -6.24,54.26 -12.13,105.52 -16.53,135.04 l -0.26,1.75 h 1.54 c -1.96,12.96 -3.62,21.57 -4.9,24.26 -1.8,3.77 -3.94,6.67 -6.27,9.08 l -0.72,-1.39 -1.47,1.39 c -2.81,2.67 -5.96,4.76 -9.01,6.79 -7.07,4.7 -14.38,9.57 -18.45,21.78 -5.5,16.48 5.41,32.43 16.95,49.32 4.36,6.37 8.86,12.97 12.44,19.61 12.22,22.7 13.46,65.58 14.37,96.89 l 0.09,3.1 c 0.27,9.04 2.75,16.56 6.19,22.71 -1.42,2.6 -3.24,5.45 -5.29,8.48 -0.16,-0.33 -0.27,-0.57 -0.27,-0.57 -3.18,4.61 -7.19,10.71 -10.66,16.84 -4.32,6.95 -7.64,13.75 -7.7,19.35 -0.04,0.61 -0.03,1.18 0.04,1.71 0,0.02 0,0.05 0,0.08 0.54,4.31 3.61,9.05 7.62,13.94 3.7,4.51 8.2,9.14 12.31,13.66 4.39,4.83 8.31,9.54 10.27,13.83 0.39,0.85 0.69,1.67 0.92,2.49 1.27,4.64 1.6,10.63 1.49,17.3 -0.03,1.67 -0.08,3.38 -0.16,5.12 -0.3,6.85 -0.9,14.19 -1.35,21.35 -0.01,0.21 -0.03,0.41 -0.04,0.62 -0.77,12.62 -1.01,24.66 1.88,32.49 0.95,2.59 2.63,5.63 4.83,8.87 0.44,0.65 0.9,1.31 1.39,1.97 2.89,3.98 6.49,8.2 10.47,12.23 0,0 0.01,0.01 0.01,0.01 2.6,2.63 5.36,5.19 8.18,7.55 0.22,0.19 0.45,0.37 0.68,0.56 2.58,2.12 5.21,4.08 7.83,5.78 1.98,1.29 3.94,2.43 5.87,3.39 1.07,0.53 2.13,1.03 3.17,1.44 1.39,0.55 2.74,0.99 4.05,1.31 1.31,0.31 2.58,0.5 3.79,0.54 2.42,0.09 4.61,-0.39 6.48,-1.57 16.57,-10.4 -8.98,-22.2 -13.73,-41.18 -0.02,-0.07 -0.03,-0.15 -0.05,-0.21 -0.21,-0.83 -0.4,-1.72 -0.59,-2.65 -0.08,-0.38 -0.15,-0.79 -0.23,-1.18 -0.12,-0.64 -0.25,-1.3 -0.36,-1.98 -0.09,-0.52 -0.18,-1.06 -0.26,-1.61 -0.09,-0.58 -0.18,-1.17 -0.27,-1.77 -0.1,-0.66 -0.19,-1.33 -0.28,-2.01 -0.06,-0.47 -0.12,-0.96 -0.18,-1.44 -0.11,-0.85 -0.21,-1.69 -0.31,-2.58 0,-0.01 0,-0.02 0,-0.02 -0.42,-3.67 -0.78,-7.66 -1.09,-11.89 v 0 c -3.17,-42.91 -1.15,-111.42 2.73,-136.46 1.29,-8.31 2.94,-17.14 4.9,-26.39 h 1.09 l 0.18,-0.84 c 16.99,-79.7 56.9,-191.55 92.12,-290.24 20.05,-56.17 38.98,-109.23 50.99,-148.95 5.85,-19.36 15.78,-66.45 9.15,-88.47 -4.92,-16.16 -25.85,-38.16 -46.44,-53.16 z M 1526.77,393.77 c -0.06,2.54 -0.1,4.95 -0.14,7.19 -0.04,2.22 -0.07,4.27 -0.09,6.12 0.17,-14.1 0.13,-31.18 1.76,-52.59 -0.82,13.69 -1.28,27.84 -1.53,39.28 z"
   id="path281"
   inkscape:connector-curvature="0"
   style="fill:#3b3c8f" />
		</g>
		<g
   id="g438">
			<g
   id="g428">
				<g
   id="g289">
					<polygon
   class="st25"
   points="1990.76,463.79 2220.52,463.79 2178.4,632.73 1948.64,632.73 "
   id="polygon285"
   style="fill:#5b86c4" />
					<path
   class="st26"
   d="m 2169.41,641.8 h -306.5 c -11.4,0 -13.64,-12.47 -2.67,-14.87 v 0 c 0.87,-0.19 1.77,-0.29 2.67,-0.29 h 306.5 c 11.4,0 13.64,12.47 2.67,14.87 v 0 c -0.87,0.2 -1.77,0.29 -2.67,0.29 z"
   id="path287"
   inkscape:connector-curvature="0"
   style="fill:#3b67ae" />
				</g>
				<g
   id="g426">
					<g
   id="g418">
						<g
   id="g295">
							<path
   class="st26"
   d="m 1569.21,313.47 c -8.39,7.68 -18.49,12.84 -29.52,14.51 -1.93,23.21 -2.53,51.18 -2.71,66.1 2.08,21.46 14.26,68.33 70.69,167.4 82.36,144.59 -16.47,133.61 -49.42,186.69 -26,41.88 -29.19,116.8 -0.61,151.04 l 163.51,-46.72 c 0,0 69.55,-40.27 84.19,-113.48 14.64,-73.21 -102.5,-192.18 -107.99,-241.6 -5.49,-49.42 -54.91,-76.87 -95.17,-82.36 -28.86,-3.93 -32.97,-66.46 -32.97,-101.58 z"
   id="path291"
   inkscape:connector-curvature="0"
   style="fill:#3b67ae" />
							<path
   class="st27"
   d="m 1631.57,507.08 c -33.52,-32.06 -84.02,-125.26 -91.08,-179.25 -0.27,0.04 -0.53,0.11 -0.8,0.15 -1.93,23.21 -2.53,51.18 -2.71,66.1 2.08,21.46 14.26,68.33 70.69,167.4 82.36,144.59 -16.47,133.61 -49.42,186.69 -26,41.88 -29.19,116.8 -0.61,151.04 l 22.96,-26.86 c 27.22,-54.43 96.31,-85.66 97.69,-114.68 2.12,-44.6 2.12,-203.87 -46.72,-250.59 z"
   id="path293"
   inkscape:connector-curvature="0"
   style="opacity:0.55;fill:#3b67ae" />
						</g>
						<path
   class="st28"
   d="m 1948.1,1052 c 6.39,-21.14 15.52,-66.71 9.15,-87.85 -7.19,-23.87 -49.48,-60.07 -73.21,-67.72 -70.71,-22.81 -237.94,29.28 -296.51,20.13 -58.57,-9.15 -62.23,-115.31 -29.28,-168.39 32.95,-53.08 131.78,-42.1 49.42,-186.69 -56.43,-99.07 -68.61,-145.94 -70.69,-167.4 0.18,-14.92 0.1,-33.11 2.03,-56.32 8.09,1.5 13.35,1.4 19.78,-2.7 19.28,-12.28 34.38,-51.56 34.38,-79.4 0,-40.28 -27.46,-72.93 -61.33,-72.93 -33.87,0 -61.32,32.65 -61.32,72.93 0,9.76 1.62,19.06 4.55,27.56 -3.39,17.26 -10.24,52.67 -14.99,80.75 -9.77,27.29 -78.87,224.22 -94.01,376.87 -12.46,125.69 -39.57,345.28 102.68,354.74 172.67,11.48 380.51,-111.31 380.51,-60.07 0,51.24 -95.18,168.39 -95.18,307.49 0,139.1 12.34,129.44 -3.66,168.39 -5.29,12.87 -27.35,35.61 -25.62,49.42 1.67,13.35 27.56,30.95 31.11,43.93 5.08,18.54 -4.81,58.83 1.83,76.87 6.1,16.58 41.78,51.48 56.74,42.1 16.57,-10.4 -8.98,-22.2 -13.73,-41.18 -7.77,-31.07 -5.82,-132.16 -0.92,-163.81 18.77,-120.98 112.85,-349.53 148.27,-466.72 z"
   id="path297"
   inkscape:connector-curvature="0"
   style="fill:#fbcd9d" />
						<g
   id="g303">
							<path
   class="st29"
   d="m 1957.25,964.14 c -7.19,-23.87 -49.48,-60.07 -73.21,-67.72 -70.71,-22.81 -237.94,29.28 -296.51,20.13 -20.98,-3.28 -34.91,-19 -42.64,-40.27 h -189.17 c -2.59,106.56 15.04,212.78 113.02,219.3 172.67,11.48 380.51,-111.31 380.51,-60.07 0,51.24 -95.18,168.39 -95.18,307.49 0,109.55 7.65,126.83 3.09,148.25 h 47.8 c 26.76,-125.57 110.24,-330.43 143.13,-439.27 6.4,-21.12 15.53,-66.69 9.16,-87.84 z"
   id="path299"
   inkscape:connector-curvature="0"
   style="fill:#711a8e" />
							<path
   class="st29"
   d="m 1805.83,1492.33 h -49.97 l 0.27,-1.28 c 2.15,-10.08 1.54,-19.43 0.32,-38.06 -1.37,-20.98 -3.43,-52.7 -3.43,-109.97 0,-86.8 37.45,-166.12 64.8,-224.04 16.97,-35.94 30.38,-64.33 30.38,-83.45 0,-7.85 -5.26,-11.51 -16.55,-11.51 -19.04,0 -52.29,10.38 -94.39,23.53 -67.39,21.05 -159.69,49.87 -244.96,49.87 -8.04,0 -15.99,-0.26 -23.62,-0.77 -80.2,-5.33 -117.49,-77.42 -114.01,-220.38 l 0.03,-1.04 h 190.95 l 0.25,0.7 c 5.81,15.98 17.78,35.83 41.8,39.58 4.58,0.71 10.08,1.08 16.37,1.08 h 0.01 c 25.59,0 62.16,-5.88 100.87,-12.11 45.69,-7.35 92.93,-14.95 131.98,-14.95 19.66,0 35.17,1.92 47.44,5.88 24.38,7.86 66.72,44.58 73.9,68.42 6.63,22.01 -3.3,69.11 -9.15,88.47 -12,39.72 -30.94,92.78 -50.99,148.95 -35.22,98.69 -75.13,210.54 -92.12,290.24 z m -47.36,-2.13 h 45.64 c 17.11,-79.78 56.9,-191.26 92.02,-289.67 20.04,-56.15 38.97,-109.18 50.95,-148.85 5.79,-19.16 15.64,-65.69 9.15,-87.24 -7.03,-23.33 -48.58,-59.3 -72.52,-67.02 -12.06,-3.89 -27.36,-5.78 -46.79,-5.78 -38.88,0 -86.04,7.58 -131.64,14.92 -38.8,6.24 -75.44,12.13 -101.21,12.13 -6.48,0 -11.95,-0.36 -16.7,-1.1 -19.63,-3.07 -34.56,-16.98 -43.21,-40.25 h -187.39 c -1.45,63 4.68,110.67 18.74,145.71 17.86,44.49 49.25,68.54 93.31,71.47 7.58,0.5 15.48,0.76 23.48,0.76 84.95,0 177.07,-28.77 244.33,-49.77 42.27,-13.2 75.66,-23.63 95.02,-23.63 12.56,0 18.67,4.46 18.67,13.63 0,19.6 -13.49,48.18 -30.58,84.36 -27.26,57.74 -64.59,136.81 -64.59,223.13 0,57.21 2.06,88.88 3.43,109.84 1.17,18.05 1.79,27.48 -0.11,37.36 z"
   id="path301"
   inkscape:connector-curvature="0"
   style="fill:#711a8e" />
						</g>
						<path
   class="st30"
   d="m 1938.73,935.91 c -16.35,-17.73 -39.38,-34.55 -54.69,-39.49 -35.39,-11.41 -94.94,-4.07 -152.96,4.97 1.26,25.47 3.9,79.23 7.05,144.77 65.84,-20.56 111.12,-34.56 111.12,-10.64 0,51.25 -95.18,168.39 -95.18,307.49 0,106.05 7.17,125.63 3.49,146.21 0.02,0.7 0.03,1.38 0.05,2.05 h 44.83 c -2.44,-45.16 -7.37,-106.11 -6.26,-148.25 1.57,-59.3 114.83,-306.08 142.55,-407.11 z"
   id="path305"
   inkscape:connector-curvature="0"
   style="fill:#551670" />
						<path
   class="st30"
   d="m 1884.04,896.42 c -70.71,-22.81 -237.94,29.28 -296.51,20.13 -18.71,-2.92 -31.79,-15.76 -39.89,-33.58 -3.54,52.64 16.7,118.36 147.78,99.64 211.39,-30.2 233.35,-30.2 258.06,5.49 1.94,2.8 3.7,5.35 5.35,7.72 1.03,-12.29 0.83,-23.72 -1.57,-31.68 -7.2,-23.87 -49.49,-60.06 -73.22,-67.72 z"
   id="path307"
   inkscape:connector-curvature="0"
   style="fill:#551670" />
						<g
   id="g335">
							<linearGradient
   id="SVGID_18_"
   gradientUnits="userSpaceOnUse"
   x1="1497.5793"
   y1="381.5105"
   x2="1497.5793"
   y2="897.52081">
								<stop
   offset="0"
   style="stop-color:#FFFFFF"
   id="stop309" />
								<stop
   offset="0.1041"
   style="stop-color:#F6F8FC"
   id="stop311" />
								<stop
   offset="0.3704"
   style="stop-color:#E5EBF7"
   id="stop313" />
								<stop
   offset="0.6575"
   style="stop-color:#DAE3F4"
   id="stop315" />
								<stop
   offset="1"
   style="stop-color:#D7E1F3"
   id="stop317" />
							</linearGradient>
							<path
   class="st31"
   d="m 1545.6,875.56 c -10.62,-37.66 -7.16,-95.5 12.64,-127.4 32.95,-53.08 131.78,-42.1 49.42,-186.69 -52.53,-92.23 -66.72,-139.21 -70.1,-162.57 -8.33,-0.87 -16.64,-1.89 -24.88,-3.41 -19.82,-3.65 -39.01,-10.12 -58.74,-13.99 -19.92,57.87 -74.61,225.61 -87.87,359.34 -4.44,44.82 -10.57,101.58 -10.57,156.49 0,2.45 185.51,-20.27 190.1,-21.77 z"
   id="path320"
   inkscape:connector-curvature="0"
   style="fill:url(#SVGID_18_)" />
							<linearGradient
   id="SVGID_19_"
   gradientUnits="userSpaceOnUse"
   x1="1354.4421"
   y1="639.43719"
   x2="1640.8264"
   y2="639.43719">
								<stop
   offset="0"
   style="stop-color:#FFFFFF"
   id="stop322" />
								<stop
   offset="0.1041"
   style="stop-color:#F6F8FC"
   id="stop324" />
								<stop
   offset="0.3704"
   style="stop-color:#E5EBF7"
   id="stop326" />
								<stop
   offset="0.6575"
   style="stop-color:#DAE3F4"
   id="stop328" />
								<stop
   offset="1"
   style="stop-color:#D7E1F3"
   id="stop330" />
							</linearGradient>
							<path
   class="st32"
   d="m 1356.89,898.58 v 0 c -1.04,0 -2.45,0 -2.45,-1.24 0,-50.85 5.29,-103.79 9.55,-146.33 l 1.03,-10.27 c 13.09,-132.04 65.85,-295.45 87.92,-359.58 l 0.3,-0.87 0.91,0.18 c 9.48,1.86 18.98,4.35 28.17,6.77 9.97,2.62 20.27,5.32 30.56,7.22 8.9,1.64 17.93,2.67 24.8,3.39 l 0.82,0.09 0.12,0.82 c 3.49,24.08 18.46,71.77 69.97,162.2 59.72,104.84 24.94,128.56 -11.87,153.67 -13.98,9.53 -28.43,19.39 -37.57,34.11 -20.47,32.98 -22.44,91.37 -12.52,126.55 l 0.28,0.98 -0.97,0.32 c -4.51,1.45 -172.79,21.99 -189.05,21.99 z m -0.32,-2.12 c 0.09,0 0.2,0 0.33,0 15.49,0 172.75,-19.1 187.39,-21.7 -9.69,-35.72 -7.5,-94.02 13.07,-127.15 9.37,-15.1 24.01,-25.08 38.18,-34.74 35.98,-24.54 69.97,-47.72 11.22,-150.86 -51.1,-89.71 -66.38,-137.61 -70.11,-162.13 -6.8,-0.72 -15.52,-1.74 -24.14,-3.33 -10.37,-1.91 -20.71,-4.63 -30.72,-7.25 -8.86,-2.33 -18.01,-4.73 -27.13,-6.56 -22.22,64.66 -74.51,227 -87.52,358.22 l -1.02,10.27 c -4.24,42.24 -9.49,94.75 -9.55,145.23 z"
   id="path333"
   inkscape:connector-curvature="0"
   style="fill:url(#SVGID_19_)" />
						</g>
						<path
   class="st28"
   d="m 1553.98,893.37 c 0,0 228.36,-131.22 241.6,-134.83 13.42,-3.66 90.91,-45.14 129.34,-1.22 38.43,43.92 -78.51,343.34 -78.51,343.34 0,0 -69.14,203.31 -69.14,236.25 0,32.94 -7.73,134.36 0.5,167.31 8.24,32.94 -4.47,31.89 -4.47,31.89 0,0 -28.37,-12.81 -29.28,-43.93 -0.92,-31.11 -1.83,-76.87 -14.64,-100.67 -12.81,-23.79 -36.61,-45.76 -29.28,-67.72 7.32,-21.96 25.32,-18.91 34.47,-38.13 9.15,-19.22 37.83,-340.43 53.69,-392.9 -0.01,0 -186.18,77.35 -234.28,0.61 z"
   id="path337"
   inkscape:connector-curvature="0"
   style="fill:#fbcd9d" />
						<path
   class="st28"
   d="m 1407.87,474.16 c -68.09,34.19 -113.48,258.07 -62.23,298.34 49.21,38.67 363.13,-158.61 389.07,-173.86 0.95,-0.56 2.15,-0.29 2.78,0.61 0,0 9.59,9.4 13.82,10.86 6.09,2.1 29.72,-3.65 29.72,-3.65 6.29,-1.05 9.55,-3.03 14.09,-0.3 l 47.41,20.83 c 3.93,2.37 8.05,0.04 4.8,-3.2 l -81.72,-57.95 c -15.86,-8.85 -31.69,-9.81 -37.76,-7.19 l -76.73,32.97 -209.99,90.12 c -3.31,1.35 -12.51,-2.29 -7.78,-11.9 15.4,-31.29 59.17,-124.19 49.57,-157.25 -16.48,-56.73 -54,-48.99 -75.05,-38.43 z"
   id="path339"
   inkscape:connector-curvature="0"
   style="fill:#fbcd9d" />
						<g
   id="g367">
							<linearGradient
   id="SVGID_20_"
   gradientUnits="userSpaceOnUse"
   x1="1405.201"
   y1="466.7196"
   x2="1405.201"
   y2="657.04218">
								<stop
   offset="0"
   style="stop-color:#FFFFFF"
   id="stop341" />
								<stop
   offset="0.1041"
   style="stop-color:#F6F8FC"
   id="stop343" />
								<stop
   offset="0.3704"
   style="stop-color:#E5EBF7"
   id="stop345" />
								<stop
   offset="0.6575"
   style="stop-color:#DAE3F4"
   id="stop347" />
								<stop
   offset="1"
   style="stop-color:#D7E1F3"
   id="stop349" />
							</linearGradient>
							<path
   class="st33"
   d="m 1441.41,653.07 c 18.71,-39.77 49.73,-112.11 41.5,-140.47 -16.47,-56.74 -53.99,-49.01 -75.04,-38.44 -40.34,20.25 -72.71,107.09 -81.74,182.88 z"
   id="path352"
   inkscape:connector-curvature="0"
   style="fill:url(#SVGID_20_)" />
							<linearGradient
   id="SVGID_21_"
   gradientUnits="userSpaceOnUse"
   x1="1324.9298"
   y1="561.90192"
   x2="1485.3086"
   y2="561.90192">
								<stop
   offset="0"
   style="stop-color:#FFFFFF"
   id="stop354" />
								<stop
   offset="0.1041"
   style="stop-color:#F6F8FC"
   id="stop356" />
								<stop
   offset="0.3704"
   style="stop-color:#E5EBF7"
   id="stop358" />
								<stop
   offset="0.6575"
   style="stop-color:#DAE3F4"
   id="stop360" />
								<stop
   offset="1"
   style="stop-color:#D7E1F3"
   id="stop362" />
							</linearGradient>
							<path
   class="st34"
   d="m 1324.93,658.15 0.15,-1.23 c 8.74,-73.41 40.57,-162.74 82.31,-183.7 6.87,-3.45 17.43,-7.56 28.76,-7.56 15.62,0 36.59,8.09 47.78,46.65 8.26,28.46 -22.49,100.69 -41.55,141.22 l -0.28,0.59 z m 111.22,-190.37 c -10.91,0 -21.14,3.99 -27.81,7.33 -40.85,20.51 -72.12,108.2 -81.01,180.83 l 113.39,-3.91 c 18.96,-40.36 49.19,-111.47 41.16,-139.13 -8.68,-29.94 -24.07,-45.12 -45.73,-45.12 z"
   id="path365"
   inkscape:connector-curvature="0"
   style="fill:url(#SVGID_21_)" />
						</g>
						<defs
   id="defs374">
							<filter
   id="Adobe_OpacityMaskFilter_2_"
   filterUnits="userSpaceOnUse"
   x="1454.14"
   y="316.32001"
   width="84.870003"
   height="81.529999">
								<feFlood
   result="back"
   id="feFlood369" />
								<feBlend
   in="SourceGraphic"
   in2="back"
   mode="normal"
   id="feBlend371" />
							</filter>
						</defs>
						<mask
   maskUnits="userSpaceOnUse"
   x="1454.14"
   y="316.32"
   width="84.87"
   height="81.53"
   id="mask399">
							<g
   class="st35"
   id="g397"
   style="filter:url(#Adobe_OpacityMaskFilter_2_)">
								<defs
   id="defs381">

										<filter
   id="Adobe_OpacityMaskFilter_3_"
   filterUnits="userSpaceOnUse"
   x="1454.14"
   y="316.32001"
   width="84.870003"
   height="81.529999">
										<feFlood
   result="back"
   id="feFlood376" />
										<feBlend
   in="SourceGraphic"
   in2="back"
   mode="normal"
   id="feBlend378" />
									</filter>
								</defs>
								<mask
   maskUnits="userSpaceOnUse"
   x="1454.14"
   y="316.32"
   width="84.87"
   height="81.53"
   id="SVGID_22_">
									<g
   class="st36"
   id="g383"
   style="filter:url(#Adobe_OpacityMaskFilter_3_)">
									</g>
								</mask>
								<linearGradient
   id="SVGID_23_"
   gradientUnits="userSpaceOnUse"
   x1="1496.5763"
   y1="316.319"
   x2="1496.5763"
   y2="397.84479">
									<stop
   offset="0"
   style="stop-color:#FFFFFF"
   id="stop386" />
									<stop
   offset="0.2302"
   style="stop-color:#F0F0F0"
   id="stop388" />
									<stop
   offset="0.7095"
   style="stop-color:#D6D6D6"
   id="stop390" />
									<stop
   offset="0.9946"
   style="stop-color:#CCCCCC"
   id="stop392" />
								</linearGradient>
								<path
   class="st37"
   d="m 1539.01,337.76 c 0,0 -32.78,-0.57 -54.63,-21.44 l -30.23,64.15 c 0,0 44.34,11.19 55.23,13.46 9.96,2.07 28.15,3.91 28.15,3.91 0,0 -0.14,-55.63 1.48,-60.08 z"
   mask="url(#SVGID_22_)"
   id="path395"
   inkscape:connector-curvature="0"
   style="fill:url(#SVGID_23_)" />
							</g>
						</mask>
						<linearGradient
   id="SVGID_24_"
   gradientUnits="userSpaceOnUse"
   x1="1496.5763"
   y1="316.319"
   x2="1496.5763"
   y2="397.84479">
							<stop
   offset="0"
   style="stop-color:#FD9C79"
   id="stop401" />
							<stop
   offset="0.6074"
   style="stop-color:#FDB482"
   id="stop403" />
							<stop
   offset="0.9946"
   style="stop-color:#FDBE86"
   id="stop405" />
						</linearGradient>
						<path
   class="st38"
   d="m 1539.01,337.76 c 0,0 -32.78,-0.57 -54.63,-21.44 l -30.23,64.15 c 0,0 44.34,11.19 55.23,13.46 9.96,2.07 28.15,3.91 28.15,3.91 0,0 -0.14,-55.63 1.48,-60.08 z"
   id="path408"
   inkscape:connector-curvature="0"
   style="fill:url(#SVGID_24_)" />
						<path
   class="st39"
   d="m 1573.63,202.3 c -10.95,-12.13 -25.63,-19.56 -41.78,-19.56 -33.87,0 -61.32,32.65 -61.32,72.93 0,9.76 1.62,19.06 4.55,27.56 -3.39,17.26 -10.24,52.67 -14.99,80.75 -9.77,27.29 -78.87,224.22 -94.01,376.87 -9.38,94.61 -27.05,242.43 25.46,313.78 -0.48,-2.56 -1.02,-5.23 -1.67,-8.12 -12.81,-56.74 -3.66,-164.73 -1.83,-219.63 1.83,-54.91 71.38,-338.6 67.72,-373.38 -3.66,-34.78 76.87,-137.27 95.17,-168.39 9.3,-15.83 17.19,-51.53 22.7,-82.81 z"
   id="path410"
   inkscape:connector-curvature="0"
   style="opacity:0.2;fill:#5b86c4" />
						<g
   id="g416">
							<path
   class="st26"
   d="m 1593.17,255.67 c 0,0 19.98,-118.82 -108.14,-78.55 -128.12,40.27 -80.53,151.91 -80.53,151.91 0,0 -82.36,25.62 -123.85,106.16 -41.47,80.5 -15.86,137.88 -15.86,137.88 0,0 -76.26,28.67 -81.75,136.66 -5.49,107.99 174.79,122.17 174.79,122.17 0,0 66.59,-239.42 64.06,-304.29 -3.66,-93.95 50.33,-160.15 72.3,-194.93 0,0 49.42,-63.45 53.08,-112.87 0,0.01 20.43,33.88 45.9,35.86 z"
   id="path412"
   inkscape:connector-curvature="0"
   style="fill:#3b67ae" />
							<path
   class="st40"
   d="m 1546.01,229.49 c -5.71,10.5 -30.59,53.81 -65.25,79.41 -39.66,29.28 -163.51,175.1 -173.27,306.88 -5.85,78.93 18.07,156.11 23.25,212.4 16.25,2.87 27.09,3.73 27.09,3.73 0,0 66.59,-239.42 64.06,-304.29 -3.66,-93.95 50.33,-160.15 72.3,-194.93 0,0 43.27,-55.56 51.82,-103.2 z"
   id="path414"
   inkscape:connector-curvature="0"
   style="opacity:0.3;fill:#3b67ae" />
						</g>
					</g>
					<g
   id="g424">
						<path
   class="st29"
   d="m 1924.92,757.32 c -38.43,-43.92 -115.92,-2.44 -129.34,1.22 -13.24,3.61 -241.6,134.83 -241.6,134.83 48.1,76.74 234.28,-0.61 234.28,-0.61 -13.56,44.84 -36.47,285.98 -48.56,367.13 h 55.84 c 20.48,-69.84 50.88,-159.23 50.88,-159.23 0,0 116.93,-299.42 78.5,-343.34 z"
   id="path420"
   inkscape:connector-curvature="0"
   style="fill:#711a8e" />
						<path
   class="st29"
   d="m 1796.67,1261.41 h -58.74 l 0.26,-1.75 c 4.4,-29.53 10.29,-80.78 16.53,-135.04 10.62,-92.39 22.62,-196.72 31.23,-229.3 -15.32,6.03 -88.63,33.52 -150.41,33.52 -40.56,0 -68.44,-11.66 -82.86,-34.66 l -0.84,-1.34 1.37,-0.79 c 9.33,-5.36 228.68,-131.36 241.95,-134.98 1.88,-0.51 5.26,-1.88 9.55,-3.6 15.32,-6.18 43.85,-17.7 71.33,-17.7 21.25,0 38.08,6.91 50.01,20.55 38.6,44.11 -73.45,332.63 -78.24,344.89 -0.28,0.83 -30.6,90.09 -50.84,159.1 z m -55.21,-3.05 h 52.94 c 20.26,-68.91 50.28,-157.31 50.58,-158.19 1.19,-3.05 116.19,-299.12 78.8,-341.85 -11.32,-12.94 -27.38,-19.51 -47.72,-19.51 -26.89,0 -55.06,11.37 -70.2,17.47 -4.54,1.83 -7.83,3.16 -9.88,3.72 -12.38,3.37 -220.72,122.9 -239.86,133.89 14.07,21.17 40.78,31.91 79.42,31.91 68.43,0 151.3,-34.1 152.13,-34.44 l 2.97,-1.23 -0.93,3.08 c -8.58,28.38 -21,136.43 -31.97,231.77 -6.12,53.22 -11.91,103.57 -16.28,133.38 z"
   id="path422"
   inkscape:connector-curvature="0"
   style="fill:#711a8e" />
					</g>
				</g>
			</g>
			<g
   id="g434">
				<path
   class="st24"
   d="m 1777.78,1504.22 c -3.13,-12.51 -3.95,-34.9 -3.77,-59.65 -4.87,-30.77 -10.38,-63.32 -13.65,-75.28 -4.58,-16.8 -22.11,-52 -33.2,-73.43 -9.4,8.91 -21.41,10.98 -27.06,27.94 -7.32,21.96 16.47,43.93 29.29,67.72 12.81,23.79 13.73,69.55 14.64,100.67 0.84,28.55 24.74,41.66 28.68,43.63 l 4.22,-1.14 c 2.98,-2.62 5.98,-9.95 0.85,-30.46 z"
   id="path430"
   inkscape:connector-curvature="0"
   style="fill:#3b3c8f" />
				<path
   class="st24"
   d="m 1772.54,1537.43 -0.52,-0.26 c -4.78,-2.39 -28.66,-15.77 -29.52,-44.94 l -0.09,-3.1 c -0.91,-31.31 -2.15,-74.19 -14.37,-96.89 -3.58,-6.64 -8.08,-13.23 -12.44,-19.61 -11.54,-16.88 -22.44,-32.83 -16.95,-49.32 4.07,-12.21 11.38,-17.07 18.45,-21.78 3.04,-2.03 6.19,-4.12 9.01,-6.79 l 1.47,-1.39 0.93,1.8 c 10.43,20.16 28.64,56.56 33.32,73.73 2.74,10.05 7.34,35.43 13.68,75.45 -0.19,29.26 1.03,48.65 3.74,59.52 4.19,16.77 3.75,27.53 -1.33,31.97 l -0.26,0.23 z m -45.83,-239.13 c -2.57,2.21 -5.29,4.01 -7.92,5.77 -6.95,4.62 -13.51,8.99 -17.25,20.21 -5.02,15.05 5.47,30.39 16.57,46.64 4.4,6.44 8.95,13.1 12.61,19.88 12.56,23.33 13.82,66.63 14.73,98.24 l 0.09,3.1 c 0.78,26.53 21.85,39.2 27.33,42.05 l 3.3,-0.88 c 2.3,-2.28 5.07,-8.99 0.14,-28.72 -2.78,-11.13 -4.03,-30.76 -3.81,-60.03 -6.3,-39.66 -10.88,-64.93 -13.59,-74.87 -4.5,-16.43 -21.71,-51.04 -32.2,-71.39 z"
   id="path432"
   inkscape:connector-curvature="0"
   style="fill:#3b3c8f" />
			</g>
			<path
   class="st24"
   d="m 1797.11,1655.19 -1.78,-3.86 c 0,0 -21.61,-74.56 -35.98,-96.8 -4.17,-6.46 -16.22,-31.68 -16.22,-31.68 -7.41,10.76 -19.37,29.59 -18.32,37.97 1.67,13.35 27.56,30.95 31.11,43.93 5.08,18.54 -4.81,58.83 1.83,76.87 6.1,16.57 41.78,51.48 56.74,42.1 16.57,-10.4 -8.98,-22.2 -13.73,-41.18 -1.62,-6.49 -2.81,-16.05 -3.65,-27.35 z"
   id="path436"
   inkscape:connector-curvature="0"
   style="fill:#3b3c8f" />
		</g>
	</g>
</g>
</svg>
