<?xml version="1.0" encoding="UTF-8" standalone="no"?>
<!-- Generator: Adobe Illustrator 24.0.1, SVG Export Plug-In . SVG Version: 6.00 Build 0)  -->

<svg
   xmlns:dc="http://purl.org/dc/elements/1.1/"
   xmlns:cc="http://creativecommons.org/ns#"
   xmlns:rdf="http://www.w3.org/1999/02/22-rdf-syntax-ns#"
   xmlns:svg="http://www.w3.org/2000/svg"
   xmlns="http://www.w3.org/2000/svg"
   xmlns:sodipodi="http://sodipodi.sourceforge.net/DTD/sodipodi-0.dtd"
   xmlns:inkscape="http://www.inkscape.org/namespaces/inkscape"
   version="1.1"
   id="Layer_1"
   x="0px"
   y="0px"
   viewBox="0 0 499.14175 570.2337"
   xml:space="preserve"
   sodipodi:docname="illustration3-icon4.svg"
   width="499.14175"
   height="570.2337"
   inkscape:version="0.92.3 (2405546, 2018-03-11)"><metadata
   id="metadata61"><rdf:RDF><cc:Work
       rdf:about=""><dc:format>image/svg+xml</dc:format><dc:type
         rdf:resource="http://purl.org/dc/dcmitype/StillImage" /><dc:title></dc:title></cc:Work></rdf:RDF></metadata><defs
   id="defs59" /><sodipodi:namedview
   pagecolor="#ffffff"
   bordercolor="#666666"
   borderopacity="1"
   objecttolerance="10"
   gridtolerance="10"
   guidetolerance="10"
   inkscape:pageopacity="0"
   inkscape:pageshadow="2"
   inkscape:window-width="640"
   inkscape:window-height="480"
   id="namedview57"
   showgrid="false"
   fit-margin-top="0"
   fit-margin-left="0"
   fit-margin-right="0"
   fit-margin-bottom="0"
   inkscape:zoom="0.21851852"
   inkscape:cx="249.57075"
   inkscape:cy="358.87373"
   inkscape:window-x="0"
   inkscape:window-y="25"
   inkscape:window-maximized="0"
   inkscape:current-layer="Layer_1" />
<style
   type="text/css"
   id="style2">
	.st0{fill:#EBF5FD;}
	.st1{fill:none;stroke:#3F6D92;stroke-width:9;stroke-miterlimit:10;}
	.st2{fill:#FF95A9;stroke:#3F6D92;stroke-width:9;stroke-miterlimit:10;}
	.st3{fill:#78B1E0;stroke:#3F6D92;stroke-width:8;stroke-miterlimit:10;}
	.st4{fill:none;stroke:#3F6D92;stroke-width:8;stroke-miterlimit:10;}
</style>
<g
   id="g54"
   transform="translate(-290.42925,-328.64)">
	<path
   class="st0"
   d="m 721.54,404.72 v 0 C 548.8,377.36 378.1,464.34 298.7,620.17 v 0 c -14.92,29.27 -9.29,64.82 13.95,88.06 l 168.43,168.43 c 23.23,23.23 58.78,28.86 88.06,13.95 v 0 c 155.82,-79.4 242.8,-250.1 215.44,-422.83 v 0 c -5.14,-32.47 -30.59,-57.92 -63.04,-63.06 z"
   id="path4"
   inkscape:connector-curvature="0"
   style="fill:#ebf5fd" />
	<g
   id="g52">
		<g
   id="g10">
			<path
   class="st1"
   d="m 664.33,733.12 v 21.02 c 0,13.67 -11.18,24.85 -24.85,24.85 h -309.1 c -13.67,0 -24.85,-11.18 -24.85,-24.85 V 357.99 c 0,-13.67 11.18,-24.85 24.85,-24.85 h 259.23 l 74.72,74.73 V 610.2"
   id="path6"
   inkscape:connector-curvature="0"
   style="fill:none;stroke:#3f6d92;stroke-width:9;stroke-miterlimit:10" />
			<polyline
   class="st1"
   points="658.31,408.89 588.57,408.89 588.57,339.16    "
   id="polyline8"
   style="fill:none;stroke:#3f6d92;stroke-width:9;stroke-miterlimit:10" />
		</g>
		<g
   id="g18">
			<line
   class="st1"
   x1="347.03"
   y1="436.5"
   x2="460.22"
   y2="436.5"
   id="line12"
   style="fill:none;stroke:#3f6d92;stroke-width:9;stroke-miterlimit:10" />
			<line
   class="st1"
   x1="347.03"
   y1="467.62"
   x2="437.53"
   y2="467.62"
   id="line14"
   style="fill:none;stroke:#3f6d92;stroke-width:9;stroke-miterlimit:10" />
			<line
   class="st1"
   x1="347.03"
   y1="400.92001"
   x2="423.95999"
   y2="400.92001"
   id="line16"
   style="fill:none;stroke:#3f6d92;stroke-width:9;stroke-miterlimit:10" />
		</g>
		<g
   id="g34">
			<line
   class="st2"
   x1="530.67999"
   y1="577.82001"
   x2="567.40002"
   y2="474.56"
   id="line20"
   style="fill:#ff95a9;stroke:#3f6d92;stroke-width:9;stroke-miterlimit:10" />
			<line
   class="st2"
   x1="428.07001"
   y1="682.15997"
   x2="488.35001"
   y2="626.73999"
   id="line22"
   style="fill:#ff95a9;stroke:#3f6d92;stroke-width:9;stroke-miterlimit:10" />
			
				<circle
   transform="matrix(0.5236,-0.852,0.852,0.5236,-271.6285,728.3015)"
   class="st2"
   cx="515.39001"
   cy="607.03003"
   id="ellipse24"
   r="32.869999"
   style="fill:#ff95a9;stroke:#3f6d92;stroke-width:9;stroke-miterlimit:10" />
			
				<circle
   transform="matrix(0.5236,-0.852,0.852,0.5236,-389.5358,683.2634)"
   class="st2"
   cx="416.17001"
   cy="689.92999"
   id="ellipse26"
   r="13.38"
   style="fill:#ff95a9;stroke:#3f6d92;stroke-width:9;stroke-miterlimit:10" />
			<path
   class="st2"
   d="m 395.41,739.99 c 1.72,7.19 -2.72,14.41 -9.91,16.12 -7.19,1.72 -14.41,-2.72 -16.12,-9.91 -1.72,-7.19 2.72,-14.41 9.91,-16.12 7.19,-1.71 14.4,2.73 16.12,9.91 z"
   id="path28"
   inkscape:connector-curvature="0"
   style="fill:#ff95a9;stroke:#3f6d92;stroke-width:9;stroke-miterlimit:10" />
			<path
   class="st2"
   d="m 583.96,459.3 c 1.72,7.19 -2.72,14.41 -9.91,16.12 -7.19,1.72 -14.41,-2.72 -16.12,-9.91 -1.72,-7.19 2.72,-14.41 9.91,-16.12 7.19,-1.72 14.41,2.72 16.12,9.91 z"
   id="path30"
   inkscape:connector-curvature="0"
   style="fill:#ff95a9;stroke:#3f6d92;stroke-width:9;stroke-miterlimit:10" />
			<line
   class="st2"
   x1="409.04999"
   y1="701.25"
   x2="389.73999"
   y2="730.78998"
   id="line32"
   style="fill:#ff95a9;stroke:#3f6d92;stroke-width:9;stroke-miterlimit:10" />
		</g>
		<g
   id="g50">
			<g
   id="g42">
				<polygon
   class="st3"
   points="624.18,634.02 624.31,633.77 "
   id="polygon36"
   style="fill:#78b1e0;stroke:#3f6d92;stroke-width:8;stroke-miterlimit:10" />
				<polygon
   class="st3"
   points="606.86,666.89 606.99,666.64 "
   id="polygon38"
   style="fill:#78b1e0;stroke:#3f6d92;stroke-width:8;stroke-miterlimit:10" />
				<path
   class="st3"
   d="m 624.18,634.02 c 6.41,-19.96 7.03,-42 0.36,-63.55 -17.29,-55.83 -76.57,-87.07 -132.4,-69.77 -55.83,17.29 -87.06,76.57 -69.77,132.4 17.29,55.83 76.57,87.06 132.4,69.77 21.55,-6.67 39.38,-19.65 52.22,-36.22 m -60.57,9.25 c -40.94,12.68 -84.4,-10.23 -97.08,-51.16 -12.68,-40.94 10.22,-84.4 51.16,-97.08 40.94,-12.68 84.4,10.23 97.08,51.16 12.68,40.94 -10.23,84.4 -51.16,97.08 z"
   id="path40"
   inkscape:connector-curvature="0"
   style="fill:#78b1e0;stroke:#3f6d92;stroke-width:8;stroke-miterlimit:10" />
			</g>
			<g
   id="g46">
				<path
   class="st4"
   d="m 553.53,560.51 c 15.65,8.25 24.14,24.75 22.95,41.33"
   id="path44"
   inkscape:connector-curvature="0"
   style="fill:none;stroke:#3f6d92;stroke-width:8;stroke-miterlimit:10" />
			</g>
			<path
   class="st3"
   d="m 599.96,667.7 111.14,58.57 c 7.43,3.91 17.92,-1.39 23.43,-11.84 5.51,-10.46 3.95,-22.1 -3.48,-26.02 L 619.91,629.84"
   id="path48"
   inkscape:connector-curvature="0"
   style="fill:#78b1e0;stroke:#3f6d92;stroke-width:8;stroke-miterlimit:10" />
		</g>
	</g>
</g>
</svg>