<?xml version="1.0" encoding="utf-8"?>
<!-- Generator: Adobe Illustrator 24.0.1, SVG Export Plug-In . SVG Version: 6.00 Build 0)  -->
<svg version="1.1" id="Isolation_Mode" xmlns="http://www.w3.org/2000/svg" xmlns:xlink="http://www.w3.org/1999/xlink" x="0px"
	 y="0px" viewBox="0 0 70 70" style="enable-background:new 0 0 70 70;" xml:space="preserve">
<style type="text/css">
	.st0{fill:none;stroke:#231F20;stroke-miterlimit:10;}
	.st1{fill:none;stroke:#231F20;stroke-linecap:square;stroke-miterlimit:10;}
</style>
<g>
	<g>
		<g>
			<polyline class="st0" points="32.15,28.84 32.15,36.15 27.65,40.64 			"/>
			<g>
				<path class="st0" d="M30.81,49.33c-6.68-0.67-11.9-6.3-11.92-13.16c-0.01-7.32,5.91-13.26,13.23-13.27
					c6.85-0.01,12.5,5.18,13.2,11.85"/>
			</g>
			<line class="st1" x1="32.12" y1="23.08" x2="32.12" y2="24.35"/>
			<line class="st1" x1="25.59" y1="24.84" x2="26.23" y2="25.94"/>
			<line class="st1" x1="20.82" y1="29.63" x2="21.92" y2="30.27"/>
			<line class="st1" x1="19.08" y1="36.17" x2="20.35" y2="36.17"/>
			<line class="st1" x1="20.84" y1="42.7" x2="21.94" y2="42.06"/>
			<line class="st1" x1="25.63" y1="47.47" x2="26.27" y2="46.37"/>
			<line class="st1" x1="43.45" y1="29.59" x2="42.35" y2="30.23"/>
			<line class="st1" x1="38.66" y1="24.82" x2="38.02" y2="25.92"/>
		</g>
	</g>
	<g>
		<g>
			<g>
				<g>
					<path class="st0" d="M39.06,46.97L39.06,46.97c0,0.86,0.7,1.56,1.56,1.56h1.6c0.86,0,1.56-0.7,1.56-1.56v0
						c0-0.86-0.7-1.56-1.56-1.56h-1.6c-0.86,0-1.56-0.7-1.56-1.56l0,0c0-0.86,0.7-1.56,1.56-1.56h1.6c0.86,0,1.56,0.7,1.56,1.56l0,0
						"/>
					<line class="st1" x1="41.41" y1="48.53" x2="41.41" y2="49.51"/>
					<line class="st1" x1="41.41" y1="41.31" x2="41.41" y2="42.01"/>
				</g>
			</g>
		</g>
		<path class="st0" d="M37.77,36.44c1.17-0.47,2.41-0.71,3.65-0.71c1.24,0,2.48,0.24,3.65,0.71c1.17,0.47,2.26,1.18,3.2,2.13
			s1.66,2.04,2.13,3.2c0.47,1.17,0.71,2.41,0.71,3.65s-0.24,2.48-0.71,3.65c-0.47,1.17-1.18,2.26-2.13,3.2s-2.04,1.66-3.2,2.13
			c-1.17,0.47-2.41,0.71-3.65,0.71c-1.24,0-2.48-0.24-3.65-0.71c-1.17-0.47-2.26-1.18-3.2-2.13s-1.66-2.04-2.13-3.2
			c-0.47-1.17-0.71-2.41-0.71-3.65"/>
	</g>
	<polyline class="st0" points="38.11,34.44 37.2,36.75 39.5,37.66 	"/>
</g>
</svg>
