<?xml version="1.0" encoding="UTF-8" standalone="no"?>
<!-- Generator: Adobe Illustrator 24.0.1, SVG Export Plug-In . SVG Version: 6.00 Build 0)  -->

<svg
   xmlns:dc="http://purl.org/dc/elements/1.1/"
   xmlns:cc="http://creativecommons.org/ns#"
   xmlns:rdf="http://www.w3.org/1999/02/22-rdf-syntax-ns#"
   xmlns:svg="http://www.w3.org/2000/svg"
   xmlns="http://www.w3.org/2000/svg"
   xmlns:sodipodi="http://sodipodi.sourceforge.net/DTD/sodipodi-0.dtd"
   xmlns:inkscape="http://www.inkscape.org/namespaces/inkscape"
   version="1.1"
   id="Layer_1"
   x="0px"
   y="0px"
   viewBox="0 0 148.99707 130.4213"
   xml:space="preserve"
   sodipodi:docname="illustration3-icon3.svg"
   width="148.99707"
   height="130.4213"
   inkscape:version="0.92.3 (2405546, 2018-03-11)"><metadata
   id="metadata91"><rdf:RDF><cc:Work
       rdf:about=""><dc:format>image/svg+xml</dc:format><dc:type
         rdf:resource="http://purl.org/dc/dcmitype/StillImage" /><dc:title></dc:title></cc:Work></rdf:RDF></metadata><defs
   id="defs89" /><sodipodi:namedview
   pagecolor="#ffffff"
   bordercolor="#666666"
   borderopacity="1"
   objecttolerance="10"
   gridtolerance="10"
   guidetolerance="10"
   inkscape:pageopacity="0"
   inkscape:pageshadow="2"
   inkscape:window-width="640"
   inkscape:window-height="480"
   id="namedview87"
   showgrid="false"
   fit-margin-top="0"
   fit-margin-left="0"
   fit-margin-right="0"
   fit-margin-bottom="0"
   inkscape:zoom="1.5733333"
   inkscape:cx="75"
   inkscape:cy="65.175064"
   inkscape:window-x="0"
   inkscape:window-y="25"
   inkscape:window-maximized="0"
   inkscape:current-layer="Layer_1" />
<style
   type="text/css"
   id="style2">
	.st0{fill:#EBF5FD;}
	.st1{fill:#77B0DF;}
	.st2{fill:#FFFFFF;}
	.st3{fill:#3F6D92;}
	.st4{fill:#FF95A9;}
</style>
<g
   id="g84"
   transform="translate(0,-9.7537693)">
	<path
   class="st0"
   d="M 104.83,137.89 C 73.31,145.09 0,136.15 0,98.51 0,78.29 11.41,67 24.97,67 65.35,67 72.41,104.38 83.5,93.73 94.67,83 136.99,78.75 144.81,91.56 c 12.81,20.96 -4.69,38.27 -39.98,46.33 z"
   id="path4"
   inkscape:connector-curvature="0"
   style="fill:#ebf5fd" />
	<path
   class="st0"
   d="M 64.2,32.49 C 57.24,49.85 13.06,47.66 9.79,40.25 6.48,32.76 8.82,22.34 29.04,13.19 c 18.68,-8.47 43.29,-1 35.16,19.3 z"
   id="path6"
   inkscape:connector-curvature="0"
   style="fill:#ebf5fd" />
	<g
   id="g82">
		<rect
   x="17.459999"
   y="32.560001"
   class="st1"
   width="116.32"
   height="88.5"
   id="rect8"
   style="fill:#77b0df" />
		
			<rect
   x="36.43"
   y="23.709999"
   transform="rotate(90,75.6209,76.8159)"
   class="st2"
   width="78.389999"
   height="106.2"
   id="rect10"
   style="fill:#ffffff" />
		<path
   class="st3"
   d="M 25.37,37.62 H 22.2 v -6.97 c 0,-3.07 2.5,-5.57 5.57,-5.57 3.07,0 5.57,2.5 5.57,5.57 v 1.91 h -3.17 v -1.91 c 0,-1.32 -1.08,-2.4 -2.4,-2.4 -1.32,0 -2.4,1.08 -2.4,2.4 z"
   id="path12"
   inkscape:connector-curvature="0"
   style="fill:#3f6d92" />
		<path
   class="st3"
   d="m 41.32,37.62 h -3.17 v -6.97 c 0,-3.07 2.5,-5.57 5.57,-5.57 3.07,0 5.57,2.5 5.57,5.57 v 1.91 h -3.17 v -1.91 c 0,-1.32 -1.08,-2.4 -2.4,-2.4 -1.32,0 -2.4,1.08 -2.4,2.4 z"
   id="path14"
   inkscape:connector-curvature="0"
   style="fill:#3f6d92" />
		<path
   class="st3"
   d="M 57.27,37.62 H 54.1 v -6.97 c 0,-3.07 2.5,-5.57 5.57,-5.57 3.07,0 5.57,2.5 5.57,5.57 v 1.91 h -3.17 v -1.91 c 0,-1.32 -1.08,-2.4 -2.4,-2.4 -1.32,0 -2.4,1.08 -2.4,2.4 z"
   id="path16"
   inkscape:connector-curvature="0"
   style="fill:#3f6d92" />
		<path
   class="st3"
   d="m 73.22,37.62 h -3.17 v -6.97 c 0,-3.07 2.5,-5.57 5.57,-5.57 3.07,0 5.57,2.5 5.57,5.57 v 1.91 h -3.17 v -1.91 c 0,-1.32 -1.08,-2.4 -2.4,-2.4 -1.32,0 -2.4,1.08 -2.4,2.4 z"
   id="path18"
   inkscape:connector-curvature="0"
   style="fill:#3f6d92" />
		<path
   class="st3"
   d="M 89.17,37.62 H 86 v -6.97 c 0,-3.07 2.5,-5.57 5.57,-5.57 3.07,0 5.57,2.5 5.57,5.57 v 1.91 h -3.17 v -1.91 c 0,-1.32 -1.08,-2.4 -2.4,-2.4 -1.32,0 -2.4,1.08 -2.4,2.4 z"
   id="path20"
   inkscape:connector-curvature="0"
   style="fill:#3f6d92" />
		<path
   class="st3"
   d="m 105.12,37.62 h -3.17 v -6.97 c 0,-3.07 2.5,-5.57 5.57,-5.57 3.07,0 5.57,2.5 5.57,5.57 v 1.91 h -3.17 v -1.91 c 0,-1.32 -1.08,-2.4 -2.4,-2.4 -1.32,0 -2.4,1.08 -2.4,2.4 z"
   id="path22"
   inkscape:connector-curvature="0"
   style="fill:#3f6d92" />
		<path
   class="st3"
   d="m 121.07,37.62 h -3.17 v -6.97 c 0,-3.07 2.5,-5.57 5.57,-5.57 3.07,0 5.57,2.5 5.57,5.57 v 1.91 h -3.17 v -1.91 c 0,-1.32 -1.08,-2.4 -2.4,-2.4 -1.32,0 -2.4,1.08 -2.4,2.4 z"
   id="path24"
   inkscape:connector-curvature="0"
   style="fill:#3f6d92" />
		<polygon
   class="st0"
   points="25.05,40.15 128.72,40.15 25.05,56.31 "
   id="polygon26"
   style="fill:#ebf5fd" />
		<g
   id="g74">
			<rect
   x="72.370003"
   y="59.66"
   class="st1"
   width="6.5"
   height="6.5"
   id="rect28"
   style="fill:#77b0df" />
			<rect
   x="85.370003"
   y="59.66"
   class="st1"
   width="6.5"
   height="6.5"
   id="rect30"
   style="fill:#77b0df" />
			<rect
   x="98.379997"
   y="59.66"
   class="st1"
   width="6.5"
   height="6.5"
   id="rect32"
   style="fill:#77b0df" />
			<rect
   x="111.38"
   y="59.66"
   class="st1"
   width="6.5"
   height="6.5"
   id="rect34"
   style="fill:#77b0df" />
			<rect
   x="33.360001"
   y="72.660004"
   class="st1"
   width="6.5"
   height="6.5"
   id="rect36"
   style="fill:#77b0df" />
			<rect
   x="46.360001"
   y="72.660004"
   class="st1"
   width="6.5"
   height="6.5"
   id="rect38"
   style="fill:#77b0df" />
			<rect
   x="59.369999"
   y="72.660004"
   class="st1"
   width="6.5"
   height="6.5"
   id="rect40"
   style="fill:#77b0df" />
			<rect
   x="72.370003"
   y="72.660004"
   class="st4"
   width="6.5"
   height="6.5"
   id="rect42"
   style="fill:#ff95a9" />
			<rect
   x="85.370003"
   y="72.660004"
   class="st1"
   width="6.5"
   height="6.5"
   id="rect44"
   style="fill:#77b0df" />
			<rect
   x="98.379997"
   y="72.660004"
   class="st1"
   width="6.5"
   height="6.5"
   id="rect46"
   style="fill:#77b0df" />
			<rect
   x="111.38"
   y="72.660004"
   class="st1"
   width="6.5"
   height="6.5"
   id="rect48"
   style="fill:#77b0df" />
			<rect
   x="33.360001"
   y="85.669998"
   class="st1"
   width="6.5"
   height="6.5"
   id="rect50"
   style="fill:#77b0df" />
			<rect
   x="46.360001"
   y="85.669998"
   class="st1"
   width="6.5"
   height="6.5"
   id="rect52"
   style="fill:#77b0df" />
			<rect
   x="59.369999"
   y="85.669998"
   class="st1"
   width="6.5"
   height="6.5"
   id="rect54"
   style="fill:#77b0df" />
			<rect
   x="72.370003"
   y="85.669998"
   class="st1"
   width="6.5"
   height="6.5"
   id="rect56"
   style="fill:#77b0df" />
			<rect
   x="85.370003"
   y="85.669998"
   class="st1"
   width="6.5"
   height="6.5"
   id="rect58"
   style="fill:#77b0df" />
			<rect
   x="98.379997"
   y="85.669998"
   class="st3"
   width="6.5"
   height="6.5"
   id="rect60"
   style="fill:#3f6d92" />
			<rect
   x="111.38"
   y="85.669998"
   class="st1"
   width="6.5"
   height="6.5"
   id="rect62"
   style="fill:#77b0df" />
			<rect
   x="33.360001"
   y="98.669998"
   class="st1"
   width="6.5"
   height="6.5"
   id="rect64"
   style="fill:#77b0df" />
			<rect
   x="46.360001"
   y="98.669998"
   class="st1"
   width="6.5"
   height="6.5"
   id="rect66"
   style="fill:#77b0df" />
			<rect
   x="59.369999"
   y="98.669998"
   class="st1"
   width="6.5"
   height="6.5"
   id="rect68"
   style="fill:#77b0df" />
			<rect
   x="72.370003"
   y="98.669998"
   class="st1"
   width="6.5"
   height="6.5"
   id="rect70"
   style="fill:#77b0df" />
			<rect
   x="85.370003"
   y="98.669998"
   class="st1"
   width="6.5"
   height="6.5"
   id="rect72"
   style="fill:#77b0df" />
		</g>
		<polygon
   class="st3"
   points="22.52,114.42 127.14,114.42 127.14,37.62 130.31,37.62 130.31,117.59 22.52,117.59 "
   id="polygon76"
   style="fill:#3f6d92" />
		<rect
   x="15.88"
   y="32.560001"
   class="st3"
   width="3.1700001"
   height="59.599998"
   id="rect78"
   style="fill:#3f6d92" />
		<rect
   x="15.88"
   y="95.010002"
   class="st3"
   width="3.1700001"
   height="5.5300002"
   id="rect80"
   style="fill:#3f6d92" />
	</g>
</g>
</svg>