<?xml version="1.0" encoding="utf-8"?>
<!-- Generator: Adobe Illustrator 24.0.1, SVG Export Plug-In . SVG Version: 6.00 Build 0)  -->
<svg version="1.1" xmlns="http://www.w3.org/2000/svg" xmlns:xlink="http://www.w3.org/1999/xlink" x="0px" y="0px"
	 viewBox="0 0 5000 3125" style="enable-background:new 0 0 5000 3125;" xml:space="preserve">
<style type="text/css">
	.st0{fill-rule:evenodd;clip-rule:evenodd;fill:#EFEFFD;}
	.st1{filter:url(#Adobe_OpacityMaskFilter);}
	.st2{filter:url(#Adobe_OpacityMaskFilter_1_);}
	.st3{mask:url(#SVGID_1_);fill:url(#SVGID_2_);}
	.st4{fill:#BBBFEB;}
	.st5{fill:#F5F6F8;}
	.st6{fill:url(#SVGID_3_);}
	.st7{fill:url(#SVGID_4_);}
	.st8{opacity:0.16;fill:#2B0A71;}
	.st9{fill:url(#SVGID_5_);}
	.st10{fill:url(#SVGID_6_);}
	.st11{fill:url(#SVGID_7_);}
	.st12{fill:url(#SVGID_8_);}
	.st13{fill:url(#SVGID_9_);}
	.st14{fill:url(#SVGID_10_);}
	.st15{fill:url(#SVGID_11_);}
	.st16{fill:url(#SVGID_12_);}
	.st17{fill:url(#SVGID_13_);}
	.st18{fill:url(#SVGID_14_);}
	.st19{fill:#506D8E;}
	.st20{fill:url(#SVGID_15_);}
	.st21{fill:url(#SVGID_16_);}
	.st22{opacity:0.59;fill:url(#SVGID_17_);}
	.st23{opacity:0.35;}
	.st24{fill:#3B3C8F;}
	.st25{fill:#5B86C4;}
	.st26{fill:#3B67AE;}
	.st27{opacity:0.55;fill:#3B67AE;}
	.st28{fill:#FBCD9D;}
	.st29{fill:#711A8E;}
	.st30{fill:#551670;}
	.st31{fill:url(#SVGID_18_);}
	.st32{fill:url(#SVGID_19_);}
	.st33{fill:url(#SVGID_20_);}
	.st34{fill:url(#SVGID_21_);}
	.st35{filter:url(#Adobe_OpacityMaskFilter_2_);}
	.st36{filter:url(#Adobe_OpacityMaskFilter_3_);}
	.st37{mask:url(#SVGID_22_);fill:url(#SVGID_23_);}
	.st38{fill:url(#SVGID_24_);}
	.st39{opacity:0.2;fill:#5B86C4;}
	.st40{opacity:0.3;fill:#3B67AE;}
</style>
<g id="background">
	<path id="XMLID_857_" class="st0" d="M1548.44,217.06l-2.08-13.89l-0.56-0.95c-0.66-1.96-1.71-2.57-3.15-1.85l-1.57,0.16
		c-0.76-2.43-2.18-2.74-4.27-0.93L1407.59,310.8l-18.4-19.58c-4.06-4.26-6.19-9.15-6.39-14.67c-0.35-5.77,1.3-10.77,4.96-14.98
		c20.28-26.88,43.5-55,69.67-84.35c3.65-4.21,8.07-6.57,13.23-7.08c5.45-1.18,10.55-0.36,15.3,2.46l47.38,25.47l36.43-18.52
		l6.81-42.99c0.78-5.59,3.23-10.11,7.33-13.57c3.75-3.76,8.39-5.74,13.91-5.94l100.44-5.21c5.52-0.2,10.17,1.15,13.93,4.04
		c4.52,2.44,7.57,6.28,9.13,11.5l20.8,55.83l37.15,9.5l35.67-24.99c4.7-3.3,9.81-4.62,15.33-3.96c5.75,0.18,10.54,2.21,14.37,6.09
		c7.32,7.45,18.5,18.24,33.55,32.39c14.07,12.5,29.31,26.96,45.71,43.38c3.83,3.88,6,8.4,6.5,13.57c0.57,5.29-0.55,10.32-3.37,15.07
		c-4.05,7.01-7.76,13.57-11.15,19.67l-0.23,0.91c-4.2,7.62-8.02,15.01-11.46,22.17l11.22,24.1c13.2,5.84,26.85,12.01,40.95,18.52
		c2.04,0.84,3.81,2.1,5.32,3.77l9.29,8.33c3.77,2.89,6.09,6.81,6.97,11.76c3.09,10.98,6.18,25.55,9.25,43.71
		c1.69,9.76,3.92,24.76,6.68,44.99c0.58,5.3-0.55,10.32-3.36,15.06c-2.67,4.15-6.39,7.38-11.17,9.7l-57.88,21.24l-11.21,31.24
		c11.15,21.41,18.98,34.62,23.49,39.63c4.06,4.25,6.3,9.33,6.73,15.23c0.58,5.29-1.04,10.35-4.84,15.17
		c-11.51,16.04-34.87,42.62-70.1,79.74c-3.5,3.61-8.02,5.78-13.57,6.51c-5.68,0.8-10.89-0.21-15.64-3.03l-40.44-27.15l-13.32-22.47
		l-38.22-64.47c3.01-1.62,6.02-3.31,9.02-5.09c24.53-14.54,43.88-33.19,58.06-55.95c1.07-1.66,1.34-3.36,0.82-5.1
		c-0.14-1.97-0.93-3.29-2.36-3.98c-1.65-1.07-3.36-1.34-5.1-0.83c-1.97,0.14-3.48,1.04-4.55,2.7
		c-12.74,20.88-30.61,38.14-53.62,51.77c-3,1.78-6.03,3.45-9.08,5l-38.33-64.66c10.23-4.1,19.44-10.46,27.64-19.08
		c14.55-15.8,21.73-33.81,21.53-54.02l0.23-0.9c0.35-8.92-0.25-17.28-1.79-25.07l0.1,1.48c-4.36-19.46-17.39-36.25-39.09-50.38
		l0.34,0.57c-27.95-18.62-54.61-20.93-79.96-6.93c-0.76,0.45-1.71,1.01-2.84,1.69c-11.74,4.4-21.39,12.34-28.93,23.82
		c-0.38,0.22-0.65,0.64-0.8,1.24c-5.94,7.99-10.29,16.93-13.06,26.83c-3.55,0.19-6.81,0.46-9.78,0.8
		c-4.45-5.76-9.33-10.39-14.63-13.87c-1.93-1.25-3.89-2.39-5.88-3.43c-1.34-0.44-2.74-0.85-4.19-1.23
		c-4.41-3.9-9.24-7.01-14.51-9.34l31.98-27.54c2.48-2.16,3.45-5.12,2.93-8.91l-5.43-35.09c6.53-5.32,13.61-10.25,21.23-14.76
		c14.79-8.77,30.3-14.89,46.52-18.35c1.75-0.52,2.96-1.5,3.65-2.93c1.07-1.66,1.34-3.36,0.82-5.1c-0.14-1.97-0.93-3.29-2.36-3.98
		c-1.66-1.07-3.36-1.34-5.1-0.82c-17.34,3.62-34.1,10.22-50.28,19.81c-5.9,3.5-11.52,7.22-16.84,11.14L1550.42,231
		c54.55-30.94,112.01-38.69,172.38-23.26c62.62,16.01,110.35,51.27,143.18,105.78c0.9,1.52,2.25,2.51,4.06,2.97
		c1.81,0.46,3.48,0.25,5-0.65c1.52-0.9,2.51-2.26,2.97-4.07c0.46-1.81,0.25-3.48-0.65-4.99c-34.62-57.55-85.06-94.79-151.31-111.72
		C1663.8,179.14,1604.59,186.47,1548.44,217.06z M1776.17,195.32c1.52-0.9,3.33-1.29,5.45-1.18l0.57-0.34l-2.94-1.07L1776.17,195.32
		z M2597.31,369.68c-0.98-0.79-1.52-1.84-1.61-3.15c-0.02-1.19,0.36-2.27,1.15-3.25c0.66-0.9,1.64-1.4,2.95-1.49
		c8.85-0.64,17.78-1.14,26.78-1.52c1.11-0.15,2.09,0.21,2.94,1.07c0.85,0.86,1.39,1.91,1.61,3.15c0.02,1.18-0.41,2.2-1.27,3.06
		c-0.86,0.85-1.85,1.35-2.96,1.5c-8.8,0.43-17.62,0.97-26.47,1.6C2599.26,370.66,2598.22,370.34,2597.31,369.68z M2534.32,371.92
		c-0.22-1.24,0.1-2.28,0.96-3.13c0.79-0.98,1.8-1.58,3.03-1.8c8.82-0.96,17.63-1.82,26.4-2.58c1.18-0.02,2.26,0.36,3.24,1.15
		c0.9,0.66,1.4,1.64,1.5,2.95c0.02,1.18-0.31,2.23-0.96,3.14c-0.79,0.98-1.77,1.48-2.96,1.49c-8.9,0.84-17.7,1.69-26.4,2.58
		c-1.24,0.22-2.28-0.1-3.13-0.96C2535.02,373.98,2534.46,373.03,2534.32,371.92z M2441.92,379.03c1.03-0.27,2.11-0.05,3.21,0.66
		c0.98,0.79,1.58,1.8,1.8,3.03c0.15,1.11-0.14,2.22-0.85,3.32c-0.79,0.98-1.73,1.54-2.84,1.69c-8.67,1.21-17.34,2.59-26,4.13
		c-1.24,0.22-2.34-0.06-3.32-0.85c-1.11-0.71-1.67-1.66-1.69-2.84c-0.35-1.16-0.13-2.23,0.66-3.21c0.71-1.1,1.72-1.7,3.03-1.8
		C2424.65,381.75,2433.32,380.37,2441.92,379.03z M2474,375.64c0.59-1.03,1.53-1.59,2.84-1.69c8.75-1.09,17.5-2.17,26.25-3.26
		c1.23-0.22,2.35,0.06,3.32,0.85c0.9,0.66,1.46,1.61,1.69,2.84c0.09,1.31-0.19,2.42-0.85,3.32c-0.79,0.98-1.8,1.58-3.03,1.8
		c-8.76,1.09-17.5,2.18-26.25,3.26c-1.31,0.09-2.36-0.22-3.14-0.96c-1.11-0.71-1.71-1.72-1.8-3.04
		C2472.81,377.54,2473.14,376.5,2474,375.64z M2351.46,399.34c-0.22-1.24,0.02-2.4,0.73-3.51c0.59-1.03,1.5-1.66,2.73-1.87
		c8.71-1.75,17.43-3.33,26.15-4.74c1.16-0.35,2.23-0.13,3.21,0.66c0.9,0.66,1.53,1.57,1.87,2.73c0.22,1.23-0.06,2.34-0.85,3.32
		c-0.66,0.91-1.57,1.53-2.73,1.88c-8.65,1.54-17.27,3.15-25.84,4.82c-1.24,0.22-2.37,0.04-3.4-0.55
		C2352.23,401.36,2351.61,400.45,2351.46,399.34z M2324.99,407.86c-0.71,1.11-1.62,1.73-2.73,1.87c-8.63,1.87-17.23,3.8-25.78,5.8
		c-1.23,0.22-2.3,0-3.21-0.66c-1.03-0.58-1.72-1.45-2.07-2.62c-0.22-1.24,0-2.31,0.66-3.21c0.58-1.03,1.46-1.72,2.62-2.07
		c8.55-2,17.21-3.96,25.97-5.91c1.11-0.14,2.18,0.08,3.21,0.66c1.11,0.71,1.77,1.68,1.99,2.92
		C2325.8,405.76,2325.58,406.83,2324.99,407.86z M2078.25,313.25c1.61-0.44,3.21-0.2,4.79,0.74l15.42,8.29l11.82-5.99l1.97-13.98
		c0.34-1.74,1.19-3.18,2.55-4.33c1.17-1.21,2.67-1.84,4.51-1.9l32.48-1.83c1.72,0.01,3.2,0.49,4.46,1.46
		c1.43,0.69,2.41,1.9,2.92,3.65l6.64,18.1l12.08,3.09l11.58-8.14c1.44-1.03,3.09-1.41,4.95-1.14c1.85-0.07,3.4,0.55,4.68,1.84
		c2.28,2.41,5.89,5.9,10.83,10.49c4.57,3.96,9.48,8.65,14.74,14.07c1.2,1.17,1.9,2.63,2.09,4.4c0.2,1.76-0.15,3.34-1.04,4.72
		c-1.35,2.34-2.54,4.49-3.59,6.48l-0.08,0.3c-1.48,2.41-2.72,4.78-3.74,7.09l3.63,7.85c4.22,1.94,8.65,3.93,13.28,5.97
		c0.68,0.28,1.27,0.7,1.77,1.25l2.86,2.66c1.25,0.97,2,2.23,2.25,3.79c1.04,3.48,2.04,8.19,2.99,14.12
		c0.49,3.13,1.23,7.98,2.23,14.57c0.19,1.77-0.22,3.38-1.24,4.83c-0.76,1.3-1.94,2.35-3.53,3.12l-7.46,2.76
		c8.43-2.12,16.8-4.22,25.1-6.3c1.04-0.27,2.17-0.09,3.4,0.55c0.9,0.66,1.53,1.57,1.88,2.73c0.27,1.04,0.15,2.13-0.36,3.29
		c-0.79,0.98-1.7,1.6-2.73,1.88c-8.6,2.19-17.15,4.36-25.63,6.48c-1.16,0.35-2.25,0.22-3.29-0.36c-1.11-0.71-1.79-1.58-2.06-2.62
		c-0.35-1.16-0.16-2.29,0.55-3.4c0.41-0.73,0.99-1.28,1.71-1.65l-9.77,3.61l-3.53,10.04c3.59,6.92,6.14,11.22,7.64,12.89
		c1.15,1.37,1.86,2.99,2.13,4.89c0.12,1.64-0.46,3.26-1.73,4.87c-3.58,5.2-11.14,13.78-22.67,25.74c-1.04,1.13-2.47,1.89-4.28,2.28
		c-1.77,0.19-3.44-0.18-5.02-1.12l-14.84-9.91l-9.74,4.75l-4.48,17.52c-0.49,1.49-1.35,2.77-2.59,3.85
		c-1.31,0.95-2.76,1.55-4.32,1.79l-32.48,0.54c-1.59-0.08-3.07-0.57-4.45-1.46c-1.46-1.01-2.41-2.33-2.85-3.95l-5.65-18.18
		l-9.47-3.87c-1.57,1.1-3.44,2.55-5.62,4.36c-0.12,0.07-0.25,0.15-0.38,0.22c-2.25,1.68-4.95,3.62-8.08,5.82
		c-1.44,1.03-3,1.43-4.65,1.22c-1.79-0.13-3.35-0.75-4.68-1.84c-2.72-2.61-5.23-5.05-7.54-7.32c-5.02,1.64-10.03,3.34-15.05,5.08
		c-1.16,0.35-2.26,0.23-3.28-0.36c-1.16-0.51-1.91-1.34-2.26-2.5c-0.47-1.09-0.42-2.14,0.17-3.17c0.51-1.16,1.35-1.91,2.51-2.26
		c3.6-1.32,7.23-2.62,10.89-3.9c-4.38-4.41-7.74-7.97-10.06-10.69c-0.88-1.19-1.4-2.5-1.56-3.94c-0.17-1.44,0.1-2.71,0.81-3.81
		l7.31-16.63l-2.53-7.72l-16.4-1.3c-1.86-0.26-3.4-0.98-4.6-2.14c-1.28-1.29-2.05-2.88-2.32-4.78c-1.39-13.87-2.23-26.53-2.52-37.97
		c-0.02-2.04,0.59-3.77,1.8-5.17c1.27-1.61,2.89-2.48,4.85-2.62l14.91-1.66l3.95-11.05l-9.32-10.11c-1.28-1.29-2.02-2.82-2.2-4.59
		c-0.07-1.84,0.51-3.46,1.72-4.87c6.5-8.63,14.02-17.71,22.56-27.21C2075.06,314.2,2076.48,313.44,2078.25,313.25z M2113.66,395.01
		c-0.95,7.91,1.72,15.3,8.01,22.16l-0.22-0.38c4.89,4.79,9.84,7.66,14.85,8.63c2.4,0.29,4.84,0.38,7.33,0.26l0.19-0.11
		c6.83-0.29,12.54-2.91,17.13-7.85c4.77-5.22,7.12-11.05,7.05-17.51l0.07-0.3c-0.01-2.9-0.23-5.59-0.68-8.06l0.04,0.49
		c-1.37-6.36-5.56-11.83-12.54-16.4l0.11,0.19c-9.07-6.07-17.72-6.84-25.96-2.29c-0.25,0.15-0.57,0.34-0.95,0.56
		c-3.71,1.52-6.79,4.11-9.22,7.78c-0.13,0.08-0.22,0.21-0.27,0.41C2115.96,386.22,2114.31,390.36,2113.66,395.01z M2177.9,320.54
		l-1.02,0.86c0.51-0.3,1.12-0.41,1.85-0.33l0.19-0.11L2177.9,320.54z M1913.12,419.85c-0.14-1.96-1.04-3.48-2.7-4.55
		c-1.28-1.29-2.9-1.87-4.87-1.73c-1.59-0.08-2.92,0.7-3.98,2.36c-1.29,1.27-1.86,2.9-1.73,4.87c1.39,23.09-1.27,47.14-7.98,72.13
		c-11.46,46.08-33.54,84.2-66.23,114.35c-1.29,1.28-2.06,3.01-2.3,5.21c-0.08,1.59,0.51,3.03,1.79,4.32
		c1.28,1.29,2.82,2.17,4.64,2.63c1.97-0.14,3.59-0.85,4.89-2.13c20.68-19.32,37.32-41.53,49.94-66.63c-0.42-0.08-0.85-0.22-1.27-0.4
		c-1.08-0.38-1.86-1.12-2.33-2.2c-0.55-1.21-0.57-2.4-0.05-3.56c0.38-1.08,1.18-1.9,2.39-2.45c2.2-0.93,4.39-1.84,6.57-2.74
		c5.99-13.61,10.88-28,14.65-43.15C1911.57,469.97,1914.43,444.53,1913.12,419.85z M1965.57,509.19c1.09-0.47,2.21-0.45,3.37,0.06
		c0.95,0.46,1.71,1.29,2.26,2.51c0.35,1.16,0.33,2.28-0.05,3.36c-0.59,1.03-1.42,1.78-2.51,2.26c-8.21,3.16-16.44,6.42-24.7,9.77
		c-1.08,0.47-2.21,0.46-3.37-0.05c-1.15-0.51-1.97-1.31-2.44-2.4c-0.47-1.09-0.46-2.21,0.05-3.36c0.51-1.16,1.31-1.97,2.39-2.45
		C1948.83,515.53,1957.16,512.3,1965.57,509.19z M2023.41,487.46c1.08-0.47,2.21-0.45,3.37,0.06c0.96,0.46,1.71,1.29,2.26,2.51
		c0.34,1.16,0.33,2.28-0.06,3.36c-0.59,1.03-1.42,1.78-2.51,2.26c-8.28,3.03-16.56,6.06-24.85,9.09c-1.29,0.42-2.41,0.4-3.36-0.06
		c-1.16-0.51-1.91-1.35-2.25-2.51c-0.55-1.21-0.53-2.34,0.06-3.37c0.38-1.08,1.22-1.83,2.51-2.25
		C2006.85,493.52,2015.14,490.49,2023.41,487.46z M2651.62,366.19l266.1-42.18l-277.64,6.73l88.08-48.11l282.78,27.89L2539.4,469.1
		l53.77-93.88L2651.62,366.19z M1739.96,280.34c-1.66-1.07-3.36-1.34-5.1-0.82c-1.74,0.52-3.03,1.8-3.87,3.84
		c-0.69,1.43-0.77,3.02-0.26,4.76c0.52,1.74,1.8,3.03,3.83,3.88c28.13,12.88,50.71,33.66,67.72,62.36
		c18.81,31.73,25.7,64.97,20.68,99.73c-0.46,1.81-0.05,3.36,1.22,4.66c1.28,1.29,2.82,2.17,4.64,2.63c1.81,0.46,3.36,0.06,4.66-1.22
		c1.29-1.28,2.17-2.82,2.63-4.64c5.06-37.85-2.48-73.78-22.64-107.79C1795.11,316.75,1770.6,294.29,1739.96,280.34z"/>
	<g>
		<g>
			<defs>
				<filter id="Adobe_OpacityMaskFilter" filterUnits="userSpaceOnUse" x="109.08" y="1008.08" width="1139.28" height="561.66">
					<feFlood  style="flood-color:white;flood-opacity:1" result="back"/>
					<feBlend  in="SourceGraphic" in2="back" mode="normal"/>
				</filter>
			</defs>
			<mask maskUnits="userSpaceOnUse" x="109.08" y="1008.08" width="1139.28" height="561.66" id="SVGID_1_">
				<g class="st1">
					<defs>
						
							<filter id="Adobe_OpacityMaskFilter_1_" filterUnits="userSpaceOnUse" x="109.08" y="1008.08" width="1139.28" height="561.66">
							<feFlood  style="flood-color:white;flood-opacity:1" result="back"/>
							<feBlend  in="SourceGraphic" in2="back" mode="normal"/>
						</filter>
					</defs>
					<mask maskUnits="userSpaceOnUse" x="109.08" y="1008.08" width="1139.28" height="561.66" id="SVGID_1_">
						<g class="st2">
						</g>
					</mask>
					
						<linearGradient id="SVGID_2_" gradientUnits="userSpaceOnUse" x1="4819.186" y1="4059.7019" x2="4819.186" y2="5220.0991" gradientTransform="matrix(-0.1801 -0.9837 0.9837 -0.1801 -3018.657 6845.5674)">
						<stop  offset="0" style="stop-color:#FFFFFF"/>
						<stop  offset="0.2793" style="stop-color:#FBFBFB"/>
						<stop  offset="0.5574" style="stop-color:#EFEFEF"/>
						<stop  offset="0.8342" style="stop-color:#DBDBDB"/>
						<stop  offset="0.9946" style="stop-color:#CCCCCC"/>
					</linearGradient>
					<path class="st3" d="M1225.01,1204.75c-0.1,0.16-0.19,0.32-0.28,0.49c-4.86,9.64-153.39,301.29-322.06,256.18
						c-171.5-45.86,22.46-158.63-53.11-196.3s-92.54,291.64-253.4,303.92s15.87-143.23-6.48-194.95
						c-22.35-51.72-238.08,223.91-354.87,172.31S1.43,1280,286.96,1244.9c285.53-35.1,394.77,22.18,381.84-48.44
						c-12.93-70.62-158.27,3.21-212.8-107.02s251.07-106.07,386.05-1.98c134.98,104.09,98.18-26.56,161.26-33.82
						c56.49-6.5,210.35,86.27,241.87,105.71c3.15,1.94,4.12,6.06,2.18,9.21L1225.01,1204.75z"/>
				</g>
			</mask>
			<path class="st4" d="M1225.01,1204.75c-0.1,0.16-0.19,0.32-0.28,0.49c-4.86,9.64-153.39,301.29-322.06,256.18
				c-171.5-45.86,22.46-158.63-53.11-196.3s-92.54,291.64-253.4,303.92s15.87-143.23-6.48-194.95
				c-22.35-51.72-238.08,223.91-354.87,172.31S1.43,1280,286.96,1244.9c285.53-35.1,394.77,22.18,381.84-48.44
				c-12.93-70.62-158.27,3.21-212.8-107.02s251.07-106.07,386.05-1.98c134.98,104.09,98.18-26.56,161.26-33.82
				c56.49-6.5,210.35,86.27,241.87,105.71c3.15,1.94,4.12,6.06,2.18,9.21L1225.01,1204.75z"/>
			<path class="st5" d="M892.1,1227.22l-246.84-147.9c-3.66-2.19-8.4-1-10.59,2.65c-2.19,3.65-1,8.4,2.65,10.59l220.38,132.04
				c5.25,3.15,3.87,11.11-2.14,12.3l-520.39,103.18c-4.18,0.83-6.9,4.89-6.07,9.07c0.84,4.2,4.89,6.9,9.07,6.07l370.95-73.55
				c5.43-1.08,9.74,4.52,7.31,9.5c-18.59,38.1-61.56,119.39-90.61,173.42c-2.02,3.75-0.61,8.44,3.14,10.45
				c3.75,2.02,8.44,0.61,10.45-3.14c0.26-0.48,26.1-48.56,51.28-96.6c31.45-60,43.84-84.9,48.12-96.28
				c0.82-2.17,2.69-3.77,4.97-4.23l312.59-61.98c6.35-1.26,10.61,6.34,6.22,11.1l-135.55,147.1c-2.89,3.13-2.69,8.02,0.44,10.91
				c3.14,2.89,8.02,2.69,10.91-0.44l162.06-175.88c0.01-0.01,0.01-0.01,0.02-0.02c1.03-1.13,2.33-1.97,3.83-2.27l13.09-2.6
				c1.2-0.24,2.41-0.08,3.58,0.27c2.73,0.83,5.8,0.11,7.87-2.11c0.15-0.16,0.28-0.34,0.42-0.51l189.28-37.53
				c4.18-0.83,6.9-4.89,6.07-9.07c-0.05-0.25-0.11-0.49-0.18-0.73c-1.13-3.76-4.96-6.12-8.89-5.34l-188.31,37.34
				c-2.11,0.42-4.29-0.2-5.86-1.67l-87.42-81.41c-3.12-2.91-8-2.73-10.91,0.39c-2.91,3.12-2.73,8.01,0.39,10.91l72.19,67.23
				c3.99,3.72,2.09,10.4-3.26,11.46l-194.74,38.61c-1.74,0.35-3.58,0.02-5.02-1.01C892.45,1227.44,892.28,1227.33,892.1,1227.22z"/>
		</g>
		<g>
			
				<linearGradient id="SVGID_3_" gradientUnits="userSpaceOnUse" x1="4656.1797" y1="3924.5332" x2="4656.1797" y2="5211.2827" gradientTransform="matrix(-0.5411 -0.841 0.841 -0.5411 -523.7416 8113.9282)">
				<stop  offset="2.663895e-07" style="stop-color:#BBBFEB"/>
				<stop  offset="0.4731" style="stop-color:#CCCFF5"/>
				<stop  offset="1" style="stop-color:#DADDFD"/>
			</linearGradient>
			<path class="st6" d="M1332.34,1429.09c-0.03,0.21-0.06,0.41-0.08,0.62c-0.91,11.94-30.05,373.69-222.04,398.67
				c-195.21,25.4-43.95-172.13-137.35-178.85c-93.39-6.71,28.27,338.1-131.47,418.62c-159.74,80.52-44.21-153.56-88.96-197.15
				c-44.76-43.6-149.56,330.12-291.09,326.52c-141.54-3.6-351.8-174.59-73.86-331.15s414.13-143.96,371.05-210.91
				c-43.08-66.95-160.92,70.13-263.38-19.87c-102.46-90,212.63-214.78,394.99-165.05c182.35,49.73,89.45-68.69,151.06-102.77
				c55.18-30.51,252.11-0.38,292.63,6.25c4.05,0.66,6.79,4.48,6.13,8.52L1332.34,1429.09z"/>
			<path class="st5" d="M1000.5,1592.71l-315.54-47.41c-4.67-0.7-9.03,2.52-9.74,7.19c-0.7,4.67,2.52,9.03,7.19,9.74l281.71,42.32
				c6.71,1.01,8.66,9.76,3,13.51l-490,325.54c-3.94,2.62-5.01,7.93-2.39,11.87c2.63,3.95,7.93,5.01,11.87,2.39l349.29-232.05
				c5.11-3.4,11.9,0.53,11.51,6.65c-2.97,46.92-12.7,148.41-19.68,216.07c-0.49,4.7,2.94,8.91,7.64,9.39
				c4.7,0.49,8.91-2.93,9.39-7.64c0.06-0.6,6.26-60.81,11.79-120.7c6.91-74.8,9.1-105.56,8.69-119.04c-0.08-2.58,1.16-5,3.31-6.43
				l294.33-195.54c5.98-3.97,13.55,2.02,11.06,8.75l-76.86,208.06c-1.64,4.43,0.63,9.35,5.06,10.99c4.44,1.64,9.36-0.63,10.99-5.06
				l91.9-248.76c0-0.01,0.01-0.02,0.01-0.02c0.58-1.59,1.56-3.01,2.97-3.94l12.33-8.19c1.13-0.75,2.44-1.1,3.79-1.23
				c3.14-0.31,6-2.34,7.18-5.49c0.09-0.23,0.15-0.47,0.21-0.7l178.22-118.4c3.94-2.62,5.01-7.93,2.39-11.87
				c-0.16-0.23-0.32-0.46-0.49-0.67c-2.75-3.38-7.67-4.18-11.37-1.72l-177.32,117.8c-1.98,1.32-4.48,1.6-6.71,0.77l-124.01-46.55
				c-4.42-1.66-9.36,0.58-11.02,5.01c-1.66,4.43,0.59,9.36,5.01,11.02l102.41,38.44c5.66,2.13,6.54,9.78,1.5,13.12l-183.37,121.82
				c-1.64,1.09-3.66,1.53-5.58,1.08C1000.94,1592.79,1000.72,1592.74,1000.5,1592.71z"/>
		</g>
		
			<linearGradient id="SVGID_4_" gradientUnits="userSpaceOnUse" x1="3441.0254" y1="8540.8525" x2="3863.9856" y2="8540.8525" gradientTransform="matrix(0.5491 -1.3396 1.283 0.4105 -12107.0303 2105.4597)">
			<stop  offset="2.663895e-07" style="stop-color:#BBBFEB"/>
			<stop  offset="0.4731" style="stop-color:#CCCFF5"/>
			<stop  offset="1" style="stop-color:#DADDFD"/>
		</linearGradient>
		<path class="st7" d="M639.64,822.93c-15.36-156.95,154.86-98.62,211.73-74.96l-128.42-123.7
			c-23.23,27.25-210.26,240.54-227.53,64.12C479.25,523,669.12,596.64,715.3,616.89l-89.17-85.9l1.21-1.26
			c-52.3-1.92-262.77-17.99-141.83-152.73c121.72-135.61,147.99,88.91,152.41,142.08l86.93,83.74
			c-22.9-47.8-100.21-230.82,63.93-220.93c176.1,10.61-27.23,203.65-55.16,229.38L862.9,735.8
			c-24.88-53.22-94.02-226.55,65.83-216.91c173.81,10.47-22.01,198.67-54,228.31l135.13,130.17
			c-24.88-53.22-94.02-226.55,65.83-216.91c173.81,10.47-22.01,198.67-54,228.31l206.67,199.09l-11.62,12.07L1011.2,901.93
			c-35.6,40.88-206.92,227.85-223.41,59.35c-14.7-150.26,140.71-103.2,203.89-78.15L865.11,761.2
			C834.75,796.42,656.48,994.98,639.64,822.93z"/>
		<g>
			<g>
				<path class="st8" d="M1266.13,853.25c45.69-0.59,89.39,7.64,129.42,23.07c28.23,10.88,90.8-9.08,100.45-33.49
					c60.84-153.97,212.66-264.11,391.74-266.43c145.36-1.88,274.6,67.73,352.78,175.49c15.46,21.31,96.75,46.12,126.81,38.93
					c36.17-8.65,73.9-13.46,112.71-13.97c276.66-3.58,503.78,212.84,507.28,483.37c3.51,271.64-132.67,491.65-494.61,496.33
					c-111.19,1.44-214.38-32.66-298.26-91.52c-13.99-9.82-93,46.21-128.81,76.56c-67.18,56.93-154.48,91.85-250.31,93.09
					c-178.42,2.31-330.37-112.87-378.88-272.18c-7.45-24.45-83.74-49.29-121.74-44.45c-13.09,1.67-26.42,2.61-39.94,2.78
					c-188.52,2.44-343.28-145.03-345.67-329.38C926.71,1007.1,1077.61,855.68,1266.13,853.25z"/>
				<linearGradient id="SVGID_5_" gradientUnits="userSpaceOnUse" x1="963.5071" y1="1213.8601" x2="3021.7859" y2="1213.8601">
					<stop  offset="0.3871" style="stop-color:#FFFFFF"/>
					<stop  offset="0.6786" style="stop-color:#EAEFF9"/>
					<stop  offset="1" style="stop-color:#D7E1F3"/>
				</linearGradient>
				<path class="st9" d="M1300.57,861.57c45.69-0.59,89.39,7.64,129.42,23.07c28.23,10.88,90.8-9.08,100.45-33.49
					c60.84-153.97,212.66-264.11,391.74-266.43c145.36-1.88,274.6,67.73,352.78,175.49c15.46,21.31,96.75,46.12,126.81,38.93
					c36.17-8.65,73.9-13.46,112.71-13.97c276.66-3.58,503.78,212.84,507.28,483.37c3.5,270.54-217.95,492.75-494.61,496.33
					c-111.19,1.44-214.38-32.66-298.26-91.52c-13.99-9.82-93,46.21-128.81,76.56c-67.18,56.93-154.48,91.85-250.31,93.09
					c-178.42,2.31-330.37-112.87-378.88-272.18c-7.45-24.45-83.74-49.29-121.74-44.45c-13.09,1.67-26.42,2.61-39.94,2.78
					c-188.52,2.44-343.28-145.03-345.67-329.38C961.15,1015.43,1112.05,864.01,1300.57,861.57z"/>
			</g>
		</g>
		<g>
			<g>
				
					<linearGradient id="SVGID_6_" gradientUnits="userSpaceOnUse" x1="2355.573" y1="1230.3503" x2="4540.2173" y2="1230.3503" gradientTransform="matrix(0.964 0.2659 -0.2659 0.964 468.0074 -631.4268)">
					<stop  offset="0" style="stop-color:#305688"/>
					<stop  offset="0.0257" style="stop-color:#315788"/>
					<stop  offset="0.6215" style="stop-color:#48678C"/>
					<stop  offset="1" style="stop-color:#506D8E"/>
				</linearGradient>
				<path class="st10" d="M4515.83,1761.36c-215.5,649.92-860.84,1046.98-1441.41,886.85s-876.51-816.8-661-1466.72
					c215.5-649.92,860.84-1046.97,1441.41-886.85S4731.33,1111.44,4515.83,1761.36z"/>
				<g>
					<g>
						<g>
							<g>
								
									<linearGradient id="SVGID_7_" gradientUnits="userSpaceOnUse" x1="4310.0215" y1="1664.2058" x2="4634.7905" y2="1664.2058">
									<stop  offset="0" style="stop-color:#87B9DD"/>
									<stop  offset="1" style="stop-color:#88ADDB"/>
								</linearGradient>
								<path class="st11" d="M4501.15,1845.88l-163.06-44.97c-21.47-5.92-33.14-28.53-25.94-50.23l79.39-239.44
									c7.2-21.71,30.65-34.62,52.12-28.7l163.06,44.97c21.47,5.92,33.14,28.53,25.94,50.23l-79.39,239.44
									C4546.07,1838.89,4522.62,1851.8,4501.15,1845.88z"/>
								
									<linearGradient id="SVGID_8_" gradientUnits="userSpaceOnUse" x1="4299.7456" y1="1664.2065" x2="4645.0649" y2="1664.2065">
									<stop  offset="0" style="stop-color:#87B9DD"/>
									<stop  offset="1" style="stop-color:#88ADDB"/>
								</linearGradient>
								<path class="st12" d="M4511.82,1857.57c-4.54,0-9.04-0.61-13.39-1.81l-163.06-44.97c-12.92-3.56-23.5-12.01-29.78-23.77
									c-6.48-12.13-7.6-26.18-3.16-39.57l79.4-239.44c7.25-21.88,28.3-37.17,51.18-37.17c4.54,0,9.04,0.61,13.39,1.81
									l163.06,44.97c12.92,3.56,23.5,12.01,29.79,23.77c6.48,12.13,7.6,26.18,3.16,39.57L4563,1820.4
									C4555.74,1842.29,4534.7,1857.57,4511.82,1857.57z M4433,1491.34c-14.17,0-27.21,9.51-31.72,23.12l-79.4,239.44
									c-2.65,8-2.02,16.33,1.79,23.46c3.61,6.76,9.7,11.61,17.15,13.67l163.06,44.97c2.57,0.71,5.24,1.07,7.94,1.07
									c14.17,0,27.21-9.51,31.72-23.12l79.39-239.44c2.65-8,2.02-16.33-1.78-23.46c-3.61-6.76-9.71-11.61-17.16-13.67
									l-163.06-44.97C4438.36,1491.7,4435.69,1491.34,4433,1491.34z"/>
							</g>
							<g>
								
									<linearGradient id="SVGID_9_" gradientUnits="userSpaceOnUse" x1="3291.365" y1="2007.3759" x2="3575.3882" y2="2007.3759" gradientTransform="matrix(0.3669 -0.9361 0.964 0.2659 521.8208 2936.501)">
									<stop  offset="4.102398e-07" style="stop-color:#ACC9DB"/>
									<stop  offset="0.1048" style="stop-color:#A7C5DB"/>
									<stop  offset="0.6523" style="stop-color:#90B3DB"/>
									<stop  offset="1" style="stop-color:#88ADDB"/>
								</linearGradient>
								<path class="st13" d="M3890.5,200l-63.33,190.99c-7.2,21.71-30.65,34.62-52.12,28.7l-206.34-56.91
									c-21.47-5.92-33.14-28.53-25.94-50.23l63.33-190.99c7.2-21.71,30.65-34.62,52.12-28.7l206.34,56.91
									C3886.02,155.69,3897.7,178.3,3890.5,200z"/>
								
									<linearGradient id="SVGID_10_" gradientUnits="userSpaceOnUse" x1="3048.8894" y1="-7.7864" x2="3375.4355" y2="-7.7864" gradientTransform="matrix(0.964 0.2659 -0.3669 0.9361 617.2548 -590.5465)">
									<stop  offset="4.102398e-07" style="stop-color:#ACC9DB"/>
									<stop  offset="0.1048" style="stop-color:#A7C5DB"/>
									<stop  offset="0.6523" style="stop-color:#90B3DB"/>
									<stop  offset="1" style="stop-color:#88ADDB"/>
								</linearGradient>
								<path class="st14" d="M3785.72,431.39c-4.54,0-9.04-0.61-13.39-1.81l-206.34-56.91c-12.92-3.56-23.5-12-29.78-23.77
									c-6.48-12.13-7.6-26.18-3.16-39.57l63.33-190.99c7.26-21.88,28.3-37.16,51.18-37.16c4.54,0,9.04,0.61,13.39,1.81
									l206.34,56.91c12.92,3.56,23.5,12,29.79,23.77c6.48,12.13,7.6,26.18,3.16,39.57l-63.33,190.99
									C3829.65,416.1,3808.6,431.39,3785.72,431.39z M3647.56,101.67c-14.17,0-27.21,9.51-31.73,23.12l-63.33,190.99
									c-2.65,8-2.02,16.34,1.79,23.46c3.61,6.76,9.7,11.61,17.15,13.67l206.34,56.91c2.57,0.71,5.24,1.07,7.94,1.07
									c14.16,0,27.21-9.51,31.72-23.12l63.33-190.99c2.65-8,2.02-16.34-1.78-23.46c-3.61-6.76-9.71-11.61-17.16-13.67
									l-206.34-56.91C3652.92,102.03,3650.25,101.67,3647.56,101.67z"/>
							</g>
							
								<linearGradient id="SVGID_11_" gradientUnits="userSpaceOnUse" x1="4382.4287" y1="1230.1364" x2="2201.5139" y2="1230.1364" gradientTransform="matrix(0.964 0.2659 -0.3164 0.9501 542.6311 -610.6552)">
								<stop  offset="0" style="stop-color:#87B9DD"/>
								<stop  offset="1" style="stop-color:#88ADDB"/>
							</linearGradient>
							<path class="st15" d="M4378.08,1723.37c-215.5,649.92-860.84,1046.97-1441.41,886.85
								c-580.56-160.13-876.51-816.8-661-1466.72S3136.51,96.52,3717.08,256.65S4593.58,1073.45,4378.08,1723.37z"/>
							<g>
								
									<linearGradient id="SVGID_12_" gradientUnits="userSpaceOnUse" x1="2289.7671" y1="1230.3525" x2="4320.2324" y2="1230.3525" gradientTransform="matrix(0.964 0.2659 -0.2659 0.964 468.0074 -631.4268)">
									<stop  offset="4.102398e-07" style="stop-color:#ACC9DB"/>
									<stop  offset="0.1048" style="stop-color:#A7C5DB"/>
									<stop  offset="0.6523" style="stop-color:#90B3DB"/>
									<stop  offset="1" style="stop-color:#88ADDB"/>
								</linearGradient>
								<path class="st16" d="M4303.89,1702.91c-200.29,604.05-800.09,973.09-1339.68,824.26
									c-539.59-148.83-814.65-759.16-614.35-1363.21c200.29-604.05,800.09-973.09,1339.68-824.26S4504.19,1098.85,4303.89,1702.91
									z"/>
								
									<linearGradient id="SVGID_13_" gradientUnits="userSpaceOnUse" x1="3291.9712" y1="2391.1455" x2="3291.9712" y2="69.1252" gradientTransform="matrix(0.964 0.2659 -0.3164 0.9501 542.6311 -610.6552)">
									<stop  offset="4.102398e-07" style="stop-color:#ACC9DB"/>
									<stop  offset="0.1048" style="stop-color:#A7C5DB"/>
									<stop  offset="0.6523" style="stop-color:#90B3DB"/>
									<stop  offset="1" style="stop-color:#88ADDB"/>
								</linearGradient>
								<path class="st17" d="M3209.25,2570.39c-84.2,0-167.56-11.22-247.77-33.34c-240.4-66.3-439.65-227.93-561.05-455.12
									c-70.26-131.5-111.69-277.55-123.11-434.12c-11.82-161.89,9.31-325.76,62.8-487.08
									c41.97-126.58,102.14-245.45,178.82-353.31c74.13-104.26,162.05-196.03,261.33-272.77
									c98.4-76.06,205.17-135.22,317.34-175.84c114.22-41.36,230.93-62.34,346.88-62.34c84.2,0,167.56,11.22,247.77,33.34
									c240.4,66.3,439.65,227.94,561.05,455.12c70.27,131.49,111.69,277.55,123.11,434.12c11.82,161.89-9.31,325.76-62.8,487.08
									c-41.97,126.58-102.13,245.45-178.82,353.3c-74.13,104.26-162.05,196.03-261.33,272.77
									c-98.4,76.06-205.17,135.22-317.34,175.84C3441.91,2549.41,3325.2,2570.39,3209.25,2570.39z M3444.5,316.98
									c-472.79,0-918.92,349.62-1084.91,850.21c-103.35,311.69-81.87,641.58,58.93,905.08
									c118.72,222.18,313.49,380.22,548.42,445.02c78.43,21.63,159.96,32.6,242.31,32.6c472.79,0,918.92-349.62,1084.91-850.2
									c103.35-311.69,81.87-641.58-58.93-905.08c-118.72-222.18-313.48-380.22-548.42-445.02
									C3608.38,327.95,3526.85,316.98,3444.5,316.98z"/>
							</g>
							<g>
								
									<linearGradient id="SVGID_14_" gradientUnits="userSpaceOnUse" x1="3604.5186" y1="2182.3843" x2="2979.4241" y2="277.8885" gradientTransform="matrix(0.964 0.2659 -0.3164 0.9501 542.6311 -610.6552)">
									<stop  offset="0" style="stop-color:#FFFFFF"/>
									<stop  offset="0.3858" style="stop-color:#FCFDFE"/>
									<stop  offset="0.6453" style="stop-color:#F3F6FB"/>
									<stop  offset="0.8668" style="stop-color:#E4EBF7"/>
									<stop  offset="1" style="stop-color:#D7E1F3"/>
								</linearGradient>
								<path class="st18" d="M4186.67,1670.57c-176.26,531.58-704.09,856.33-1178.94,725.36s-716.9-668.07-540.64-1199.64
									c176.26-531.58,704.09-856.33,1178.94-725.36S4362.93,1139,4186.67,1670.57z"/>
								<path class="st19" d="M3223.37,2442.48c-74.86,0-148.98-9.97-220.3-29.65c-213.82-58.97-391.03-202.7-498.97-404.7
									c-62.4-116.77-99.18-246.45-109.32-385.42c-10.48-143.58,8.25-288.91,55.68-431.93c37.2-112.2,90.53-217.56,158.5-313.17
									c65.72-92.43,143.68-173.8,231.71-241.84c87.29-67.47,182.02-119.96,281.57-156.01c101.45-36.74,205.13-55.37,308.16-55.37
									c74.86,0,148.98,9.97,220.3,29.65c213.83,58.98,391.03,202.7,498.97,404.71c62.4,116.77,99.18,246.45,109.32,385.42
									c10.48,143.58-8.25,288.91-55.68,431.93c-37.2,112.2-90.53,217.56-158.5,313.17c-65.72,92.43-143.67,173.8-231.71,241.84
									c-87.29,67.47-182.03,119.96-281.57,156.01C3430.07,2423.85,3326.4,2442.48,3223.37,2442.48z M3430.39,459.44
									c-412.45,0-801.73,305.27-946.66,742.36c-90.22,272.09-71.52,559.96,51.29,789.8c103.37,193.45,272.9,331.04,477.37,387.43
									c68.29,18.83,139.27,28.38,210.98,28.38c412.45,0,801.73-305.27,946.66-742.36c90.22-272.09,71.53-559.96-51.29-789.8
									c-103.37-193.44-272.9-331.04-477.37-387.43C3573.08,468.99,3502.09,459.44,3430.39,459.44z"/>
							</g>
							
								<linearGradient id="SVGID_15_" gradientUnits="userSpaceOnUse" x1="3214.2798" y1="1230.1364" x2="3369.6626" y2="1230.1364" gradientTransform="matrix(0.964 0.2659 -0.3164 0.9501 542.6311 -610.6552)">
								<stop  offset="0.0229" style="stop-color:#9AC5DD"/>
								<stop  offset="1" style="stop-color:#73B3DE"/>
							</linearGradient>
							<path class="st20" d="M3401.77,1454.09c-15.35,46.3-61.33,74.59-102.7,63.18c-41.36-11.41-62.45-58.19-47.09-104.5
								s61.33-74.59,102.7-63.18C3396.04,1361,3417.12,1407.78,3401.77,1454.09z"/>
							<g>
								<g>
									<g>
										<path class="st19" d="M3532.76,812.52c-18.39-5.07-30.35-18.08-26.71-29.07l66.62-200.91
											c3.64-10.98,21.5-15.77,39.89-10.7c18.39,5.07,30.35,18.08,26.71,29.07l-66.62,200.91
											C3569.01,812.8,3551.15,817.59,3532.76,812.52z"/>
									</g>
									<g>
										<path class="st19" d="M3041.19,2295.02c-20.85-5.75-34.79-19.31-31.15-30.29l66.62-200.91
											c3.64-10.98,23.49-15.22,44.33-9.47c20.85,5.75,34.79,19.31,31.15,30.29l-66.62,200.91
											C3081.88,2296.52,3062.04,2300.76,3041.19,2295.02z"/>
									</g>
									<g>
										<path class="st19" d="M3218.1,819.44c-6.14-1.69-10.93-6.91-12.1-14.19l-32.04-198.74c-1.75-10.86,5.19-22.22,15.51-25.37
											c10.32-3.15,20.09,3.11,21.85,13.97l32.04,198.74c1.75,10.86-5.19,22.22-15.51,25.37
											C3224.45,820.26,3221.11,820.27,3218.1,819.44z"/>
									</g>
									<g>
										<path class="st19" d="M3454.54,2285.95c-6.14-1.69-10.93-6.91-12.1-14.19l-32.04-198.74
											c-1.75-10.86,5.19-22.22,15.51-25.37c10.32-3.14,20.1,3.11,21.85,13.97l32.04,198.74c1.75,10.86-5.19,22.22-15.51,25.37
											C3460.89,2286.76,3457.55,2286.78,3454.54,2285.95z"/>
									</g>
									<g>
										<path class="st19" d="M2930.78,996.19c-3.01-0.83-5.78-2.53-7.98-5.11l-122.11-143.32c-6.67-7.83-5.55-20.8,2.51-28.96
											c8.06-8.16,20-8.42,26.68-0.59l122.11,143.32c6.67,7.83,5.55,20.8-2.51,28.96
											C2944.07,995.96,2936.92,997.88,2930.78,996.19z"/>
									</g>
									<g>
										<path class="st19" d="M3831.86,2053.76c-3.01-0.83-5.78-2.53-7.98-5.11l-122.11-143.32c-6.67-7.83-5.55-20.8,2.51-28.96
											c8.05-8.15,19.99-8.43,26.68-0.58l122.11,143.32c6.67,7.83,5.55,20.8-2.51,28.96
											C3845.16,2053.53,3838.01,2055.45,3831.86,2053.76z"/>
									</g>
									<g>
										<path class="st19" d="M2738.81,1322.77l-179.47-49.5c-9.81-2.71-10.75-26.04-2.1-52.12
											c8.65-26.08,23.61-45.03,33.42-42.32l179.47,49.5c9.81,2.71,10.75,26.04,2.1,52.12
											C2763.58,1306.54,2748.62,1325.48,2738.81,1322.77z"/>
									</g>
									<g>
										<path class="st19" d="M4064.75,1683.06l-179.47-49.5c-9.81-2.71-11.49-23.81-3.75-47.15
											c7.74-23.34,21.96-40.06,31.77-37.35l179.47,49.5c9.81,2.71,11.49,23.81,3.75,47.15
											C4088.78,1669.05,4074.56,1685.77,4064.75,1683.06z"/>
									</g>
									<g>
										<path class="st19" d="M2529.61,1694.58c-6.14-1.69-10.93-6.91-12.1-14.19c-1.75-10.86,5.19-22.22,15.51-25.37
											l188.73-57.59c10.32-3.15,20.1,3.11,21.85,13.97c1.75,10.86-5.19,22.22-15.51,25.37l-188.73,57.59
											C2535.96,1695.39,2532.62,1695.41,2529.61,1694.58z"/>
									</g>
									<g>
										<path class="st19" d="M3922.26,1269.65c-6.14-1.69-10.93-6.91-12.1-14.19c-1.75-10.86,5.19-22.22,15.51-25.37
											l188.73-57.59c10.33-3.15,20.1,3.1,21.85,13.97c1.75,10.86-5.19,22.22-15.51,25.37l-188.73,57.59
											C3928.61,1270.47,3925.28,1270.48,3922.26,1269.65z"/>
									</g>
									<g>
										<path class="st19" d="M2702.62,2078.56c-3.01-0.83-5.78-2.53-7.98-5.11c-6.67-7.83-5.55-20.8,2.51-28.96l147.43-149.24
											c8.05-8.16,19.99-8.42,26.68-0.59c6.67,7.83,5.55,20.8-2.51,28.96l-147.43,149.24
											C2715.91,2078.33,2708.76,2080.25,2702.62,2078.56z"/>
									</g>
									<g>
										<path class="st19" d="M3790.48,977.31c-3.01-0.83-5.78-2.53-7.98-5.11c-6.67-7.83-5.55-20.8,2.51-28.96L3932.43,794
											c8.06-8.15,19.99-8.42,26.68-0.58c6.67,7.83,5.55,20.8-2.51,28.96l-147.43,149.24
											C3803.77,977.09,3796.62,979,3790.48,977.31z"/>
									</g>
								</g>
								<g>
									<path class="st19" d="M2929.17,1857.55c-2.96-0.82-5.69-2.48-7.88-4.99c-6.74-7.76-5.72-20.72,2.28-28.95L3312.3,1424
										l177.88-573.56c3.42-11.04,14.21-17.99,24.1-15.53c9.73,2.41,15.13,13.41,11.7,24.44l-181.28,584.56l-396.71,407.81
										C2942.58,1857.28,2935.36,1859.25,2929.17,1857.55z"/>
								</g>
							</g>
						</g>
					</g>
				</g>
				
					<linearGradient id="SVGID_16_" gradientUnits="userSpaceOnUse" x1="4259.5342" y1="1066.574" x2="4375.0356" y2="1066.574" gradientTransform="matrix(1.1188 0.3736 -0.3159 0.9461 73.5187 -931.5866)">
					<stop  offset="4.102398e-07" style="stop-color:#ACC9DB"/>
					<stop  offset="0.1048" style="stop-color:#A7C5DB"/>
					<stop  offset="0.6523" style="stop-color:#90B3DB"/>
					<stop  offset="1" style="stop-color:#88ADDB"/>
				</linearGradient>
				<path class="st21" d="M4502.15,1668.86c-31.05,93-27.3,178.06,8.38,189.97c35.68,11.92,89.79-53.82,120.84-146.82
					c31.05-93,27.3-178.06-8.38-189.97C4587.31,1510.12,4533.21,1575.86,4502.15,1668.86z"/>
			</g>
			<linearGradient id="SVGID_17_" gradientUnits="userSpaceOnUse" x1="3356.0205" y1="2409.1089" x2="3356.0205" y2="1013.6392">
				<stop  offset="0" style="stop-color:#FFFFFF"/>
				<stop  offset="0.1127" style="stop-color:#F5F7FC"/>
				<stop  offset="0.3686" style="stop-color:#E4EBF7"/>
				<stop  offset="0.6495" style="stop-color:#DAE3F4"/>
				<stop  offset="1" style="stop-color:#D7E1F3"/>
			</linearGradient>
			<path class="st22" d="M2487.53,1879.96c88.06,241.83,273.94,430.72,527.93,500.78c464.31,128.06,980.42-189.48,1152.77-709.26
				c76.21-229.83,72.43-460.7,4.38-657.84L2487.53,1879.96z"/>
		</g>
	</g>
</g>
<g id="people">
	<g>
		<g class="st23">
			<path class="st24" d="M1901.45,923.75c19.14-69.17,31.04-135.12,14.18-154.39c-11.93-13.63-28.76-20.55-50.01-20.55
				c-27.49,0-56.01,11.51-71.33,17.7c-1.29,0.52-2.47,0.99-3.58,1.44c1.66-5.12,3.1-10.4,4.2-15.89
				c7.27-36.33-17.92-83.92-45.8-128.69c9.15-0.87,21.5-3.86,21.5-3.86c6.29-1.05,9.55-3.03,14.09-0.3l47.41,20.83
				c3.93,2.37,8.05,0.04,4.8-3.2l-81.72-57.95c-15.86-8.85-31.69-9.81-37.76-7.19l-1.01,0.43c-15.63-24.87-27.8-46.54-29.48-61.67
				c-5.49-49.42-54.91-76.87-95.18-82.36c-25.85-3.53-31.83-54.06-32.8-89.8c13.95-17.16,23.8-47.1,23.8-69.59v0
				c0.01-0.07,19.94-118.8-108.14-78.55c-128.12,40.27-80.53,151.91-80.53,151.91s-82.36,25.62-123.85,106.16
				c-41.47,80.5-15.86,137.88-15.86,137.88s-76.26,28.67-81.75,136.66c-5.26,103.41,159.82,120.8,173.82,122.09
				c-0.96,14.3-1.7,28.86-2.1,43.41h-0.07l-0.03,1.04c-0.14,5.81-0.19,11.46-0.2,17.04c-0.01,1.35-0.03,2.7-0.03,4.04
				c0,0.05,0.03,0.07,0.04,0.11c0.63,128.88,38.08,194.14,114.2,199.2c7.63,0.51,15.58,0.77,23.62,0.77
				c85.27,0,177.57-28.82,244.96-49.87c9.64-3.01,18.79-5.86,27.44-8.49c-3.36,28.05-6.73,57.36-9.98,85.57
				c-6.24,54.26-12.13,105.52-16.53,135.04l-0.26,1.75h1.54c-1.96,12.96-3.62,21.57-4.9,24.26c-1.8,3.77-3.94,6.67-6.27,9.08
				l-0.72-1.39l-1.47,1.39c-2.81,2.67-5.96,4.76-9.01,6.79c-7.07,4.7-14.38,9.57-18.45,21.78c-5.5,16.48,5.41,32.43,16.95,49.32
				c4.36,6.37,8.86,12.97,12.44,19.61c12.22,22.7,13.46,65.58,14.37,96.89l0.09,3.1c0.27,9.04,2.75,16.56,6.19,22.71
				c-1.42,2.6-3.24,5.45-5.29,8.48c-0.16-0.33-0.27-0.57-0.27-0.57c-3.18,4.61-7.19,10.71-10.66,16.84
				c-4.32,6.95-7.64,13.75-7.7,19.35c-0.04,0.61-0.03,1.18,0.04,1.71c0,0.02,0,0.05,0,0.08c0.54,4.31,3.61,9.05,7.62,13.94
				c3.7,4.51,8.2,9.14,12.31,13.66c4.39,4.83,8.31,9.54,10.27,13.83c0.39,0.85,0.69,1.67,0.92,2.49c1.27,4.64,1.6,10.63,1.49,17.3
				c-0.03,1.67-0.08,3.38-0.16,5.12c-0.3,6.85-0.9,14.19-1.35,21.35c-0.01,0.21-0.03,0.41-0.04,0.62
				c-0.77,12.62-1.01,24.66,1.88,32.49c0.95,2.59,2.63,5.63,4.83,8.87c0.44,0.65,0.9,1.31,1.39,1.97c2.89,3.98,6.49,8.2,10.47,12.23
				c0,0,0.01,0.01,0.01,0.01c2.6,2.63,5.36,5.19,8.18,7.55c0.22,0.19,0.45,0.37,0.68,0.56c2.58,2.12,5.21,4.08,7.83,5.78
				c1.98,1.29,3.94,2.43,5.87,3.39c1.07,0.53,2.13,1.03,3.17,1.44c1.39,0.55,2.74,0.99,4.05,1.31c1.31,0.31,2.58,0.5,3.79,0.54
				c2.42,0.09,4.61-0.39,6.48-1.57c16.57-10.4-8.98-22.2-13.73-41.18c-0.02-0.07-0.03-0.15-0.05-0.21c-0.21-0.83-0.4-1.72-0.59-2.65
				c-0.08-0.38-0.15-0.79-0.23-1.18c-0.12-0.64-0.25-1.3-0.36-1.98c-0.09-0.52-0.18-1.06-0.26-1.61c-0.09-0.58-0.18-1.17-0.27-1.77
				c-0.1-0.66-0.19-1.33-0.28-2.01c-0.06-0.47-0.12-0.96-0.18-1.44c-0.11-0.85-0.21-1.69-0.31-2.58c0-0.01,0-0.02,0-0.02
				c-0.42-3.67-0.78-7.66-1.09-11.89l0,0c-3.17-42.91-1.15-111.42,2.73-136.46c1.29-8.31,2.94-17.14,4.9-26.39h1.09l0.18-0.84
				c16.99-79.7,56.9-191.55,92.12-290.24c20.05-56.17,38.98-109.23,50.99-148.95c5.85-19.36,15.78-66.45,9.15-88.47
				C1942.97,960.75,1922.04,938.75,1901.45,923.75z M1526.77,393.77c-0.06,2.54-0.1,4.95-0.14,7.19c-0.04,2.22-0.07,4.27-0.09,6.12
				c0.17-14.1,0.13-31.18,1.76-52.59C1527.48,368.18,1527.02,382.33,1526.77,393.77z"/>
		</g>
		<g>
			<g>
				<g>
					<polygon class="st25" points="2178.4,632.73 1948.64,632.73 1990.76,463.79 2220.52,463.79 					"/>
					<path class="st26" d="M2169.41,641.8h-306.5c-11.4,0-13.64-12.47-2.67-14.87l0,0c0.87-0.19,1.77-0.29,2.67-0.29h306.5
						c11.4,0,13.64,12.47,2.67,14.87l0,0C2171.21,641.71,2170.31,641.8,2169.41,641.8z"/>
				</g>
				<g>
					<g>
						<g>
							<path class="st26" d="M1569.21,313.47c-8.39,7.68-18.49,12.84-29.52,14.51c-1.93,23.21-2.53,51.18-2.71,66.1
								c2.08,21.46,14.26,68.33,70.69,167.4c82.36,144.59-16.47,133.61-49.42,186.69c-26,41.88-29.19,116.8-0.61,151.04
								l163.51-46.72c0,0,69.55-40.27,84.19-113.48c14.64-73.21-102.5-192.18-107.99-241.6c-5.49-49.42-54.91-76.87-95.17-82.36
								C1573.32,411.12,1569.21,348.59,1569.21,313.47z"/>
							<path class="st27" d="M1631.57,507.08c-33.52-32.06-84.02-125.26-91.08-179.25c-0.27,0.04-0.53,0.11-0.8,0.15
								c-1.93,23.21-2.53,51.18-2.71,66.1c2.08,21.46,14.26,68.33,70.69,167.4c82.36,144.59-16.47,133.61-49.42,186.69
								c-26,41.88-29.19,116.8-0.61,151.04l22.96-26.86c27.22-54.43,96.31-85.66,97.69-114.68
								C1680.41,713.07,1680.41,553.8,1631.57,507.08z"/>
						</g>
						<path class="st28" d="M1948.1,1052c6.39-21.14,15.52-66.71,9.15-87.85c-7.19-23.87-49.48-60.07-73.21-67.72
							c-70.71-22.81-237.94,29.28-296.51,20.13c-58.57-9.15-62.23-115.31-29.28-168.39c32.95-53.08,131.78-42.1,49.42-186.69
							c-56.43-99.07-68.61-145.94-70.69-167.4c0.18-14.92,0.1-33.11,2.03-56.32c8.09,1.5,13.35,1.4,19.78-2.7
							c19.28-12.28,34.38-51.56,34.38-79.4c0-40.28-27.46-72.93-61.33-72.93c-33.87,0-61.32,32.65-61.32,72.93
							c0,9.76,1.62,19.06,4.55,27.56c-3.39,17.26-10.24,52.67-14.99,80.75c-9.77,27.29-78.87,224.22-94.01,376.87
							c-12.46,125.69-39.57,345.28,102.68,354.74c172.67,11.48,380.51-111.31,380.51-60.07s-95.18,168.39-95.18,307.49
							s12.34,129.44-3.66,168.39c-5.29,12.87-27.35,35.61-25.62,49.42c1.67,13.35,27.56,30.95,31.11,43.93
							c5.08,18.54-4.81,58.83,1.83,76.87c6.1,16.58,41.78,51.48,56.74,42.1c16.57-10.4-8.98-22.2-13.73-41.18
							c-7.77-31.07-5.82-132.16-0.92-163.81C1818.6,1397.74,1912.68,1169.19,1948.1,1052z"/>
						<g>
							<path class="st29" d="M1957.25,964.14c-7.19-23.87-49.48-60.07-73.21-67.72c-70.71-22.81-237.94,29.28-296.51,20.13
								c-20.98-3.28-34.91-19-42.64-40.27h-189.17c-2.59,106.56,15.04,212.78,113.02,219.3c172.67,11.48,380.51-111.31,380.51-60.07
								s-95.18,168.39-95.18,307.49c0,109.55,7.65,126.83,3.09,148.25h47.8c26.76-125.57,110.24-330.43,143.13-439.27
								C1954.49,1030.86,1963.62,985.29,1957.25,964.14z"/>
							<path class="st29" d="M1805.83,1492.33h-49.97l0.27-1.28c2.15-10.08,1.54-19.43,0.32-38.06
								c-1.37-20.98-3.43-52.7-3.43-109.97c0-86.8,37.45-166.12,64.8-224.04c16.97-35.94,30.38-64.33,30.38-83.45
								c0-7.85-5.26-11.51-16.55-11.51c-19.04,0-52.29,10.38-94.39,23.53c-67.39,21.05-159.69,49.87-244.96,49.87
								c-8.04,0-15.99-0.26-23.62-0.77c-80.2-5.33-117.49-77.42-114.01-220.38l0.03-1.04h190.95l0.25,0.7
								c5.81,15.98,17.78,35.83,41.8,39.58c4.58,0.71,10.08,1.08,16.37,1.08h0.01c25.59,0,62.16-5.88,100.87-12.11
								c45.69-7.35,92.93-14.95,131.98-14.95c19.66,0,35.17,1.92,47.44,5.88c24.38,7.86,66.72,44.58,73.9,68.42
								c6.63,22.01-3.3,69.11-9.15,88.47c-12,39.72-30.94,92.78-50.99,148.95c-35.22,98.69-75.13,210.54-92.12,290.24
								L1805.83,1492.33z M1758.47,1490.2h45.64c17.11-79.78,56.9-191.26,92.02-289.67c20.04-56.15,38.97-109.18,50.95-148.85
								c5.79-19.16,15.64-65.69,9.15-87.24c-7.03-23.33-48.58-59.3-72.52-67.02c-12.06-3.89-27.36-5.78-46.79-5.78
								c-38.88,0-86.04,7.58-131.64,14.92c-38.8,6.24-75.44,12.13-101.21,12.13c-6.48,0-11.95-0.36-16.7-1.1
								c-19.63-3.07-34.56-16.98-43.21-40.25h-187.39c-1.45,63,4.68,110.67,18.74,145.71c17.86,44.49,49.25,68.54,93.31,71.47
								c7.58,0.5,15.48,0.76,23.48,0.76c84.95,0,177.07-28.77,244.33-49.77c42.27-13.2,75.66-23.63,95.02-23.63
								c12.56,0,18.67,4.46,18.67,13.63c0,19.6-13.49,48.18-30.58,84.36c-27.26,57.74-64.59,136.81-64.59,223.13
								c0,57.21,2.06,88.88,3.43,109.84C1759.75,1470.89,1760.37,1480.32,1758.47,1490.2z"/>
						</g>
						<path class="st30" d="M1938.73,935.91c-16.35-17.73-39.38-34.55-54.69-39.49c-35.39-11.41-94.94-4.07-152.96,4.97
							c1.26,25.47,3.9,79.23,7.05,144.77c65.84-20.56,111.12-34.56,111.12-10.64c0,51.25-95.18,168.39-95.18,307.49
							c0,106.05,7.17,125.63,3.49,146.21c0.02,0.7,0.03,1.38,0.05,2.05h44.83c-2.44-45.16-7.37-106.11-6.26-148.25
							C1797.75,1283.72,1911.01,1036.94,1938.73,935.91z"/>
						<path class="st30" d="M1884.04,896.42c-70.71-22.81-237.94,29.28-296.51,20.13c-18.71-2.92-31.79-15.76-39.89-33.58
							c-3.54,52.64,16.7,118.36,147.78,99.64c211.39-30.2,233.35-30.2,258.06,5.49c1.94,2.8,3.7,5.35,5.35,7.72
							c1.03-12.29,0.83-23.72-1.57-31.68C1950.06,940.27,1907.77,904.08,1884.04,896.42z"/>
						<g>
							<linearGradient id="SVGID_18_" gradientUnits="userSpaceOnUse" x1="1497.5793" y1="381.5105" x2="1497.5793" y2="897.5208">
								<stop  offset="0" style="stop-color:#FFFFFF"/>
								<stop  offset="0.1041" style="stop-color:#F6F8FC"/>
								<stop  offset="0.3704" style="stop-color:#E5EBF7"/>
								<stop  offset="0.6575" style="stop-color:#DAE3F4"/>
								<stop  offset="1" style="stop-color:#D7E1F3"/>
							</linearGradient>
							<path class="st31" d="M1545.6,875.56c-10.62-37.66-7.16-95.5,12.64-127.4c32.95-53.08,131.78-42.1,49.42-186.69
								c-52.53-92.23-66.72-139.21-70.1-162.57c-8.33-0.87-16.64-1.89-24.88-3.41c-19.82-3.65-39.01-10.12-58.74-13.99
								c-19.92,57.87-74.61,225.61-87.87,359.34c-4.44,44.82-10.57,101.58-10.57,156.49C1355.5,899.78,1541.01,877.06,1545.6,875.56
								z"/>
							<linearGradient id="SVGID_19_" gradientUnits="userSpaceOnUse" x1="1354.4421" y1="639.4372" x2="1640.8264" y2="639.4372">
								<stop  offset="0" style="stop-color:#FFFFFF"/>
								<stop  offset="0.1041" style="stop-color:#F6F8FC"/>
								<stop  offset="0.3704" style="stop-color:#E5EBF7"/>
								<stop  offset="0.6575" style="stop-color:#DAE3F4"/>
								<stop  offset="1" style="stop-color:#D7E1F3"/>
							</linearGradient>
							<path class="st32" d="M1356.89,898.58L1356.89,898.58c-1.04,0-2.45,0-2.45-1.24c0-50.85,5.29-103.79,9.55-146.33l1.03-10.27
								c13.09-132.04,65.85-295.45,87.92-359.58l0.3-0.87l0.91,0.18c9.48,1.86,18.98,4.35,28.17,6.77
								c9.97,2.62,20.27,5.32,30.56,7.22c8.9,1.64,17.93,2.67,24.8,3.39l0.82,0.09l0.12,0.82c3.49,24.08,18.46,71.77,69.97,162.2
								c59.72,104.84,24.94,128.56-11.87,153.67c-13.98,9.53-28.43,19.39-37.57,34.11c-20.47,32.98-22.44,91.37-12.52,126.55
								l0.28,0.98l-0.97,0.32C1541.43,878.04,1373.15,898.58,1356.89,898.58z M1356.57,896.46c0.09,0,0.2,0,0.33,0
								c15.49,0,172.75-19.1,187.39-21.7c-9.69-35.72-7.5-94.02,13.07-127.15c9.37-15.1,24.01-25.08,38.18-34.74
								c35.98-24.54,69.97-47.72,11.22-150.86c-51.1-89.71-66.38-137.61-70.11-162.13c-6.8-0.72-15.52-1.74-24.14-3.33
								c-10.37-1.91-20.71-4.63-30.72-7.25c-8.86-2.33-18.01-4.73-27.13-6.56c-22.22,64.66-74.51,227-87.52,358.22l-1.02,10.27
								C1361.88,793.47,1356.63,845.98,1356.57,896.46z"/>
						</g>
						<path class="st28" d="M1553.98,893.37c0,0,228.36-131.22,241.6-134.83c13.42-3.66,90.91-45.14,129.34-1.22
							s-78.51,343.34-78.51,343.34s-69.14,203.31-69.14,236.25c0,32.94-7.73,134.36,0.5,167.31c8.24,32.94-4.47,31.89-4.47,31.89
							s-28.37-12.81-29.28-43.93c-0.92-31.11-1.83-76.87-14.64-100.67c-12.81-23.79-36.61-45.76-29.28-67.72
							c7.32-21.96,25.32-18.91,34.47-38.13s37.83-340.43,53.69-392.9C1788.25,892.76,1602.08,970.11,1553.98,893.37z"/>
						<path class="st28" d="M1407.87,474.16c-68.09,34.19-113.48,258.07-62.23,298.34c49.21,38.67,363.13-158.61,389.07-173.86
							c0.95-0.56,2.15-0.29,2.78,0.61c0,0,9.59,9.4,13.82,10.86c6.09,2.1,29.72-3.65,29.72-3.65c6.29-1.05,9.55-3.03,14.09-0.3
							l47.41,20.83c3.93,2.37,8.05,0.04,4.8-3.2l-81.72-57.95c-15.86-8.85-31.69-9.81-37.76-7.19l-76.73,32.97l-209.99,90.12
							c-3.31,1.35-12.51-2.29-7.78-11.9c15.4-31.29,59.17-124.19,49.57-157.25C1466.44,455.86,1428.92,463.6,1407.87,474.16z"/>
						<g>
							<linearGradient id="SVGID_20_" gradientUnits="userSpaceOnUse" x1="1405.201" y1="466.7196" x2="1405.201" y2="657.0422">
								<stop  offset="0" style="stop-color:#FFFFFF"/>
								<stop  offset="0.1041" style="stop-color:#F6F8FC"/>
								<stop  offset="0.3704" style="stop-color:#E5EBF7"/>
								<stop  offset="0.6575" style="stop-color:#DAE3F4"/>
								<stop  offset="1" style="stop-color:#D7E1F3"/>
							</linearGradient>
							<path class="st33" d="M1441.41,653.07c18.71-39.77,49.73-112.11,41.5-140.47c-16.47-56.74-53.99-49.01-75.04-38.44
								c-40.34,20.25-72.71,107.09-81.74,182.88L1441.41,653.07z"/>
							<linearGradient id="SVGID_21_" gradientUnits="userSpaceOnUse" x1="1324.9298" y1="561.9019" x2="1485.3086" y2="561.9019">
								<stop  offset="0" style="stop-color:#FFFFFF"/>
								<stop  offset="0.1041" style="stop-color:#F6F8FC"/>
								<stop  offset="0.3704" style="stop-color:#E5EBF7"/>
								<stop  offset="0.6575" style="stop-color:#DAE3F4"/>
								<stop  offset="1" style="stop-color:#D7E1F3"/>
							</linearGradient>
							<path class="st34" d="M1324.93,658.15l0.15-1.23c8.74-73.41,40.57-162.74,82.31-183.7c6.87-3.45,17.43-7.56,28.76-7.56
								c15.62,0,36.59,8.09,47.78,46.65c8.26,28.46-22.49,100.69-41.55,141.22l-0.28,0.59L1324.93,658.15z M1436.15,467.78
								c-10.91,0-21.14,3.99-27.81,7.33c-40.85,20.51-72.12,108.2-81.01,180.83l113.39-3.91c18.96-40.36,49.19-111.47,41.16-139.13
								C1473.2,482.96,1457.81,467.78,1436.15,467.78z"/>
						</g>
						<defs>
							<filter id="Adobe_OpacityMaskFilter_2_" filterUnits="userSpaceOnUse" x="1454.14" y="316.32" width="84.87" height="81.53">
								<feFlood  style="flood-color:white;flood-opacity:1" result="back"/>
								<feBlend  in="SourceGraphic" in2="back" mode="normal"/>
							</filter>
						</defs>
						<mask maskUnits="userSpaceOnUse" x="1454.14" y="316.32" width="84.87" height="81.53" id="SVGID_22_">
							<g class="st35">
								<defs>
									
										<filter id="Adobe_OpacityMaskFilter_3_" filterUnits="userSpaceOnUse" x="1454.14" y="316.32" width="84.87" height="81.53">
										<feFlood  style="flood-color:white;flood-opacity:1" result="back"/>
										<feBlend  in="SourceGraphic" in2="back" mode="normal"/>
									</filter>
								</defs>
								<mask maskUnits="userSpaceOnUse" x="1454.14" y="316.32" width="84.87" height="81.53" id="SVGID_22_">
									<g class="st36">
									</g>
								</mask>
								<linearGradient id="SVGID_23_" gradientUnits="userSpaceOnUse" x1="1496.5763" y1="316.319" x2="1496.5763" y2="397.8448">
									<stop  offset="0" style="stop-color:#FFFFFF"/>
									<stop  offset="0.2302" style="stop-color:#F0F0F0"/>
									<stop  offset="0.7095" style="stop-color:#D6D6D6"/>
									<stop  offset="0.9946" style="stop-color:#CCCCCC"/>
								</linearGradient>
								<path class="st37" d="M1539.01,337.76c0,0-32.78-0.57-54.63-21.44l-30.23,64.15c0,0,44.34,11.19,55.23,13.46
									c9.96,2.07,28.15,3.91,28.15,3.91S1537.39,342.21,1539.01,337.76L1539.01,337.76z"/>
							</g>
						</mask>
						<linearGradient id="SVGID_24_" gradientUnits="userSpaceOnUse" x1="1496.5763" y1="316.319" x2="1496.5763" y2="397.8448">
							<stop  offset="0" style="stop-color:#FD9C79"/>
							<stop  offset="0.6074" style="stop-color:#FDB482"/>
							<stop  offset="0.9946" style="stop-color:#FDBE86"/>
						</linearGradient>
						<path class="st38" d="M1539.01,337.76c0,0-32.78-0.57-54.63-21.44l-30.23,64.15c0,0,44.34,11.19,55.23,13.46
							c9.96,2.07,28.15,3.91,28.15,3.91S1537.39,342.21,1539.01,337.76L1539.01,337.76z"/>
						<path class="st39" d="M1573.63,202.3c-10.95-12.13-25.63-19.56-41.78-19.56c-33.87,0-61.32,32.65-61.32,72.93
							c0,9.76,1.62,19.06,4.55,27.56c-3.39,17.26-10.24,52.67-14.99,80.75c-9.77,27.29-78.87,224.22-94.01,376.87
							c-9.38,94.61-27.05,242.43,25.46,313.78c-0.48-2.56-1.02-5.23-1.67-8.12c-12.81-56.74-3.66-164.73-1.83-219.63
							c1.83-54.91,71.38-338.6,67.72-373.38s76.87-137.27,95.17-168.39C1560.23,269.28,1568.12,233.58,1573.63,202.3z"/>
						<g>
							<path class="st26" d="M1593.17,255.67c0,0,19.98-118.82-108.14-78.55c-128.12,40.27-80.53,151.91-80.53,151.91
								s-82.36,25.62-123.85,106.16c-41.47,80.5-15.86,137.88-15.86,137.88s-76.26,28.67-81.75,136.66s174.79,122.17,174.79,122.17
								s66.59-239.42,64.06-304.29c-3.66-93.95,50.33-160.15,72.3-194.93c0,0,49.42-63.45,53.08-112.87
								C1547.27,219.82,1567.7,253.69,1593.17,255.67z"/>
							<path class="st40" d="M1546.01,229.49c-5.71,10.5-30.59,53.81-65.25,79.41c-39.66,29.28-163.51,175.1-173.27,306.88
								c-5.85,78.93,18.07,156.11,23.25,212.4c16.25,2.87,27.09,3.73,27.09,3.73s66.59-239.42,64.06-304.29
								c-3.66-93.95,50.33-160.15,72.3-194.93C1494.19,332.69,1537.46,277.13,1546.01,229.49z"/>
						</g>
					</g>
					<g>
						<path class="st29" d="M1924.92,757.32c-38.43-43.92-115.92-2.44-129.34,1.22c-13.24,3.61-241.6,134.83-241.6,134.83
							c48.1,76.74,234.28-0.61,234.28-0.61c-13.56,44.84-36.47,285.98-48.56,367.13h55.84c20.48-69.84,50.88-159.23,50.88-159.23
							S1963.35,801.24,1924.92,757.32z"/>
						<path class="st29" d="M1796.67,1261.41h-58.74l0.26-1.75c4.4-29.53,10.29-80.78,16.53-135.04
							c10.62-92.39,22.62-196.72,31.23-229.3c-15.32,6.03-88.63,33.52-150.41,33.52c-40.56,0-68.44-11.66-82.86-34.66l-0.84-1.34
							l1.37-0.79c9.33-5.36,228.68-131.36,241.95-134.98c1.88-0.51,5.26-1.88,9.55-3.6c15.32-6.18,43.85-17.7,71.33-17.7
							c21.25,0,38.08,6.91,50.01,20.55c38.6,44.11-73.45,332.63-78.24,344.89c-0.28,0.83-30.6,90.09-50.84,159.1L1796.67,1261.41z
							 M1741.46,1258.36h52.94c20.26-68.91,50.28-157.31,50.58-158.19c1.19-3.05,116.19-299.12,78.8-341.85
							c-11.32-12.94-27.38-19.51-47.72-19.51c-26.89,0-55.06,11.37-70.2,17.47c-4.54,1.83-7.83,3.16-9.88,3.72
							c-12.38,3.37-220.72,122.9-239.86,133.89c14.07,21.17,40.78,31.91,79.42,31.91c68.43,0,151.3-34.1,152.13-34.44l2.97-1.23
							l-0.93,3.08c-8.58,28.38-21,136.43-31.97,231.77C1751.62,1178.2,1745.83,1228.55,1741.46,1258.36z"/>
					</g>
				</g>
			</g>
			<g>
				<path class="st24" d="M1777.78,1504.22c-3.13-12.51-3.95-34.9-3.77-59.65c-4.87-30.77-10.38-63.32-13.65-75.28
					c-4.58-16.8-22.11-52-33.2-73.43c-9.4,8.91-21.41,10.98-27.06,27.94c-7.32,21.96,16.47,43.93,29.29,67.72
					c12.81,23.79,13.73,69.55,14.64,100.67c0.84,28.55,24.74,41.66,28.68,43.63l4.22-1.14
					C1779.91,1532.06,1782.91,1524.73,1777.78,1504.22z"/>
				<path class="st24" d="M1772.54,1537.43l-0.52-0.26c-4.78-2.39-28.66-15.77-29.52-44.94l-0.09-3.1
					c-0.91-31.31-2.15-74.19-14.37-96.89c-3.58-6.64-8.08-13.23-12.44-19.61c-11.54-16.88-22.44-32.83-16.95-49.32
					c4.07-12.21,11.38-17.07,18.45-21.78c3.04-2.03,6.19-4.12,9.01-6.79l1.47-1.39l0.93,1.8c10.43,20.16,28.64,56.56,33.32,73.73
					c2.74,10.05,7.34,35.43,13.68,75.45c-0.19,29.26,1.03,48.65,3.74,59.52c4.19,16.77,3.75,27.53-1.33,31.97l-0.26,0.23
					L1772.54,1537.43z M1726.71,1298.3c-2.57,2.21-5.29,4.01-7.92,5.77c-6.95,4.62-13.51,8.99-17.25,20.21
					c-5.02,15.05,5.47,30.39,16.57,46.64c4.4,6.44,8.95,13.1,12.61,19.88c12.56,23.33,13.82,66.63,14.73,98.24l0.09,3.1
					c0.78,26.53,21.85,39.2,27.33,42.05l3.3-0.88c2.3-2.28,5.07-8.99,0.14-28.72c-2.78-11.13-4.03-30.76-3.81-60.03
					c-6.3-39.66-10.88-64.93-13.59-74.87C1754.41,1353.26,1737.2,1318.65,1726.71,1298.3z"/>
			</g>
			<path class="st24" d="M1797.11,1655.19l-1.78-3.86c0,0-21.61-74.56-35.98-96.8c-4.17-6.46-16.22-31.68-16.22-31.68
				c-7.41,10.76-19.37,29.59-18.32,37.97c1.67,13.35,27.56,30.95,31.11,43.93c5.08,18.54-4.81,58.83,1.83,76.87
				c6.1,16.57,41.78,51.48,56.74,42.1c16.57-10.4-8.98-22.2-13.73-41.18C1799.14,1676.05,1797.95,1666.49,1797.11,1655.19z"/>
		</g>
	</g>
</g>
</svg>
