<?xml version="1.0" encoding="UTF-8" standalone="no"?>
<!-- Generator: Adobe Illustrator 24.0.1, SVG Export Plug-In . SVG Version: 6.00 Build 0)  -->

<svg
   xmlns:dc="http://purl.org/dc/elements/1.1/"
   xmlns:cc="http://creativecommons.org/ns#"
   xmlns:rdf="http://www.w3.org/1999/02/22-rdf-syntax-ns#"
   xmlns:svg="http://www.w3.org/2000/svg"
   xmlns="http://www.w3.org/2000/svg"
   xmlns:sodipodi="http://sodipodi.sourceforge.net/DTD/sodipodi-0.dtd"
   xmlns:inkscape="http://www.inkscape.org/namespaces/inkscape"
   version="1.1"
   id="Isolation_Mode"
   x="0px"
   y="0px"
   viewBox="0 0 33.220013 33.210014"
   xml:space="preserve"
   sodipodi:docname="illustration7-time is money.svg"
   width="33.220013"
   height="33.210014"
   inkscape:version="0.92.3 (2405546, 2018-03-11)"><metadata
   id="metadata55"><rdf:RDF><cc:Work
       rdf:about=""><dc:format>image/svg+xml</dc:format><dc:type
         rdf:resource="http://purl.org/dc/dcmitype/StillImage" /><dc:title></dc:title></cc:Work></rdf:RDF></metadata><defs
   id="defs53" /><sodipodi:namedview
   pagecolor="#ffffff"
   bordercolor="#666666"
   borderopacity="1"
   objecttolerance="10"
   gridtolerance="10"
   guidetolerance="10"
   inkscape:pageopacity="0"
   inkscape:pageshadow="2"
   inkscape:window-width="640"
   inkscape:window-height="480"
   id="namedview51"
   showgrid="false"
   fit-margin-top="0"
   fit-margin-left="0"
   fit-margin-right="0"
   fit-margin-bottom="0"
   inkscape:zoom="3.3714286"
   inkscape:cx="16.610013"
   inkscape:cy="20.61"
   inkscape:window-x="0"
   inkscape:window-y="25"
   inkscape:window-maximized="0"
   inkscape:current-layer="Isolation_Mode" />
<style
   type="text/css"
   id="style2">
	.st0{fill:none;stroke:#231F20;stroke-miterlimit:10;}
	.st1{fill:none;stroke:#231F20;stroke-linecap:square;stroke-miterlimit:10;}
</style>
<g
   id="g48"
   transform="translate(-18.389987,-22.399986)">
	<g
   id="g28">
		<g
   id="g26">
			<polyline
   class="st0"
   points="32.15,28.84 32.15,36.15 27.65,40.64    "
   id="polyline4"
   style="fill:none;stroke:#231f20;stroke-miterlimit:10" />
			<g
   id="g8">
				<path
   class="st0"
   d="M 30.81,49.33 C 24.13,48.66 18.91,43.03 18.89,36.17 18.88,28.85 24.8,22.91 32.12,22.9 c 6.85,-0.01 12.5,5.18 13.2,11.85"
   id="path6"
   inkscape:connector-curvature="0"
   style="fill:none;stroke:#231f20;stroke-miterlimit:10" />
			</g>
			<line
   class="st1"
   x1="32.119999"
   y1="23.08"
   x2="32.119999"
   y2="24.35"
   id="line10"
   style="fill:none;stroke:#231f20;stroke-linecap:square;stroke-miterlimit:10" />
			<line
   class="st1"
   x1="25.59"
   y1="24.84"
   x2="26.23"
   y2="25.940001"
   id="line12"
   style="fill:none;stroke:#231f20;stroke-linecap:square;stroke-miterlimit:10" />
			<line
   class="st1"
   x1="20.82"
   y1="29.629999"
   x2="21.92"
   y2="30.27"
   id="line14"
   style="fill:none;stroke:#231f20;stroke-linecap:square;stroke-miterlimit:10" />
			<line
   class="st1"
   x1="19.08"
   y1="36.169998"
   x2="20.35"
   y2="36.169998"
   id="line16"
   style="fill:none;stroke:#231f20;stroke-linecap:square;stroke-miterlimit:10" />
			<line
   class="st1"
   x1="20.84"
   y1="42.700001"
   x2="21.940001"
   y2="42.060001"
   id="line18"
   style="fill:none;stroke:#231f20;stroke-linecap:square;stroke-miterlimit:10" />
			<line
   class="st1"
   x1="25.629999"
   y1="47.470001"
   x2="26.27"
   y2="46.369999"
   id="line20"
   style="fill:none;stroke:#231f20;stroke-linecap:square;stroke-miterlimit:10" />
			<line
   class="st1"
   x1="43.450001"
   y1="29.59"
   x2="42.349998"
   y2="30.23"
   id="line22"
   style="fill:none;stroke:#231f20;stroke-linecap:square;stroke-miterlimit:10" />
			<line
   class="st1"
   x1="38.66"
   y1="24.82"
   x2="38.02"
   y2="25.92"
   id="line24"
   style="fill:none;stroke:#231f20;stroke-linecap:square;stroke-miterlimit:10" />
		</g>
	</g>
	<g
   id="g44">
		<g
   id="g40">
			<g
   id="g38">
				<g
   id="g36">
					<path
   class="st0"
   d="m 39.06,46.97 v 0 c 0,0.86 0.7,1.56 1.56,1.56 h 1.6 c 0.86,0 1.56,-0.7 1.56,-1.56 v 0 c 0,-0.86 -0.7,-1.56 -1.56,-1.56 h -1.6 c -0.86,0 -1.56,-0.7 -1.56,-1.56 v 0 c 0,-0.86 0.7,-1.56 1.56,-1.56 h 1.6 c 0.86,0 1.56,0.7 1.56,1.56 v 0"
   id="path30"
   inkscape:connector-curvature="0"
   style="fill:none;stroke:#231f20;stroke-miterlimit:10" />
					<line
   class="st1"
   x1="41.41"
   y1="48.529999"
   x2="41.41"
   y2="49.509998"
   id="line32"
   style="fill:none;stroke:#231f20;stroke-linecap:square;stroke-miterlimit:10" />
					<line
   class="st1"
   x1="41.41"
   y1="41.310001"
   x2="41.41"
   y2="42.009998"
   id="line34"
   style="fill:none;stroke:#231f20;stroke-linecap:square;stroke-miterlimit:10" />
				</g>
			</g>
		</g>
		<path
   class="st0"
   d="m 37.77,36.44 c 1.17,-0.47 2.41,-0.71 3.65,-0.71 1.24,0 2.48,0.24 3.65,0.71 1.17,0.47 2.26,1.18 3.2,2.13 0.94,0.95 1.66,2.04 2.13,3.2 0.47,1.17 0.71,2.41 0.71,3.65 0,1.24 -0.24,2.48 -0.71,3.65 -0.47,1.17 -1.18,2.26 -2.13,3.2 -0.95,0.94 -2.04,1.66 -3.2,2.13 -1.17,0.47 -2.41,0.71 -3.65,0.71 -1.24,0 -2.48,-0.24 -3.65,-0.71 -1.17,-0.47 -2.26,-1.18 -3.2,-2.13 -0.94,-0.95 -1.66,-2.04 -2.13,-3.2 -0.47,-1.17 -0.71,-2.41 -0.71,-3.65"
   id="path42"
   inkscape:connector-curvature="0"
   style="fill:none;stroke:#231f20;stroke-miterlimit:10" />
	</g>
	<polyline
   class="st0"
   points="38.11,34.44 37.2,36.75 39.5,37.66  "
   id="polyline46"
   style="fill:none;stroke:#231f20;stroke-miterlimit:10" />
</g>
</svg>