<?xml version="1.0" encoding="utf-8"?>
<!-- Generator: Adobe Illustrator 24.0.1, SVG Export Plug-In . SVG Version: 6.00 Build 0)  -->
<svg version="1.1" id="Layer_1" xmlns="http://www.w3.org/2000/svg" xmlns:xlink="http://www.w3.org/1999/xlink" x="0px" y="0px"
	 viewBox="0 0 110 110" style="enable-background:new 0 0 110 110;" xml:space="preserve">
<style type="text/css">
	.st0{fill:#76B0DF;}
</style>
<g id="XMLID_4843_">
	<g id="XMLID_4848_">
		<g id="XMLID_4863_">
			<path id="XMLID_4865_" class="st0" d="M54.84,97.15c-23.98,0-42.07-17.13-42.07-39.84c0-13.37,6.23-27.1,15.7-34.96l-2.51-3.59
				c-0.03-0.04-0.06-0.08-0.08-0.13c-0.72-1.18-0.79-2.47-0.2-3.55c0.59-1.08,1.72-1.72,3.09-1.75c0.04,0,0.09,0,0.13,0l24.04,0.7
				c0.01,0,0.03,0,0.04,0c1.33,0,2.44,0.58,3.06,1.6c0.62,1.03,0.63,2.28,0.02,3.46l-9.66,21.25c-0.02,0.05-0.05,0.1-0.08,0.15
				c-0.66,1.21-1.74,1.92-2.98,1.95c-1.22,0.02-2.3-0.6-3.02-1.73l-2.35-3.34c-6.98,5.06-10.94,12.23-10.94,19.96
				c0,7.21,5.43,27.8,29.58,27.8c1.31,0,2.38,1.06,2.38,2.38c0,1.31-1.06,2.38-2.38,2.38c-14.4,0-22.65-6.7-27.03-12.32
				c-5.38-6.9-7.3-14.97-7.3-20.23c0-10.07,5.48-19.28,15.04-25.25c1.07-0.67,2.48-0.38,3.2,0.65l2.49,3.55l7.99-17.56l-19.66-0.57
				l2.33,3.33c0.75,1.07,0.5,2.53-0.56,3.29c-9.32,6.69-15.57,19.77-15.57,32.54c0,20,16.04,35.09,37.31,35.09
				c20.57,0,37.31-16.74,37.31-37.31c0-0.87-0.04-1.79-0.12-2.88c-0.1-1.31,0.88-2.45,2.19-2.55c1.31-0.1,2.45,0.88,2.55,2.19
				c0.09,1.2,0.14,2.26,0.14,3.24C96.9,78.28,78.03,97.15,54.84,97.15z"/>
		</g>
		<g id="XMLID_4861_">
			<path id="XMLID_4862_" class="st0" d="M34,59.68h-8.79c-1.31,0-2.38-1.06-2.38-2.38c0-1.31,1.06-2.38,2.38-2.38H34
				c1.31,0,2.38,1.06,2.38,2.38C36.37,58.62,35.31,59.68,34,59.68z"/>
		</g>
		<g id="XMLID_4859_">
			<path id="XMLID_4860_" class="st0" d="M56.61,89.67L56.61,89.67c-1.31,0-2.38-1.06-2.38-2.38l0-9.9c0-1.31,1.06-2.38,2.38-2.38
				l0,0c1.31,0,2.38,1.06,2.38,2.38l0,9.9C58.98,88.61,57.92,89.67,56.61,89.67z"/>
		</g>
		<g id="XMLID_4857_">
			<path id="XMLID_4858_" class="st0" d="M71.6,85.65c-0.82,0-1.62-0.43-2.06-1.19l-3.37-5.84c-0.66-1.14-0.27-2.59,0.87-3.25
				c1.14-0.65,2.59-0.26,3.25,0.87l3.37,5.84c0.66,1.14,0.27,2.59-0.87,3.25C72.41,85.55,72,85.65,71.6,85.65z"/>
		</g>
		<g id="XMLID_4855_">
			<path id="XMLID_4856_" class="st0" d="M82.57,74.67c-0.4,0-0.81-0.1-1.19-0.32l-5.83-3.37c-1.14-0.66-1.52-2.11-0.87-3.25
				c0.66-1.14,2.11-1.53,3.25-0.87l5.83,3.37c1.14,0.66,1.52,2.11,0.87,3.25C84.19,74.24,83.39,74.67,82.57,74.67z"/>
		</g>
		<g id="XMLID_4853_">
			<path id="XMLID_4854_" class="st0" d="M36.5,59.7L36.5,59.7l-9.9,0c-1.31,0-2.38-1.06-2.38-2.38c0-1.31,1.06-2.38,2.38-2.38l0,0
				l9.9,0c1.31,0,2.38,1.06,2.38,2.38C38.88,58.63,37.81,59.7,36.5,59.7z"/>
		</g>
		<g id="XMLID_4851_">
			<path id="XMLID_4852_" class="st0" d="M30.63,74.69c-0.82,0-1.62-0.43-2.06-1.19c-0.66-1.14-0.27-2.59,0.87-3.25l5.84-3.37
				c1.14-0.65,2.59-0.26,3.25,0.87c0.66,1.14,0.27,2.59-0.87,3.25l-5.84,3.37C31.44,74.59,31.03,74.69,30.63,74.69z"/>
		</g>
		<g id="XMLID_4849_">
			<path id="XMLID_4850_" class="st0" d="M41.61,85.66c-0.4,0-0.81-0.1-1.19-0.32c-1.14-0.66-1.52-2.11-0.87-3.25l3.37-5.83
				c0.66-1.14,2.11-1.52,3.25-0.87c1.14,0.66,1.52,2.11,0.87,3.25l-3.37,5.83C43.23,85.24,42.43,85.66,41.61,85.66z"/>
		</g>
	</g>
	<g id="XMLID_4844_">
		<path id="XMLID_4845_" class="st0" d="M58.12,69.45c-0.57,0-1.14-0.2-1.59-0.61L39.58,53.59c-0.51-0.46-0.8-1.12-0.79-1.8
			c0.01-0.69,0.31-1.33,0.84-1.78l7.87-6.69c0.5-0.43,1.17-0.62,1.82-0.55c0.66,0.08,1.25,0.43,1.64,0.97l7.11,9.81l22.45-24.49
			c0.47-0.51,1.14-0.8,1.83-0.77c0.69,0.02,1.34,0.35,1.78,0.9l9.22,11.58c0.4,0.5,0.58,1.15,0.5,1.79
			c-0.08,0.64-0.42,1.22-0.94,1.6L59.54,68.98C59.12,69.3,58.62,69.45,58.12,69.45z M44.78,51.87l13.49,12.13l29.83-22.2l-5.96-7.48
			L59.6,58.91c-0.48,0.53-1.18,0.79-1.89,0.77c-0.71-0.04-1.37-0.4-1.79-0.98l-7.31-10.09L44.78,51.87z"/>
	</g>
</g>
</svg>
