<?xml version="1.0" encoding="UTF-8" standalone="no"?>
<!-- Generator: Adobe Illustrator 24.0.1, SVG Export Plug-In . SVG Version: 6.00 Build 0)  -->

<svg
   xmlns:dc="http://purl.org/dc/elements/1.1/"
   xmlns:cc="http://creativecommons.org/ns#"
   xmlns:rdf="http://www.w3.org/1999/02/22-rdf-syntax-ns#"
   xmlns:svg="http://www.w3.org/2000/svg"
   xmlns="http://www.w3.org/2000/svg"
   xmlns:sodipodi="http://sodipodi.sourceforge.net/DTD/sodipodi-0.dtd"
   xmlns:inkscape="http://www.inkscape.org/namespaces/inkscape"
   version="1.1"
   id="Layer_1"
   x="0px"
   y="0px"
   viewBox="0 0 87.120003 87.110001"
   xml:space="preserve"
   sodipodi:docname="illustration6-process-icon1.svg"
   width="87.120003"
   height="87.110001"
   inkscape:version="0.92.3 (2405546, 2018-03-11)"><metadata
   id="metadata10"><rdf:RDF><cc:Work
       rdf:about=""><dc:format>image/svg+xml</dc:format><dc:type
         rdf:resource="http://purl.org/dc/dcmitype/StillImage" /><dc:title></dc:title></cc:Work></rdf:RDF></metadata><defs
   id="defs8" /><sodipodi:namedview
   pagecolor="#ffffff"
   bordercolor="#666666"
   borderopacity="1"
   objecttolerance="10"
   gridtolerance="10"
   guidetolerance="10"
   inkscape:pageopacity="0"
   inkscape:pageshadow="2"
   inkscape:window-width="640"
   inkscape:window-height="480"
   id="namedview6"
   showgrid="false"
   fit-margin-top="0"
   fit-margin-left="0"
   fit-margin-right="0"
   fit-margin-bottom="0"
   inkscape:zoom="2.1454545"
   inkscape:cx="43.73"
   inkscape:cy="43.79"
   inkscape:window-x="0"
   inkscape:window-y="25"
   inkscape:window-maximized="0"
   inkscape:current-layer="Layer_1" />
<style
   type="text/css"
   id="style2">
	.st0{fill:#76B0DF;}
</style>
<path
   id="XMLID_2930_"
   class="st0"
   d="m 21.79,0 c 3.01,0 5.44,2.44 5.44,5.44 V 8.16 H 47.65 V 5.44 C 47.65,2.43 50.09,0 53.09,0 h 1.36 c 3.01,0 5.44,2.44 5.44,5.44 v 2.72 h 6.13 c 4.89,0 8.85,3.96 8.85,8.85 v 33.25 c 7.52,3.01 12.05,9.73 12.25,17.79 0,10.52 -8.53,19.06 -19.06,19.06 C 59.75,86.93 53.48,82.45 50.27,74.86 H 8.85 C 3.96,74.86 0,70.9 0,66.01 v -49 C 0,12.12 3.96,8.16 8.85,8.16 h 6.13 V 5.44 C 14.98,2.43 17.42,0 20.42,0 Z m 46.28,53.08 c -8.27,0 -14.97,6.7 -14.97,14.97 0,8.27 6.7,14.97 14.97,14.97 8.27,0 14.97,-6.7 14.97,-14.97 0,-8.26 -6.7,-14.97 -14.97,-14.97 z m 0,4.09 c 1.13,0 2.04,0.91 2.04,2.04 v 6.81 h 4.08 c 1.13,0 2.04,0.91 2.04,2.04 0,1.13 -0.91,2.04 -2.04,2.04 h -6.13 c -1.13,0 -2.04,-0.91 -2.04,-2.04 v -8.85 c 0.01,-1.13 0.92,-2.04 2.05,-2.04 z M 50.84,59.89 H 39.48 v 10.89 h 9.73 c -0.21,-2.07 -0.16,-1.16 -0.2,-2.72 0.03,-2.38 0.47,-4.75 1.31,-6.98 0.16,-0.4 0.35,-0.79 0.52,-1.19 z m -33.14,0 H 4.09 v 6.13 c 0,2.63 2.13,4.76 4.76,4.76 h 8.85 z m 17.7,0 H 21.79 V 70.78 H 35.4 Z M 53.1,44.92 H 39.48 V 55.81 H 53.09 V 44.92 Z m -17.7,0 H 21.79 V 55.81 H 35.4 Z m -17.7,0 H 4.09 V 55.81 H 17.7 Z m 53.09,0 H 57.18 v 7.52 c 3.23,-2.32 6.95,-3.34 10.89,-3.44 1.56,0.04 0.66,-0.01 2.72,0.2 z m 0,-14.98 H 57.18 v 10.89 h 13.61 z m -17.69,0 H 39.48 V 40.83 H 53.09 V 29.94 Z m -17.7,0 H 21.79 V 40.83 H 35.4 Z m -17.7,0 H 4.09 V 40.83 H 17.7 Z M 14.98,12.25 H 8.85 c -2.63,0 -4.76,2.13 -4.76,4.76 v 8.85 h 66.7 v -8.85 c 0,-2.63 -2.13,-4.76 -4.76,-4.76 H 59.9 v 2.72 c 0,3.01 -2.44,5.44 -5.44,5.44 H 53.1 c -3.01,0 -5.44,-2.44 -5.44,-5.44 V 12.25 H 27.23 v 2.72 c 0,3.01 -2.44,5.44 -5.44,5.44 h -1.36 c -3.01,0 -5.44,-2.44 -5.44,-5.44 v -2.72 z m 6.81,-8.17 h -1.36 c -0.75,0 -1.36,0.61 -1.36,1.36 v 9.53 c 0,0.75 0.61,1.36 1.36,1.36 h 1.36 c 0.75,0 1.36,-0.61 1.36,-1.36 V 5.44 c 0,-0.75 -0.61,-1.36 -1.36,-1.36 z m 32.67,0 H 53.1 c -0.75,0 -1.36,0.61 -1.36,1.36 v 9.53 c 0,0.75 0.61,1.36 1.36,1.36 h 1.36 c 0.75,0 1.36,-0.61 1.36,-1.36 V 5.44 c 0,-0.75 -0.61,-1.36 -1.36,-1.36 z m 0,0"
   inkscape:connector-curvature="0"
   style="fill:#76b0df" />
</svg>