<?xml version="1.0" encoding="UTF-8" standalone="no"?>
<!-- Generator: Adobe Illustrator 24.0.1, SVG Export Plug-In . SVG Version: 6.00 Build 0)  -->

<svg
   xmlns:dc="http://purl.org/dc/elements/1.1/"
   xmlns:cc="http://creativecommons.org/ns#"
   xmlns:rdf="http://www.w3.org/1999/02/22-rdf-syntax-ns#"
   xmlns:svg="http://www.w3.org/2000/svg"
   xmlns="http://www.w3.org/2000/svg"
   xmlns:sodipodi="http://sodipodi.sourceforge.net/DTD/sodipodi-0.dtd"
   xmlns:inkscape="http://www.inkscape.org/namespaces/inkscape"
   version="1.1"
   id="Layer_1"
   x="0px"
   y="0px"
   viewBox="0 0 149.57945 134.548"
   xml:space="preserve"
   sodipodi:docname="illustration3-icon2.svg"
   width="149.57945"
   height="134.548"
   inkscape:version="0.92.3 (2405546, 2018-03-11)"><metadata
   id="metadata435"><rdf:RDF><cc:Work
       rdf:about=""><dc:format>image/svg+xml</dc:format><dc:type
         rdf:resource="http://purl.org/dc/dcmitype/StillImage" /><dc:title></dc:title></cc:Work></rdf:RDF></metadata><defs
   id="defs433" /><sodipodi:namedview
   pagecolor="#ffffff"
   bordercolor="#666666"
   borderopacity="1"
   objecttolerance="10"
   gridtolerance="10"
   guidetolerance="10"
   inkscape:pageopacity="0"
   inkscape:pageshadow="2"
   inkscape:window-width="640"
   inkscape:window-height="480"
   id="namedview431"
   showgrid="false"
   fit-margin-top="0"
   fit-margin-left="0"
   fit-margin-right="0"
   fit-margin-bottom="0"
   inkscape:zoom="1.5733333"
   inkscape:cx="74.568964"
   inkscape:cy="66.73"
   inkscape:window-x="0"
   inkscape:window-y="25"
   inkscape:window-maximized="0"
   inkscape:current-layer="Layer_1" />
<style
   type="text/css"
   id="style2">
	.st0{fill:#EBF5FD;}
	.st1{fill:#FF95A9;}
	.st2{fill:#3F6D92;}
	.st3{fill:#FFFFFF;}
	.st4{fill:#77B0DF;}
</style>
<path
   class="st0"
   d="m 98.468964,131.28801 c 32.989996,-10.27 57.079996,-38.370002 43.109996,-65.280002 -12.06,-23.25 -133.7499961,-88.78 -140.97999606,-28.11 -7.23000004,60.67 52.50000006,107.510002 97.87000006,93.390002 z"
   id="path4"
   inkscape:connector-curvature="0"
   style="fill:#ebf5fd" />
<path
   class="st0"
   d="m 135.11896,31.088008 c -13.85,9.56 -45.729996,-8.85 -30.27,-26.25 15.46,-17.4 43.62,17.03 30.27,26.25 z"
   id="path6"
   inkscape:connector-curvature="0"
   style="fill:#ebf5fd" />
<g
   id="g428"
   transform="translate(-0.43103606,-7.181992)">
	<g
   id="g36">
		<g
   id="g20">
			<g
   id="g12">
				<g
   id="g10">
					<path
   class="st1"
   d="m 70.25,47.43 c -2.67,0 -4.77,-2.13 -4.59,-4.63 0.36,-5.04 1.11,-9.89 3.38,-12.78 1.45,-1.85 3.73,-3.95 6.1,-3.95 1.94,0 4.26,0.01 6.94,0.01 2.48,0 4.82,2.24 6.29,4.21 2.14,2.87 2.84,7.62 3.18,12.52 0.17,2.5 -1.93,4.62 -4.59,4.62 z"
   id="path8"
   inkscape:connector-curvature="0"
   style="fill:#ff95a9" />
				</g>
			</g>
			<g
   id="g18">
				<g
   id="g16">
					<path
   class="st2"
   d="m 86.97,48.52 c 0,0 0,0 0,0 H 70.26 c -1.62,0 -3.17,-0.66 -4.25,-1.82 -1.02,-1.1 -1.53,-2.51 -1.42,-3.98 0.34,-4.78 1.04,-10.1 3.61,-13.38 1.28,-1.63 3.88,-4.36 6.95,-4.36 0,0 0.01,0 0.01,0 L 82.09,25 c 3.21,0 5.87,2.91 7.17,4.65 2.42,3.23 3.07,8.43 3.39,13.09 0.1,1.46 -0.41,2.87 -1.43,3.96 -1.08,1.16 -2.63,1.82 -4.25,1.82 z M 75.14,27.17 c -1.54,0 -3.5,1.32 -5.23,3.53 -2.22,2.83 -2.85,8 -3.15,12.19 -0.06,0.86 0.24,1.69 0.84,2.34 0.67,0.72 1.64,1.13 2.66,1.13 v 0 h 16.71 c 0,0 0,0 0,0 1.02,0 1.99,-0.41 2.65,-1.12 0.6,-0.65 0.9,-1.47 0.85,-2.33 C 90.19,38.82 89.6,33.77 87.51,30.97 85.75,28.61 83.72,27.2 82.09,27.2 l -6.95,-0.03 c 0,0 0,0 0,0 z"
   id="path14"
   inkscape:connector-curvature="0"
   style="fill:#3f6d92" />
				</g>
			</g>
		</g>
		<g
   id="g34">
			<g
   id="g26">
				<g
   id="g24">
					<ellipse
   class="st3"
   cx="78.419998"
   cy="20.549999"
   rx="6.96"
   ry="6.7800002"
   id="ellipse22"
   style="fill:#ffffff" />
				</g>
			</g>
			<g
   id="g32">
				<g
   id="g30">
					<path
   class="st2"
   d="m 78.42,28.42 c -4.44,0 -8.05,-3.53 -8.05,-7.87 0,-4.34 3.61,-7.87 8.05,-7.87 4.44,0 8.05,3.53 8.05,7.87 0,4.34 -3.61,7.87 -8.05,7.87 z m 0,-13.56 c -3.23,0 -5.87,2.55 -5.87,5.69 0,3.14 2.63,5.69 5.87,5.69 3.24,0 5.87,-2.55 5.87,-5.69 0,-3.14 -2.63,-5.69 -5.87,-5.69 z"
   id="path28"
   inkscape:connector-curvature="0"
   style="fill:#3f6d92" />
				</g>
			</g>
		</g>
	</g>
	<g
   id="g66">
		<g
   id="g50">
			<g
   id="g42">
				<g
   id="g40">
					<path
   class="st1"
   d="m 27.81,97.36 c -2.4,0 -4.29,-1.92 -4.13,-4.17 0.33,-4.53 1,-8.9 3.04,-11.5 1.31,-1.66 3.36,-3.56 5.49,-3.55 1.75,0 3.83,0.01 6.24,0.01 2.23,0 4.34,2.02 5.66,3.79 1.93,2.58 2.55,6.85 2.86,11.26 0.16,2.25 -1.74,4.15 -4.13,4.15 z"
   id="path38"
   inkscape:connector-curvature="0"
   style="fill:#ff95a9" />
				</g>
			</g>
			<g
   id="g48">
				<g
   id="g46">
					<path
   class="st2"
   d="m 42.85,98.45 c 0,0 0,0 0,0 H 27.81 v 0 c -1.49,0 -2.92,-0.61 -3.91,-1.68 -0.94,-1.01 -1.41,-2.31 -1.31,-3.66 0.31,-4.31 0.94,-9.13 3.27,-12.1 1.16,-1.48 3.53,-3.97 6.34,-3.97 0,0 0.01,0 0.01,0 l 6.24,0.01 c 2.94,0 5.36,2.65 6.54,4.23 2.19,2.93 2.78,7.63 3.07,11.84 0.09,1.35 -0.37,2.64 -1.31,3.65 -0.99,1.07 -2.41,1.68 -3.9,1.68 z M 27.81,96.27 h 15.04 c 0,0 0,0 0,0 0.89,0 1.73,-0.36 2.31,-0.98 0.52,-0.56 0.78,-1.27 0.73,-2.01 -0.25,-3.67 -0.78,-8.19 -2.64,-10.69 -1.57,-2.1 -3.36,-3.35 -4.79,-3.35 l -6.24,-0.01 c 0,0 0,0 -0.01,0 -1.36,0 -3.09,1.17 -4.63,3.13 -1.98,2.52 -2.54,7.15 -2.81,10.91 -0.05,0.74 0.21,1.46 0.73,2.02 0.58,0.62 1.42,0.98 2.31,0.98 z"
   id="path44"
   inkscape:connector-curvature="0"
   style="fill:#3f6d92" />
				</g>
			</g>
		</g>
		<g
   id="g64">
			<g
   id="g56">
				<g
   id="g54">
					<ellipse
   class="st3"
   cx="35.16"
   cy="73.160004"
   rx="6.2600002"
   ry="6.0999999"
   id="ellipse52"
   style="fill:#ffffff" />
				</g>
			</g>
			<g
   id="g62">
				<g
   id="g60">
					<path
   class="st2"
   d="m 35.16,80.36 c -4.05,0 -7.35,-3.23 -7.35,-7.19 0,-3.97 3.3,-7.19 7.35,-7.19 4.05,0 7.35,3.23 7.35,7.19 0,3.96 -3.29,7.19 -7.35,7.19 z m 0,-12.21 c -2.85,0 -5.17,2.25 -5.17,5.01 0,2.76 2.32,5.01 5.17,5.01 2.85,0 5.17,-2.25 5.17,-5.01 0,-2.76 -2.32,-5.01 -5.17,-5.01 z"
   id="path58"
   inkscape:connector-curvature="0"
   style="fill:#3f6d92" />
				</g>
			</g>
		</g>
	</g>
	<g
   id="g96">
		<g
   id="g80">
			<g
   id="g72">
				<g
   id="g70">
					<path
   class="st4"
   d="m 10.45,140.64 c -1.8,0 -3.22,-1.44 -3.1,-3.13 0.24,-3.4 0.75,-6.68 2.28,-8.63 0.98,-1.25 2.52,-2.67 4.12,-2.66 1.31,0 2.87,0.01 4.68,0.01 1.68,0 3.25,1.51 4.25,2.84 1.45,1.94 1.92,5.14 2.14,8.45 0.12,1.69 -1.3,3.12 -3.1,3.12 z"
   id="path68"
   inkscape:connector-curvature="0"
   style="fill:#77b0df" />
				</g>
			</g>
			<g
   id="g78">
				<g
   id="g76">
					<path
   class="st2"
   d="m 21.73,141.73 c 0,0 0,0 0,0 H 10.45 c 0,0 0,0 0,0 -1.19,0 -2.34,-0.49 -3.13,-1.34 -0.76,-0.81 -1.13,-1.86 -1.05,-2.95 0.24,-3.28 0.72,-6.94 2.51,-9.22 0.9,-1.15 2.75,-3.08 4.97,-3.08 0,0 0.01,0 0.01,0 l 4.68,0.01 c 2.32,0 4.21,2.06 5.12,3.28 1.69,2.26 2.14,5.83 2.36,9.03 0.08,1.09 -0.3,2.13 -1.06,2.94 -0.79,0.85 -1.93,1.33 -3.13,1.33 z m -11.28,-2.18 h 11.28 c 0,0 0,0 0,0 0.59,0 1.15,-0.24 1.53,-0.65 0.34,-0.36 0.51,-0.83 0.48,-1.3 -0.19,-2.71 -0.58,-6.06 -1.93,-7.87 -1.12,-1.5 -2.39,-2.4 -3.37,-2.41 l -4.68,-0.01 c 0,0 0,0 0,0 -0.93,0 -2.15,0.84 -3.25,2.25 -1.44,1.83 -1.85,5.26 -2.05,8.03 -0.03,0.48 0.13,0.94 0.47,1.31 0.37,0.42 0.93,0.65 1.52,0.65 z"
   id="path74"
   inkscape:connector-curvature="0"
   style="fill:#3f6d92" />
				</g>
			</g>
		</g>
		<g
   id="g94">
			<g
   id="g86">
				<g
   id="g84">
					<ellipse
   class="st3"
   cx="15.97"
   cy="122.49"
   rx="4.6999998"
   ry="4.5799999"
   id="ellipse82"
   style="fill:#ffffff" />
				</g>
			</g>
			<g
   id="g92">
				<g
   id="g90">
					<path
   class="st2"
   d="m 15.97,128.16 c -3.19,0 -5.79,-2.54 -5.79,-5.67 0,-3.12 2.6,-5.67 5.79,-5.67 3.19,0 5.79,2.54 5.79,5.67 -0.01,3.13 -2.6,5.67 -5.79,5.67 z m 0,-9.15 c -1.99,0 -3.61,1.56 -3.61,3.48 0,1.92 1.62,3.48 3.61,3.48 1.99,0 3.61,-1.56 3.61,-3.48 -0.01,-1.92 -1.63,-3.48 -3.61,-3.48 z"
   id="path88"
   inkscape:connector-curvature="0"
   style="fill:#3f6d92" />
				</g>
			</g>
		</g>
	</g>
	<g
   id="g126">
		<g
   id="g110">
			<g
   id="g102">
				<g
   id="g100">
					<path
   class="st4"
   d="m 35.46,140.64 c -1.8,0 -3.22,-1.44 -3.1,-3.13 0.24,-3.4 0.75,-6.68 2.28,-8.63 0.98,-1.25 2.52,-2.67 4.12,-2.66 1.31,0 2.87,0.01 4.68,0.01 1.68,0 3.25,1.51 4.25,2.84 1.45,1.94 1.92,5.14 2.14,8.45 0.12,1.69 -1.3,3.12 -3.1,3.12 z"
   id="path98"
   inkscape:connector-curvature="0"
   style="fill:#77b0df" />
				</g>
			</g>
			<g
   id="g108">
				<g
   id="g106">
					<path
   class="st2"
   d="m 46.74,141.73 c 0,0 0,0 0,0 H 35.46 c 0,0 0,0 0,0 -1.19,0 -2.34,-0.49 -3.13,-1.34 -0.76,-0.81 -1.13,-1.86 -1.05,-2.95 0.24,-3.28 0.72,-6.94 2.51,-9.22 0.9,-1.15 2.75,-3.08 4.97,-3.08 0,0 0.01,0 0.01,0 l 4.68,0.01 c 2.32,0 4.21,2.06 5.12,3.28 1.69,2.26 2.14,5.83 2.36,9.03 0.08,1.09 -0.3,2.13 -1.06,2.94 -0.8,0.85 -1.94,1.33 -3.13,1.33 z m -11.28,-2.18 h 11.28 c 0,0 0,0 0,0 0.59,0 1.15,-0.24 1.53,-0.65 0.34,-0.36 0.51,-0.83 0.48,-1.3 -0.19,-2.71 -0.58,-6.06 -1.93,-7.87 -1.12,-1.5 -2.39,-2.4 -3.37,-2.41 l -4.68,-0.01 c 0,0 0,0 0,0 -0.93,0 -2.15,0.84 -3.25,2.25 -1.44,1.83 -1.85,5.26 -2.05,8.03 -0.03,0.48 0.13,0.94 0.47,1.31 0.37,0.42 0.93,0.65 1.52,0.65 z"
   id="path104"
   inkscape:connector-curvature="0"
   style="fill:#3f6d92" />
				</g>
			</g>
		</g>
		<g
   id="g124">
			<g
   id="g116">
				<g
   id="g114">
					<ellipse
   class="st3"
   cx="40.970001"
   cy="122.49"
   rx="4.6999998"
   ry="4.5799999"
   id="ellipse112"
   style="fill:#ffffff" />
				</g>
			</g>
			<g
   id="g122">
				<g
   id="g120">
					<path
   class="st2"
   d="m 40.97,128.16 c -3.19,0 -5.79,-2.54 -5.79,-5.67 0,-3.12 2.6,-5.67 5.79,-5.67 3.19,0 5.79,2.54 5.79,5.67 0,3.13 -2.6,5.67 -5.79,5.67 z m 0,-9.15 c -1.99,0 -3.61,1.56 -3.61,3.48 0,1.92 1.62,3.48 3.61,3.48 1.99,0 3.61,-1.56 3.61,-3.48 0,-1.92 -1.62,-3.48 -3.61,-3.48 z"
   id="path118"
   inkscape:connector-curvature="0"
   style="fill:#3f6d92" />
				</g>
			</g>
		</g>
	</g>
	<g
   id="g156">
		<g
   id="g140">
			<g
   id="g132">
				<g
   id="g130">
					<path
   class="st4"
   d="m 60.47,140.64 c -1.8,0 -3.22,-1.44 -3.1,-3.13 0.24,-3.4 0.75,-6.68 2.28,-8.63 0.98,-1.25 2.52,-2.67 4.12,-2.66 1.31,0 2.87,0.01 4.68,0.01 1.68,0 3.25,1.51 4.25,2.84 1.45,1.94 1.92,5.14 2.14,8.45 0.12,1.69 -1.3,3.12 -3.1,3.12 z"
   id="path128"
   inkscape:connector-curvature="0"
   style="fill:#77b0df" />
				</g>
			</g>
			<g
   id="g138">
				<g
   id="g136">
					<path
   class="st2"
   d="m 71.75,141.73 c 0,0 0,0 0,0 H 60.47 c 0,0 0,0 0,0 -1.19,0 -2.34,-0.49 -3.13,-1.34 -0.76,-0.81 -1.13,-1.86 -1.05,-2.95 0.24,-3.28 0.72,-6.94 2.51,-9.22 0.9,-1.15 2.75,-3.08 4.97,-3.08 0,0 0.01,0 0.01,0 l 4.68,0.01 c 2.32,0 4.21,2.06 5.12,3.28 1.69,2.26 2.14,5.83 2.36,9.03 0.08,1.09 -0.3,2.13 -1.06,2.94 -0.8,0.85 -1.94,1.33 -3.13,1.33 z m -11.28,-2.18 h 11.28 c 0,0 0,0 0,0 0.59,0 1.15,-0.24 1.53,-0.65 0.34,-0.36 0.51,-0.83 0.48,-1.3 -0.19,-2.71 -0.58,-6.06 -1.93,-7.87 -1.12,-1.5 -2.39,-2.4 -3.37,-2.41 l -4.68,-0.01 c 0,0 0,0 0,0 -0.93,0 -2.15,0.84 -3.25,2.25 -1.44,1.83 -1.85,5.26 -2.05,8.03 -0.03,0.48 0.13,0.94 0.47,1.31 0.37,0.42 0.92,0.65 1.52,0.65 z"
   id="path134"
   inkscape:connector-curvature="0"
   style="fill:#3f6d92" />
				</g>
			</g>
		</g>
		<g
   id="g154">
			<g
   id="g146">
				<g
   id="g144">
					<ellipse
   class="st3"
   cx="65.980003"
   cy="122.49"
   rx="4.6999998"
   ry="4.5799999"
   id="ellipse142"
   style="fill:#ffffff" />
				</g>
			</g>
			<g
   id="g152">
				<g
   id="g150">
					<path
   class="st2"
   d="m 65.98,128.16 c -3.19,0 -5.79,-2.54 -5.79,-5.67 0,-3.12 2.6,-5.67 5.79,-5.67 3.19,0 5.79,2.54 5.79,5.67 0,3.13 -2.6,5.67 -5.79,5.67 z m 0,-9.15 c -1.99,0 -3.61,1.56 -3.61,3.48 0,1.92 1.62,3.48 3.61,3.48 1.99,0 3.61,-1.56 3.61,-3.48 0,-1.92 -1.62,-3.48 -3.61,-3.48 z"
   id="path148"
   inkscape:connector-curvature="0"
   style="fill:#3f6d92" />
				</g>
			</g>
		</g>
	</g>
	<g
   id="g186">
		<g
   id="g170">
			<g
   id="g162">
				<g
   id="g160">
					<path
   class="st4"
   d="m 84.51,140.64 c -1.8,0 -3.22,-1.44 -3.1,-3.13 0.24,-3.4 0.75,-6.68 2.28,-8.63 0.98,-1.25 2.52,-2.67 4.12,-2.66 1.31,0 2.87,0.01 4.68,0.01 1.68,0 3.25,1.51 4.25,2.84 1.45,1.94 1.92,5.14 2.14,8.45 0.12,1.69 -1.3,3.12 -3.1,3.12 z"
   id="path158"
   inkscape:connector-curvature="0"
   style="fill:#77b0df" />
				</g>
			</g>
			<g
   id="g168">
				<g
   id="g166">
					<path
   class="st2"
   d="m 95.79,141.73 c 0,0 0,0 0,0 H 84.51 c 0,0 0,0 0,0 -1.19,0 -2.34,-0.49 -3.13,-1.34 -0.76,-0.81 -1.13,-1.86 -1.05,-2.95 0.24,-3.28 0.72,-6.94 2.51,-9.22 0.9,-1.15 2.75,-3.08 4.97,-3.08 0,0 0.01,0 0.01,0 l 4.68,0.01 c 2.32,0 4.21,2.06 5.12,3.28 1.69,2.26 2.14,5.83 2.36,9.03 0.07,1.09 -0.3,2.13 -1.06,2.94 -0.8,0.85 -1.94,1.33 -3.13,1.33 z m -11.28,-2.18 h 11.28 c 0,0 0,0 0,0 0.59,0 1.15,-0.24 1.53,-0.65 0.34,-0.36 0.51,-0.83 0.48,-1.3 -0.19,-2.71 -0.58,-6.06 -1.93,-7.87 -1.12,-1.5 -2.39,-2.4 -3.37,-2.41 l -4.68,-0.01 c 0,0 0,0 0,0 -0.93,0 -2.15,0.84 -3.25,2.25 -1.44,1.83 -1.85,5.26 -2.05,8.03 -0.03,0.48 0.13,0.94 0.47,1.31 0.37,0.42 0.93,0.65 1.52,0.65 z"
   id="path164"
   inkscape:connector-curvature="0"
   style="fill:#3f6d92" />
				</g>
			</g>
		</g>
		<g
   id="g184">
			<g
   id="g176">
				<g
   id="g174">
					<ellipse
   class="st3"
   cx="90.029999"
   cy="122.49"
   rx="4.6999998"
   ry="4.5799999"
   id="ellipse172"
   style="fill:#ffffff" />
				</g>
			</g>
			<g
   id="g182">
				<g
   id="g180">
					<path
   class="st2"
   d="m 90.03,128.16 c -3.19,0 -5.79,-2.54 -5.79,-5.67 0,-3.12 2.6,-5.67 5.79,-5.67 3.19,0 5.79,2.54 5.79,5.67 -0.01,3.13 -2.6,5.67 -5.79,5.67 z m 0,-9.15 c -1.99,0 -3.61,1.56 -3.61,3.48 0,1.92 1.62,3.48 3.61,3.48 1.99,0 3.61,-1.56 3.61,-3.48 -0.01,-1.92 -1.63,-3.48 -3.61,-3.48 z"
   id="path178"
   inkscape:connector-curvature="0"
   style="fill:#3f6d92" />
				</g>
			</g>
		</g>
	</g>
	<g
   id="g216">
		<g
   id="g200">
			<g
   id="g192">
				<g
   id="g190">
					<path
   class="st1"
   d="m 70.13,97.36 c -2.4,0 -4.29,-1.92 -4.13,-4.17 0.33,-4.53 1,-8.9 3.04,-11.5 1.31,-1.66 3.36,-3.56 5.49,-3.55 1.75,0 3.83,0.01 6.24,0.01 2.23,0 4.34,2.02 5.66,3.79 1.93,2.58 2.55,6.85 2.86,11.26 0.16,2.25 -1.74,4.15 -4.13,4.15 z"
   id="path188"
   inkscape:connector-curvature="0"
   style="fill:#ff95a9" />
				</g>
			</g>
			<g
   id="g198">
				<g
   id="g196">
					<path
   class="st2"
   d="m 85.17,98.45 c 0,0 0,0 0,0 H 70.13 v 0 c -1.49,0 -2.92,-0.61 -3.91,-1.68 -0.94,-1.01 -1.41,-2.31 -1.31,-3.66 0.31,-4.31 0.94,-9.13 3.27,-12.1 1.16,-1.48 3.53,-3.97 6.34,-3.97 0,0 0.01,0 0.01,0 l 6.24,0.01 c 2.94,0 5.36,2.65 6.54,4.23 2.19,2.93 2.78,7.63 3.07,11.84 0.09,1.35 -0.37,2.64 -1.31,3.65 -0.99,1.07 -2.41,1.68 -3.9,1.68 z M 70.13,96.27 h 15.04 c 0,0 0,0 0,0 0.89,0 1.73,-0.36 2.31,-0.98 C 88,94.73 88.26,94.02 88.21,93.28 87.96,89.61 87.43,85.09 85.57,82.59 84,80.49 82.21,79.24 80.78,79.24 l -6.24,-0.01 c -1.33,0.02 -3.09,1.17 -4.63,3.13 -1.98,2.52 -2.54,7.16 -2.81,10.91 -0.05,0.74 0.21,1.46 0.73,2.02 0.57,0.62 1.41,0.98 2.3,0.98 z"
   id="path194"
   inkscape:connector-curvature="0"
   style="fill:#3f6d92" />
				</g>
			</g>
		</g>
		<g
   id="g214">
			<g
   id="g206">
				<g
   id="g204">
					<ellipse
   class="st3"
   cx="77.480003"
   cy="73.160004"
   rx="6.2600002"
   ry="6.0999999"
   id="ellipse202"
   style="fill:#ffffff" />
				</g>
			</g>
			<g
   id="g212">
				<g
   id="g210">
					<path
   class="st2"
   d="m 77.48,80.36 c -4.05,0 -7.35,-3.23 -7.35,-7.19 0,-3.97 3.3,-7.19 7.35,-7.19 4.05,0 7.35,3.23 7.35,7.19 0,3.96 -3.3,7.19 -7.35,7.19 z m 0,-12.21 c -2.85,0 -5.17,2.25 -5.17,5.01 0,2.76 2.32,5.01 5.17,5.01 2.85,0 5.17,-2.25 5.17,-5.01 0,-2.76 -2.32,-5.01 -5.17,-5.01 z"
   id="path208"
   inkscape:connector-curvature="0"
   style="fill:#3f6d92" />
				</g>
			</g>
		</g>
	</g>
	<g
   id="g246">
		<g
   id="g230">
			<g
   id="g222">
				<g
   id="g220">
					<path
   class="st1"
   d="m 114.37,97.36 c -2.4,0 -4.29,-1.92 -4.13,-4.17 0.33,-4.53 1,-8.9 3.04,-11.5 1.31,-1.66 3.36,-3.56 5.49,-3.55 1.75,0 3.83,0.01 6.24,0.01 2.23,0 4.34,2.02 5.66,3.79 1.93,2.58 2.55,6.85 2.86,11.26 0.16,2.25 -1.74,4.15 -4.13,4.15 z"
   id="path218"
   inkscape:connector-curvature="0"
   style="fill:#ff95a9" />
				</g>
			</g>
			<g
   id="g228">
				<g
   id="g226">
					<path
   class="st2"
   d="m 129.41,98.45 c 0,0 0,0 0,0 h -15.04 v 0 c -1.49,0 -2.92,-0.61 -3.91,-1.68 -0.94,-1.01 -1.41,-2.31 -1.31,-3.66 0.31,-4.31 0.94,-9.13 3.27,-12.1 1.16,-1.48 3.53,-3.97 6.34,-3.97 0,0 0.01,0 0.01,0 l 6.24,0.01 c 2.94,0 5.36,2.65 6.54,4.23 2.19,2.93 2.78,7.63 3.07,11.84 0.09,1.35 -0.37,2.64 -1.31,3.65 -0.99,1.07 -2.41,1.68 -3.9,1.68 z m -15.04,-2.18 h 15.04 c 0,0 0,0 0,0 0.89,0 1.73,-0.36 2.31,-0.98 0.52,-0.56 0.78,-1.27 0.73,-2.01 -0.25,-3.67 -0.78,-8.19 -2.64,-10.69 -1.57,-2.1 -3.36,-3.35 -4.79,-3.35 l -6.24,-0.01 c 0,0 0,0 -0.01,0 -1.36,0 -3.09,1.17 -4.63,3.13 -1.98,2.52 -2.54,7.15 -2.81,10.91 -0.05,0.74 0.21,1.46 0.73,2.02 0.58,0.62 1.42,0.98 2.31,0.98 z"
   id="path224"
   inkscape:connector-curvature="0"
   style="fill:#3f6d92" />
				</g>
			</g>
		</g>
		<g
   id="g244">
			<g
   id="g236">
				<g
   id="g234">
					<ellipse
   class="st3"
   cx="121.72"
   cy="73.160004"
   rx="6.2600002"
   ry="6.0999999"
   id="ellipse232"
   style="fill:#ffffff" />
				</g>
			</g>
			<g
   id="g242">
				<g
   id="g240">
					<path
   class="st2"
   d="m 121.72,80.36 c -4.05,0 -7.35,-3.23 -7.35,-7.19 0,-3.97 3.3,-7.19 7.35,-7.19 4.05,0 7.35,3.23 7.35,7.19 0.01,3.96 -3.29,7.19 -7.35,7.19 z m 0,-12.21 c -2.85,0 -5.17,2.25 -5.17,5.01 0,2.76 2.32,5.01 5.17,5.01 2.85,0 5.17,-2.25 5.17,-5.01 0,-2.76 -2.32,-5.01 -5.17,-5.01 z"
   id="path238"
   inkscape:connector-curvature="0"
   style="fill:#3f6d92" />
				</g>
			</g>
		</g>
	</g>
	<g
   id="g260">
		<g
   id="g252">
			<g
   id="g250">
				<line
   class="st2"
   x1="77.959999"
   y1="54.220001"
   x2="77.959999"
   y2="58.919998"
   id="line248"
   style="fill:#3f6d92" />
			</g>
		</g>
		<g
   id="g258">
			<g
   id="g256">
				<path
   class="st2"
   d="m 77.96,60.01 c -0.6,0 -1.09,-0.49 -1.09,-1.09 v -4.7 c 0,-0.6 0.49,-1.09 1.09,-1.09 0.6,0 1.09,0.49 1.09,1.09 v 4.7 c 0,0.6 -0.49,1.09 -1.09,1.09 z"
   id="path254"
   inkscape:connector-curvature="0"
   style="fill:#3f6d92" />
			</g>
		</g>
	</g>
	<g
   id="g268">
		<g
   id="g266">
			<g
   id="g264">
				<path
   class="st2"
   d="m 122.21,60.01 c -0.6,0 -1.09,-0.49 -1.09,-1.09 v -3.6 H 36.4 v 3.6 c 0,0.6 -0.49,1.09 -1.09,1.09 -0.6,0 -1.09,-0.49 -1.09,-1.09 v -4.7 c 0,-0.6 0.49,-1.09 1.09,-1.09 h 86.9 c 0.6,0 1.09,0.49 1.09,1.09 v 4.7 c 0.01,0.6 -0.48,1.09 -1.09,1.09 z"
   id="path262"
   inkscape:connector-curvature="0"
   style="fill:#3f6d92" />
			</g>
		</g>
	</g>
	<g
   id="g298">
		<g
   id="g282">
			<g
   id="g274">
				<g
   id="g272">
					<path
   class="st4"
   d="m 109.52,140.64 c -1.8,0 -3.22,-1.44 -3.1,-3.13 0.24,-3.4 0.75,-6.68 2.28,-8.63 0.98,-1.25 2.52,-2.67 4.12,-2.66 1.31,0 2.87,0.01 4.68,0.01 1.68,0 3.25,1.51 4.25,2.84 1.45,1.94 1.92,5.14 2.14,8.45 0.12,1.69 -1.3,3.12 -3.1,3.12 z"
   id="path270"
   inkscape:connector-curvature="0"
   style="fill:#77b0df" />
				</g>
			</g>
			<g
   id="g280">
				<g
   id="g278">
					<path
   class="st2"
   d="m 120.8,141.73 c 0,0 0,0 0,0 h -11.28 c 0,0 0,0 0,0 -1.19,0 -2.34,-0.49 -3.13,-1.34 -0.76,-0.81 -1.13,-1.86 -1.05,-2.95 0.23,-3.28 0.72,-6.94 2.51,-9.22 0.9,-1.15 2.75,-3.08 4.97,-3.08 0,0 0.01,0 0.01,0 l 4.68,0.01 c 2.32,0 4.21,2.06 5.12,3.28 1.69,2.26 2.14,5.83 2.36,9.03 0.08,1.09 -0.3,2.13 -1.06,2.94 -0.8,0.85 -1.94,1.33 -3.13,1.33 z m -11.28,-2.18 h 11.28 c 0,0 0,0 0,0 0.59,0 1.15,-0.24 1.53,-0.65 0.34,-0.36 0.51,-0.83 0.48,-1.3 -0.19,-2.71 -0.58,-6.06 -1.93,-7.87 -1.12,-1.5 -2.39,-2.4 -3.37,-2.41 l -4.68,-0.01 c 0,0 0,0 0,0 -0.93,0 -2.15,0.84 -3.25,2.25 -1.44,1.83 -1.85,5.26 -2.05,8.03 -0.03,0.48 0.13,0.94 0.47,1.31 0.37,0.42 0.93,0.65 1.52,0.65 z"
   id="path276"
   inkscape:connector-curvature="0"
   style="fill:#3f6d92" />
				</g>
			</g>
		</g>
		<g
   id="g296">
			<g
   id="g288">
				<g
   id="g286">
					<ellipse
   class="st3"
   cx="115.03"
   cy="122.49"
   rx="4.6999998"
   ry="4.5799999"
   id="ellipse284"
   style="fill:#ffffff" />
				</g>
			</g>
			<g
   id="g294">
				<g
   id="g292">
					<path
   class="st2"
   d="m 115.03,128.16 c -3.19,0 -5.79,-2.54 -5.79,-5.67 0,-3.12 2.6,-5.67 5.79,-5.67 3.19,0 5.79,2.54 5.79,5.67 0,3.13 -2.6,5.67 -5.79,5.67 z m 0,-9.15 c -1.99,0 -3.61,1.56 -3.61,3.48 0,1.92 1.62,3.48 3.61,3.48 1.99,0 3.61,-1.56 3.61,-3.48 0,-1.92 -1.62,-3.48 -3.61,-3.48 z"
   id="path290"
   inkscape:connector-curvature="0"
   style="fill:#3f6d92" />
				</g>
			</g>
		</g>
	</g>
	<g
   id="g328">
		<g
   id="g312">
			<g
   id="g304">
				<g
   id="g302">
					<path
   class="st4"
   d="m 134.52,140.64 c -1.8,0 -3.22,-1.44 -3.1,-3.13 0.24,-3.4 0.75,-6.68 2.28,-8.63 0.98,-1.25 2.52,-2.67 4.12,-2.66 1.31,0 2.87,0.01 4.68,0.01 1.68,0 3.25,1.51 4.25,2.84 1.45,1.94 1.92,5.14 2.14,8.45 0.12,1.69 -1.3,3.12 -3.1,3.12 z"
   id="path300"
   inkscape:connector-curvature="0"
   style="fill:#77b0df" />
				</g>
			</g>
			<g
   id="g310">
				<g
   id="g308">
					<path
   class="st2"
   d="m 145.81,141.73 c 0,0 0,0 0,0 h -11.28 c 0,0 0,0 0,0 -1.19,0 -2.34,-0.49 -3.13,-1.34 -0.76,-0.81 -1.13,-1.86 -1.05,-2.95 0.24,-3.28 0.72,-6.94 2.51,-9.22 0.9,-1.15 2.75,-3.08 4.97,-3.08 0,0 0.01,0 0.01,0 l 4.68,0.01 c 2.32,0 4.21,2.06 5.12,3.28 1.69,2.26 2.14,5.83 2.36,9.03 0.08,1.09 -0.3,2.13 -1.06,2.94 -0.8,0.85 -1.94,1.33 -3.13,1.33 z m -11.28,-2.18 h 11.28 c 0,0 0,0 0,0 0.59,0 1.15,-0.24 1.53,-0.65 0.34,-0.36 0.51,-0.83 0.48,-1.3 -0.19,-2.71 -0.58,-6.06 -1.93,-7.87 -1.12,-1.5 -2.39,-2.4 -3.37,-2.41 l -4.68,-0.01 c 0,0 0,0 0,0 -0.93,0 -2.15,0.84 -3.25,2.25 -1.44,1.83 -1.85,5.26 -2.05,8.03 -0.03,0.48 0.13,0.94 0.47,1.31 0.37,0.42 0.92,0.65 1.52,0.65 z"
   id="path306"
   inkscape:connector-curvature="0"
   style="fill:#3f6d92" />
				</g>
			</g>
		</g>
		<g
   id="g326">
			<g
   id="g318">
				<g
   id="g316">
					<ellipse
   class="st3"
   cx="140.03999"
   cy="122.49"
   rx="4.6999998"
   ry="4.5799999"
   id="ellipse314"
   style="fill:#ffffff" />
				</g>
			</g>
			<g
   id="g324">
				<g
   id="g322">
					<path
   class="st2"
   d="m 140.04,128.16 c -3.19,0 -5.79,-2.54 -5.79,-5.67 0,-3.12 2.6,-5.67 5.79,-5.67 3.19,0 5.79,2.54 5.79,5.67 0,3.13 -2.6,5.67 -5.79,5.67 z m 0,-9.15 c -1.99,0 -3.61,1.56 -3.61,3.48 0,1.92 1.62,3.48 3.61,3.48 1.99,0 3.61,-1.56 3.61,-3.48 0,-1.92 -1.62,-3.48 -3.61,-3.48 z"
   id="path320"
   inkscape:connector-curvature="0"
   style="fill:#3f6d92" />
				</g>
			</g>
		</g>
	</g>
	<g
   id="g342">
		<g
   id="g334">
			<g
   id="g332">
				<line
   class="st2"
   x1="16.17"
   y1="110.3"
   x2="16.17"
   y2="105.23"
   id="line330"
   style="fill:#3f6d92" />
			</g>
		</g>
		<g
   id="g340">
			<g
   id="g338">
				<path
   class="st2"
   d="m 16.17,111.39 c -0.6,0 -1.09,-0.49 -1.09,-1.09 v -5.07 c 0,-0.6 0.49,-1.09 1.09,-1.09 0.6,0 1.09,0.49 1.09,1.09 v 5.07 c 0,0.61 -0.49,1.09 -1.09,1.09 z"
   id="path336"
   inkscape:connector-curvature="0"
   style="fill:#3f6d92" />
			</g>
		</g>
	</g>
	<g
   id="g356">
		<g
   id="g348">
			<g
   id="g346">
				<line
   class="st2"
   x1="40.970001"
   y1="110.3"
   x2="40.970001"
   y2="105.23"
   id="line344"
   style="fill:#3f6d92" />
			</g>
		</g>
		<g
   id="g354">
			<g
   id="g352">
				<path
   class="st2"
   d="m 40.97,111.39 c -0.6,0 -1.09,-0.49 -1.09,-1.09 v -5.07 c 0,-0.6 0.49,-1.09 1.09,-1.09 0.6,0 1.09,0.49 1.09,1.09 v 5.07 c 0,0.61 -0.48,1.09 -1.09,1.09 z"
   id="path350"
   inkscape:connector-curvature="0"
   style="fill:#3f6d92" />
			</g>
		</g>
	</g>
	<g
   id="g370">
		<g
   id="g362">
			<g
   id="g360">
				<line
   class="st2"
   x1="65.779999"
   y1="110.3"
   x2="65.779999"
   y2="105.23"
   id="line358"
   style="fill:#3f6d92" />
			</g>
		</g>
		<g
   id="g368">
			<g
   id="g366">
				<path
   class="st2"
   d="m 65.78,111.39 c -0.6,0 -1.09,-0.49 -1.09,-1.09 v -5.07 c 0,-0.6 0.49,-1.09 1.09,-1.09 0.6,0 1.09,0.49 1.09,1.09 v 5.07 c 0,0.61 -0.49,1.09 -1.09,1.09 z"
   id="path364"
   inkscape:connector-curvature="0"
   style="fill:#3f6d92" />
			</g>
		</g>
	</g>
	<g
   id="g384">
		<g
   id="g376">
			<g
   id="g374">
				<line
   class="st2"
   x1="90.580002"
   y1="110.3"
   x2="90.580002"
   y2="105.23"
   id="line372"
   style="fill:#3f6d92" />
			</g>
		</g>
		<g
   id="g382">
			<g
   id="g380">
				<path
   class="st2"
   d="m 90.58,111.39 c -0.6,0 -1.09,-0.49 -1.09,-1.09 v -5.07 c 0,-0.6 0.49,-1.09 1.09,-1.09 0.6,0 1.09,0.49 1.09,1.09 v 5.07 c 0,0.61 -0.48,1.09 -1.09,1.09 z"
   id="path378"
   inkscape:connector-curvature="0"
   style="fill:#3f6d92" />
			</g>
		</g>
	</g>
	<g
   id="g398">
		<g
   id="g390">
			<g
   id="g388">
				<line
   class="st2"
   x1="115.39"
   y1="110.3"
   x2="115.39"
   y2="105.23"
   id="line386"
   style="fill:#3f6d92" />
			</g>
		</g>
		<g
   id="g396">
			<g
   id="g394">
				<path
   class="st2"
   d="m 115.39,111.39 c -0.6,0 -1.09,-0.49 -1.09,-1.09 v -5.07 c 0,-0.6 0.49,-1.09 1.09,-1.09 0.6,0 1.09,0.49 1.09,1.09 v 5.07 c 0,0.61 -0.49,1.09 -1.09,1.09 z"
   id="path392"
   inkscape:connector-curvature="0"
   style="fill:#3f6d92" />
			</g>
		</g>
	</g>
	<g
   id="g412">
		<g
   id="g404">
			<g
   id="g402">
				<line
   class="st2"
   x1="140.19"
   y1="110.3"
   x2="140.19"
   y2="105.23"
   id="line400"
   style="fill:#3f6d92" />
			</g>
		</g>
		<g
   id="g410">
			<g
   id="g408">
				<path
   class="st2"
   d="m 140.19,111.39 c -0.6,0 -1.09,-0.49 -1.09,-1.09 v -5.07 c 0,-0.6 0.49,-1.09 1.09,-1.09 0.6,0 1.09,0.49 1.09,1.09 v 5.07 c 0,0.61 -0.48,1.09 -1.09,1.09 z"
   id="path406"
   inkscape:connector-curvature="0"
   style="fill:#3f6d92" />
			</g>
		</g>
	</g>
	<g
   id="g426">
		<g
   id="g418">
			<g
   id="g416">
				<polyline
   class="st2"
   points="16.17,105.23 64.87,105.23 114.67,105.23 139.72,105.23     "
   id="polyline414"
   style="fill:#3f6d92" />
			</g>
		</g>
		<g
   id="g424">
			<g
   id="g422">
				<path
   class="st2"
   d="M 139.72,106.32 H 16.17 c -0.6,0 -1.09,-0.49 -1.09,-1.09 0,-0.6 0.49,-1.09 1.09,-1.09 h 123.55 c 0.6,0 1.09,0.49 1.09,1.09 0,0.6 -0.49,1.09 -1.09,1.09 z"
   id="path420"
   inkscape:connector-curvature="0"
   style="fill:#3f6d92" />
			</g>
		</g>
	</g>
</g>
</svg>