<?xml version="1.0" encoding="UTF-8" standalone="no"?>
<!-- Generator: Adobe Illustrator 24.0.1, SVG Export Plug-In . SVG Version: 6.00 Build 0)  -->

<svg
   xmlns:dc="http://purl.org/dc/elements/1.1/"
   xmlns:cc="http://creativecommons.org/ns#"
   xmlns:rdf="http://www.w3.org/1999/02/22-rdf-syntax-ns#"
   xmlns:svg="http://www.w3.org/2000/svg"
   xmlns="http://www.w3.org/2000/svg"
   xmlns:sodipodi="http://sodipodi.sourceforge.net/DTD/sodipodi-0.dtd"
   xmlns:inkscape="http://www.inkscape.org/namespaces/inkscape"
   version="1.1"
   id="Layer_1"
   x="0px"
   y="0px"
   viewBox="0 0 133.20102 149.57817"
   xml:space="preserve"
   sodipodi:docname="illustration3-icon1.svg"
   width="133.20102"
   height="149.57817"
   inkscape:version="0.92.3 (2405546, 2018-03-11)"><metadata
   id="metadata39"><rdf:RDF><cc:Work
       rdf:about=""><dc:format>image/svg+xml</dc:format><dc:type
         rdf:resource="http://purl.org/dc/dcmitype/StillImage" /><dc:title></dc:title></cc:Work></rdf:RDF></metadata><defs
   id="defs37" /><sodipodi:namedview
   pagecolor="#ffffff"
   bordercolor="#666666"
   borderopacity="1"
   objecttolerance="10"
   gridtolerance="10"
   guidetolerance="10"
   inkscape:pageopacity="0"
   inkscape:pageshadow="2"
   inkscape:window-width="640"
   inkscape:window-height="480"
   id="namedview35"
   showgrid="false"
   fit-margin-top="0"
   fit-margin-left="0"
   fit-margin-right="0"
   fit-margin-bottom="0"
   inkscape:zoom="1.5733333"
   inkscape:cx="66.20778"
   inkscape:cy="74.981286"
   inkscape:window-x="0"
   inkscape:window-y="25"
   inkscape:window-maximized="0"
   inkscape:current-layer="Layer_1" />
<style
   type="text/css"
   id="style2">
	.st0{fill:#EBF5FD;}
	.st1{fill:#77B0DF;}
	.st2{fill:#3F6D92;}
</style>
<path
   class="st0"
   d="m 1.5277796,85.26689 c -6.13,31.67 6.34,63.91 34.6500004,64.31 24.46,0.35 132.12,-70.81 85.41,-103.56 -46.71,-32.75 -111.6200004,-4.32 -120.0600004,39.25 z"
   id="path4"
   inkscape:connector-curvature="0"
   style="fill:#ebf5fd" />
<path
   class="st0"
   d="m 95.19778,22.67689 c -10.29,-10.73 14.89,-31.8600002 30.3,-18.2500002 18.19,16.0600002 -17.44,31.6500002 -30.3,18.2500002 z"
   id="path6"
   inkscape:connector-curvature="0"
   style="fill:#ebf5fd" />
<path
   class="st1"
   d="m 49.28778,52.54689 c 0,0 6.12,-3.06 20.95,-3.71 l 19.98,1.93 7.25,4.83 v 35.3 h -25.62 l -0.64,-6.77 -2.58,-2.58 -12.25,-4.35 -3.38,-21.91 z"
   id="path8"
   inkscape:connector-curvature="0"
   style="fill:#77b0df" />
<path
   class="st2"
   d="m 97.91778,92.51689 c -1.07,0 -1.93,-0.86 -1.93,-1.93 v -29.62 c 0,-3.35 -1.97,-6.38 -5.02,-7.75 -10.94,-2.81 -23.2,-3.18 -34.54,-1.03 -1.05,0.2 -2.06,-0.49 -2.26,-1.54 -0.2,-1.05 0.49,-2.06 1.54,-2.26 11.93,-2.26 24.85,-1.86 36.37,1.13 l 0.28,0.09 c 4.55,1.95 7.49,6.41 7.49,11.36 v 29.61 c 0.01,1.07 -0.86,1.94 -1.93,1.94 z"
   id="path10"
   inkscape:connector-curvature="0"
   style="fill:#3f6d92" />
<path
   class="st2"
   d="m 87.49778,92.51689 c -1.07,0 -1.93,-0.86 -1.93,-1.93 v -20.86 c 0,-1.07 0.86,-1.93 1.93,-1.93 1.07,0 1.93,0.86 1.93,1.93 v 20.85 c 0,1.07 -0.86,1.94 -1.93,1.94 z"
   id="path12"
   inkscape:connector-curvature="0"
   style="fill:#3f6d92" />
<rect
   x="43.85778"
   y="88.646896"
   class="st2"
   width="74.239998"
   height="3.8699999"
   id="rect14"
   style="fill:#3f6d92" />
<path
   class="st2"
   d="m 71.85778,89.90689 c -1.07,0 -1.93,-0.86 -1.93,-1.93 0,-2.28 -1.46,-4.3 -3.62,-5.02 l -11.81,-3.94 -2.79,-17.75 c -0.74,-4.39 -2.26,-6.81 -5.07,-8.06 -10.8,-3.2 -22.2,-3.1 -32.95,0.28 l -1.84,0.58 c -1.02,0.32 -2.1000004,-0.25 -2.4200004,-1.27 -0.32,-1.02 0.25,-2.1 1.2700004,-2.42 l 1.84,-0.58 c 11.53,-3.63 23.74,-3.72 35.33,-0.27 l 0.21,0.08 c 5.42,2.32 6.86,7.41 7.46,11.04 l 2.43,15.44 9.58,3.19 c 3.75,1.25 6.27,4.74 6.27,8.69 -0.03,1.07 -0.89,1.94 -1.96,1.94 z"
   id="path16"
   inkscape:connector-curvature="0"
   style="fill:#3f6d92" />
<path
   class="st2"
   d="m 30.15778,102.93689 h -7.82 c -1.07,0 -1.93,-0.86 -1.93,-1.93 0,-1.07 0.86,-1.93 1.93,-1.93 h 7.82 c 1.81,0 3.28,-1.47 3.28,-3.28 v -22.16 c 0,-6.84 -5.56,-12.4 -12.4,-12.4 -6.84,0 -12.4000004,5.56 -12.4000004,12.4 v 22.15 c 0,1.81 1.4700004,3.28 3.2800004,3.28 1.07,0 1.93,0.86 1.93,1.93 0,1.07 -0.86,1.93 -1.93,1.93 -3.9400004,0 -7.1500004,-3.21 -7.1500004,-7.15 v -22.14 c 0,-8.97 7.3000004,-16.27 16.2700004,-16.27 8.97,0 16.27,7.3 16.27,16.27 v 22.15 c 0,3.94 -3.21,7.15 -7.15,7.15 z"
   id="path18"
   inkscape:connector-curvature="0"
   style="fill:#3f6d92" />
<path
   class="st2"
   d="m 43.18778,128.99689 h -31.27 c -3.9400004,0 -7.1500004,-3.2 -7.1500004,-7.15 0,-3.94 3.2,-7.15 7.1500004,-7.15 h 8.33 l -2.44,-31.46 c -0.08,-1.06 0.71,-1.99 1.78,-2.08 1.07,-0.08 1.99,0.72 2.08,1.78 l 2.47,31.77 h 19.06 c 3.94,0 7.15,3.2 7.15,7.15 -0.01,3.94 -3.22,7.14 -7.16,7.14 z m -31.27,-10.42 c -1.81,0 -3.2800004,1.47 -3.2800004,3.28 0,1.81 1.4700004,3.28 3.2800004,3.28 h 31.27 c 1.81,0 3.28,-1.47 3.28,-3.28 0,-1.81 -1.47,-3.28 -3.28,-3.28 z"
   id="path20"
   inkscape:connector-curvature="0"
   style="fill:#3f6d92" />
<path
   class="st2"
   d="m 105.73778,136.81689 c -1.07,0 -1.93,-0.86 -1.93,-1.93 v -44.31 c 0,-1.07 0.86,-1.93 1.93,-1.93 1.07,0 1.93,0.86 1.93,1.93 v 44.31 c 0,1.07 -0.86,1.93 -1.93,1.93 z"
   id="path22"
   inkscape:connector-curvature="0"
   style="fill:#3f6d92" />
<path
   class="st2"
   d="m 30.15778,136.81689 c -1.07,0 -1.93,-0.86 -1.93,-1.93 v -7.82 c 0,-1.07 0.86,-1.93 1.93,-1.93 1.07,0 1.93,0.86 1.93,1.93 v 7.82 c 0,1.07 -0.86,1.93 -1.93,1.93 z"
   id="path24"
   inkscape:connector-curvature="0"
   style="fill:#3f6d92" />
<path
   class="st2"
   d="m 61.42778,136.81689 c -0.93,0 -1.74,-0.67 -1.91,-1.61 l -2.35,-13.81 c -0.05,-0.33 -0.26,-0.56 -0.54,-0.62 l -13.76,-2.23 c -1.05,-0.17 -1.77,-1.17 -1.6,-2.22 0.17,-1.05 1.15,-1.78 2.22,-1.6 l 13.83,2.24 c 1.96,0.39 3.4,1.92 3.67,3.83 l 2.34,13.76 c 0.18,1.05 -0.53,2.05 -1.58,2.23 -0.1,0.02 -0.21,0.03 -0.32,0.03 z"
   id="path26"
   inkscape:connector-curvature="0"
   style="fill:#3f6d92" />
<path
   class="st2"
   d="m 74.46778,136.81689 c -1.07,0 -1.93,-0.86 -1.93,-1.93 v -18.38 c 0,-2.32 -1.37,-4.43 -3.49,-5.38 l -25.08,-11.45 -2.69,-35.02 c -0.08,-1.07 0.72,-2 1.78,-2.08 1.08,-0.09 2,0.71 2.08,1.78 l 2.52,32.75 22.99,10.49 c 3.5,1.55 5.77,5.05 5.77,8.9 v 18.38 c -0.02,1.08 -0.89,1.94 -1.95,1.94 z"
   id="path28"
   inkscape:connector-curvature="0"
   style="fill:#3f6d92" />
<path
   class="st2"
   d="m 30.11778,44.04689 c -7.46,0 -13.54,-6.07 -13.54,-13.54 0,-7.47 6.07,-13.54 13.54,-13.54 7.47,0 13.54,6.07 13.54,13.54 0,7.47 -6.08,13.54 -13.54,13.54 z m 0,-23.2 c -5.33,0 -9.67,4.34 -9.67,9.67 0,5.33 4.34,9.67 9.67,9.67 5.33,0 9.67,-4.34 9.67,-9.67 0,-5.33 -4.34,-9.67 -9.67,-9.67 z"
   id="path30"
   inkscape:connector-curvature="0"
   style="fill:#3f6d92" />
<path
   class="st2"
   d="m 72.81778,44.04689 c -7.46,0 -13.54,-6.07 -13.54,-13.54 0,-7.47 6.07,-13.54 13.54,-13.54 7.46,0 13.54,6.07 13.54,13.54 0,7.47 -6.08,13.54 -13.54,13.54 z m 0,-23.2 c -5.33,0 -9.67,4.34 -9.67,9.67 0,5.33 4.34,9.67 9.67,9.67 5.33,0 9.67,-4.34 9.67,-9.67 0,-5.33 -4.34,-9.67 -9.67,-9.67 z"
   id="path32"
   inkscape:connector-curvature="0"
   style="fill:#3f6d92" />
</svg>