<?xml version="1.0" encoding="utf-8"?>
<!-- Generator: Adobe Illustrator 24.0.1, SVG Export Plug-In . SVG Version: 6.00 Build 0)  -->
<svg version="1.1" id="Layer_1" xmlns="http://www.w3.org/2000/svg" xmlns:xlink="http://www.w3.org/1999/xlink" x="0px" y="0px"
	 viewBox="0 0 110 110" style="enable-background:new 0 0 110 110;" xml:space="preserve">
<style type="text/css">
	.st0{fill:#76B0DF;}
</style>
<path id="XMLID_2930_" class="st0" d="M33.06,11.68c3.01,0,5.44,2.44,5.44,5.44v2.72h20.42v-2.72c0-3.01,2.44-5.44,5.44-5.44h1.36
	c3.01,0,5.44,2.44,5.44,5.44v2.72h6.13c4.89,0,8.85,3.96,8.85,8.85v33.25c7.52,3.01,12.05,9.73,12.25,17.79
	c0,10.52-8.53,19.06-19.06,19.06c-8.31-0.18-14.58-4.66-17.79-12.25H20.12c-4.89,0-8.85-3.96-8.85-8.85v-49
	c0-4.89,3.96-8.85,8.85-8.85h6.13v-2.72c0-3.01,2.44-5.44,5.44-5.44H33.06z M79.34,64.76c-8.27,0-14.97,6.7-14.97,14.97
	c0,8.27,6.7,14.97,14.97,14.97c8.27,0,14.97-6.7,14.97-14.97C94.31,71.47,87.61,64.76,79.34,64.76L79.34,64.76z M79.34,68.85
	c1.13,0,2.04,0.91,2.04,2.04v6.81h4.08c1.13,0,2.04,0.91,2.04,2.04c0,1.13-0.91,2.04-2.04,2.04h-6.13c-1.13,0-2.04-0.91-2.04-2.04
	v-8.85C77.3,69.76,78.21,68.85,79.34,68.85L79.34,68.85z M62.11,71.57H50.75v10.89h9.73c-0.21-2.07-0.16-1.16-0.2-2.72
	c0.03-2.38,0.47-4.75,1.31-6.98C61.75,72.36,61.94,71.97,62.11,71.57L62.11,71.57z M28.97,71.57H15.36v6.13
	c0,2.63,2.13,4.76,4.76,4.76h8.85V71.57z M46.67,71.57H33.06v10.89h13.61V71.57z M64.37,56.6H50.75v10.89h13.61V56.6z M46.67,56.6
	H33.06v10.89h13.61V56.6z M28.97,56.6H15.36v10.89h13.61V56.6z M82.06,56.6H68.45v7.52c3.23-2.32,6.95-3.34,10.89-3.44
	c1.56,0.04,0.66-0.01,2.72,0.2V56.6z M82.06,41.62H68.45v10.89h13.61V41.62z M64.37,41.62H50.75v10.89h13.61V41.62z M46.67,41.62
	H33.06v10.89h13.61V41.62z M28.97,41.62H15.36v10.89h13.61V41.62z M26.25,23.93h-6.13c-2.63,0-4.76,2.13-4.76,4.76v8.85h66.7v-8.85
	c0-2.63-2.13-4.76-4.76-4.76h-6.13v2.72c0,3.01-2.44,5.44-5.44,5.44h-1.36c-3.01,0-5.44-2.44-5.44-5.44v-2.72H38.5v2.72
	c0,3.01-2.44,5.44-5.44,5.44H31.7c-3.01,0-5.44-2.44-5.44-5.44V23.93z M33.06,15.76H31.7c-0.75,0-1.36,0.61-1.36,1.36v9.53
	c0,0.75,0.61,1.36,1.36,1.36h1.36c0.75,0,1.36-0.61,1.36-1.36v-9.53C34.42,16.37,33.81,15.76,33.06,15.76L33.06,15.76z M65.73,15.76
	h-1.36c-0.75,0-1.36,0.61-1.36,1.36v9.53c0,0.75,0.61,1.36,1.36,1.36h1.36c0.75,0,1.36-0.61,1.36-1.36v-9.53
	C67.09,16.37,66.48,15.76,65.73,15.76L65.73,15.76z M65.73,15.76"/>
</svg>
