<?xml version="1.0" encoding="utf-8"?>
<!-- Generator: Adobe Illustrator 24.0.1, SVG Export Plug-In . SVG Version: 6.00 Build 0)  -->
<svg version="1.1" id="Layer_1" xmlns="http://www.w3.org/2000/svg" xmlns:xlink="http://www.w3.org/1999/xlink" x="0px" y="0px"
	 viewBox="0 0 110 110" style="enable-background:new 0 0 110 110;" xml:space="preserve">
<style type="text/css">
	.st0{fill:none;stroke:#76B0DF;stroke-width:4;stroke-miterlimit:10;}
</style>
<g id="XMLID_4810_">
	<circle id="XMLID_4802_" class="st0" cx="75.62" cy="41.06" r="29.92"/>
	<polyline id="XMLID_4788_" class="st0" points="75.62,20.35 75.62,41.06 87.13,47.97 	"/>
	<circle id="XMLID_4786_" class="st0" cx="31.89" cy="59.47" r="6.91"/>
	<path id="XMLID_4520_" class="st0" d="M39.45,32.61l-3.56,6.56c-2.25-0.45-4.59-0.52-6.94-0.19l-3.21-6.73l-7.5,2.88l2.12,7.15
		c-1.97,1.32-3.65,2.94-5.03,4.78l-7.04-2.49l-3.27,7.34l6.56,3.56c-0.45,2.25-0.52,4.59-0.19,6.94l-6.73,3.21l2.88,7.5l7.15-2.12
		c1.32,1.97,2.94,3.65,4.78,5.03l-2.49,7.04l7.34,3.27l3.56-6.56c2.25,0.45,4.59,0.52,6.94,0.19l3.21,6.73l7.5-2.88l-2.12-7.15
		c1.97-1.32,3.65-2.94,5.03-4.78l7.04,2.49"/>
	<path id="XMLID_4519_" class="st0" d="M81.93,75.71c0.11,2.42-0.94,4.86-3.03,6.42c-3.34,2.5-8.07,1.81-10.57-1.53
		c-1.03-1.38-1.52-3.01-1.5-4.61"/>
	<path id="XMLID_4517_" class="st0" d="M58.6,82.05l-4.96,3.27l4.22,6.42l4.96-3.27c1.34,1.27,2.88,2.34,4.61,3.13l-1.2,5.82
		l7.52,1.55l1.2-5.82c1.9-0.05,3.74-0.41,5.47-1.05l3.27,4.96l6.42-4.22l-3.27-4.96c1.27-1.34,2.34-2.88,3.13-4.61l5.82,1.2
		l1.55-7.52l-5.82-1.2"/>
</g>
</svg>
