<?xml version="1.0" encoding="utf-8"?>
<!-- Generator: Adobe Illustrator 24.0.1, SVG Export Plug-In . SVG Version: 6.00 Build 0)  -->
<svg version="1.1" id="Ñëîé_1" xmlns="http://www.w3.org/2000/svg" xmlns:xlink="http://www.w3.org/1999/xlink" x="0px" y="0px"
	 viewBox="0 0 780 840" style="enable-background:new 0 0 780 840;" xml:space="preserve">
<style type="text/css">
	.st0{fill:#F8F7FF;}
	.st1{fill:#DDD6FF;}
	.st2{fill:#EEEBFF;}
	.st3{fill:#40327A;}
	.st4{fill:#A796F2;}
	.st5{fill:#76B0DF;}
	.st6{fill:#7760DB;}
	.st7{fill:#4A4AAC;}
	.st8{fill:#FFAA83;}
	.st9{fill:#3F6D92;}
	.st10{fill:#FFFFFF;}
	.st11{fill:#FFC359;}
	.st12{fill:#FF809F;}
	.st13{fill:none;}
</style>
<g>
	<path class="st0" d="M185.22,727.41H558.3c113.73-66.14,131.72-148.53,116.32-186.33c-26.65-65.4-49.43-63.97-87.23-89.92
		c-45.45-31.2,2.16-86.66-5.82-129.31c-12.65-67.68-94.52-88.33-190.3,81c-40.38,71.38-95.73-61.93-140.87-77.6
		c-41.91-14.54-168.41,51.16-37.56,199.12C254.5,571.48,49.12,591.31,185.22,727.41z"/>
	<path class="st0" d="M227.88,142.39c1.26-11.35,4.57-19.09,12.43-23.36c23.31-12.64,81.82,7.87,106.14,39.52
		c33.92,44.13,2.98,111.99-29.97,116.33C278.15,279.91,221.4,201.01,227.88,142.39z"/>
	<path class="st0" d="M627.65,380.75c18.39-9.25,39.46,13.02,40.76,27.98c1.81,20.86-20.77,33.01-33.07,30.79
		C611.7,435.26,607.83,390.72,627.65,380.75z"/>
	<g>
		<g>
			<rect x="172.02" y="176.35" class="st1" width="2" height="5.61"/>
			<rect x="172.02" y="210" class="st1" width="2" height="5.61"/>
		</g>
		<g>
			<rect x="163.61" y="178.6" transform="matrix(0.866 -0.5 0.5 0.866 -68.6474 106.6041)" class="st1" width="2" height="5.61"/>
			<rect x="180.44" y="207.75" transform="matrix(0.866 -0.5 0.5 0.866 -80.9661 118.9209)" class="st1" width="2" height="5.61"/>
		</g>
		<g>
			<rect x="157.45" y="184.76" transform="matrix(0.5 -0.866 0.866 0.5 -83.21 231.0079)" class="st1" width="2" height="5.61"/>
			<rect x="186.6" y="201.59" transform="matrix(0.5 -0.866 0.866 0.5 -83.21 264.6663)" class="st1" width="2" height="5.61"/>
		</g>
		<g>
			<rect x="153.39" y="194.98" class="st1" width="5.61" height="2"/>
			<rect x="187.05" y="194.98" class="st1" width="5.61" height="2"/>
		</g>
		<g>
			<rect x="155.65" y="203.39" transform="matrix(0.866 -0.5 0.5 0.866 -80.9674 106.6057)" class="st1" width="5.61" height="2"/>
			<rect x="184.79" y="186.56" transform="matrix(0.866 -0.5 0.5 0.866 -68.648 118.9251)" class="st1" width="5.61" height="2"/>
		</g>
		<g>
			
				<rect x="161.81" y="209.55" transform="matrix(0.4999 -0.8661 0.8661 0.4999 -100.0358 247.8629)" class="st1" width="5.61" height="2"/>
			
				<rect x="178.63" y="180.4" transform="matrix(0.4999 -0.8661 0.8661 0.4999 -66.3742 247.861)" class="st1" width="5.61" height="2"/>
		</g>
	</g>
	<path class="st2" d="M645.54,300.41h-2c0-6.21-5.05-11.26-11.26-11.26v-2c6.21,0,11.26-5.05,11.26-11.26h2
		c0,6.21,5.05,11.26,11.26,11.26v2C650.59,289.15,645.54,294.2,645.54,300.41z M637.33,288.15c3.25,1.35,5.86,3.95,7.21,7.21
		c1.35-3.25,3.95-5.86,7.21-7.21c-3.25-1.35-5.86-3.95-7.21-7.21C643.19,284.2,640.59,286.8,637.33,288.15z"/>
	<path class="st2" d="M136.13,489.88c-3.89,0-7.05-3.16-7.05-7.05c0-3.89,3.17-7.05,7.05-7.05c3.89,0,7.05,3.16,7.05,7.05
		C143.18,486.72,140.02,489.88,136.13,489.88z M136.13,477.77c-2.79,0-5.05,2.27-5.05,5.05c0,2.79,2.27,5.05,5.05,5.05
		c2.79,0,5.05-2.27,5.05-5.05C141.18,480.04,138.91,477.77,136.13,477.77z"/>
	
		<rect x="342.85" y="628.24" transform="matrix(0.729 -0.6845 0.6845 0.729 -323.4704 443.4907)" class="st3" width="110.95" height="4"/>
	<path class="st4" d="M443.96,589.11c-2.32,4.04-7.48,5.43-11.52,3.11c-4.04-2.32-5.43-7.48-3.11-11.52
		c2.32-4.04,7.48-5.43,11.52-3.11S446.28,585.07,443.96,589.11z"/>
	<polygon class="st5" points="429.32,580.69 492.78,470.3 512.84,481.83 443.96,589.11 	"/>
	<path class="st3" d="M446.34,602.01l-22-12.65l4.98-8.67l14.64,8.42l5.77,9.41c0.48,0.78,0.49,1.77,0.04,2.56l0,0
		C449.08,602.29,447.55,602.7,446.34,602.01z"/>
	<path class="st6" d="M400.44,727.21c-54.59,0-99-44.41-99-99c0-54.59,44.41-99,99-99s99,44.41,99,99
		C499.44,682.8,455.03,727.21,400.44,727.21z M400.44,537.21c-50.18,0-91,40.82-91,91c0,50.18,40.82,91,91,91s91-40.82,91-91
		C491.44,578.04,450.62,537.21,400.44,537.21z"/>
	<path class="st7" d="M400.44,714.21c-47.42,0-86-38.58-86-86c0-47.42,38.58-86,86-86s86,38.58,86,86
		C486.44,675.63,447.86,714.21,400.44,714.21z M400.44,544.21c-46.32,0-84,37.68-84,84c0,46.32,37.68,84,84,84s84-37.68,84-84
		C484.44,581.9,446.76,544.21,400.44,544.21z"/>
	<path class="st1" d="M291.75,593.79l-1.91-0.61c1.8-5.68,4.07-11.28,6.75-16.63l1.79,0.89
		C295.75,582.71,293.52,588.21,291.75,593.79z"/>
	<path class="st1" d="M290.26,598.91l-1.93-0.52c0.25-0.95,0.52-1.89,0.79-2.84l1.92,0.56C290.76,597.05,290.5,597.98,290.26,598.91
		z"/>
	<path class="st1" d="M294.89,618.38l-1.99-0.18c1.43-15.52,6.11-30.23,13.9-43.74l1.73,1C300.89,588.71,296.3,603.15,294.89,618.38
		z"/>
	<path class="st7" d="M400.44,727.21c-54.59,0-99-44.41-99-99c0-54.59,44.41-99,99-99s99,44.41,99,99
		C499.44,682.8,455.03,727.21,400.44,727.21z M400.44,537.21c-50.18,0-91,40.82-91,91c0,50.18,40.82,91,91,91s91-40.82,91-91
		C491.44,578.04,450.62,537.21,400.44,537.21z"/>
	<rect x="397.44" y="495.79" class="st3" width="6" height="138.73"/>
	<path class="st3" d="M379.92,501.67l47.1-6.41c3.8-0.52,6.64-3.77,6.64-7.61l0,0h-62.45v6.41
		C371.21,498.71,375.31,502.29,379.92,501.67z"/>
	<g>
		<path class="st8" d="M555.19,407.13c-0.88,4.33-5.1,7.13-9.43,6.25c-4.33-0.88-7.13-5.1-6.25-9.43c0.88-4.33,5.1-7.13,9.43-6.25
			C553.27,398.58,556.07,402.8,555.19,407.13z"/>
		<path class="st8" d="M539.12,405.91c0.66-3.25-1.44-6.41-4.69-7.07c-3.25-0.66-6.41,1.44-7.07,4.69
			c-0.66,3.25,1.44,6.41,4.69,7.07C535.3,411.26,538.46,409.16,539.12,405.91z"/>
		<polygon class="st8" points="546.68,397.57 532.74,398.74 532.05,410.6 545.76,413.38 		"/>
	</g>
	<path class="st5" d="M534.89,410.48l-2.18-11.75l-4.04,0.35l-5.97,0.52l-59.56,5.18l-27.29-49.62l-32.88,22.45l42.04,50.3
		l0.01-0.01c3.36,4.01,8.88,5.9,14.23,4.36c0.03-0.01,0.06-0.02,0.09-0.03L534.89,410.48z"/>
	<polygon class="st9" points="459.32,432.25 458.63,430.37 458.77,430.32 510.93,415.3 511.48,417.22 	"/>
	<polygon class="st10" points="532.72,398.73 534.89,410.48 523.94,413.64 522.71,399.61 528.68,399.09 	"/>
	<polygon class="st8" points="532.72,398.74 534.9,410.48 529.81,411.95 528.68,399.09 	"/>
	<path class="st5" d="M431.15,380.14c-8.47,7.08-21.09,5.96-28.17-2.52c-7.08-8.47-5.96-21.09,2.52-28.17
		c8.47-7.08,21.09-5.96,28.17,2.52C440.75,360.44,439.62,373.05,431.15,380.14z"/>
	<g>
		<path class="st8" d="M228.66,360.68c0.02,4.42,3.63,7.98,8.04,7.96c4.42-0.02,7.98-3.63,7.96-8.04c-0.02-4.42-3.63-7.98-8.04-7.96
			C232.2,352.66,228.64,356.26,228.66,360.68z"/>
		<path class="st8" d="M244.66,362.59c-0.02-3.31,2.65-6.01,5.97-6.03c3.31-0.02,6.01,2.65,6.03,5.97c0.02,3.31-2.65,6.01-5.97,6.03
			C247.38,368.58,244.68,365.9,244.66,362.59z"/>
		<polygon class="st8" points="238.87,352.94 252.31,356.79 250.69,368.56 236.71,368.63 		"/>
	</g>
	
		<ellipse transform="matrix(0.9699 -0.2435 0.2435 0.9699 -90.3804 88.7861)" class="st5" cx="313.95" cy="409.98" rx="13.64" ry="13.64"/>
	<polygon class="st5" points="375.63,383.91 321.72,421.2 304.18,400.47 349.92,353.52 	"/>
	<g>
		<polygon class="st5" points="304.76,420.06 246.62,367 253.78,357.43 257.25,359.54 262.37,362.65 321.03,398.31 		"/>
		<polygon class="st10" points="255.04,374.68 246.62,367 253.78,357.43 257.25,359.54 262.37,362.65 		"/>
		<polygon class="st8" points="253.78,357.43 246.62,367 250.53,370.57 257.24,359.54 		"/>
	</g>
	
		<ellipse transform="matrix(0.4018 -0.9157 0.9157 0.4018 -118.5867 553.4025)" class="st5" cx="364.26" cy="367.46" rx="20" ry="20"/>
	<polygon class="st5" points="418.09,460.35 502.83,464.51 502.83,487.64 418.09,487.65 	"/>
	
		<ellipse transform="matrix(0.9298 -0.3682 0.3682 0.9298 -148.2601 170.9247)" class="st4" cx="373.82" cy="474.01" rx="13.65" ry="13.65"/>
	<circle class="st4" cx="418.09" cy="474" r="13.65"/>
	<path class="st5" d="M432.33,358.77l0.1,105l-72.87-1.6l-9.82-99.3c-0.79-7.96,5.25-14.96,13.24-15.36l54.67-2.71
		C425.63,344.4,432.33,350.77,432.33,358.77z"/>
	<path class="st5" d="M432.43,460.36l-0.67,13.65l-0.03,0.67c-0.36,7.27-6.36,12.98-13.63,12.98h-44.25
		c-7.28,0-13.28-5.71-13.63-12.98l-0.03-0.67l-0.67-13.65H432.43z"/>
	<polygon class="st5" points="385.87,467.6 425.65,542.43 405.22,553.29 361.77,480.42 	"/>
	
		<rect x="402.55" y="480.15" transform="matrix(0.883 -0.4694 0.4694 0.883 -188.8938 248.298)" class="st9" width="2" height="45.71"/>
	<path class="st4" d="M364.11,664.96c-2.25,4.08-7.38,5.57-11.46,3.32c-4.08-2.25-5.57-7.38-3.32-11.46
		c2.25-4.08,7.38-5.57,11.46-3.32C364.87,655.74,366.36,660.88,364.11,664.96z"/>
	<polygon class="st10" points="379.32,346.7 400.86,417.79 411.06,366.21 410.02,345.17 	"/>
	<polygon class="st10" points="410.02,345.18 411.06,366.21 406.81,387.7 400.86,417.79 391.97,388.43 379.32,346.7 	"/>
	<path class="st5" d="M512.85,481.84c-3.18,5.54-10.25,7.45-15.79,4.26c-5.54-3.18-7.45-10.25-4.26-15.79
		c3.18-5.54,10.25-7.45,15.79-4.26C514.12,469.23,516.03,476.3,512.85,481.84z"/>
	<path class="st5" d="M425.56,553.44c-3.08,5.59-10.12,7.63-15.71,4.55c-5.59-3.08-7.63-10.12-4.55-15.71
		c3.08-5.59,10.12-7.63,15.71-4.55C426.61,540.81,428.64,547.84,425.56,553.44z"/>
	<polygon class="st5" points="349.34,656.82 405.3,542.28 425.56,553.44 364.12,664.97 	"/>
	<polygon class="st3" points="406.81,387.7 400.86,417.79 391.97,388.43 396.53,350.63 398.53,350.53 	"/>
	<path class="st3" d="M366.73,677.82l-22.23-12.25l4.83-8.76l14.79,8.15l5.94,9.31c0.49,0.77,0.53,1.76,0.08,2.56l0,0
		C369.47,678.05,367.95,678.49,366.73,677.82z"/>
	
		<rect x="378.63" y="319.01" transform="matrix(0.9988 -0.0495 0.0495 0.9988 -15.9855 19.7735)" class="st8" width="25" height="27.09"/>
	<path class="st11" d="M223.46,281.25l11.73,9.78l20.83,2.77c4.52,0.6,7.35,5.2,5.85,9.51c-1.5,4.31-6.58,6.16-10.5,3.81
		l-18.03-10.78l-15.27,0.37c-15.77,0.38-31-5.37-42.55-15.92c-2.29-2.09-3.08-5.37-2.06-8.3l0,0c1.03-2.96,3.74-5.02,6.87-5.23
		C195.91,266.2,211.37,271.17,223.46,281.25z"/>
	<path class="st9" d="M255.06,308.15c-1.29,0-2.56-0.35-3.68-1.02l-18.03-10.78l-12.23,0.3l-0.05-2l12.81-0.31l18.53,11.08
		c0.81,0.48,1.73,0.74,2.66,0.74c2.22,0,4.2-1.41,4.93-3.5c0.32-0.91,0.38-1.89,0.17-2.82l1.95-0.43c0.28,1.29,0.2,2.64-0.24,3.9
		C260.86,306.2,258.12,308.15,255.06,308.15z"/>
	<path class="st10" d="M214.25,281.9c-0.6-0.39-1.21-0.76-1.83-1.13l1.02-1.72c0.64,0.38,1.27,0.77,1.89,1.17L214.25,281.9z
		 M210.43,279.65c-8.8-4.72-18.77-6.98-28.78-6.47l-0.1-2c10.38-0.53,20.72,1.81,29.83,6.7L210.43,279.65z"/>
	<path class="st9" d="M200.14,294.47c-9.1-2.55-17.61-7.28-24.62-13.68c-2.28-2.08-3.09-5.34-2.06-8.3
		c1.03-2.97,3.73-5.02,6.87-5.23c2.74-0.19,5.52-0.18,8.27,0l-0.14,2c-2.65-0.18-5.35-0.18-8,0c-2.34,0.16-4.35,1.69-5.12,3.9
		c-0.77,2.2-0.17,4.62,1.52,6.17c6.77,6.19,15.01,10.77,23.8,13.23L200.14,294.47z"/>
	<path class="st9" d="M205.34,295.68c-0.94-0.18-1.9-0.38-2.83-0.6l0.46-1.95c0.9,0.21,1.82,0.41,2.73,0.58L205.34,295.68z"/>
	<path class="st12" d="M446.36,138.32l-11.26,10.32l-5.52,20.27c-1.2,4.4-6.13,6.6-10.2,4.53c-4.07-2.06-5.23-7.34-2.38-10.91
		l13.09-16.44l1.67-15.18c1.72-15.68,9.45-30.01,21.44-40.05c2.38-1.99,5.73-2.34,8.5-0.93l0,0c2.8,1.42,4.48,4.38,4.27,7.51
		C464.94,113.02,457.96,127.68,446.36,138.32z"/>
	<path class="st10" d="M450.76,101.65l-1.52-1.3c0.17-0.2,0.34-0.39,0.51-0.57l1.54,1.28l-0.05,0.05
		C451.07,101.29,450.92,101.46,450.76,101.65z M451.28,101.05l-1.49-1.33c1.52-1.71,3.17-3.34,4.88-4.85l1.32,1.5
		C454.34,97.83,452.75,99.41,451.28,101.05z"/>
	<path class="st10" d="M437.98,129.57l-1.98-0.29c0.09-0.6,0.18-1.19,0.29-1.79l1.97,0.35
		C438.15,128.42,438.06,128.99,437.98,129.57z M438.67,125.77l-1.95-0.43c1.84-8.44,5.48-16.15,10.81-22.92l1.57,1.24
		C443.95,110.19,440.44,117.63,438.67,125.77z"/>
	<path class="st6" d="M422.63,174.23c-1.13,0-2.22-0.26-3.25-0.78c-1.94-0.98-3.32-2.77-3.78-4.9c-0.21-0.99-0.22-1.99-0.02-2.97
		l1.96,0.4c-0.14,0.71-0.14,1.43,0.02,2.14c0.33,1.54,1.33,2.83,2.73,3.54c0.74,0.38,1.53,0.57,2.34,0.57
		c2.34,0,4.41-1.58,5.03-3.84l5.67-20.83l4.95-4.53l1.35,1.47l-4.52,4.14l-5.52,20.27C428.73,172.05,425.88,174.23,422.63,174.23z"
		/>
	<path class="st6" d="M442.53,141.84l-1.35-1.47l3.83-3.51c9.98-9.15,16.54-21.55,18.48-34.9l1.98,0.29
		c-2,13.81-8.79,26.62-19.1,36.08L442.53,141.84z"/>
	<path class="st6" d="M465.8,99.45l-1.99-0.2c0.06-0.65,0.12-1.29,0.16-1.95l2,0.13C465.93,98.12,465.87,98.79,465.8,99.45z"/>
	<path class="st5" d="M576.73,359.57l-15.13,2.13l-16.03,13.59c-3.48,2.95-8.79,1.96-10.98-2.04c-2.19-4-0.15-9.01,4.21-10.34
		l20.1-6.14l9.97-11.57c10.3-11.94,24.78-19.38,40.35-20.87c3.09-0.29,6.05,1.32,7.54,4.05l0,0c1.49,2.72,1.25,6.09-0.67,8.53
		C606.43,349.21,592.35,357.37,576.73,359.57z"/>
	<path class="st10" d="M570.52,352.5l-1.52-1.3l1.41-1.64l1.52,1.3L570.52,352.5z M573.2,349.38l-1.52-1.31l0.22-0.26
		c6.67-7.74,15.28-13.54,24.9-16.78l0.64,1.9c-9.28,3.12-17.59,8.72-24.02,16.19L573.2,349.38z M599.67,332.24l-0.56-1.92
		c2.46-0.71,5-1.27,7.55-1.64l0.29,1.98C604.5,331.01,602.05,331.55,599.67,332.24z"/>
	<path class="st9" d="M540.93,377c-2.64,0-5.07-1.44-6.33-3.75c-0.49-0.9-0.78-1.87-0.86-2.89l1.99-0.16
		c0.06,0.73,0.27,1.43,0.62,2.08c0.91,1.67,2.66,2.71,4.58,2.71c1.24,0,2.4-0.43,3.35-1.23l5.96-5.05l1.29,1.53l-5.96,5.06
		C544.26,376.41,542.65,377,540.93,377z"/>
	<path class="st9" d="M553.54,368.54l-1.29-1.53l8.5-7.21l15.7-2.21c12.45-1.76,23.76-7.28,32.73-15.99l1.39,1.44
		c-9.28,9-20.98,14.71-33.85,16.53l-15.13,2.13L553.54,368.54z"/>
	<path class="st9" d="M612.31,341.3l-1.45-1.38c1.28-1.35,2.52-2.77,3.67-4.24c0.23-0.29,0.43-0.61,0.6-0.95l1.79,0.9
		c-0.23,0.45-0.5,0.88-0.82,1.28C614.91,338.43,613.63,339.91,612.31,341.3z"/>
	<g>
		<path class="st10" d="M406.44,628.21c0,3.31-2.69,6-6,6s-6-2.69-6-6c0-3.31,2.69-6,6-6S406.44,624.9,406.44,628.21z"/>
		<path class="st3" d="M400.44,636.21c-4.41,0-8-3.59-8-8c0-4.41,3.59-8,8-8c4.41,0,8,3.59,8,8
			C408.44,632.62,404.85,636.21,400.44,636.21z M400.44,624.21c-2.21,0-4,1.79-4,4c0,2.21,1.79,4,4,4c2.21,0,4-1.79,4-4
			C404.44,626.01,402.64,624.21,400.44,624.21z"/>
	</g>
	<path class="st5" d="M218.49,230.49l-1.67-1.09c31.17-47.72,81.05-80.92,136.85-91.06l0.36,1.97
		C298.76,150.35,249.36,183.22,218.49,230.49z"/>
	<path class="st5" d="M590.48,290.67c-14.36-54.84-51.3-101.84-101.34-128.95l0.95-1.76c50.53,27.37,87.82,74.83,102.32,130.21
		L590.48,290.67z"/>
	<path class="st5" d="M297.75,168.39l-0.95-1.76c17.87-9.59,37-16.37,56.88-20.15l0.37,1.96
		C334.38,152.19,315.44,158.9,297.75,168.39z"/>
	<path class="st5" d="M286.24,175.08l-1.06-1.69c2.88-1.8,5.83-3.55,8.79-5.2l0.97,1.75C292.01,171.56,289.09,173.3,286.24,175.08z"
		/>
	<path class="st5" d="M191.96,361.97c-0.59-6.26-0.89-12.63-0.89-18.95c0-9.77,0.71-19.58,2.12-29.18l1.98,0.29
		c-1.39,9.5-2.1,19.22-2.1,28.89c0,6.25,0.3,12.56,0.88,18.76L191.96,361.97z"/>
	<path class="st1" d="M192.51,367.05c-0.1-0.83-0.2-1.67-0.29-2.51l1.99-0.21c0.09,0.83,0.18,1.66,0.28,2.48L192.51,367.05z"/>
	<path class="st5" d="M578.57,412.99l-1.87-0.7c4.05-10.82,7.16-22.07,9.25-33.43l1.97,0.36
		C585.8,390.69,582.66,402.06,578.57,412.99z"/>
	<path class="st5" d="M580.73,285.71c-5.25-17.32-12.87-33.86-22.67-49.17l1.68-1.08c9.9,15.46,17.6,32.17,22.9,49.67L580.73,285.71
		z"/>
	<path class="st5" d="M556.31,233.85c-1.6-2.41-3.28-4.83-5-7.19l1.62-1.18c1.74,2.38,3.43,4.82,5.04,7.26L556.31,233.85z"/>
	<g>
		<path class="st3" d="M410.56,293.41l-3.41,1.25l-8.43-23.05l3.41-1.25c6.36-2.33,13.41,0.95,15.74,7.31l0,0
			C420.19,284.03,416.92,291.08,410.56,293.41z"/>
		<path class="st3" d="M390.45,325.44l-8.54,3.12c-4.71,1.72-9.93-0.7-11.66-5.42l-3.42-9.35l17.07-6.24L390.45,325.44z"/>
		<path class="st3" d="M408.03,293.66l-9.27,3.39l-10.84-29.66l8.29-3.03c5.66-2.07,11.92,0.84,13.99,6.5l3.71,10.15
			C415.78,286.12,413.15,291.79,408.03,293.66z"/>
		<path class="st8" d="M416.24,325.84l-30.31,11.08l-12.48-34.13c-3.8-10.38,1.54-21.87,11.92-25.67h0
			c10.03-3.67,21.17,1.18,25.31,11.02l10.8,25.63C423.51,318.56,421.12,324.06,416.24,325.84z"/>
		<path class="st13" d="M417.41,304.08l-6.71-15.93L417.41,304.08z"/>
		<path class="st3" d="M373.1,277.98l2.56-0.94l11.75,32.13l-19.63,7.18l-5.51-15.06C358.82,291.87,363.67,281.43,373.1,277.98z"/>
		<path class="st8" d="M378.33,316.13l5.12-1.87l-1.87-5.12c-1.03-2.83-4.17-4.28-6.99-3.25l0,0c-2.83,1.03-4.28,4.17-3.25,6.99l0,0
			C372.37,315.71,375.5,317.16,378.33,316.13z"/>
		<path class="st3" d="M411.49,282l-19.44,7.11c-7.92,2.9-16.73-1.19-19.63-9.12c-1.38-3.77,0.56-7.95,4.33-9.33
			c3.77-1.38,7.95,0.56,9.33,4.33c0.14,0.39,0.58,0.6,0.98,0.45l19.44-7.11L411.49,282z"/>
		<path class="st3" d="M401.73,277.82l-9.67,3.54c-3.77,1.38-7.95-0.56-9.33-4.33c-1.38-3.77,0.56-7.95,4.33-9.33l9.67-3.54
			c3.77-1.38,7.95,0.56,9.33,4.33C407.44,272.27,405.5,276.44,401.73,277.82z"/>
		<path class="st3" d="M424.36,320.56c1.61,3.83-0.3,8.23-4.21,9.66l-13.57,4.96c-7.54,2.76-15.89-1.12-18.65-8.66l-5.84-15.99
			l5.12-1.87l0,0c1.15,3.14,4.63,4.76,7.77,3.61l22.43-8.2L424.36,320.56z"/>
		<path class="st10" d="M404.36,313.4c1.03,2.86,4.18,4.34,7.04,3.32c2.86-1.03,4.34-4.18,3.32-7.04L404.36,313.4z"/>
	</g>
	<g>
		<path class="st5" d="M398.08,744.23H230.2H398.08z"/>
		<rect x="230.2" y="743.23" class="st5" width="167.88" height="2"/>
	</g>
	<g>
		<path class="st5" d="M280.48,759.47H211.2H280.48z"/>
		<rect x="211.2" y="758.47" class="st5" width="69.28" height="2"/>
	</g>
	<g>
		<path class="st5" d="M469.84,759.47H325.08H469.84z"/>
		<rect x="325.08" y="758.47" class="st5" width="144.76" height="2"/>
	</g>
	<g>
		<path class="st5" d="M201.16,744.46h-43.83H201.16z"/>
		<rect x="157.32" y="743.46" class="st5" width="43.83" height="2"/>
	</g>
	<g>
		<path class="st5" d="M560.86,744.23H431.61H560.86z"/>
		<rect x="431.61" y="743.23" class="st5" width="129.25" height="2"/>
	</g>
	<rect x="110.2" y="727.22" class="st5" width="524.07" height="2"/>
	<rect x="305.44" y="727.22" class="st7" width="151.73" height="2"/>
	<rect x="467.17" y="727.22" class="st7" width="22.5" height="2"/>
	<rect x="267.24" y="727.22" class="st7" width="11.25" height="2"/>
	
		<rect x="329.87" y="412.43" transform="matrix(0.8227 -0.5685 0.5685 0.8227 -176.3069 261.5805)" class="st9" width="2.63" height="2"/>
	
		<rect x="331.83" y="400.81" transform="matrix(0.8227 -0.5685 0.5685 0.8227 -166.7172 269.0763)" class="st9" width="32.35" height="2"/>
	<path class="st9" d="M455.49,432.8c-4.04,0-7.85-1.78-10.46-4.9l-0.01-0.02v0l-0.54-0.63l-9.3-11.12l1.54-1.28l9.85,11.77
		c2.22,2.66,5.48,4.18,8.93,4.18V432.8z"/>
	<rect x="439.91" y="485.64" class="st9" width="50.31" height="2"/>
</g>
</svg>
