<?xml version="1.0" encoding="utf-8"?>
<!-- Generator: Adobe Illustrator 24.0.1, SVG Export Plug-In . SVG Version: 6.00 Build 0)  -->
<svg version="1.1" id="Layer_1" xmlns="http://www.w3.org/2000/svg" xmlns:xlink="http://www.w3.org/1999/xlink" x="0px" y="0px"
	 viewBox="0 0 1080 1080" style="enable-background:new 0 0 1080 1080;" xml:space="preserve">
<style type="text/css">
	.st0{fill:#EBF5FD;}
	.st1{fill:none;stroke:#3F6D92;stroke-width:9;stroke-miterlimit:10;}
	.st2{fill:#FF95A9;stroke:#3F6D92;stroke-width:9;stroke-miterlimit:10;}
	.st3{fill:#78B1E0;stroke:#3F6D92;stroke-width:8;stroke-miterlimit:10;}
	.st4{fill:none;stroke:#3F6D92;stroke-width:8;stroke-miterlimit:10;}
</style>
<g>
	<path class="st0" d="M721.54,404.72L721.54,404.72C548.8,377.36,378.1,464.34,298.7,620.17l0,0
		c-14.92,29.27-9.29,64.82,13.95,88.06l168.43,168.43c23.23,23.23,58.78,28.86,88.06,13.95h0c155.82-79.4,242.8-250.1,215.44-422.83
		l0,0C779.44,435.31,753.99,409.86,721.54,404.72z"/>
	<g>
		<g>
			<path class="st1" d="M664.33,733.12v21.02c0,13.67-11.18,24.85-24.85,24.85h-309.1c-13.67,0-24.85-11.18-24.85-24.85V357.99
				c0-13.67,11.18-24.85,24.85-24.85h259.23l74.72,74.73V610.2"/>
			<polyline class="st1" points="658.31,408.89 588.57,408.89 588.57,339.16 			"/>
		</g>
		<g>
			<line class="st1" x1="347.03" y1="436.5" x2="460.22" y2="436.5"/>
			<line class="st1" x1="347.03" y1="467.62" x2="437.53" y2="467.62"/>
			<line class="st1" x1="347.03" y1="400.92" x2="423.96" y2="400.92"/>
		</g>
		<g>
			<line class="st2" x1="530.68" y1="577.82" x2="567.4" y2="474.56"/>
			<line class="st2" x1="428.07" y1="682.16" x2="488.35" y2="626.74"/>
			
				<ellipse transform="matrix(0.5236 -0.852 0.852 0.5236 -271.6285 728.3015)" class="st2" cx="515.39" cy="607.03" rx="32.87" ry="32.87"/>
			
				<ellipse transform="matrix(0.5236 -0.852 0.852 0.5236 -389.5358 683.2634)" class="st2" cx="416.17" cy="689.93" rx="13.38" ry="13.38"/>
			<path class="st2" d="M395.41,739.99c1.72,7.19-2.72,14.41-9.91,16.12c-7.19,1.72-14.41-2.72-16.12-9.91
				c-1.72-7.19,2.72-14.41,9.91-16.12C386.48,728.37,393.69,732.81,395.41,739.99z"/>
			<path class="st2" d="M583.96,459.3c1.72,7.19-2.72,14.41-9.91,16.12c-7.19,1.72-14.41-2.72-16.12-9.91
				c-1.72-7.19,2.72-14.41,9.91-16.12C575.03,447.67,582.25,452.11,583.96,459.3z"/>
			<line class="st2" x1="409.05" y1="701.25" x2="389.74" y2="730.79"/>
		</g>
		<g>
			<g>
				<polygon class="st3" points="624.18,634.02 624.31,633.77 624.18,634.02 				"/>
				<polygon class="st3" points="606.99,666.64 606.99,666.64 606.86,666.89 				"/>
				<path class="st3" d="M624.18,634.02c6.41-19.96,7.03-42,0.36-63.55c-17.29-55.83-76.57-87.07-132.4-69.77
					c-55.83,17.29-87.06,76.57-69.77,132.4c17.29,55.83,76.57,87.06,132.4,69.77c21.55-6.67,39.38-19.65,52.22-36.22 M546.42,675.9
					c-40.94,12.68-84.4-10.23-97.08-51.16c-12.68-40.94,10.22-84.4,51.16-97.08c40.94-12.68,84.4,10.23,97.08,51.16
					C610.26,619.76,587.35,663.22,546.42,675.9z"/>
			</g>
			<g>
				<path class="st4" d="M553.53,560.51c15.65,8.25,24.14,24.75,22.95,41.33"/>
			</g>
			<path class="st3" d="M599.96,667.7l111.14,58.57c7.43,3.91,17.92-1.39,23.43-11.84c5.51-10.46,3.95-22.1-3.48-26.02
				l-111.14-58.57"/>
		</g>
	</g>
</g>
</svg>
