<?xml version="1.0" encoding="utf-8"?>
<!-- Generator: Adobe Illustrator 24.0.1, SVG Export Plug-In . SVG Version: 6.00 Build 0)  -->
<svg version="1.1" id="Layer_1" xmlns="http://www.w3.org/2000/svg" xmlns:xlink="http://www.w3.org/1999/xlink" x="0px" y="0px"
	 viewBox="0 0 150 150" style="enable-background:new 0 0 150 150;" xml:space="preserve">
<style type="text/css">
	.st0{fill:#EBF5FD;}
	.st1{fill:#77B0DF;}
	.st2{fill:#3F6D92;}
</style>
<path class="st0" d="M10.32,85.67c-6.13,31.67,6.34,63.91,34.65,64.31c24.46,0.35,132.12-70.81,85.41-103.56S18.76,42.1,10.32,85.67
	z"/>
<path class="st0" d="M103.99,23.08C93.7,12.35,118.88-8.78,134.29,4.83C152.48,20.89,116.85,36.48,103.99,23.08z"/>
<path class="st1" d="M58.08,52.95c0,0,6.12-3.06,20.95-3.71l19.98,1.93l7.25,4.83V91.3H80.64L80,84.53l-2.58-2.58L65.17,77.6
	l-3.38-21.91L58.08,52.95z"/>
<path class="st2" d="M106.71,92.92c-1.07,0-1.93-0.86-1.93-1.93V61.37c0-3.35-1.97-6.38-5.02-7.75c-10.94-2.81-23.2-3.18-34.54-1.03
	c-1.05,0.2-2.06-0.49-2.26-1.54c-0.2-1.05,0.49-2.06,1.54-2.26c11.93-2.26,24.85-1.86,36.37,1.13l0.28,0.09
	c4.55,1.95,7.49,6.41,7.49,11.36v29.61C108.65,92.05,107.78,92.92,106.71,92.92z"/>
<path class="st2" d="M96.29,92.92c-1.07,0-1.93-0.86-1.93-1.93V70.13c0-1.07,0.86-1.93,1.93-1.93c1.07,0,1.93,0.86,1.93,1.93v20.85
	C98.22,92.05,97.36,92.92,96.29,92.92z"/>
<rect x="52.65" y="89.05" class="st2" width="74.24" height="3.87"/>
<path class="st2" d="M80.65,90.31c-1.07,0-1.93-0.86-1.93-1.93c0-2.28-1.46-4.3-3.62-5.02l-11.81-3.94L60.5,61.67
	c-0.74-4.39-2.26-6.81-5.07-8.06c-10.8-3.2-22.2-3.1-32.95,0.28l-1.84,0.58c-1.02,0.32-2.1-0.25-2.42-1.27
	c-0.32-1.02,0.25-2.1,1.27-2.42l1.84-0.58c11.53-3.63,23.74-3.72,35.33-0.27l0.21,0.08c5.42,2.32,6.86,7.41,7.46,11.04l2.43,15.44
	l9.58,3.19c3.75,1.25,6.27,4.74,6.27,8.69C82.58,89.44,81.72,90.31,80.65,90.31z"/>
<path class="st2" d="M38.95,103.34h-7.82c-1.07,0-1.93-0.86-1.93-1.93c0-1.07,0.86-1.93,1.93-1.93h7.82c1.81,0,3.28-1.47,3.28-3.28
	V74.04c0-6.84-5.56-12.4-12.4-12.4s-12.4,5.56-12.4,12.4v22.15c0,1.81,1.47,3.28,3.28,3.28c1.07,0,1.93,0.86,1.93,1.93
	c0,1.07-0.86,1.93-1.93,1.93c-3.94,0-7.15-3.21-7.15-7.15V74.04c0-8.97,7.3-16.27,16.27-16.27s16.27,7.3,16.27,16.27v22.15
	C46.1,100.13,42.89,103.34,38.95,103.34z"/>
<path class="st2" d="M51.98,129.4H20.71c-3.94,0-7.15-3.2-7.15-7.15c0-3.94,3.2-7.15,7.15-7.15h8.33L26.6,83.64
	c-0.08-1.06,0.71-1.99,1.78-2.08c1.07-0.08,1.99,0.72,2.08,1.78l2.47,31.77h19.06c3.94,0,7.15,3.2,7.15,7.15
	C59.13,126.2,55.92,129.4,51.98,129.4z M20.71,118.98c-1.81,0-3.28,1.47-3.28,3.28c0,1.81,1.47,3.28,3.28,3.28h31.27
	c1.81,0,3.28-1.47,3.28-3.28c0-1.81-1.47-3.28-3.28-3.28H20.71z"/>
<path class="st2" d="M114.53,137.22c-1.07,0-1.93-0.86-1.93-1.93V90.98c0-1.07,0.86-1.93,1.93-1.93c1.07,0,1.93,0.86,1.93,1.93
	v44.31C116.46,136.36,115.6,137.22,114.53,137.22z"/>
<path class="st2" d="M38.95,137.22c-1.07,0-1.93-0.86-1.93-1.93v-7.82c0-1.07,0.86-1.93,1.93-1.93c1.07,0,1.93,0.86,1.93,1.93v7.82
	C40.88,136.36,40.02,137.22,38.95,137.22z"/>
<path class="st2" d="M70.22,137.22c-0.93,0-1.74-0.67-1.91-1.61l-2.35-13.81c-0.05-0.33-0.26-0.56-0.54-0.62l-13.76-2.23
	c-1.05-0.17-1.77-1.17-1.6-2.22c0.17-1.05,1.15-1.78,2.22-1.6l13.83,2.24c1.96,0.39,3.4,1.92,3.67,3.83l2.34,13.76
	c0.18,1.05-0.53,2.05-1.58,2.23C70.44,137.21,70.33,137.22,70.22,137.22z"/>
<path class="st2" d="M83.26,137.22c-1.07,0-1.93-0.86-1.93-1.93v-18.38c0-2.32-1.37-4.43-3.49-5.38l-25.08-11.45l-2.69-35.02
	c-0.08-1.07,0.72-2,1.78-2.08c1.08-0.09,2,0.71,2.08,1.78l2.52,32.75l22.99,10.49c3.5,1.55,5.77,5.05,5.77,8.9v18.38
	C85.19,136.36,84.32,137.22,83.26,137.22z"/>
<path class="st2" d="M38.91,44.45c-7.46,0-13.54-6.07-13.54-13.54s6.07-13.54,13.54-13.54s13.54,6.07,13.54,13.54
	S46.37,44.45,38.91,44.45z M38.91,21.25c-5.33,0-9.67,4.34-9.67,9.67s4.34,9.67,9.67,9.67s9.67-4.34,9.67-9.67
	S44.24,21.25,38.91,21.25z"/>
<path class="st2" d="M81.61,44.45c-7.46,0-13.54-6.07-13.54-13.54s6.07-13.54,13.54-13.54c7.46,0,13.54,6.07,13.54,13.54
	S89.07,44.45,81.61,44.45z M81.61,21.25c-5.33,0-9.67,4.34-9.67,9.67s4.34,9.67,9.67,9.67c5.33,0,9.67-4.34,9.67-9.67
	S86.94,21.25,81.61,21.25z"/>
</svg>
