<?xml version="1.0" encoding="UTF-8" standalone="no"?>
<!-- Generator: Adobe Illustrator 24.0.1, SVG Export Plug-In . SVG Version: 6.00 Build 0)  -->

<svg
   xmlns:dc="http://purl.org/dc/elements/1.1/"
   xmlns:cc="http://creativecommons.org/ns#"
   xmlns:rdf="http://www.w3.org/1999/02/22-rdf-syntax-ns#"
   xmlns:svg="http://www.w3.org/2000/svg"
   xmlns="http://www.w3.org/2000/svg"
   xmlns:sodipodi="http://sodipodi.sourceforge.net/DTD/sodipodi-0.dtd"
   xmlns:inkscape="http://www.inkscape.org/namespaces/inkscape"
   version="1.1"
   id="Layer_1"
   x="0px"
   y="0px"
   viewBox="0 0 84.150002 83.82"
   xml:space="preserve"
   sodipodi:docname="illustration6-process-icon3.svg"
   width="84.150002"
   height="83.82"
   inkscape:version="0.92.3 (2405546, 2018-03-11)"><metadata
   id="metadata29"><rdf:RDF><cc:Work
       rdf:about=""><dc:format>image/svg+xml</dc:format><dc:type
         rdf:resource="http://purl.org/dc/dcmitype/StillImage" /><dc:title></dc:title></cc:Work></rdf:RDF></metadata><defs
   id="defs27" /><sodipodi:namedview
   pagecolor="#ffffff"
   bordercolor="#666666"
   borderopacity="1"
   objecttolerance="10"
   gridtolerance="10"
   guidetolerance="10"
   inkscape:pageopacity="0"
   inkscape:pageshadow="2"
   inkscape:window-width="640"
   inkscape:window-height="480"
   id="namedview25"
   showgrid="false"
   fit-margin-top="0"
   fit-margin-left="0"
   fit-margin-right="0"
   fit-margin-bottom="0"
   inkscape:zoom="2.1454545"
   inkscape:cx="42.23"
   inkscape:cy="42.15"
   inkscape:window-x="0"
   inkscape:window-y="25"
   inkscape:window-maximized="0"
   inkscape:current-layer="Layer_1" />
<style
   type="text/css"
   id="style2">
	.st0{fill:#76B0DF;}
</style>
<g
   id="XMLID_4843_"
   transform="translate(-12.77,-13.33)">
	<g
   id="XMLID_4848_">
		<g
   id="XMLID_4863_">
			<path
   id="XMLID_4865_"
   class="st0"
   d="m 54.84,97.15 c -23.98,0 -42.07,-17.13 -42.07,-39.84 0,-13.37 6.23,-27.1 15.7,-34.96 l -2.51,-3.59 c -0.03,-0.04 -0.06,-0.08 -0.08,-0.13 -0.72,-1.18 -0.79,-2.47 -0.2,-3.55 0.59,-1.08 1.72,-1.72 3.09,-1.75 0.04,0 0.09,0 0.13,0 l 24.04,0.7 c 0.01,0 0.03,0 0.04,0 1.33,0 2.44,0.58 3.06,1.6 0.62,1.03 0.63,2.28 0.02,3.46 L 46.4,40.34 c -0.02,0.05 -0.05,0.1 -0.08,0.15 -0.66,1.21 -1.74,1.92 -2.98,1.95 -1.22,0.02 -2.3,-0.6 -3.02,-1.73 l -2.35,-3.34 c -6.98,5.06 -10.94,12.23 -10.94,19.96 0,7.21 5.43,27.8 29.58,27.8 1.31,0 2.38,1.06 2.38,2.38 0,1.31 -1.06,2.38 -2.38,2.38 -14.4,0 -22.65,-6.7 -27.03,-12.32 -5.38,-6.9 -7.3,-14.97 -7.3,-20.23 0,-10.07 5.48,-19.28 15.04,-25.25 1.07,-0.67 2.48,-0.38 3.2,0.65 l 2.49,3.55 7.99,-17.56 -19.66,-0.57 2.33,3.33 c 0.75,1.07 0.5,2.53 -0.56,3.29 -9.32,6.69 -15.57,19.77 -15.57,32.54 0,20 16.04,35.09 37.31,35.09 20.57,0 37.31,-16.74 37.31,-37.31 0,-0.87 -0.04,-1.79 -0.12,-2.88 -0.1,-1.31 0.88,-2.45 2.19,-2.55 1.31,-0.1 2.45,0.88 2.55,2.19 0.09,1.2 0.14,2.26 0.14,3.24 C 96.9,78.28 78.03,97.15 54.84,97.15 Z"
   inkscape:connector-curvature="0"
   style="fill:#76b0df" />
		</g>
		<g
   id="XMLID_4861_">
			<path
   id="XMLID_4862_"
   class="st0"
   d="m 34,59.68 h -8.79 c -1.31,0 -2.38,-1.06 -2.38,-2.38 0,-1.31 1.06,-2.38 2.38,-2.38 H 34 c 1.31,0 2.38,1.06 2.38,2.38 -0.01,1.32 -1.07,2.38 -2.38,2.38 z"
   inkscape:connector-curvature="0"
   style="fill:#76b0df" />
		</g>
		<g
   id="XMLID_4859_">
			<path
   id="XMLID_4860_"
   class="st0"
   d="m 56.61,89.67 v 0 c -1.31,0 -2.38,-1.06 -2.38,-2.38 v -9.9 c 0,-1.31 1.06,-2.38 2.38,-2.38 v 0 c 1.31,0 2.38,1.06 2.38,2.38 v 9.9 c -0.01,1.32 -1.07,2.38 -2.38,2.38 z"
   inkscape:connector-curvature="0"
   style="fill:#76b0df" />
		</g>
		<g
   id="XMLID_4857_">
			<path
   id="XMLID_4858_"
   class="st0"
   d="m 71.6,85.65 c -0.82,0 -1.62,-0.43 -2.06,-1.19 l -3.37,-5.84 c -0.66,-1.14 -0.27,-2.59 0.87,-3.25 1.14,-0.65 2.59,-0.26 3.25,0.87 l 3.37,5.84 c 0.66,1.14 0.27,2.59 -0.87,3.25 -0.38,0.22 -0.79,0.32 -1.19,0.32 z"
   inkscape:connector-curvature="0"
   style="fill:#76b0df" />
		</g>
		<g
   id="XMLID_4855_">
			<path
   id="XMLID_4856_"
   class="st0"
   d="m 82.57,74.67 c -0.4,0 -0.81,-0.1 -1.19,-0.32 l -5.83,-3.37 c -1.14,-0.66 -1.52,-2.11 -0.87,-3.25 0.66,-1.14 2.11,-1.53 3.25,-0.87 l 5.83,3.37 c 1.14,0.66 1.52,2.11 0.87,3.25 -0.44,0.76 -1.24,1.19 -2.06,1.19 z"
   inkscape:connector-curvature="0"
   style="fill:#76b0df" />
		</g>
		<g
   id="XMLID_4853_">
			<path
   id="XMLID_4854_"
   class="st0"
   d="m 36.5,59.7 v 0 h -9.9 c -1.31,0 -2.38,-1.06 -2.38,-2.38 0,-1.31 1.06,-2.38 2.38,-2.38 v 0 h 9.9 c 1.31,0 2.38,1.06 2.38,2.38 0,1.31 -1.07,2.38 -2.38,2.38 z"
   inkscape:connector-curvature="0"
   style="fill:#76b0df" />
		</g>
		<g
   id="XMLID_4851_">
			<path
   id="XMLID_4852_"
   class="st0"
   d="m 30.63,74.69 c -0.82,0 -1.62,-0.43 -2.06,-1.19 -0.66,-1.14 -0.27,-2.59 0.87,-3.25 l 5.84,-3.37 c 1.14,-0.65 2.59,-0.26 3.25,0.87 0.66,1.14 0.27,2.59 -0.87,3.25 l -5.84,3.37 c -0.38,0.22 -0.79,0.32 -1.19,0.32 z"
   inkscape:connector-curvature="0"
   style="fill:#76b0df" />
		</g>
		<g
   id="XMLID_4849_">
			<path
   id="XMLID_4850_"
   class="st0"
   d="m 41.61,85.66 c -0.4,0 -0.81,-0.1 -1.19,-0.32 -1.14,-0.66 -1.52,-2.11 -0.87,-3.25 l 3.37,-5.83 c 0.66,-1.14 2.11,-1.52 3.25,-0.87 1.14,0.66 1.52,2.11 0.87,3.25 l -3.37,5.83 c -0.44,0.77 -1.24,1.19 -2.06,1.19 z"
   inkscape:connector-curvature="0"
   style="fill:#76b0df" />
		</g>
	</g>
	<g
   id="XMLID_4844_">
		<path
   id="XMLID_4845_"
   class="st0"
   d="m 58.12,69.45 c -0.57,0 -1.14,-0.2 -1.59,-0.61 L 39.58,53.59 c -0.51,-0.46 -0.8,-1.12 -0.79,-1.8 0.01,-0.69 0.31,-1.33 0.84,-1.78 l 7.87,-6.69 c 0.5,-0.43 1.17,-0.62 1.82,-0.55 0.66,0.08 1.25,0.43 1.64,0.97 l 7.11,9.81 22.45,-24.49 c 0.47,-0.51 1.14,-0.8 1.83,-0.77 0.69,0.02 1.34,0.35 1.78,0.9 l 9.22,11.58 c 0.4,0.5 0.58,1.15 0.5,1.79 -0.08,0.64 -0.42,1.22 -0.94,1.6 L 59.54,68.98 c -0.42,0.32 -0.92,0.47 -1.42,0.47 z M 44.78,51.87 58.27,64 88.1,41.8 82.14,34.32 59.6,58.91 C 59.12,59.44 58.42,59.7 57.71,59.68 57,59.64 56.34,59.28 55.92,58.7 L 48.61,48.61 Z"
   inkscape:connector-curvature="0"
   style="fill:#76b0df" />
	</g>
</g>
</svg>