<?xml version="1.0" encoding="UTF-8" standalone="no"?>
<!-- Generator: Adobe Illustrator 24.0.1, SVG Export Plug-In . SVG Version: 6.00 Build 0)  -->

<svg
   xmlns:dc="http://purl.org/dc/elements/1.1/"
   xmlns:cc="http://creativecommons.org/ns#"
   xmlns:rdf="http://www.w3.org/1999/02/22-rdf-syntax-ns#"
   xmlns:svg="http://www.w3.org/2000/svg"
   xmlns="http://www.w3.org/2000/svg"
   xmlns:sodipodi="http://sodipodi.sourceforge.net/DTD/sodipodi-0.dtd"
   xmlns:inkscape="http://www.inkscape.org/namespaces/inkscape"
   version="1.1"
   id="Ñëîé_1"
   x="0px"
   y="0px"
   viewBox="0 0 569.15771 671.39502"
   xml:space="preserve"
   sodipodi:docname="illustration5-Benefits.svg"
   width="569.15771"
   height="671.39502"
   inkscape:version="0.92.3 (2405546, 2018-03-11)"><metadata
   id="metadata281"><rdf:RDF><cc:Work
       rdf:about=""><dc:format>image/svg+xml</dc:format><dc:type
         rdf:resource="http://purl.org/dc/dcmitype/StillImage" /><dc:title></dc:title></cc:Work></rdf:RDF></metadata><defs
   id="defs279" /><sodipodi:namedview
   pagecolor="#ffffff"
   bordercolor="#666666"
   borderopacity="1"
   objecttolerance="10"
   gridtolerance="10"
   guidetolerance="10"
   inkscape:pageopacity="0"
   inkscape:pageshadow="2"
   inkscape:window-width="640"
   inkscape:window-height="480"
   id="namedview277"
   showgrid="false"
   fit-margin-top="0"
   fit-margin-left="0"
   fit-margin-right="0"
   fit-margin-bottom="0"
   inkscape:zoom="0.28095238"
   inkscape:cx="279.8"
   inkscape:cy="340.46997"
   inkscape:window-x="0"
   inkscape:window-y="25"
   inkscape:window-maximized="0"
   inkscape:current-layer="Ñëîé_1" />
<style
   type="text/css"
   id="style2">
	.st0{fill:#F8F7FF;}
	.st1{fill:#DDD6FF;}
	.st2{fill:#EEEBFF;}
	.st3{fill:#40327A;}
	.st4{fill:#A796F2;}
	.st5{fill:#76B0DF;}
	.st6{fill:#7760DB;}
	.st7{fill:#4A4AAC;}
	.st8{fill:#FFAA83;}
	.st9{fill:#3F6D92;}
	.st10{fill:#FFFFFF;}
	.st11{fill:#FFC359;}
	.st12{fill:#FF809F;}
	.st13{fill:none;}
</style>
<g
   id="g274"
   transform="translate(-110.2,-89.074923)">
	<path
   class="st0"
   d="M 185.22,727.41 H 558.3 c 113.73,-66.14 131.72,-148.53 116.32,-186.33 -26.65,-65.4 -49.43,-63.97 -87.23,-89.92 -45.45,-31.2 2.16,-86.66 -5.82,-129.31 -12.65,-67.68 -94.52,-88.33 -190.3,81 -40.38,71.38 -95.73,-61.93 -140.87,-77.6 -41.91,-14.54 -168.41,51.16 -37.56,199.12 41.66,47.11 -163.72,66.94 -27.62,203.04 z"
   id="path4"
   inkscape:connector-curvature="0"
   style="fill:#f8f7ff" />
	<path
   class="st0"
   d="m 227.88,142.39 c 1.26,-11.35 4.57,-19.09 12.43,-23.36 23.31,-12.64 81.82,7.87 106.14,39.52 33.92,44.13 2.98,111.99 -29.97,116.33 -38.33,5.03 -95.08,-73.87 -88.6,-132.49 z"
   id="path6"
   inkscape:connector-curvature="0"
   style="fill:#f8f7ff" />
	<path
   class="st0"
   d="m 627.65,380.75 c 18.39,-9.25 39.46,13.02 40.76,27.98 1.81,20.86 -20.77,33.01 -33.07,30.79 -23.64,-4.26 -27.51,-48.8 -7.69,-58.77 z"
   id="path8"
   inkscape:connector-curvature="0"
   style="fill:#f8f7ff" />
	<g
   id="g46">
		<g
   id="g14">
			<rect
   x="172.02"
   y="176.35001"
   class="st1"
   width="2"
   height="5.6100001"
   id="rect10"
   style="fill:#ddd6ff" />
			<rect
   x="172.02"
   y="210"
   class="st1"
   width="2"
   height="5.6100001"
   id="rect12"
   style="fill:#ddd6ff" />
		</g>
		<g
   id="g20">
			<rect
   x="163.61"
   y="178.60001"
   transform="matrix(0.866,-0.5,0.5,0.866,-68.6474,106.6041)"
   class="st1"
   width="2"
   height="5.6100001"
   id="rect16"
   style="fill:#ddd6ff" />
			<rect
   x="180.44"
   y="207.75"
   transform="matrix(0.866,-0.5,0.5,0.866,-80.9661,118.9209)"
   class="st1"
   width="2"
   height="5.6100001"
   id="rect18"
   style="fill:#ddd6ff" />
		</g>
		<g
   id="g26">
			<rect
   x="157.45"
   y="184.75999"
   transform="matrix(0.5,-0.866,0.866,0.5,-83.21,231.0079)"
   class="st1"
   width="2"
   height="5.6100001"
   id="rect22"
   style="fill:#ddd6ff" />
			<rect
   x="186.60001"
   y="201.59"
   transform="matrix(0.5,-0.866,0.866,0.5,-83.21,264.6663)"
   class="st1"
   width="2"
   height="5.6100001"
   id="rect24"
   style="fill:#ddd6ff" />
		</g>
		<g
   id="g32">
			<rect
   x="153.39"
   y="194.98"
   class="st1"
   width="5.6100001"
   height="2"
   id="rect28"
   style="fill:#ddd6ff" />
			<rect
   x="187.05"
   y="194.98"
   class="st1"
   width="5.6100001"
   height="2"
   id="rect30"
   style="fill:#ddd6ff" />
		</g>
		<g
   id="g38">
			<rect
   x="155.64999"
   y="203.39"
   transform="matrix(0.866,-0.5,0.5,0.866,-80.9674,106.6057)"
   class="st1"
   width="5.6100001"
   height="2"
   id="rect34"
   style="fill:#ddd6ff" />
			<rect
   x="184.78999"
   y="186.56"
   transform="matrix(0.866,-0.5,0.5,0.866,-68.648,118.9251)"
   class="st1"
   width="5.6100001"
   height="2"
   id="rect36"
   style="fill:#ddd6ff" />
		</g>
		<g
   id="g44">
			
				<rect
   x="161.81"
   y="209.55"
   transform="matrix(0.4999,-0.8661,0.8661,0.4999,-100.0358,247.8629)"
   class="st1"
   width="5.6100001"
   height="2"
   id="rect40"
   style="fill:#ddd6ff" />
			
				<rect
   x="178.63"
   y="180.39999"
   transform="matrix(0.4999,-0.8661,0.8661,0.4999,-66.3742,247.861)"
   class="st1"
   width="5.6100001"
   height="2"
   id="rect42"
   style="fill:#ddd6ff" />
		</g>
	</g>
	<path
   class="st2"
   d="m 645.54,300.41 h -2 c 0,-6.21 -5.05,-11.26 -11.26,-11.26 v -2 c 6.21,0 11.26,-5.05 11.26,-11.26 h 2 c 0,6.21 5.05,11.26 11.26,11.26 v 2 c -6.21,0 -11.26,5.05 -11.26,11.26 z m -8.21,-12.26 c 3.25,1.35 5.86,3.95 7.21,7.21 1.35,-3.25 3.95,-5.86 7.21,-7.21 -3.25,-1.35 -5.86,-3.95 -7.21,-7.21 -1.35,3.26 -3.95,5.86 -7.21,7.21 z"
   id="path48"
   inkscape:connector-curvature="0"
   style="fill:#eeebff" />
	<path
   class="st2"
   d="m 136.13,489.88 c -3.89,0 -7.05,-3.16 -7.05,-7.05 0,-3.89 3.17,-7.05 7.05,-7.05 3.89,0 7.05,3.16 7.05,7.05 0,3.89 -3.16,7.05 -7.05,7.05 z m 0,-12.11 c -2.79,0 -5.05,2.27 -5.05,5.05 0,2.79 2.27,5.05 5.05,5.05 2.79,0 5.05,-2.27 5.05,-5.05 0,-2.78 -2.27,-5.05 -5.05,-5.05 z"
   id="path50"
   inkscape:connector-curvature="0"
   style="fill:#eeebff" />
	
		<rect
   x="342.85001"
   y="628.23999"
   transform="matrix(0.729,-0.6845,0.6845,0.729,-323.4704,443.4907)"
   class="st3"
   width="110.95"
   height="4"
   id="rect52"
   style="fill:#40327a" />
	<path
   class="st4"
   d="m 443.96,589.11 c -2.32,4.04 -7.48,5.43 -11.52,3.11 -4.04,-2.32 -5.43,-7.48 -3.11,-11.52 2.32,-4.04 7.48,-5.43 11.52,-3.11 4.04,2.32 5.43,7.48 3.11,11.52 z"
   id="path54"
   inkscape:connector-curvature="0"
   style="fill:#a796f2" />
	<polygon
   class="st5"
   points="512.84,481.83 443.96,589.11 429.32,580.69 492.78,470.3 "
   id="polygon56"
   style="fill:#76b0df" />
	<path
   class="st3"
   d="m 446.34,602.01 -22,-12.65 4.98,-8.67 14.64,8.42 5.77,9.41 c 0.48,0.78 0.49,1.77 0.04,2.56 v 0 c -0.69,1.21 -2.22,1.62 -3.43,0.93 z"
   id="path58"
   inkscape:connector-curvature="0"
   style="fill:#40327a" />
	<path
   class="st6"
   d="m 400.44,727.21 c -54.59,0 -99,-44.41 -99,-99 0,-54.59 44.41,-99 99,-99 54.59,0 99,44.41 99,99 0,54.59 -44.41,99 -99,99 z m 0,-190 c -50.18,0 -91,40.82 -91,91 0,50.18 40.82,91 91,91 50.18,0 91,-40.82 91,-91 0,-50.17 -40.82,-91 -91,-91 z"
   id="path60"
   inkscape:connector-curvature="0"
   style="fill:#7760db" />
	<path
   class="st7"
   d="m 400.44,714.21 c -47.42,0 -86,-38.58 -86,-86 0,-47.42 38.58,-86 86,-86 47.42,0 86,38.58 86,86 0,47.42 -38.58,86 -86,86 z m 0,-170 c -46.32,0 -84,37.68 -84,84 0,46.32 37.68,84 84,84 46.32,0 84,-37.68 84,-84 0,-46.31 -37.68,-84 -84,-84 z"
   id="path62"
   inkscape:connector-curvature="0"
   style="fill:#4a4aac" />
	<path
   class="st1"
   d="m 291.75,593.79 -1.91,-0.61 c 1.8,-5.68 4.07,-11.28 6.75,-16.63 l 1.79,0.89 c -2.63,5.27 -4.86,10.77 -6.63,16.35 z"
   id="path64"
   inkscape:connector-curvature="0"
   style="fill:#ddd6ff" />
	<path
   class="st1"
   d="m 290.26,598.91 -1.93,-0.52 c 0.25,-0.95 0.52,-1.89 0.79,-2.84 l 1.92,0.56 c -0.28,0.94 -0.54,1.87 -0.78,2.8 z"
   id="path66"
   inkscape:connector-curvature="0"
   style="fill:#ddd6ff" />
	<path
   class="st1"
   d="m 294.89,618.38 -1.99,-0.18 c 1.43,-15.52 6.11,-30.23 13.9,-43.74 l 1.73,1 c -7.64,13.25 -12.23,27.69 -13.64,42.92 z"
   id="path68"
   inkscape:connector-curvature="0"
   style="fill:#ddd6ff" />
	<path
   class="st7"
   d="m 400.44,727.21 c -54.59,0 -99,-44.41 -99,-99 0,-54.59 44.41,-99 99,-99 54.59,0 99,44.41 99,99 0,54.59 -44.41,99 -99,99 z m 0,-190 c -50.18,0 -91,40.82 -91,91 0,50.18 40.82,91 91,91 50.18,0 91,-40.82 91,-91 0,-50.17 -40.82,-91 -91,-91 z"
   id="path70"
   inkscape:connector-curvature="0"
   style="fill:#4a4aac" />
	<rect
   x="397.44"
   y="495.79001"
   class="st3"
   width="6"
   height="138.73"
   id="rect72"
   style="fill:#40327a" />
	<path
   class="st3"
   d="m 379.92,501.67 47.1,-6.41 c 3.8,-0.52 6.64,-3.77 6.64,-7.61 v 0 h -62.45 v 6.41 c 0,4.65 4.1,8.23 8.71,7.61 z"
   id="path74"
   inkscape:connector-curvature="0"
   style="fill:#40327a" />
	<g
   id="g82">
		<path
   class="st8"
   d="m 555.19,407.13 c -0.88,4.33 -5.1,7.13 -9.43,6.25 -4.33,-0.88 -7.13,-5.1 -6.25,-9.43 0.88,-4.33 5.1,-7.13 9.43,-6.25 4.33,0.88 7.13,5.1 6.25,9.43 z"
   id="path76"
   inkscape:connector-curvature="0"
   style="fill:#ffaa83" />
		<path
   class="st8"
   d="m 539.12,405.91 c 0.66,-3.25 -1.44,-6.41 -4.69,-7.07 -3.25,-0.66 -6.41,1.44 -7.07,4.69 -0.66,3.25 1.44,6.41 4.69,7.07 3.25,0.66 6.41,-1.44 7.07,-4.69 z"
   id="path78"
   inkscape:connector-curvature="0"
   style="fill:#ffaa83" />
		<polygon
   class="st8"
   points="532.05,410.6 545.76,413.38 546.68,397.57 532.74,398.74 "
   id="polygon80"
   style="fill:#ffaa83" />
	</g>
	<path
   class="st5"
   d="m 534.89,410.48 -2.18,-11.75 -4.04,0.35 -5.97,0.52 -59.56,5.18 -27.29,-49.62 -32.88,22.45 42.04,50.3 0.01,-0.01 c 3.36,4.01 8.88,5.9 14.23,4.36 0.03,-0.01 0.06,-0.02 0.09,-0.03 z"
   id="path84"
   inkscape:connector-curvature="0"
   style="fill:#76b0df" />
	<polygon
   class="st9"
   points="458.77,430.32 510.93,415.3 511.48,417.22 459.32,432.25 458.63,430.37 "
   id="polygon86"
   style="fill:#3f6d92" />
	<polygon
   class="st10"
   points="523.94,413.64 522.71,399.61 528.68,399.09 532.72,398.73 534.89,410.48 "
   id="polygon88"
   style="fill:#ffffff" />
	<polygon
   class="st8"
   points="529.81,411.95 528.68,399.09 532.72,398.74 534.9,410.48 "
   id="polygon90"
   style="fill:#ffaa83" />
	<path
   class="st5"
   d="m 431.15,380.14 c -8.47,7.08 -21.09,5.96 -28.17,-2.52 -7.08,-8.47 -5.96,-21.09 2.52,-28.17 8.47,-7.08 21.09,-5.96 28.17,2.52 7.08,8.47 5.95,21.08 -2.52,28.17 z"
   id="path92"
   inkscape:connector-curvature="0"
   style="fill:#76b0df" />
	<g
   id="g100">
		<path
   class="st8"
   d="m 228.66,360.68 c 0.02,4.42 3.63,7.98 8.04,7.96 4.42,-0.02 7.98,-3.63 7.96,-8.04 -0.02,-4.42 -3.63,-7.98 -8.04,-7.96 -4.42,0.02 -7.98,3.62 -7.96,8.04 z"
   id="path94"
   inkscape:connector-curvature="0"
   style="fill:#ffaa83" />
		<path
   class="st8"
   d="m 244.66,362.59 c -0.02,-3.31 2.65,-6.01 5.97,-6.03 3.31,-0.02 6.01,2.65 6.03,5.97 0.02,3.31 -2.65,6.01 -5.97,6.03 -3.31,0.02 -6.01,-2.66 -6.03,-5.97 z"
   id="path96"
   inkscape:connector-curvature="0"
   style="fill:#ffaa83" />
		<polygon
   class="st8"
   points="250.69,368.56 236.71,368.63 238.87,352.94 252.31,356.79 "
   id="polygon98"
   style="fill:#ffaa83" />
	</g>
	
		<circle
   transform="matrix(0.9699,-0.2435,0.2435,0.9699,-90.3804,88.7861)"
   class="st5"
   cx="313.95001"
   cy="409.98001"
   id="ellipse102"
   r="13.64"
   style="fill:#76b0df" />
	<polygon
   class="st5"
   points="304.18,400.47 349.92,353.52 375.63,383.91 321.72,421.2 "
   id="polygon104"
   style="fill:#76b0df" />
	<g
   id="g112">
		<polygon
   class="st5"
   points="253.78,357.43 257.25,359.54 262.37,362.65 321.03,398.31 304.76,420.06 246.62,367 "
   id="polygon106"
   style="fill:#76b0df" />
		<polygon
   class="st10"
   points="253.78,357.43 257.25,359.54 262.37,362.65 255.04,374.68 246.62,367 "
   id="polygon108"
   style="fill:#ffffff" />
		<polygon
   class="st8"
   points="250.53,370.57 257.24,359.54 253.78,357.43 246.62,367 "
   id="polygon110"
   style="fill:#ffaa83" />
	</g>
	
		<circle
   transform="matrix(0.4018,-0.9157,0.9157,0.4018,-118.5867,553.4025)"
   class="st5"
   cx="364.26001"
   cy="367.45999"
   id="ellipse114"
   r="20"
   style="fill:#76b0df" />
	<polygon
   class="st5"
   points="502.83,487.64 418.09,487.65 418.09,460.35 502.83,464.51 "
   id="polygon116"
   style="fill:#76b0df" />
	
		<circle
   transform="matrix(0.9298,-0.3682,0.3682,0.9298,-148.2601,170.9247)"
   class="st4"
   cx="373.82001"
   cy="474.01001"
   id="ellipse118"
   r="13.65"
   style="fill:#a796f2" />
	<circle
   class="st4"
   cx="418.09"
   cy="474"
   r="13.65"
   id="circle120"
   style="fill:#a796f2" />
	<path
   class="st5"
   d="m 432.33,358.77 0.1,105 -72.87,-1.6 -9.82,-99.3 c -0.79,-7.96 5.25,-14.96 13.24,-15.36 l 54.67,-2.71 c 7.98,-0.4 14.68,5.97 14.68,13.97 z"
   id="path122"
   inkscape:connector-curvature="0"
   style="fill:#76b0df" />
	<path
   class="st5"
   d="m 432.43,460.36 -0.67,13.65 -0.03,0.67 c -0.36,7.27 -6.36,12.98 -13.63,12.98 h -44.25 c -7.28,0 -13.28,-5.71 -13.63,-12.98 l -0.03,-0.67 -0.67,-13.65 z"
   id="path124"
   inkscape:connector-curvature="0"
   style="fill:#76b0df" />
	<polygon
   class="st5"
   points="405.22,553.29 361.77,480.42 385.87,467.6 425.65,542.43 "
   id="polygon126"
   style="fill:#76b0df" />
	
		<rect
   x="402.54999"
   y="480.14999"
   transform="matrix(0.883,-0.4694,0.4694,0.883,-188.8938,248.298)"
   class="st9"
   width="2"
   height="45.709999"
   id="rect128"
   style="fill:#3f6d92" />
	<path
   class="st4"
   d="m 364.11,664.96 c -2.25,4.08 -7.38,5.57 -11.46,3.32 -4.08,-2.25 -5.57,-7.38 -3.32,-11.46 2.25,-4.08 7.38,-5.57 11.46,-3.32 4.08,2.24 5.57,7.38 3.32,11.46 z"
   id="path130"
   inkscape:connector-curvature="0"
   style="fill:#a796f2" />
	<polygon
   class="st10"
   points="411.06,366.21 410.02,345.17 379.32,346.7 400.86,417.79 "
   id="polygon132"
   style="fill:#ffffff" />
	<polygon
   class="st10"
   points="406.81,387.7 400.86,417.79 391.97,388.43 379.32,346.7 410.02,345.18 411.06,366.21 "
   id="polygon134"
   style="fill:#ffffff" />
	<path
   class="st5"
   d="m 512.85,481.84 c -3.18,5.54 -10.25,7.45 -15.79,4.26 -5.54,-3.18 -7.45,-10.25 -4.26,-15.79 3.18,-5.54 10.25,-7.45 15.79,-4.26 5.53,3.18 7.44,10.25 4.26,15.79 z"
   id="path136"
   inkscape:connector-curvature="0"
   style="fill:#76b0df" />
	<path
   class="st5"
   d="m 425.56,553.44 c -3.08,5.59 -10.12,7.63 -15.71,4.55 -5.59,-3.08 -7.63,-10.12 -4.55,-15.71 3.08,-5.59 10.12,-7.63 15.71,-4.55 5.6,3.08 7.63,10.11 4.55,15.71 z"
   id="path138"
   inkscape:connector-curvature="0"
   style="fill:#76b0df" />
	<polygon
   class="st5"
   points="425.56,553.44 364.12,664.97 349.34,656.82 405.3,542.28 "
   id="polygon140"
   style="fill:#76b0df" />
	<polygon
   class="st3"
   points="391.97,388.43 396.53,350.63 398.53,350.53 406.81,387.7 400.86,417.79 "
   id="polygon142"
   style="fill:#40327a" />
	<path
   class="st3"
   d="m 366.73,677.82 -22.23,-12.25 4.83,-8.76 14.79,8.15 5.94,9.31 c 0.49,0.77 0.53,1.76 0.08,2.56 v 0 c -0.67,1.22 -2.19,1.66 -3.41,0.99 z"
   id="path144"
   inkscape:connector-curvature="0"
   style="fill:#40327a" />
	
		<rect
   x="378.63"
   y="319.01001"
   transform="matrix(0.9988,-0.0495,0.0495,0.9988,-15.9855,19.7735)"
   class="st8"
   width="25"
   height="27.09"
   id="rect146"
   style="fill:#ffaa83" />
	<path
   class="st11"
   d="m 223.46,281.25 11.73,9.78 20.83,2.77 c 4.52,0.6 7.35,5.2 5.85,9.51 -1.5,4.31 -6.58,6.16 -10.5,3.81 l -18.03,-10.78 -15.27,0.37 c -15.77,0.38 -31,-5.37 -42.55,-15.92 -2.29,-2.09 -3.08,-5.37 -2.06,-8.3 v 0 c 1.03,-2.96 3.74,-5.02 6.87,-5.23 15.58,-1.06 31.04,3.91 43.13,13.99 z"
   id="path148"
   inkscape:connector-curvature="0"
   style="fill:#ffc359" />
	<path
   class="st9"
   d="m 255.06,308.15 c -1.29,0 -2.56,-0.35 -3.68,-1.02 l -18.03,-10.78 -12.23,0.3 -0.05,-2 12.81,-0.31 18.53,11.08 c 0.81,0.48 1.73,0.74 2.66,0.74 2.22,0 4.2,-1.41 4.93,-3.5 0.32,-0.91 0.38,-1.89 0.17,-2.82 l 1.95,-0.43 c 0.28,1.29 0.2,2.64 -0.24,3.9 -1.02,2.89 -3.76,4.84 -6.82,4.84 z"
   id="path150"
   inkscape:connector-curvature="0"
   style="fill:#3f6d92" />
	<path
   class="st10"
   d="m 214.25,281.9 c -0.6,-0.39 -1.21,-0.76 -1.83,-1.13 l 1.02,-1.72 c 0.64,0.38 1.27,0.77 1.89,1.17 z m -3.82,-2.25 c -8.8,-4.72 -18.77,-6.98 -28.78,-6.47 l -0.1,-2 c 10.38,-0.53 20.72,1.81 29.83,6.7 z"
   id="path152"
   inkscape:connector-curvature="0"
   style="fill:#ffffff" />
	<path
   class="st9"
   d="m 200.14,294.47 c -9.1,-2.55 -17.61,-7.28 -24.62,-13.68 -2.28,-2.08 -3.09,-5.34 -2.06,-8.3 1.03,-2.97 3.73,-5.02 6.87,-5.23 2.74,-0.19 5.52,-0.18 8.27,0 l -0.14,2 c -2.65,-0.18 -5.35,-0.18 -8,0 -2.34,0.16 -4.35,1.69 -5.12,3.9 -0.77,2.2 -0.17,4.62 1.52,6.17 6.77,6.19 15.01,10.77 23.8,13.23 z"
   id="path154"
   inkscape:connector-curvature="0"
   style="fill:#3f6d92" />
	<path
   class="st9"
   d="m 205.34,295.68 c -0.94,-0.18 -1.9,-0.38 -2.83,-0.6 l 0.46,-1.95 c 0.9,0.21 1.82,0.41 2.73,0.58 z"
   id="path156"
   inkscape:connector-curvature="0"
   style="fill:#3f6d92" />
	<path
   class="st12"
   d="m 446.36,138.32 -11.26,10.32 -5.52,20.27 c -1.2,4.4 -6.13,6.6 -10.2,4.53 -4.07,-2.06 -5.23,-7.34 -2.38,-10.91 l 13.09,-16.44 1.67,-15.18 c 1.72,-15.68 9.45,-30.01 21.44,-40.05 2.38,-1.99 5.73,-2.34 8.5,-0.93 v 0 c 2.8,1.42 4.48,4.38 4.27,7.51 -1.03,15.58 -8.01,30.24 -19.61,40.88 z"
   id="path158"
   inkscape:connector-curvature="0"
   style="fill:#ff809f" />
	<path
   class="st10"
   d="m 450.76,101.65 -1.52,-1.3 c 0.17,-0.2 0.34,-0.39 0.51,-0.57 l 1.54,1.28 -0.05,0.05 c -0.17,0.18 -0.32,0.35 -0.48,0.54 z m 0.52,-0.6 -1.49,-1.33 c 1.52,-1.71 3.17,-3.34 4.88,-4.85 l 1.32,1.5 c -1.65,1.46 -3.24,3.04 -4.71,4.68 z"
   id="path160"
   inkscape:connector-curvature="0"
   style="fill:#ffffff" />
	<path
   class="st10"
   d="M 437.98,129.57 436,129.28 c 0.09,-0.6 0.18,-1.19 0.29,-1.79 l 1.97,0.35 c -0.11,0.58 -0.2,1.15 -0.28,1.73 z m 0.69,-3.8 -1.95,-0.43 c 1.84,-8.44 5.48,-16.15 10.81,-22.92 l 1.57,1.24 c -5.15,6.53 -8.66,13.97 -10.43,22.11 z"
   id="path162"
   inkscape:connector-curvature="0"
   style="fill:#ffffff" />
	<path
   class="st6"
   d="m 422.63,174.23 c -1.13,0 -2.22,-0.26 -3.25,-0.78 -1.94,-0.98 -3.32,-2.77 -3.78,-4.9 -0.21,-0.99 -0.22,-1.99 -0.02,-2.97 l 1.96,0.4 c -0.14,0.71 -0.14,1.43 0.02,2.14 0.33,1.54 1.33,2.83 2.73,3.54 0.74,0.38 1.53,0.57 2.34,0.57 2.34,0 4.41,-1.58 5.03,-3.84 l 5.67,-20.83 4.95,-4.53 1.35,1.47 -4.52,4.14 -5.52,20.27 c -0.86,3.14 -3.71,5.32 -6.96,5.32 z"
   id="path164"
   inkscape:connector-curvature="0"
   style="fill:#7760db" />
	<path
   class="st6"
   d="m 442.53,141.84 -1.35,-1.47 3.83,-3.51 c 9.98,-9.15 16.54,-21.55 18.48,-34.9 l 1.98,0.29 c -2,13.81 -8.79,26.62 -19.1,36.08 z"
   id="path166"
   inkscape:connector-curvature="0"
   style="fill:#7760db" />
	<path
   class="st6"
   d="m 465.8,99.45 -1.99,-0.2 c 0.06,-0.65 0.12,-1.29 0.16,-1.95 l 2,0.13 c -0.04,0.69 -0.1,1.36 -0.17,2.02 z"
   id="path168"
   inkscape:connector-curvature="0"
   style="fill:#7760db" />
	<path
   class="st5"
   d="m 576.73,359.57 -15.13,2.13 -16.03,13.59 c -3.48,2.95 -8.79,1.96 -10.98,-2.04 -2.19,-4 -0.15,-9.01 4.21,-10.34 l 20.1,-6.14 9.97,-11.57 c 10.3,-11.94 24.78,-19.38 40.35,-20.87 3.09,-0.29 6.05,1.32 7.54,4.05 v 0 c 1.49,2.72 1.25,6.09 -0.67,8.53 -9.66,12.3 -23.74,20.46 -39.36,22.66 z"
   id="path170"
   inkscape:connector-curvature="0"
   style="fill:#76b0df" />
	<path
   class="st10"
   d="m 570.52,352.5 -1.52,-1.3 1.41,-1.64 1.52,1.3 z m 2.68,-3.12 -1.52,-1.31 0.22,-0.26 c 6.67,-7.74 15.28,-13.54 24.9,-16.78 l 0.64,1.9 c -9.28,3.12 -17.59,8.72 -24.02,16.19 z m 26.47,-17.14 -0.56,-1.92 c 2.46,-0.71 5,-1.27 7.55,-1.64 l 0.29,1.98 c -2.45,0.35 -4.9,0.89 -7.28,1.58 z"
   id="path172"
   inkscape:connector-curvature="0"
   style="fill:#ffffff" />
	<path
   class="st9"
   d="m 540.93,377 c -2.64,0 -5.07,-1.44 -6.33,-3.75 -0.49,-0.9 -0.78,-1.87 -0.86,-2.89 l 1.99,-0.16 c 0.06,0.73 0.27,1.43 0.62,2.08 0.91,1.67 2.66,2.71 4.58,2.71 1.24,0 2.4,-0.43 3.35,-1.23 l 5.96,-5.05 1.29,1.53 -5.96,5.06 c -1.31,1.11 -2.92,1.7 -4.64,1.7 z"
   id="path174"
   inkscape:connector-curvature="0"
   style="fill:#3f6d92" />
	<path
   class="st9"
   d="m 553.54,368.54 -1.29,-1.53 8.5,-7.21 15.7,-2.21 c 12.45,-1.76 23.76,-7.28 32.73,-15.99 l 1.39,1.44 c -9.28,9 -20.98,14.71 -33.85,16.53 l -15.13,2.13 z"
   id="path176"
   inkscape:connector-curvature="0"
   style="fill:#3f6d92" />
	<path
   class="st9"
   d="m 612.31,341.3 -1.45,-1.38 c 1.28,-1.35 2.52,-2.77 3.67,-4.24 0.23,-0.29 0.43,-0.61 0.6,-0.95 l 1.79,0.9 c -0.23,0.45 -0.5,0.88 -0.82,1.28 -1.19,1.52 -2.47,3 -3.79,4.39 z"
   id="path178"
   inkscape:connector-curvature="0"
   style="fill:#3f6d92" />
	<g
   id="g184">
		<path
   class="st10"
   d="m 406.44,628.21 c 0,3.31 -2.69,6 -6,6 -3.31,0 -6,-2.69 -6,-6 0,-3.31 2.69,-6 6,-6 3.31,0 6,2.69 6,6 z"
   id="path180"
   inkscape:connector-curvature="0"
   style="fill:#ffffff" />
		<path
   class="st3"
   d="m 400.44,636.21 c -4.41,0 -8,-3.59 -8,-8 0,-4.41 3.59,-8 8,-8 4.41,0 8,3.59 8,8 0,4.41 -3.59,8 -8,8 z m 0,-12 c -2.21,0 -4,1.79 -4,4 0,2.21 1.79,4 4,4 2.21,0 4,-1.79 4,-4 0,-2.2 -1.8,-4 -4,-4 z"
   id="path182"
   inkscape:connector-curvature="0"
   style="fill:#40327a" />
	</g>
	<path
   class="st5"
   d="m 218.49,230.49 -1.67,-1.09 c 31.17,-47.72 81.05,-80.92 136.85,-91.06 l 0.36,1.97 c -55.27,10.04 -104.67,42.91 -135.54,90.18 z"
   id="path186"
   inkscape:connector-curvature="0"
   style="fill:#76b0df" />
	<path
   class="st5"
   d="M 590.48,290.67 C 576.12,235.83 539.18,188.83 489.14,161.72 l 0.95,-1.76 c 50.53,27.37 87.82,74.83 102.32,130.21 z"
   id="path188"
   inkscape:connector-curvature="0"
   style="fill:#76b0df" />
	<path
   class="st5"
   d="m 297.75,168.39 -0.95,-1.76 c 17.87,-9.59 37,-16.37 56.88,-20.15 l 0.37,1.96 c -19.67,3.75 -38.61,10.46 -56.3,19.95 z"
   id="path190"
   inkscape:connector-curvature="0"
   style="fill:#76b0df" />
	<path
   class="st5"
   d="m 286.24,175.08 -1.06,-1.69 c 2.88,-1.8 5.83,-3.55 8.79,-5.2 l 0.97,1.75 c -2.93,1.62 -5.85,3.36 -8.7,5.14 z"
   id="path192"
   inkscape:connector-curvature="0"
   style="fill:#76b0df" />
	<path
   class="st5"
   d="m 191.96,361.97 c -0.59,-6.26 -0.89,-12.63 -0.89,-18.95 0,-9.77 0.71,-19.58 2.12,-29.18 l 1.98,0.29 c -1.39,9.5 -2.1,19.22 -2.1,28.89 0,6.25 0.3,12.56 0.88,18.76 z"
   id="path194"
   inkscape:connector-curvature="0"
   style="fill:#76b0df" />
	<path
   class="st1"
   d="m 192.51,367.05 c -0.1,-0.83 -0.2,-1.67 -0.29,-2.51 l 1.99,-0.21 c 0.09,0.83 0.18,1.66 0.28,2.48 z"
   id="path196"
   inkscape:connector-curvature="0"
   style="fill:#ddd6ff" />
	<path
   class="st5"
   d="m 578.57,412.99 -1.87,-0.7 c 4.05,-10.82 7.16,-22.07 9.25,-33.43 l 1.97,0.36 c -2.12,11.47 -5.26,22.84 -9.35,33.77 z"
   id="path198"
   inkscape:connector-curvature="0"
   style="fill:#76b0df" />
	<path
   class="st5"
   d="m 580.73,285.71 c -5.25,-17.32 -12.87,-33.86 -22.67,-49.17 l 1.68,-1.08 c 9.9,15.46 17.6,32.17 22.9,49.67 z"
   id="path200"
   inkscape:connector-curvature="0"
   style="fill:#76b0df" />
	<path
   class="st5"
   d="m 556.31,233.85 c -1.6,-2.41 -3.28,-4.83 -5,-7.19 l 1.62,-1.18 c 1.74,2.38 3.43,4.82 5.04,7.26 z"
   id="path202"
   inkscape:connector-curvature="0"
   style="fill:#76b0df" />
	<g
   id="g226">
		<path
   class="st3"
   d="m 410.56,293.41 -3.41,1.25 -8.43,-23.05 3.41,-1.25 c 6.36,-2.33 13.41,0.95 15.74,7.31 v 0 c 2.32,6.36 -0.95,13.41 -7.31,15.74 z"
   id="path204"
   inkscape:connector-curvature="0"
   style="fill:#40327a" />
		<path
   class="st3"
   d="m 390.45,325.44 -8.54,3.12 c -4.71,1.72 -9.93,-0.7 -11.66,-5.42 l -3.42,-9.35 17.07,-6.24 z"
   id="path206"
   inkscape:connector-curvature="0"
   style="fill:#40327a" />
		<path
   class="st3"
   d="m 408.03,293.66 -9.27,3.39 -10.84,-29.66 8.29,-3.03 c 5.66,-2.07 11.92,0.84 13.99,6.5 l 3.71,10.15 c 1.87,5.11 -0.76,10.78 -5.88,12.65 z"
   id="path208"
   inkscape:connector-curvature="0"
   style="fill:#40327a" />
		<path
   class="st8"
   d="m 416.24,325.84 -30.31,11.08 -12.48,-34.13 c -3.8,-10.38 1.54,-21.87 11.92,-25.67 v 0 c 10.03,-3.67 21.17,1.18 25.31,11.02 l 10.8,25.63 c 2.03,4.79 -0.36,10.29 -5.24,12.07 z"
   id="path210"
   inkscape:connector-curvature="0"
   style="fill:#ffaa83" />
		<path
   class="st13"
   d="M 417.41,304.08 410.7,288.15 Z"
   id="path212"
   inkscape:connector-curvature="0"
   style="fill:none" />
		<path
   class="st3"
   d="m 373.1,277.98 2.56,-0.94 11.75,32.13 -19.63,7.18 -5.51,-15.06 c -3.45,-9.42 1.4,-19.86 10.83,-23.31 z"
   id="path214"
   inkscape:connector-curvature="0"
   style="fill:#40327a" />
		<path
   class="st8"
   d="m 378.33,316.13 5.12,-1.87 -1.87,-5.12 c -1.03,-2.83 -4.17,-4.28 -6.99,-3.25 v 0 c -2.83,1.03 -4.28,4.17 -3.25,6.99 v 0 c 1.03,2.83 4.16,4.28 6.99,3.25 z"
   id="path216"
   inkscape:connector-curvature="0"
   style="fill:#ffaa83" />
		<path
   class="st3"
   d="m 411.49,282 -19.44,7.11 c -7.92,2.9 -16.73,-1.19 -19.63,-9.12 -1.38,-3.77 0.56,-7.95 4.33,-9.33 3.77,-1.38 7.95,0.56 9.33,4.33 0.14,0.39 0.58,0.6 0.98,0.45 l 19.44,-7.11 z"
   id="path218"
   inkscape:connector-curvature="0"
   style="fill:#40327a" />
		<path
   class="st3"
   d="m 401.73,277.82 -9.67,3.54 c -3.77,1.38 -7.95,-0.56 -9.33,-4.33 -1.38,-3.77 0.56,-7.95 4.33,-9.33 l 9.67,-3.54 c 3.77,-1.38 7.95,0.56 9.33,4.33 1.38,3.78 -0.56,7.95 -4.33,9.33 z"
   id="path220"
   inkscape:connector-curvature="0"
   style="fill:#40327a" />
		<path
   class="st3"
   d="m 424.36,320.56 c 1.61,3.83 -0.3,8.23 -4.21,9.66 l -13.57,4.96 c -7.54,2.76 -15.89,-1.12 -18.65,-8.66 l -5.84,-15.99 5.12,-1.87 v 0 c 1.15,3.14 4.63,4.76 7.77,3.61 l 22.43,-8.2 z"
   id="path222"
   inkscape:connector-curvature="0"
   style="fill:#40327a" />
		<path
   class="st10"
   d="m 404.36,313.4 c 1.03,2.86 4.18,4.34 7.04,3.32 2.86,-1.03 4.34,-4.18 3.32,-7.04 z"
   id="path224"
   inkscape:connector-curvature="0"
   style="fill:#ffffff" />
	</g>
	<g
   id="g232">
		<path
   class="st5"
   d="M 398.08,744.23 H 230.2 Z"
   id="path228"
   inkscape:connector-curvature="0"
   style="fill:#76b0df" />
		<rect
   x="230.2"
   y="743.22998"
   class="st5"
   width="167.88"
   height="2"
   id="rect230"
   style="fill:#76b0df" />
	</g>
	<g
   id="g238">
		<path
   class="st5"
   d="M 280.48,759.47 H 211.2 Z"
   id="path234"
   inkscape:connector-curvature="0"
   style="fill:#76b0df" />
		<rect
   x="211.2"
   y="758.46997"
   class="st5"
   width="69.279999"
   height="2"
   id="rect236"
   style="fill:#76b0df" />
	</g>
	<g
   id="g244">
		<path
   class="st5"
   d="M 469.84,759.47 H 325.08 Z"
   id="path240"
   inkscape:connector-curvature="0"
   style="fill:#76b0df" />
		<rect
   x="325.07999"
   y="758.46997"
   class="st5"
   width="144.75999"
   height="2"
   id="rect242"
   style="fill:#76b0df" />
	</g>
	<g
   id="g250">
		<path
   class="st5"
   d="M 201.16,744.46 H 157.33 Z"
   id="path246"
   inkscape:connector-curvature="0"
   style="fill:#76b0df" />
		<rect
   x="157.32001"
   y="743.46002"
   class="st5"
   width="43.830002"
   height="2"
   id="rect248"
   style="fill:#76b0df" />
	</g>
	<g
   id="g256">
		<path
   class="st5"
   d="M 560.86,744.23 H 431.61 Z"
   id="path252"
   inkscape:connector-curvature="0"
   style="fill:#76b0df" />
		<rect
   x="431.60999"
   y="743.22998"
   class="st5"
   width="129.25"
   height="2"
   id="rect254"
   style="fill:#76b0df" />
	</g>
	<rect
   x="110.2"
   y="727.21997"
   class="st5"
   width="524.07001"
   height="2"
   id="rect258"
   style="fill:#76b0df" />
	<rect
   x="305.44"
   y="727.21997"
   class="st7"
   width="151.73"
   height="2"
   id="rect260"
   style="fill:#4a4aac" />
	<rect
   x="467.17001"
   y="727.21997"
   class="st7"
   width="22.5"
   height="2"
   id="rect262"
   style="fill:#4a4aac" />
	<rect
   x="267.23999"
   y="727.21997"
   class="st7"
   width="11.25"
   height="2"
   id="rect264"
   style="fill:#4a4aac" />
	
		<rect
   x="329.87"
   y="412.42999"
   transform="matrix(0.8227,-0.5685,0.5685,0.8227,-176.3069,261.5805)"
   class="st9"
   width="2.6300001"
   height="2"
   id="rect266"
   style="fill:#3f6d92" />
	
		<rect
   x="331.82999"
   y="400.81"
   transform="matrix(0.8227,-0.5685,0.5685,0.8227,-166.7172,269.0763)"
   class="st9"
   width="32.349998"
   height="2"
   id="rect268"
   style="fill:#3f6d92" />
	<path
   class="st9"
   d="m 455.49,432.8 c -4.04,0 -7.85,-1.78 -10.46,-4.9 l -0.01,-0.02 v 0 l -0.54,-0.63 -9.3,-11.12 1.54,-1.28 9.85,11.77 c 2.22,2.66 5.48,4.18 8.93,4.18 v 2 z"
   id="path270"
   inkscape:connector-curvature="0"
   style="fill:#3f6d92" />
	<rect
   x="439.91"
   y="485.64001"
   class="st9"
   width="50.310001"
   height="2"
   id="rect272"
   style="fill:#3f6d92" />
</g>
</svg>